{
	"asset":{
		"generator":"Khronos glTF Blender I/O v5.2.40",
		"version":"2.0"
	},
	"scene":0,
	"scenes":[
		{
			"name":"Scene",
			"nodes":[
				3
			]
		}
	],
	"nodes":[
		{
			"mesh":0,
			"name":"Boarded_Opening_Col-colonly"
		},
		{
			"mesh":1,
			"name":"Boarded_Opening_Nails"
		},
		{
			"mesh":2,
			"name":"Boarded_Opening_Planks"
		},
		{
			"children":[
				0,
				1,
				2
			],
			"name":"Boarded_Opening"
		}
	],
	"materials":[
		{
			"name":"Iron_Wrought",
			"normalTexture":{
				"index":0,
				"scale":1.399999976158142
			},
			"pbrMetallicRoughness":{
				"baseColorTexture":{
					"index":1
				},
				"metallicRoughnessTexture":{
					"index":2
				}
			}
		},
		{
			"name":"Wood_Worn",
			"normalTexture":{
				"index":3
			},
			"pbrMetallicRoughness":{
				"baseColorTexture":{
					"index":4
				},
				"metallicFactor":0,
				"metallicRoughnessTexture":{
					"index":5
				}
			}
		}
	],
	"meshes":[
		{
			"name":"Boarded_Opening_Col-colonly",
			"primitives":[
				{
					"attributes":{
						"POSITION":0,
						"NORMAL":1,
						"TEXCOORD_0":2
					},
					"indices":3
				}
			]
		},
		{
			"name":"Boarded_Opening_Nails",
			"primitives":[
				{
					"attributes":{
						"POSITION":4,
						"NORMAL":5,
						"TEXCOORD_0":6
					},
					"indices":7,
					"material":0
				}
			]
		},
		{
			"name":"Boarded_Opening_Planks",
			"primitives":[
				{
					"attributes":{
						"POSITION":8,
						"NORMAL":9,
						"TEXCOORD_0":10
					},
					"indices":11,
					"material":1
				}
			]
		}
	],
	"textures":[
		{
			"sampler":0,
			"source":0
		},
		{
			"sampler":0,
			"source":1
		},
		{
			"sampler":0,
			"source":2
		},
		{
			"sampler":0,
			"source":3
		},
		{
			"sampler":0,
			"source":4
		},
		{
			"sampler":0,
			"source":5
		}
	],
	"images":[
		{
			"mimeType":"image/jpeg",
			"name":"iron_normal",
			"uri":"../textures/iron_normal.jpg"
		},
		{
			"mimeType":"image/jpeg",
			"name":"iron_albedo",
			"uri":"../textures/iron_albedo.jpg"
		},
		{
			"mimeType":"image/png",
			"name":"iron_rough",
			"uri":"../textures/iron_rough.png"
		},
		{
			"mimeType":"image/jpeg",
			"name":"wood_worn_normal",
			"uri":"../textures/wood_worn_normal.jpg"
		},
		{
			"mimeType":"image/jpeg",
			"name":"wood_worn_albedo",
			"uri":"../textures/wood_worn_albedo.jpg"
		},
		{
			"mimeType":"image/png",
			"name":"wood_worn_rough",
			"uri":"../textures/wood_worn_rough.png"
		}
	],
	"accessors":[
		{
			"bufferView":0,
			"componentType":5126,
			"count":24,
			"max":[
				0.699999988079071,
				2.9000000953674316,
				0.15000000596046448
			],
			"min":[
				-0.699999988079071,
				0,
				-0.15000000596046448
			],
			"type":"VEC3"
		},
		{
			"bufferView":1,
			"componentType":5126,
			"count":24,
			"type":"VEC3"
		},
		{
			"bufferView":2,
			"componentType":5126,
			"count":24,
			"type":"VEC2"
		},
		{
			"bufferView":3,
			"componentType":5123,
			"count":36,
			"type":"SCALAR"
		},
		{
			"bufferView":4,
			"componentType":5126,
			"count":2112,
			"max":[
				0.9695574045181274,
				2.5968241691589355,
				0.2939999997615814
			],
			"min":[
				-0.9695574045181274,
				0.07623963057994843,
				0.2483913153409958
			],
			"type":"VEC3"
		},
		{
			"bufferView":5,
			"componentType":5126,
			"count":2112,
			"type":"VEC3"
		},
		{
			"bufferView":6,
			"componentType":5126,
			"count":2112,
			"type":"VEC2"
		},
		{
			"bufferView":7,
			"componentType":5123,
			"count":3696,
			"type":"SCALAR"
		},
		{
			"bufferView":8,
			"componentType":5126,
			"count":1106,
			"max":[
				1.0433130264282227,
				2.6397125720977783,
				0.28999999165534973
			],
			"min":[
				-1.043312907218933,
				0.03648369386792183,
				0.22039133310317993
			],
			"type":"VEC3"
		},
		{
			"bufferView":9,
			"componentType":5126,
			"count":1106,
			"type":"VEC3"
		},
		{
			"bufferView":10,
			"componentType":5126,
			"count":1106,
			"type":"VEC2"
		},
		{
			"bufferView":11,
			"componentType":5123,
			"count":3564,
			"type":"SCALAR"
		}
	],
	"bufferViews":[
		{
			"buffer":0,
			"byteLength":288,
			"byteOffset":0,
			"target":34962
		},
		{
			"buffer":0,
			"byteLength":288,
			"byteOffset":288,
			"target":34962
		},
		{
			"buffer":0,
			"byteLength":192,
			"byteOffset":576,
			"target":34962
		},
		{
			"buffer":0,
			"byteLength":72,
			"byteOffset":768,
			"target":34963
		},
		{
			"buffer":0,
			"byteLength":25344,
			"byteOffset":840,
			"target":34962
		},
		{
			"buffer":0,
			"byteLength":25344,
			"byteOffset":26184,
			"target":34962
		},
		{
			"buffer":0,
			"byteLength":16896,
			"byteOffset":51528,
			"target":34962
		},
		{
			"buffer":0,
			"byteLength":7392,
			"byteOffset":68424,
			"target":34963
		},
		{
			"buffer":0,
			"byteLength":13272,
			"byteOffset":75816,
			"target":34962
		},
		{
			"buffer":0,
			"byteLength":13272,
			"byteOffset":89088,
			"target":34962
		},
		{
			"buffer":0,
			"byteLength":8848,
			"byteOffset":102360,
			"target":34962
		},
		{
			"buffer":0,
			"byteLength":7128,
			"byteOffset":111208,
			"target":34963
		}
	],
	"samplers":[
		{
			"magFilter":9729,
			"minFilter":9987
		}
	],
	"buffers":[
		{
			"byteLength":118336,
			"uri":"Boarded_Opening.bin"
		}
	]
}
