{
	"asset":{
		"generator":"Khronos glTF Blender I/O v5.2.40",
		"version":"2.0"
	},
	"scene":0,
	"scenes":[
		{
			"name":"Scene",
			"nodes":[
				2
			]
		}
	],
	"nodes":[
		{
			"mesh":0,
			"name":"Ceiling_Vault_Ribs"
		},
		{
			"mesh":1,
			"name":"Ceiling_Vault_Shell"
		},
		{
			"children":[
				0,
				1
			],
			"name":"Ceiling_Vault"
		}
	],
	"materials":[
		{
			"name":"Stone_Carved",
			"normalTexture":{
				"index":0,
				"scale":1.5
			},
			"pbrMetallicRoughness":{
				"baseColorTexture":{
					"index":1
				},
				"metallicFactor":0,
				"metallicRoughnessTexture":{
					"index":2
				}
			}
		},
		{
			"name":"Stone_Rough",
			"normalTexture":{
				"index":3,
				"scale":2
			},
			"pbrMetallicRoughness":{
				"baseColorTexture":{
					"index":4
				},
				"metallicFactor":0,
				"metallicRoughnessTexture":{
					"index":5
				}
			}
		}
	],
	"meshes":[
		{
			"name":"Ceiling_Vault_Ribs",
			"primitives":[
				{
					"attributes":{
						"POSITION":0,
						"NORMAL":1,
						"TEXCOORD_0":2
					},
					"indices":3,
					"material":0
				}
			]
		},
		{
			"name":"Ceiling_Vault_Shell",
			"primitives":[
				{
					"attributes":{
						"POSITION":4,
						"NORMAL":5,
						"TEXCOORD_0":6
					},
					"indices":7,
					"material":1
				}
			]
		}
	],
	"textures":[
		{
			"sampler":0,
			"source":0
		},
		{
			"sampler":0,
			"source":1
		},
		{
			"sampler":0,
			"source":2
		},
		{
			"sampler":0,
			"source":3
		},
		{
			"sampler":0,
			"source":4
		},
		{
			"sampler":0,
			"source":5
		}
	],
	"images":[
		{
			"mimeType":"image/jpeg",
			"name":"stone_carved_normal",
			"uri":"../textures/stone_carved_normal.jpg"
		},
		{
			"mimeType":"image/jpeg",
			"name":"stone_carved_albedo",
			"uri":"../textures/stone_carved_albedo.jpg"
		},
		{
			"mimeType":"image/png",
			"name":"stone_carved_rough",
			"uri":"../textures/stone_carved_rough.png"
		},
		{
			"mimeType":"image/jpeg",
			"name":"stone_rough_normal",
			"uri":"../textures/stone_rough_normal.jpg"
		},
		{
			"mimeType":"image/jpeg",
			"name":"stone_rough_albedo",
			"uri":"../textures/stone_rough_albedo.jpg"
		},
		{
			"mimeType":"image/png",
			"name":"stone_rough_rough",
			"uri":"../textures/stone_rough_rough.png"
		}
	],
	"accessors":[
		{
			"bufferView":0,
			"componentType":5126,
			"count":1833,
			"max":[
				2.0617287158966064,
				0.019999992102384567,
				2.0617287158966064
			],
			"min":[
				-2.0617287158966064,
				-1.0110630989074707,
				-2.0617287158966064
			],
			"type":"VEC3"
		},
		{
			"bufferView":1,
			"componentType":5126,
			"count":1833,
			"type":"VEC3"
		},
		{
			"bufferView":2,
			"componentType":5126,
			"count":1833,
			"type":"VEC2"
		},
		{
			"bufferView":3,
			"componentType":5123,
			"count":6264,
			"type":"SCALAR"
		},
		{
			"bufferView":4,
			"componentType":5126,
			"count":625,
			"max":[
				2,
				0,
				2
			],
			"min":[
				-2,
				-0.8999999761581421,
				-2
			],
			"type":"VEC3"
		},
		{
			"bufferView":5,
			"componentType":5126,
			"count":625,
			"type":"VEC3"
		},
		{
			"bufferView":6,
			"componentType":5126,
			"count":625,
			"type":"VEC2"
		},
		{
			"bufferView":7,
			"componentType":5123,
			"count":3456,
			"type":"SCALAR"
		}
	],
	"bufferViews":[
		{
			"buffer":0,
			"byteLength":21996,
			"byteOffset":0,
			"target":34962
		},
		{
			"buffer":0,
			"byteLength":21996,
			"byteOffset":21996,
			"target":34962
		},
		{
			"buffer":0,
			"byteLength":14664,
			"byteOffset":43992,
			"target":34962
		},
		{
			"buffer":0,
			"byteLength":12528,
			"byteOffset":58656,
			"target":34963
		},
		{
			"buffer":0,
			"byteLength":7500,
			"byteOffset":71184,
			"target":34962
		},
		{
			"buffer":0,
			"byteLength":7500,
			"byteOffset":78684,
			"target":34962
		},
		{
			"buffer":0,
			"byteLength":5000,
			"byteOffset":86184,
			"target":34962
		},
		{
			"buffer":0,
			"byteLength":6912,
			"byteOffset":91184,
			"target":34963
		}
	],
	"samplers":[
		{
			"magFilter":9729,
			"minFilter":9987
		}
	],
	"buffers":[
		{
			"byteLength":98096,
			"uri":"Ceiling_Vault.bin"
		}
	]
}
