{
	"asset":{
		"generator":"Khronos glTF Blender I/O v5.2.40",
		"version":"2.0"
	},
	"scene":0,
	"scenes":[
		{
			"name":"Scene",
			"nodes":[
				2
			]
		}
	],
	"nodes":[
		{
			"mesh":0,
			"name":"Ceiling_Beams_Plaster"
		},
		{
			"mesh":1,
			"name":"Ceiling_Beams_Wood"
		},
		{
			"children":[
				0,
				1
			],
			"name":"Ceiling_Beams"
		}
	],
	"materials":[
		{
			"name":"Plaster_Old",
			"normalTexture":{
				"index":0,
				"scale":0.699999988079071
			},
			"pbrMetallicRoughness":{
				"baseColorTexture":{
					"index":1
				},
				"metallicFactor":0,
				"metallicRoughnessTexture":{
					"index":2
				}
			}
		},
		{
			"name":"Wood_Worn",
			"normalTexture":{
				"index":3
			},
			"pbrMetallicRoughness":{
				"baseColorTexture":{
					"index":4
				},
				"metallicFactor":0,
				"metallicRoughnessTexture":{
					"index":5
				}
			}
		}
	],
	"meshes":[
		{
			"name":"Ceiling_Beams_Plaster",
			"primitives":[
				{
					"attributes":{
						"POSITION":0,
						"NORMAL":1,
						"TEXCOORD_0":2
					},
					"indices":3,
					"material":0
				}
			]
		},
		{
			"name":"Ceiling_Beams_Wood",
			"primitives":[
				{
					"attributes":{
						"POSITION":4,
						"NORMAL":5,
						"TEXCOORD_0":6
					},
					"indices":7,
					"material":1
				}
			]
		}
	],
	"textures":[
		{
			"sampler":0,
			"source":0
		},
		{
			"sampler":0,
			"source":1
		},
		{
			"sampler":0,
			"source":2
		},
		{
			"sampler":0,
			"source":3
		},
		{
			"sampler":0,
			"source":4
		},
		{
			"sampler":0,
			"source":5
		}
	],
	"images":[
		{
			"mimeType":"image/jpeg",
			"name":"plaster_old_normal",
			"uri":"../textures/plaster_old_normal.jpg"
		},
		{
			"mimeType":"image/jpeg",
			"name":"plaster_old_albedo",
			"uri":"../textures/plaster_old_albedo.jpg"
		},
		{
			"mimeType":"image/png",
			"name":"plaster_old_rough",
			"uri":"../textures/plaster_old_rough.png"
		},
		{
			"mimeType":"image/jpeg",
			"name":"wood_worn_normal",
			"uri":"../textures/wood_worn_normal.jpg"
		},
		{
			"mimeType":"image/jpeg",
			"name":"wood_worn_albedo",
			"uri":"../textures/wood_worn_albedo.jpg"
		},
		{
			"mimeType":"image/png",
			"name":"wood_worn_rough",
			"uri":"../textures/wood_worn_rough.png"
		}
	],
	"accessors":[
		{
			"bufferView":0,
			"componentType":5126,
			"count":24,
			"max":[
				1,
				0.07999999821186066,
				1
			],
			"min":[
				-1,
				0,
				-1
			],
			"type":"VEC3"
		},
		{
			"bufferView":1,
			"componentType":5126,
			"count":24,
			"type":"VEC3"
		},
		{
			"bufferView":2,
			"componentType":5126,
			"count":24,
			"type":"VEC2"
		},
		{
			"bufferView":3,
			"componentType":5123,
			"count":36,
			"type":"SCALAR"
		},
		{
			"bufferView":4,
			"componentType":5126,
			"count":288,
			"max":[
				1,
				0,
				1
			],
			"min":[
				-1,
				-0.23999999463558197,
				-1
			],
			"type":"VEC3"
		},
		{
			"bufferView":5,
			"componentType":5126,
			"count":288,
			"type":"VEC3"
		},
		{
			"bufferView":6,
			"componentType":5126,
			"count":288,
			"type":"VEC2"
		},
		{
			"bufferView":7,
			"componentType":5123,
			"count":972,
			"type":"SCALAR"
		}
	],
	"bufferViews":[
		{
			"buffer":0,
			"byteLength":288,
			"byteOffset":0,
			"target":34962
		},
		{
			"buffer":0,
			"byteLength":288,
			"byteOffset":288,
			"target":34962
		},
		{
			"buffer":0,
			"byteLength":192,
			"byteOffset":576,
			"target":34962
		},
		{
			"buffer":0,
			"byteLength":72,
			"byteOffset":768,
			"target":34963
		},
		{
			"buffer":0,
			"byteLength":3456,
			"byteOffset":840,
			"target":34962
		},
		{
			"buffer":0,
			"byteLength":3456,
			"byteOffset":4296,
			"target":34962
		},
		{
			"buffer":0,
			"byteLength":2304,
			"byteOffset":7752,
			"target":34962
		},
		{
			"buffer":0,
			"byteLength":1944,
			"byteOffset":10056,
			"target":34963
		}
	],
	"samplers":[
		{
			"magFilter":9729,
			"minFilter":9987
		}
	],
	"buffers":[
		{
			"byteLength":12000,
			"uri":"Ceiling_Beams.bin"
		}
	]
}
