{
	"asset":{
		"generator":"Khronos glTF Blender I/O v5.2.40",
		"version":"2.0"
	},
	"scene":0,
	"scenes":[
		{
			"name":"Scene",
			"nodes":[
				2
			]
		}
	],
	"nodes":[
		{
			"mesh":0,
			"name":"Ceiling_Collapse_Plaster"
		},
		{
			"mesh":1,
			"name":"Ceiling_Collapse_Wood"
		},
		{
			"children":[
				0,
				1
			],
			"name":"Ceiling_Collapse"
		}
	],
	"materials":[
		{
			"name":"Plaster_Old",
			"normalTexture":{
				"index":0,
				"scale":0.699999988079071
			},
			"pbrMetallicRoughness":{
				"baseColorTexture":{
					"index":1
				},
				"metallicFactor":0,
				"metallicRoughnessTexture":{
					"index":2
				}
			}
		},
		{
			"name":"Stone_Rough",
			"normalTexture":{
				"index":3,
				"scale":2
			},
			"pbrMetallicRoughness":{
				"baseColorTexture":{
					"index":4
				},
				"metallicFactor":0,
				"metallicRoughnessTexture":{
					"index":5
				}
			}
		},
		{
			"name":"Void_Black",
			"pbrMetallicRoughness":{
				"baseColorFactor":[
					0,
					0,
					0,
					1
				],
				"metallicFactor":0
			}
		},
		{
			"name":"Wood_Worn",
			"normalTexture":{
				"index":6
			},
			"pbrMetallicRoughness":{
				"baseColorTexture":{
					"index":7
				},
				"metallicFactor":0,
				"metallicRoughnessTexture":{
					"index":8
				}
			}
		}
	],
	"meshes":[
		{
			"name":"Ceiling_Collapse_Plaster",
			"primitives":[
				{
					"attributes":{
						"POSITION":0,
						"NORMAL":1,
						"TEXCOORD_0":2
					},
					"indices":3,
					"material":0
				},
				{
					"attributes":{
						"POSITION":4,
						"NORMAL":5,
						"TEXCOORD_0":6
					},
					"indices":7,
					"material":1
				},
				{
					"attributes":{
						"POSITION":8,
						"NORMAL":9,
						"TEXCOORD_0":10
					},
					"indices":11,
					"material":2
				}
			]
		},
		{
			"name":"Ceiling_Collapse_Wood",
			"primitives":[
				{
					"attributes":{
						"POSITION":12,
						"NORMAL":13,
						"TEXCOORD_0":14
					},
					"indices":15,
					"material":3
				}
			]
		}
	],
	"textures":[
		{
			"sampler":0,
			"source":0
		},
		{
			"sampler":0,
			"source":1
		},
		{
			"sampler":0,
			"source":2
		},
		{
			"sampler":0,
			"source":3
		},
		{
			"sampler":0,
			"source":4
		},
		{
			"sampler":0,
			"source":5
		},
		{
			"sampler":0,
			"source":6
		},
		{
			"sampler":0,
			"source":7
		},
		{
			"sampler":0,
			"source":8
		}
	],
	"images":[
		{
			"mimeType":"image/jpeg",
			"name":"plaster_old_normal",
			"uri":"../textures/plaster_old_normal.jpg"
		},
		{
			"mimeType":"image/jpeg",
			"name":"plaster_old_albedo",
			"uri":"../textures/plaster_old_albedo.jpg"
		},
		{
			"mimeType":"image/png",
			"name":"plaster_old_rough",
			"uri":"../textures/plaster_old_rough.png"
		},
		{
			"mimeType":"image/jpeg",
			"name":"stone_rough_normal",
			"uri":"../textures/stone_rough_normal.jpg"
		},
		{
			"mimeType":"image/jpeg",
			"name":"stone_rough_albedo",
			"uri":"../textures/stone_rough_albedo.jpg"
		},
		{
			"mimeType":"image/png",
			"name":"stone_rough_rough",
			"uri":"../textures/stone_rough_rough.png"
		},
		{
			"mimeType":"image/jpeg",
			"name":"wood_worn_normal",
			"uri":"../textures/wood_worn_normal.jpg"
		},
		{
			"mimeType":"image/jpeg",
			"name":"wood_worn_albedo",
			"uri":"../textures/wood_worn_albedo.jpg"
		},
		{
			"mimeType":"image/png",
			"name":"wood_worn_rough",
			"uri":"../textures/wood_worn_rough.png"
		}
	],
	"accessors":[
		{
			"bufferView":0,
			"componentType":5126,
			"count":368,
			"max":[
				1,
				0.07999999821186066,
				1
			],
			"min":[
				-1,
				0,
				-1
			],
			"type":"VEC3"
		},
		{
			"bufferView":1,
			"componentType":5126,
			"count":368,
			"type":"VEC3"
		},
		{
			"bufferView":2,
			"componentType":5126,
			"count":368,
			"type":"VEC2"
		},
		{
			"bufferView":3,
			"componentType":5123,
			"count":960,
			"type":"SCALAR"
		},
		{
			"bufferView":4,
			"componentType":5126,
			"count":180,
			"max":[
				0.978638231754303,
				1.2000000476837158,
				0.917104959487915
			],
			"min":[
				-0.6811697483062744,
				0.07999999821186066,
				-0.7934913039207458
			],
			"type":"VEC3"
		},
		{
			"bufferView":5,
			"componentType":5126,
			"count":180,
			"type":"VEC3"
		},
		{
			"bufferView":6,
			"componentType":5126,
			"count":180,
			"type":"VEC2"
		},
		{
			"bufferView":7,
			"componentType":5123,
			"count":480,
			"type":"SCALAR"
		},
		{
			"bufferView":8,
			"componentType":5126,
			"count":40,
			"max":[
				0.978638231754303,
				1.2000000476837158,
				0.917104959487915
			],
			"min":[
				-0.6811697483062744,
				1.2000000476837158,
				-0.7934913039207458
			],
			"type":"VEC3"
		},
		{
			"bufferView":9,
			"componentType":5126,
			"count":40,
			"type":"VEC3"
		},
		{
			"bufferView":10,
			"componentType":5126,
			"count":40,
			"type":"VEC2"
		},
		{
			"bufferView":11,
			"componentType":5123,
			"count":114,
			"type":"SCALAR"
		},
		{
			"bufferView":12,
			"componentType":5126,
			"count":1458,
			"max":[
				1.0784789323806763,
				0.03246718645095825,
				0.8932296633720398
			],
			"min":[
				-1.0831761360168457,
				-0.8957535028457642,
				-0.7985509037971497
			],
			"type":"VEC3"
		},
		{
			"bufferView":13,
			"componentType":5126,
			"count":1458,
			"type":"VEC3"
		},
		{
			"bufferView":14,
			"componentType":5126,
			"count":1458,
			"type":"VEC2"
		},
		{
			"bufferView":15,
			"componentType":5123,
			"count":4548,
			"type":"SCALAR"
		}
	],
	"bufferViews":[
		{
			"buffer":0,
			"byteLength":4416,
			"byteOffset":0,
			"target":34962
		},
		{
			"buffer":0,
			"byteLength":4416,
			"byteOffset":4416,
			"target":34962
		},
		{
			"buffer":0,
			"byteLength":2944,
			"byteOffset":8832,
			"target":34962
		},
		{
			"buffer":0,
			"byteLength":1920,
			"byteOffset":11776,
			"target":34963
		},
		{
			"buffer":0,
			"byteLength":2160,
			"byteOffset":13696,
			"target":34962
		},
		{
			"buffer":0,
			"byteLength":2160,
			"byteOffset":15856,
			"target":34962
		},
		{
			"buffer":0,
			"byteLength":1440,
			"byteOffset":18016,
			"target":34962
		},
		{
			"buffer":0,
			"byteLength":960,
			"byteOffset":19456,
			"target":34963
		},
		{
			"buffer":0,
			"byteLength":480,
			"byteOffset":20416,
			"target":34962
		},
		{
			"buffer":0,
			"byteLength":480,
			"byteOffset":20896,
			"target":34962
		},
		{
			"buffer":0,
			"byteLength":320,
			"byteOffset":21376,
			"target":34962
		},
		{
			"buffer":0,
			"byteLength":228,
			"byteOffset":21696,
			"target":34963
		},
		{
			"buffer":0,
			"byteLength":17496,
			"byteOffset":21924,
			"target":34962
		},
		{
			"buffer":0,
			"byteLength":17496,
			"byteOffset":39420,
			"target":34962
		},
		{
			"buffer":0,
			"byteLength":11664,
			"byteOffset":56916,
			"target":34962
		},
		{
			"buffer":0,
			"byteLength":9096,
			"byteOffset":68580,
			"target":34963
		}
	],
	"samplers":[
		{
			"magFilter":9729,
			"minFilter":9987
		}
	],
	"buffers":[
		{
			"byteLength":77676,
			"uri":"Ceiling_Collapse.bin"
		}
	]
}
