{
	"asset":{
		"generator":"Khronos glTF Blender I/O v5.2.40",
		"version":"2.0"
	},
	"scene":0,
	"scenes":[
		{
			"name":"Scene",
			"nodes":[
				2
			]
		}
	],
	"nodes":[
		{
			"mesh":0,
			"name":"Column_Gothic_Body"
		},
		{
			"mesh":1,
			"name":"Column_Gothic_Col-colonly"
		},
		{
			"children":[
				0,
				1
			],
			"name":"Column_Gothic"
		}
	],
	"materials":[
		{
			"name":"Stone_Carved",
			"normalTexture":{
				"index":0,
				"scale":1.5
			},
			"pbrMetallicRoughness":{
				"baseColorTexture":{
					"index":1
				},
				"metallicFactor":0,
				"metallicRoughnessTexture":{
					"index":2
				}
			}
		}
	],
	"meshes":[
		{
			"name":"Column_Gothic_Body",
			"primitives":[
				{
					"attributes":{
						"POSITION":0,
						"NORMAL":1,
						"TEXCOORD_0":2
					},
					"indices":3,
					"material":0
				}
			]
		},
		{
			"name":"Column_Gothic_Col-colonly",
			"primitives":[
				{
					"attributes":{
						"POSITION":4,
						"NORMAL":5,
						"TEXCOORD_0":6
					},
					"indices":7
				}
			]
		}
	],
	"textures":[
		{
			"sampler":0,
			"source":0
		},
		{
			"sampler":0,
			"source":1
		},
		{
			"sampler":0,
			"source":2
		}
	],
	"images":[
		{
			"mimeType":"image/jpeg",
			"name":"stone_carved_normal",
			"uri":"../textures/stone_carved_normal.jpg"
		},
		{
			"mimeType":"image/jpeg",
			"name":"stone_carved_albedo",
			"uri":"../textures/stone_carved_albedo.jpg"
		},
		{
			"mimeType":"image/png",
			"name":"stone_carved_rough",
			"uri":"../textures/stone_carved_rough.png"
		}
	],
	"accessors":[
		{
			"bufferView":0,
			"componentType":5126,
			"count":7550,
			"max":[
				0.4099999964237213,
				3.5,
				0.4099999964237213
			],
			"min":[
				-0.4099999964237213,
				0,
				-0.4099999964237213
			],
			"type":"VEC3"
		},
		{
			"bufferView":1,
			"componentType":5126,
			"count":7550,
			"type":"VEC3"
		},
		{
			"bufferView":2,
			"componentType":5126,
			"count":7550,
			"type":"VEC2"
		},
		{
			"bufferView":3,
			"componentType":5123,
			"count":27024,
			"type":"SCALAR"
		},
		{
			"bufferView":4,
			"componentType":5126,
			"count":24,
			"max":[
				0.30000001192092896,
				3.5,
				0.30000001192092896
			],
			"min":[
				-0.30000001192092896,
				0,
				-0.30000001192092896
			],
			"type":"VEC3"
		},
		{
			"bufferView":5,
			"componentType":5126,
			"count":24,
			"type":"VEC3"
		},
		{
			"bufferView":6,
			"componentType":5126,
			"count":24,
			"type":"VEC2"
		},
		{
			"bufferView":7,
			"componentType":5123,
			"count":36,
			"type":"SCALAR"
		}
	],
	"bufferViews":[
		{
			"buffer":0,
			"byteLength":90600,
			"byteOffset":0,
			"target":34962
		},
		{
			"buffer":0,
			"byteLength":90600,
			"byteOffset":90600,
			"target":34962
		},
		{
			"buffer":0,
			"byteLength":60400,
			"byteOffset":181200,
			"target":34962
		},
		{
			"buffer":0,
			"byteLength":54048,
			"byteOffset":241600,
			"target":34963
		},
		{
			"buffer":0,
			"byteLength":288,
			"byteOffset":295648,
			"target":34962
		},
		{
			"buffer":0,
			"byteLength":288,
			"byteOffset":295936,
			"target":34962
		},
		{
			"buffer":0,
			"byteLength":192,
			"byteOffset":296224,
			"target":34962
		},
		{
			"buffer":0,
			"byteLength":72,
			"byteOffset":296416,
			"target":34963
		}
	],
	"samplers":[
		{
			"magFilter":9729,
			"minFilter":9987
		}
	],
	"buffers":[
		{
			"byteLength":296488,
			"uri":"Column_Gothic.bin"
		}
	]
}
