{
	"asset":{
		"generator":"Khronos glTF Blender I/O v5.2.40",
		"version":"2.0"
	},
	"scene":0,
	"scenes":[
		{
			"name":"Scene",
			"nodes":[
				7
			]
		}
	],
	"nodes":[
		{
			"mesh":0,
			"name":"Door_Gothic_Frame"
		},
		{
			"mesh":1,
			"name":"Door_Gothic_LeafL_Col-colonly"
		},
		{
			"mesh":2,
			"name":"Door_Gothic_LeafL_Iron"
		},
		{
			"children":[
				1,
				2
			],
			"mesh":3,
			"name":"Door_Gothic_LeafL",
			"translation":[
				-0.8999999761581421,
				0,
				0
			]
		},
		{
			"mesh":4,
			"name":"Door_Gothic_LeafR_Col-colonly"
		},
		{
			"mesh":5,
			"name":"Door_Gothic_LeafR_Iron"
		},
		{
			"children":[
				4,
				5
			],
			"mesh":6,
			"name":"Door_Gothic_LeafR",
			"translation":[
				0.8999999761581421,
				0,
				0
			]
		},
		{
			"children":[
				0,
				3,
				6
			],
			"name":"Door_Gothic"
		}
	],
	"materials":[
		{
			"name":"Stone_Carved",
			"normalTexture":{
				"index":0,
				"scale":1.5
			},
			"pbrMetallicRoughness":{
				"baseColorTexture":{
					"index":1
				},
				"metallicFactor":0,
				"metallicRoughnessTexture":{
					"index":2
				}
			}
		},
		{
			"name":"Iron_Wrought",
			"normalTexture":{
				"index":3,
				"scale":1.399999976158142
			},
			"pbrMetallicRoughness":{
				"baseColorTexture":{
					"index":4
				},
				"metallicRoughnessTexture":{
					"index":5
				}
			}
		},
		{
			"name":"Wood_Door",
			"normalTexture":{
				"index":6
			},
			"pbrMetallicRoughness":{
				"baseColorTexture":{
					"index":7
				},
				"metallicFactor":0,
				"metallicRoughnessTexture":{
					"index":8
				}
			}
		}
	],
	"meshes":[
		{
			"name":"Door_Gothic_Frame",
			"primitives":[
				{
					"attributes":{
						"POSITION":0,
						"NORMAL":1,
						"TEXCOORD_0":2
					},
					"indices":3,
					"material":0
				}
			]
		},
		{
			"name":"Door_Gothic_LeafL_Col-colonly",
			"primitives":[
				{
					"attributes":{
						"POSITION":4,
						"NORMAL":5,
						"TEXCOORD_0":6
					},
					"indices":7
				}
			]
		},
		{
			"name":"Door_Gothic_LeafL_Iron",
			"primitives":[
				{
					"attributes":{
						"POSITION":8,
						"NORMAL":9,
						"TEXCOORD_0":10
					},
					"indices":11,
					"material":1
				}
			]
		},
		{
			"name":"Door_Gothic_LeafL",
			"primitives":[
				{
					"attributes":{
						"POSITION":12,
						"NORMAL":13,
						"TEXCOORD_0":14
					},
					"indices":15,
					"material":2
				}
			]
		},
		{
			"name":"Door_Gothic_LeafR_Col-colonly",
			"primitives":[
				{
					"attributes":{
						"POSITION":16,
						"NORMAL":17,
						"TEXCOORD_0":18
					},
					"indices":7
				}
			]
		},
		{
			"name":"Door_Gothic_LeafR_Iron",
			"primitives":[
				{
					"attributes":{
						"POSITION":19,
						"NORMAL":20,
						"TEXCOORD_0":21
					},
					"indices":22,
					"material":1
				}
			]
		},
		{
			"name":"Door_Gothic_LeafR",
			"primitives":[
				{
					"attributes":{
						"POSITION":23,
						"NORMAL":24,
						"TEXCOORD_0":25
					},
					"indices":26,
					"material":2
				}
			]
		}
	],
	"textures":[
		{
			"sampler":0,
			"source":0
		},
		{
			"sampler":0,
			"source":1
		},
		{
			"sampler":0,
			"source":2
		},
		{
			"sampler":0,
			"source":3
		},
		{
			"sampler":0,
			"source":4
		},
		{
			"sampler":0,
			"source":5
		},
		{
			"sampler":0,
			"source":6
		},
		{
			"sampler":0,
			"source":7
		},
		{
			"sampler":0,
			"source":8
		}
	],
	"images":[
		{
			"mimeType":"image/jpeg",
			"name":"stone_carved_normal",
			"uri":"../textures/stone_carved_normal.jpg"
		},
		{
			"mimeType":"image/jpeg",
			"name":"stone_carved_albedo",
			"uri":"../textures/stone_carved_albedo.jpg"
		},
		{
			"mimeType":"image/png",
			"name":"stone_carved_rough",
			"uri":"../textures/stone_carved_rough.png"
		},
		{
			"mimeType":"image/jpeg",
			"name":"iron_normal",
			"uri":"../textures/iron_normal.jpg"
		},
		{
			"mimeType":"image/jpeg",
			"name":"iron_albedo",
			"uri":"../textures/iron_albedo.jpg"
		},
		{
			"mimeType":"image/png",
			"name":"iron_rough",
			"uri":"../textures/iron_rough.png"
		},
		{
			"mimeType":"image/jpeg",
			"name":"wood_door_normal",
			"uri":"../textures/wood_door_normal.jpg"
		},
		{
			"mimeType":"image/jpeg",
			"name":"wood_door_albedo",
			"uri":"../textures/wood_door_albedo.jpg"
		},
		{
			"mimeType":"image/png",
			"name":"wood_door_rough",
			"uri":"../textures/wood_door_rough.png"
		}
	],
	"accessors":[
		{
			"bufferView":0,
			"componentType":5126,
			"count":6108,
			"max":[
				1.25,
				3.9708640575408936,
				0.30000001192092896
			],
			"min":[
				-1.25,
				-0.11999999731779099,
				-0.20000000298023224
			],
			"type":"VEC3"
		},
		{
			"bufferView":1,
			"componentType":5126,
			"count":6108,
			"type":"VEC3"
		},
		{
			"bufferView":2,
			"componentType":5126,
			"count":6108,
			"type":"VEC2"
		},
		{
			"bufferView":3,
			"componentType":5123,
			"count":21510,
			"type":"SCALAR"
		},
		{
			"bufferView":4,
			"componentType":5126,
			"count":24,
			"max":[
				0.8899999856948853,
				2.5999999046325684,
				0.04500000178813934
			],
			"min":[
				0.009999990463256836,
				0,
				-0.04500000178813934
			],
			"type":"VEC3"
		},
		{
			"bufferView":5,
			"componentType":5126,
			"count":24,
			"type":"VEC3"
		},
		{
			"bufferView":6,
			"componentType":5126,
			"count":24,
			"type":"VEC2"
		},
		{
			"bufferView":7,
			"componentType":5123,
			"count":36,
			"type":"SCALAR"
		},
		{
			"bufferView":8,
			"componentType":5126,
			"count":14223,
			"max":[
				0.8559999465942383,
				2.0999999046325684,
				0.08600001037120819
			],
			"min":[
				-0.02499997615814209,
				0.3499999940395355,
				0.030000001192092896
			],
			"type":"VEC3"
		},
		{
			"bufferView":9,
			"componentType":5126,
			"count":14223,
			"type":"VEC3"
		},
		{
			"bufferView":10,
			"componentType":5126,
			"count":14223,
			"type":"VEC2"
		},
		{
			"bufferView":11,
			"componentType":5123,
			"count":44976,
			"type":"SCALAR"
		},
		{
			"bufferView":12,
			"componentType":5126,
			"count":296,
			"max":[
				0.8959999680519104,
				3.5828464031219482,
				0.04500000178813934
			],
			"min":[
				0.006039978936314583,
				0,
				-0.04500000178813934
			],
			"type":"VEC3"
		},
		{
			"bufferView":13,
			"componentType":5126,
			"count":296,
			"type":"VEC3"
		},
		{
			"bufferView":14,
			"componentType":5126,
			"count":296,
			"type":"VEC2"
		},
		{
			"bufferView":15,
			"componentType":5123,
			"count":996,
			"type":"SCALAR"
		},
		{
			"bufferView":16,
			"componentType":5126,
			"count":24,
			"max":[
				-0.009999990463256836,
				2.5999999046325684,
				0.04500000178813934
			],
			"min":[
				-0.8899999856948853,
				0,
				-0.04500000178813934
			],
			"type":"VEC3"
		},
		{
			"bufferView":17,
			"componentType":5126,
			"count":24,
			"type":"VEC3"
		},
		{
			"bufferView":18,
			"componentType":5126,
			"count":24,
			"type":"VEC2"
		},
		{
			"bufferView":19,
			"componentType":5126,
			"count":14300,
			"max":[
				0.02499997615814209,
				2.0999999046325684,
				0.08600001037120819
			],
			"min":[
				-0.8559999465942383,
				0.3499999940395355,
				0.030000001192092896
			],
			"type":"VEC3"
		},
		{
			"bufferView":20,
			"componentType":5126,
			"count":14300,
			"type":"VEC3"
		},
		{
			"bufferView":21,
			"componentType":5126,
			"count":14300,
			"type":"VEC2"
		},
		{
			"bufferView":22,
			"componentType":5123,
			"count":45300,
			"type":"SCALAR"
		},
		{
			"bufferView":23,
			"componentType":5126,
			"count":296,
			"max":[
				-0.006039978936314583,
				3.5828464031219482,
				0.04500000178813934
			],
			"min":[
				-0.8959999680519104,
				0,
				-0.04500000178813934
			],
			"type":"VEC3"
		},
		{
			"bufferView":24,
			"componentType":5126,
			"count":296,
			"type":"VEC3"
		},
		{
			"bufferView":25,
			"componentType":5126,
			"count":296,
			"type":"VEC2"
		},
		{
			"bufferView":26,
			"componentType":5123,
			"count":996,
			"type":"SCALAR"
		}
	],
	"bufferViews":[
		{
			"buffer":0,
			"byteLength":73296,
			"byteOffset":0,
			"target":34962
		},
		{
			"buffer":0,
			"byteLength":73296,
			"byteOffset":73296,
			"target":34962
		},
		{
			"buffer":0,
			"byteLength":48864,
			"byteOffset":146592,
			"target":34962
		},
		{
			"buffer":0,
			"byteLength":43020,
			"byteOffset":195456,
			"target":34963
		},
		{
			"buffer":0,
			"byteLength":288,
			"byteOffset":238476,
			"target":34962
		},
		{
			"buffer":0,
			"byteLength":288,
			"byteOffset":238764,
			"target":34962
		},
		{
			"buffer":0,
			"byteLength":192,
			"byteOffset":239052,
			"target":34962
		},
		{
			"buffer":0,
			"byteLength":72,
			"byteOffset":239244,
			"target":34963
		},
		{
			"buffer":0,
			"byteLength":170676,
			"byteOffset":239316,
			"target":34962
		},
		{
			"buffer":0,
			"byteLength":170676,
			"byteOffset":409992,
			"target":34962
		},
		{
			"buffer":0,
			"byteLength":113784,
			"byteOffset":580668,
			"target":34962
		},
		{
			"buffer":0,
			"byteLength":89952,
			"byteOffset":694452,
			"target":34963
		},
		{
			"buffer":0,
			"byteLength":3552,
			"byteOffset":784404,
			"target":34962
		},
		{
			"buffer":0,
			"byteLength":3552,
			"byteOffset":787956,
			"target":34962
		},
		{
			"buffer":0,
			"byteLength":2368,
			"byteOffset":791508,
			"target":34962
		},
		{
			"buffer":0,
			"byteLength":1992,
			"byteOffset":793876,
			"target":34963
		},
		{
			"buffer":0,
			"byteLength":288,
			"byteOffset":795868,
			"target":34962
		},
		{
			"buffer":0,
			"byteLength":288,
			"byteOffset":796156,
			"target":34962
		},
		{
			"buffer":0,
			"byteLength":192,
			"byteOffset":796444,
			"target":34962
		},
		{
			"buffer":0,
			"byteLength":171600,
			"byteOffset":796636,
			"target":34962
		},
		{
			"buffer":0,
			"byteLength":171600,
			"byteOffset":968236,
			"target":34962
		},
		{
			"buffer":0,
			"byteLength":114400,
			"byteOffset":1139836,
			"target":34962
		},
		{
			"buffer":0,
			"byteLength":90600,
			"byteOffset":1254236,
			"target":34963
		},
		{
			"buffer":0,
			"byteLength":3552,
			"byteOffset":1344836,
			"target":34962
		},
		{
			"buffer":0,
			"byteLength":3552,
			"byteOffset":1348388,
			"target":34962
		},
		{
			"buffer":0,
			"byteLength":2368,
			"byteOffset":1351940,
			"target":34962
		},
		{
			"buffer":0,
			"byteLength":1992,
			"byteOffset":1354308,
			"target":34963
		}
	],
	"samplers":[
		{
			"magFilter":9729,
			"minFilter":9987
		}
	],
	"buffers":[
		{
			"byteLength":1356300,
			"uri":"Door_Gothic.bin"
		}
	]
}
