{
	"asset":{
		"generator":"Khronos glTF Blender I/O v5.2.40",
		"version":"2.0"
	},
	"scene":0,
	"scenes":[
		{
			"name":"Scene",
			"nodes":[
				5
			]
		}
	],
	"nodes":[
		{
			"mesh":0,
			"name":"Door_Locked_Massive_Col-colonly"
		},
		{
			"mesh":1,
			"name":"Door_Locked_Massive_Frame"
		},
		{
			"mesh":2,
			"name":"Door_Locked_Massive_Iron"
		},
		{
			"mesh":3,
			"name":"Door_Locked_Massive_Leaves"
		},
		{
			"mesh":4,
			"name":"Door_Locked_Massive_Wall"
		},
		{
			"children":[
				0,
				1,
				2,
				3,
				4
			],
			"name":"Door_Locked_Massive"
		}
	],
	"materials":[
		{
			"name":"Stone_Carved",
			"normalTexture":{
				"index":0,
				"scale":1.5
			},
			"pbrMetallicRoughness":{
				"baseColorTexture":{
					"index":1
				},
				"metallicFactor":0,
				"metallicRoughnessTexture":{
					"index":2
				}
			}
		},
		{
			"name":"Iron_Wrought",
			"normalTexture":{
				"index":3,
				"scale":1.399999976158142
			},
			"pbrMetallicRoughness":{
				"baseColorTexture":{
					"index":4
				},
				"metallicRoughnessTexture":{
					"index":5
				}
			}
		},
		{
			"name":"Soot",
			"pbrMetallicRoughness":{
				"baseColorFactor":[
					0.00022559522767551243,
					0.0001829220273066312,
					0.00014507731248158962,
					1
				],
				"metallicFactor":0,
				"roughnessFactor":0.949999988079071
			}
		},
		{
			"name":"Wood_Door",
			"normalTexture":{
				"index":6
			},
			"pbrMetallicRoughness":{
				"baseColorTexture":{
					"index":7
				},
				"metallicFactor":0,
				"metallicRoughnessTexture":{
					"index":8
				}
			}
		},
		{
			"name":"Stone_Rough",
			"normalTexture":{
				"index":9,
				"scale":2
			},
			"pbrMetallicRoughness":{
				"baseColorTexture":{
					"index":10
				},
				"metallicFactor":0,
				"metallicRoughnessTexture":{
					"index":11
				}
			}
		}
	],
	"meshes":[
		{
			"name":"Door_Locked_Massive_Col-colonly",
			"primitives":[
				{
					"attributes":{
						"POSITION":0,
						"NORMAL":1,
						"TEXCOORD_0":2
					},
					"indices":3
				}
			]
		},
		{
			"name":"Door_Locked_Massive_Frame",
			"primitives":[
				{
					"attributes":{
						"POSITION":4,
						"NORMAL":5,
						"TEXCOORD_0":6
					},
					"indices":7,
					"material":0
				}
			]
		},
		{
			"name":"Door_Locked_Massive_Iron",
			"primitives":[
				{
					"attributes":{
						"POSITION":8,
						"NORMAL":9,
						"TEXCOORD_0":10
					},
					"indices":11,
					"material":1
				},
				{
					"attributes":{
						"POSITION":12,
						"NORMAL":13,
						"TEXCOORD_0":14
					},
					"indices":15,
					"material":2
				}
			]
		},
		{
			"name":"Door_Locked_Massive_Leaves",
			"primitives":[
				{
					"attributes":{
						"POSITION":16,
						"NORMAL":17,
						"TEXCOORD_0":18
					},
					"indices":19,
					"material":3
				}
			]
		},
		{
			"name":"Door_Locked_Massive_Wall",
			"primitives":[
				{
					"attributes":{
						"POSITION":20,
						"NORMAL":21,
						"TEXCOORD_0":22
					},
					"indices":23,
					"material":4
				}
			]
		}
	],
	"textures":[
		{
			"sampler":0,
			"source":0
		},
		{
			"sampler":0,
			"source":1
		},
		{
			"sampler":0,
			"source":2
		},
		{
			"sampler":0,
			"source":3
		},
		{
			"sampler":0,
			"source":4
		},
		{
			"sampler":0,
			"source":5
		},
		{
			"sampler":0,
			"source":6
		},
		{
			"sampler":0,
			"source":7
		},
		{
			"sampler":0,
			"source":8
		},
		{
			"sampler":0,
			"source":9
		},
		{
			"sampler":0,
			"source":10
		},
		{
			"sampler":0,
			"source":11
		}
	],
	"images":[
		{
			"mimeType":"image/jpeg",
			"name":"stone_carved_normal",
			"uri":"../textures/stone_carved_normal.jpg"
		},
		{
			"mimeType":"image/jpeg",
			"name":"stone_carved_albedo",
			"uri":"../textures/stone_carved_albedo.jpg"
		},
		{
			"mimeType":"image/png",
			"name":"stone_carved_rough",
			"uri":"../textures/stone_carved_rough.png"
		},
		{
			"mimeType":"image/jpeg",
			"name":"iron_normal",
			"uri":"../textures/iron_normal.jpg"
		},
		{
			"mimeType":"image/jpeg",
			"name":"iron_albedo",
			"uri":"../textures/iron_albedo.jpg"
		},
		{
			"mimeType":"image/png",
			"name":"iron_rough",
			"uri":"../textures/iron_rough.png"
		},
		{
			"mimeType":"image/jpeg",
			"name":"wood_door_normal",
			"uri":"../textures/wood_door_normal.jpg"
		},
		{
			"mimeType":"image/jpeg",
			"name":"wood_door_albedo",
			"uri":"../textures/wood_door_albedo.jpg"
		},
		{
			"mimeType":"image/png",
			"name":"wood_door_rough",
			"uri":"../textures/wood_door_rough.png"
		},
		{
			"mimeType":"image/jpeg",
			"name":"stone_rough_normal",
			"uri":"../textures/stone_rough_normal.jpg"
		},
		{
			"mimeType":"image/jpeg",
			"name":"stone_rough_albedo",
			"uri":"../textures/stone_rough_albedo.jpg"
		},
		{
			"mimeType":"image/png",
			"name":"stone_rough_rough",
			"uri":"../textures/stone_rough_rough.png"
		}
	],
	"accessors":[
		{
			"bufferView":0,
			"componentType":5126,
			"count":24,
			"max":[
				2,
				3.200000047683716,
				0.25
			],
			"min":[
				-2,
				0,
				-0.25
			],
			"type":"VEC3"
		},
		{
			"bufferView":1,
			"componentType":5126,
			"count":24,
			"type":"VEC3"
		},
		{
			"bufferView":2,
			"componentType":5126,
			"count":24,
			"type":"VEC2"
		},
		{
			"bufferView":3,
			"componentType":5123,
			"count":36,
			"type":"SCALAR"
		},
		{
			"bufferView":4,
			"componentType":5126,
			"count":5830,
			"max":[
				1.2999999523162842,
				3.1964240074157715,
				0.33435407280921936
			],
			"min":[
				-1.2999999523162842,
				-0.11999999731779099,
				-0.25
			],
			"type":"VEC3"
		},
		{
			"bufferView":5,
			"componentType":5126,
			"count":5830,
			"type":"VEC3"
		},
		{
			"bufferView":6,
			"componentType":5126,
			"count":5830,
			"type":"VEC2"
		},
		{
			"bufferView":7,
			"componentType":5123,
			"count":20532,
			"type":"SCALAR"
		},
		{
			"bufferView":8,
			"componentType":5126,
			"count":51577,
			"max":[
				1.1549999713897705,
				2.745227336883545,
				0.3390922248363495
			],
			"min":[
				-1.1549999713897705,
				0.029999971389770508,
				0.08500000089406967
			],
			"type":"VEC3"
		},
		{
			"bufferView":9,
			"componentType":5126,
			"count":51577,
			"type":"VEC3"
		},
		{
			"bufferView":10,
			"componentType":5126,
			"count":51577,
			"type":"VEC2"
		},
		{
			"bufferView":11,
			"componentType":5123,
			"count":144636,
			"type":"SCALAR"
		},
		{
			"bufferView":12,
			"componentType":5126,
			"count":97,
			"max":[
				0.006000000052154064,
				0.8949999809265137,
				0.18900001049041748
			],
			"min":[
				-0.006000000052154064,
				0.8650000095367432,
				0.1850000023841858
			],
			"type":"VEC3"
		},
		{
			"bufferView":13,
			"componentType":5126,
			"count":97,
			"type":"VEC3"
		},
		{
			"bufferView":14,
			"componentType":5126,
			"count":97,
			"type":"VEC2"
		},
		{
			"bufferView":15,
			"componentType":5123,
			"count":324,
			"type":"SCALAR"
		},
		{
			"bufferView":16,
			"componentType":5126,
			"count":572,
			"max":[
				0.949999988079071,
				2.8446712493896484,
				0.10000000149011612
			],
			"min":[
				-0.949999988079071,
				0.029999999329447746,
				-0.05999999865889549
			],
			"type":"VEC3"
		},
		{
			"bufferView":17,
			"componentType":5126,
			"count":572,
			"type":"VEC3"
		},
		{
			"bufferView":18,
			"componentType":5126,
			"count":572,
			"type":"VEC2"
		},
		{
			"bufferView":19,
			"componentType":5123,
			"count":1920,
			"type":"SCALAR"
		},
		{
			"bufferView":20,
			"componentType":5126,
			"count":224,
			"max":[
				2,
				3.200000047683716,
				0.15000000596046448
			],
			"min":[
				-2,
				0,
				-0.15000000596046448
			],
			"type":"VEC3"
		},
		{
			"bufferView":21,
			"componentType":5126,
			"count":224,
			"type":"VEC3"
		},
		{
			"bufferView":22,
			"componentType":5126,
			"count":224,
			"type":"VEC2"
		},
		{
			"bufferView":23,
			"componentType":5123,
			"count":576,
			"type":"SCALAR"
		}
	],
	"bufferViews":[
		{
			"buffer":0,
			"byteLength":288,
			"byteOffset":0,
			"target":34962
		},
		{
			"buffer":0,
			"byteLength":288,
			"byteOffset":288,
			"target":34962
		},
		{
			"buffer":0,
			"byteLength":192,
			"byteOffset":576,
			"target":34962
		},
		{
			"buffer":0,
			"byteLength":72,
			"byteOffset":768,
			"target":34963
		},
		{
			"buffer":0,
			"byteLength":69960,
			"byteOffset":840,
			"target":34962
		},
		{
			"buffer":0,
			"byteLength":69960,
			"byteOffset":70800,
			"target":34962
		},
		{
			"buffer":0,
			"byteLength":46640,
			"byteOffset":140760,
			"target":34962
		},
		{
			"buffer":0,
			"byteLength":41064,
			"byteOffset":187400,
			"target":34963
		},
		{
			"buffer":0,
			"byteLength":618924,
			"byteOffset":228464,
			"target":34962
		},
		{
			"buffer":0,
			"byteLength":618924,
			"byteOffset":847388,
			"target":34962
		},
		{
			"buffer":0,
			"byteLength":412616,
			"byteOffset":1466312,
			"target":34962
		},
		{
			"buffer":0,
			"byteLength":289272,
			"byteOffset":1878928,
			"target":34963
		},
		{
			"buffer":0,
			"byteLength":1164,
			"byteOffset":2168200,
			"target":34962
		},
		{
			"buffer":0,
			"byteLength":1164,
			"byteOffset":2169364,
			"target":34962
		},
		{
			"buffer":0,
			"byteLength":776,
			"byteOffset":2170528,
			"target":34962
		},
		{
			"buffer":0,
			"byteLength":648,
			"byteOffset":2171304,
			"target":34963
		},
		{
			"buffer":0,
			"byteLength":6864,
			"byteOffset":2171952,
			"target":34962
		},
		{
			"buffer":0,
			"byteLength":6864,
			"byteOffset":2178816,
			"target":34962
		},
		{
			"buffer":0,
			"byteLength":4576,
			"byteOffset":2185680,
			"target":34962
		},
		{
			"buffer":0,
			"byteLength":3840,
			"byteOffset":2190256,
			"target":34963
		},
		{
			"buffer":0,
			"byteLength":2688,
			"byteOffset":2194096,
			"target":34962
		},
		{
			"buffer":0,
			"byteLength":2688,
			"byteOffset":2196784,
			"target":34962
		},
		{
			"buffer":0,
			"byteLength":1792,
			"byteOffset":2199472,
			"target":34962
		},
		{
			"buffer":0,
			"byteLength":1152,
			"byteOffset":2201264,
			"target":34963
		}
	],
	"samplers":[
		{
			"magFilter":9729,
			"minFilter":9987
		}
	],
	"buffers":[
		{
			"byteLength":2202416,
			"uri":"Door_Locked_Massive.bin"
		}
	]
}
