{
	"asset":{
		"generator":"Khronos glTF Blender I/O v5.2.40",
		"version":"2.0"
	},
	"extensionsUsed":[
		"KHR_materials_emissive_strength",
		"KHR_lights_punctual"
	],
	"extensionsRequired":[
		"KHR_lights_punctual"
	],
	"extensions":{
		"KHR_lights_punctual":{
			"lights":[
				{
					"color":[
						1,
						0.5199999809265137,
						0.2199999988079071
					],
					"intensity":6.366197723675814,
					"type":"point",
					"name":"Fireplace_Light"
				}
			]
		}
	},
	"scene":0,
	"scenes":[
		{
			"name":"Scene",
			"nodes":[
				7
			]
		}
	],
	"nodes":[
		{
			"mesh":0,
			"name":"Fireplace_Col-colonly"
		},
		{
			"mesh":1,
			"name":"Fireplace_Flame"
		},
		{
			"mesh":2,
			"name":"Fireplace_Iron"
		},
		{
			"extensions":{
				"KHR_lights_punctual":{
					"light":0
				}
			},
			"name":"Fireplace_Light",
			"rotation":[
				-0.7071068286895752,
				0,
				0,
				0.7071068286895752
			],
			"translation":[
				0,
				0.44999998807907104,
				0.3199999928474426
			]
		},
		{
			"mesh":3,
			"name":"Fireplace_Logs"
		},
		{
			"mesh":4,
			"name":"Fireplace_Soot"
		},
		{
			"mesh":5,
			"name":"Fireplace_Stone"
		},
		{
			"children":[
				0,
				1,
				2,
				3,
				4,
				5,
				6
			],
			"name":"Fireplace"
		}
	],
	"materials":[
		{
			"alphaMode":"BLEND",
			"doubleSided":true,
			"emissiveFactor":[
				1,
				1,
				1
			],
			"emissiveTexture":{
				"index":0
			},
			"extensions":{
				"KHR_materials_emissive_strength":{
					"emissiveStrength":6
				}
			},
			"name":"Flame_Glow",
			"pbrMetallicRoughness":{
				"baseColorTexture":{
					"index":1
				},
				"metallicFactor":0
			}
		},
		{
			"emissiveFactor":[
				1,
				0.6120656132698059,
				0.21763764321804047
			],
			"extensions":{
				"KHR_materials_emissive_strength":{
					"emissiveStrength":25
				}
			},
			"name":"Flame_Core",
			"pbrMetallicRoughness":{
				"baseColorFactor":[
					1,
					0.5789061188697815,
					0.17261062562465668,
					1
				],
				"metallicFactor":0
			}
		},
		{
			"name":"Iron_Wrought",
			"normalTexture":{
				"index":2,
				"scale":1.399999976158142
			},
			"pbrMetallicRoughness":{
				"baseColorTexture":{
					"index":3
				},
				"metallicRoughnessTexture":{
					"index":4
				}
			}
		},
		{
			"name":"Wood_Charred",
			"normalTexture":{
				"index":5,
				"scale":1.600000023841858
			},
			"pbrMetallicRoughness":{
				"baseColorTexture":{
					"index":6
				},
				"metallicFactor":0,
				"metallicRoughnessTexture":{
					"index":7
				}
			}
		},
		{
			"emissiveFactor":[
				1,
				0.09930010139942169,
				0.0038618729449808598
			],
			"extensions":{
				"KHR_materials_emissive_strength":{
					"emissiveStrength":6
				}
			},
			"name":"Ember",
			"pbrMetallicRoughness":{
				"baseColorFactor":[
					0.02899118699133396,
					0.0013732006773352623,
					0.0001829220273066312,
					1
				],
				"metallicFactor":0,
				"roughnessFactor":0.8999999761581421
			}
		},
		{
			"name":"Soot",
			"pbrMetallicRoughness":{
				"baseColorFactor":[
					0.00022559522767551243,
					0.0001829220273066312,
					0.00014507731248158962,
					1
				],
				"metallicFactor":0,
				"roughnessFactor":0.949999988079071
			}
		},
		{
			"name":"Stone_Carved",
			"normalTexture":{
				"index":8,
				"scale":1.5
			},
			"pbrMetallicRoughness":{
				"baseColorTexture":{
					"index":9
				},
				"metallicFactor":0,
				"metallicRoughnessTexture":{
					"index":10
				}
			}
		}
	],
	"meshes":[
		{
			"name":"Fireplace_Col-colonly",
			"primitives":[
				{
					"attributes":{
						"POSITION":0,
						"NORMAL":1,
						"TEXCOORD_0":2
					},
					"indices":3
				}
			]
		},
		{
			"name":"Fireplace_Flame",
			"primitives":[
				{
					"attributes":{
						"POSITION":4,
						"NORMAL":5,
						"TEXCOORD_0":6
					},
					"indices":7,
					"material":0
				},
				{
					"attributes":{
						"POSITION":8,
						"NORMAL":9,
						"TEXCOORD_0":10
					},
					"indices":11,
					"material":1
				}
			]
		},
		{
			"name":"Fireplace_Iron",
			"primitives":[
				{
					"attributes":{
						"POSITION":12,
						"NORMAL":13,
						"TEXCOORD_0":14
					},
					"indices":15,
					"material":2
				}
			]
		},
		{
			"name":"Fireplace_Logs",
			"primitives":[
				{
					"attributes":{
						"POSITION":16,
						"NORMAL":17,
						"TEXCOORD_0":18
					},
					"indices":19,
					"material":3
				},
				{
					"attributes":{
						"POSITION":20,
						"NORMAL":21,
						"TEXCOORD_0":22
					},
					"indices":23,
					"material":4
				}
			]
		},
		{
			"name":"Fireplace_Soot",
			"primitives":[
				{
					"attributes":{
						"POSITION":24,
						"NORMAL":25,
						"TEXCOORD_0":26
					},
					"indices":27,
					"material":5
				}
			]
		},
		{
			"name":"Fireplace_Stone",
			"primitives":[
				{
					"attributes":{
						"POSITION":28,
						"NORMAL":29,
						"TEXCOORD_0":30
					},
					"indices":31,
					"material":6
				}
			]
		}
	],
	"textures":[
		{
			"sampler":0,
			"source":0
		},
		{
			"sampler":0,
			"source":0
		},
		{
			"sampler":0,
			"source":1
		},
		{
			"sampler":0,
			"source":2
		},
		{
			"sampler":0,
			"source":3
		},
		{
			"sampler":0,
			"source":4
		},
		{
			"sampler":0,
			"source":5
		},
		{
			"sampler":0,
			"source":6
		},
		{
			"sampler":0,
			"source":7
		},
		{
			"sampler":0,
			"source":8
		},
		{
			"sampler":0,
			"source":9
		}
	],
	"images":[
		{
			"mimeType":"image/png",
			"name":"flame_gradient",
			"uri":"../textures/flame_gradient.png"
		},
		{
			"mimeType":"image/jpeg",
			"name":"iron_normal",
			"uri":"../textures/iron_normal.jpg"
		},
		{
			"mimeType":"image/jpeg",
			"name":"iron_albedo",
			"uri":"../textures/iron_albedo.jpg"
		},
		{
			"mimeType":"image/png",
			"name":"iron_rough",
			"uri":"../textures/iron_rough.png"
		},
		{
			"mimeType":"image/jpeg",
			"name":"charred_normal",
			"uri":"../textures/charred_normal.jpg"
		},
		{
			"mimeType":"image/jpeg",
			"name":"charred_albedo",
			"uri":"../textures/charred_albedo.jpg"
		},
		{
			"mimeType":"image/png",
			"name":"charred_rough",
			"uri":"../textures/charred_rough.png"
		},
		{
			"mimeType":"image/jpeg",
			"name":"stone_carved_normal",
			"uri":"../textures/stone_carved_normal.jpg"
		},
		{
			"mimeType":"image/jpeg",
			"name":"stone_carved_albedo",
			"uri":"../textures/stone_carved_albedo.jpg"
		},
		{
			"mimeType":"image/png",
			"name":"stone_carved_rough",
			"uri":"../textures/stone_carved_rough.png"
		}
	],
	"accessors":[
		{
			"bufferView":0,
			"componentType":5126,
			"count":24,
			"max":[
				1.1799999475479126,
				1.7799999713897705,
				0.949999988079071
			],
			"min":[
				-1.1799999475479126,
				0,
				0
			],
			"type":"VEC3"
		},
		{
			"bufferView":1,
			"componentType":5126,
			"count":24,
			"type":"VEC3"
		},
		{
			"bufferView":2,
			"componentType":5126,
			"count":24,
			"type":"VEC2"
		},
		{
			"bufferView":3,
			"componentType":5123,
			"count":36,
			"type":"SCALAR"
		},
		{
			"bufferView":4,
			"componentType":5126,
			"count":1510,
			"max":[
				0.28700798749923706,
				0.5,
				0.3804771602153778
			],
			"min":[
				-0.24353881180286407,
				0.20000000298023224,
				0.193876713514328
			],
			"type":"VEC3"
		},
		{
			"bufferView":5,
			"componentType":5126,
			"count":1510,
			"type":"VEC3"
		},
		{
			"bufferView":6,
			"componentType":5126,
			"count":1510,
			"type":"VEC2"
		},
		{
			"bufferView":7,
			"componentType":5123,
			"count":9000,
			"type":"SCALAR"
		},
		{
			"bufferView":8,
			"componentType":5126,
			"count":1307,
			"max":[
				0.26850399374961853,
				0.3499999940395355,
				0.36523857712745667
			],
			"min":[
				-0.22176940739154816,
				0.1899999976158142,
				0.20693835616111755
			],
			"type":"VEC3"
		},
		{
			"bufferView":9,
			"componentType":5126,
			"count":1307,
			"type":"VEC3"
		},
		{
			"bufferView":10,
			"componentType":5126,
			"count":1307,
			"type":"VEC2"
		},
		{
			"bufferView":11,
			"componentType":5123,
			"count":5400,
			"type":"SCALAR"
		},
		{
			"bufferView":12,
			"componentType":5126,
			"count":746,
			"max":[
				0.4950000047683716,
				0.46000000834465027,
				0.5649999976158142
			],
			"min":[
				-0.4950000047683716,
				0,
				0.10000000894069672
			],
			"type":"VEC3"
		},
		{
			"bufferView":13,
			"componentType":5126,
			"count":746,
			"type":"VEC3"
		},
		{
			"bufferView":14,
			"componentType":5126,
			"count":746,
			"type":"VEC2"
		},
		{
			"bufferView":15,
			"componentType":5123,
			"count":2376,
			"type":"SCALAR"
		},
		{
			"bufferView":16,
			"componentType":5126,
			"count":462,
			"max":[
				0.4064313769340515,
				0.3641326427459717,
				0.4228142499923706
			],
			"min":[
				-0.4264313578605652,
				0.03508386015892029,
				0.13718579709529877
			],
			"type":"VEC3"
		},
		{
			"bufferView":17,
			"componentType":5126,
			"count":462,
			"type":"VEC3"
		},
		{
			"bufferView":18,
			"componentType":5126,
			"count":462,
			"type":"VEC2"
		},
		{
			"bufferView":19,
			"componentType":5123,
			"count":1260,
			"type":"SCALAR"
		},
		{
			"bufferView":20,
			"componentType":5126,
			"count":14976,
			"max":[
				0.4863397777080536,
				0.35425901412963867,
				0.45020636916160583
			],
			"min":[
				-0.5077848434448242,
				0.030966687947511673,
				0.09628155827522278
			],
			"type":"VEC3"
		},
		{
			"bufferView":21,
			"componentType":5126,
			"count":14976,
			"type":"VEC3"
		},
		{
			"bufferView":22,
			"componentType":5126,
			"count":14976,
			"type":"VEC2"
		},
		{
			"bufferView":23,
			"componentType":5123,
			"count":37920,
			"type":"SCALAR"
		},
		{
			"bufferView":24,
			"componentType":5126,
			"count":120,
			"max":[
				0.6800000071525574,
				1.3200000524520874,
				0.550000011920929
			],
			"min":[
				-0.6800000071525574,
				0,
				0
			],
			"type":"VEC3"
		},
		{
			"bufferView":25,
			"componentType":5126,
			"count":120,
			"type":"VEC3"
		},
		{
			"bufferView":26,
			"componentType":5126,
			"count":120,
			"type":"VEC2"
		},
		{
			"bufferView":27,
			"componentType":5123,
			"count":180,
			"type":"SCALAR"
		},
		{
			"bufferView":28,
			"componentType":5126,
			"count":1195,
			"max":[
				1.25,
				2.9000000953674316,
				0.949999988079071
			],
			"min":[
				-1.25,
				0,
				0
			],
			"type":"VEC3"
		},
		{
			"bufferView":29,
			"componentType":5126,
			"count":1195,
			"type":"VEC3"
		},
		{
			"bufferView":30,
			"componentType":5126,
			"count":1195,
			"type":"VEC2"
		},
		{
			"bufferView":31,
			"componentType":5123,
			"count":3996,
			"type":"SCALAR"
		}
	],
	"bufferViews":[
		{
			"buffer":0,
			"byteLength":288,
			"byteOffset":0,
			"target":34962
		},
		{
			"buffer":0,
			"byteLength":288,
			"byteOffset":288,
			"target":34962
		},
		{
			"buffer":0,
			"byteLength":192,
			"byteOffset":576,
			"target":34962
		},
		{
			"buffer":0,
			"byteLength":72,
			"byteOffset":768,
			"target":34963
		},
		{
			"buffer":0,
			"byteLength":18120,
			"byteOffset":840,
			"target":34962
		},
		{
			"buffer":0,
			"byteLength":18120,
			"byteOffset":18960,
			"target":34962
		},
		{
			"buffer":0,
			"byteLength":12080,
			"byteOffset":37080,
			"target":34962
		},
		{
			"buffer":0,
			"byteLength":18000,
			"byteOffset":49160,
			"target":34963
		},
		{
			"buffer":0,
			"byteLength":15684,
			"byteOffset":67160,
			"target":34962
		},
		{
			"buffer":0,
			"byteLength":15684,
			"byteOffset":82844,
			"target":34962
		},
		{
			"buffer":0,
			"byteLength":10456,
			"byteOffset":98528,
			"target":34962
		},
		{
			"buffer":0,
			"byteLength":10800,
			"byteOffset":108984,
			"target":34963
		},
		{
			"buffer":0,
			"byteLength":8952,
			"byteOffset":119784,
			"target":34962
		},
		{
			"buffer":0,
			"byteLength":8952,
			"byteOffset":128736,
			"target":34962
		},
		{
			"buffer":0,
			"byteLength":5968,
			"byteOffset":137688,
			"target":34962
		},
		{
			"buffer":0,
			"byteLength":4752,
			"byteOffset":143656,
			"target":34963
		},
		{
			"buffer":0,
			"byteLength":5544,
			"byteOffset":148408,
			"target":34962
		},
		{
			"buffer":0,
			"byteLength":5544,
			"byteOffset":153952,
			"target":34962
		},
		{
			"buffer":0,
			"byteLength":3696,
			"byteOffset":159496,
			"target":34962
		},
		{
			"buffer":0,
			"byteLength":2520,
			"byteOffset":163192,
			"target":34963
		},
		{
			"buffer":0,
			"byteLength":179712,
			"byteOffset":165712,
			"target":34962
		},
		{
			"buffer":0,
			"byteLength":179712,
			"byteOffset":345424,
			"target":34962
		},
		{
			"buffer":0,
			"byteLength":119808,
			"byteOffset":525136,
			"target":34962
		},
		{
			"buffer":0,
			"byteLength":75840,
			"byteOffset":644944,
			"target":34963
		},
		{
			"buffer":0,
			"byteLength":1440,
			"byteOffset":720784,
			"target":34962
		},
		{
			"buffer":0,
			"byteLength":1440,
			"byteOffset":722224,
			"target":34962
		},
		{
			"buffer":0,
			"byteLength":960,
			"byteOffset":723664,
			"target":34962
		},
		{
			"buffer":0,
			"byteLength":360,
			"byteOffset":724624,
			"target":34963
		},
		{
			"buffer":0,
			"byteLength":14340,
			"byteOffset":724984,
			"target":34962
		},
		{
			"buffer":0,
			"byteLength":14340,
			"byteOffset":739324,
			"target":34962
		},
		{
			"buffer":0,
			"byteLength":9560,
			"byteOffset":753664,
			"target":34962
		},
		{
			"buffer":0,
			"byteLength":7992,
			"byteOffset":763224,
			"target":34963
		}
	],
	"samplers":[
		{
			"magFilter":9729,
			"minFilter":9987
		}
	],
	"buffers":[
		{
			"byteLength":771216,
			"uri":"Fireplace.bin"
		}
	]
}
