{
	"asset":{
		"generator":"Khronos glTF Blender I/O v5.2.40",
		"version":"2.0"
	},
	"scene":0,
	"scenes":[
		{
			"name":"Scene",
			"nodes":[
				2
			]
		}
	],
	"nodes":[
		{
			"mesh":0,
			"name":"Floor_Checker_Body"
		},
		{
			"mesh":1,
			"name":"Floor_Checker_Col-colonly"
		},
		{
			"children":[
				0,
				1
			],
			"name":"Floor_Checker"
		}
	],
	"materials":[
		{
			"name":"Marble_Checker",
			"normalTexture":{
				"index":0
			},
			"pbrMetallicRoughness":{
				"baseColorTexture":{
					"index":1
				},
				"metallicFactor":0,
				"metallicRoughnessTexture":{
					"index":2
				}
			}
		}
	],
	"meshes":[
		{
			"name":"Floor_Checker_Body",
			"primitives":[
				{
					"attributes":{
						"POSITION":0,
						"NORMAL":1,
						"TEXCOORD_0":2
					},
					"indices":3,
					"material":0
				}
			]
		},
		{
			"name":"Floor_Checker_Col-colonly",
			"primitives":[
				{
					"attributes":{
						"POSITION":4,
						"NORMAL":5,
						"TEXCOORD_0":6
					},
					"indices":7
				}
			]
		}
	],
	"textures":[
		{
			"sampler":0,
			"source":0
		},
		{
			"sampler":0,
			"source":1
		},
		{
			"sampler":0,
			"source":2
		}
	],
	"images":[
		{
			"mimeType":"image/jpeg",
			"name":"marble_normal",
			"uri":"../textures/marble_normal.jpg"
		},
		{
			"mimeType":"image/jpeg",
			"name":"marble_albedo",
			"uri":"../textures/marble_albedo.jpg"
		},
		{
			"mimeType":"image/png",
			"name":"marble_rough",
			"uri":"../textures/marble_rough.png"
		}
	],
	"accessors":[
		{
			"bufferView":0,
			"componentType":5126,
			"count":88,
			"max":[
				2,
				0,
				2
			],
			"min":[
				-2,
				-0.05000000074505806,
				-2
			],
			"type":"VEC3"
		},
		{
			"bufferView":1,
			"componentType":5126,
			"count":88,
			"type":"VEC3"
		},
		{
			"bufferView":2,
			"componentType":5126,
			"count":88,
			"type":"VEC2"
		},
		{
			"bufferView":3,
			"componentType":5123,
			"count":324,
			"type":"SCALAR"
		},
		{
			"bufferView":4,
			"componentType":5126,
			"count":24,
			"max":[
				2,
				0,
				2
			],
			"min":[
				-2,
				-0.05000000074505806,
				-2
			],
			"type":"VEC3"
		},
		{
			"bufferView":5,
			"componentType":5126,
			"count":24,
			"type":"VEC3"
		},
		{
			"bufferView":6,
			"componentType":5126,
			"count":24,
			"type":"VEC2"
		},
		{
			"bufferView":7,
			"componentType":5123,
			"count":36,
			"type":"SCALAR"
		}
	],
	"bufferViews":[
		{
			"buffer":0,
			"byteLength":1056,
			"byteOffset":0,
			"target":34962
		},
		{
			"buffer":0,
			"byteLength":1056,
			"byteOffset":1056,
			"target":34962
		},
		{
			"buffer":0,
			"byteLength":704,
			"byteOffset":2112,
			"target":34962
		},
		{
			"buffer":0,
			"byteLength":648,
			"byteOffset":2816,
			"target":34963
		},
		{
			"buffer":0,
			"byteLength":288,
			"byteOffset":3464,
			"target":34962
		},
		{
			"buffer":0,
			"byteLength":288,
			"byteOffset":3752,
			"target":34962
		},
		{
			"buffer":0,
			"byteLength":192,
			"byteOffset":4040,
			"target":34962
		},
		{
			"buffer":0,
			"byteLength":72,
			"byteOffset":4232,
			"target":34963
		}
	],
	"samplers":[
		{
			"magFilter":9729,
			"minFilter":9987
		}
	],
	"buffers":[
		{
			"byteLength":4304,
			"uri":"Floor_Checker.bin"
		}
	]
}
