{
	"asset":{
		"generator":"Khronos glTF Blender I/O v5.2.40",
		"version":"2.0"
	},
	"scene":0,
	"scenes":[
		{
			"name":"Scene",
			"nodes":[
				2
			]
		}
	],
	"nodes":[
		{
			"mesh":0,
			"name":"Floor_Stone_Body"
		},
		{
			"mesh":1,
			"name":"Floor_Stone_Col-colonly"
		},
		{
			"children":[
				0,
				1
			],
			"name":"Floor_Stone"
		}
	],
	"materials":[
		{
			"name":"Mortar",
			"pbrMetallicRoughness":{
				"baseColorFactor":[
					0.009423207491636276,
					0.007781510706990957,
					0.0063095735386013985,
					1
				],
				"metallicFactor":0,
				"roughnessFactor":0.949999988079071
			}
		},
		{
			"name":"Stone_Rough",
			"normalTexture":{
				"index":0,
				"scale":2
			},
			"pbrMetallicRoughness":{
				"baseColorTexture":{
					"index":1
				},
				"metallicFactor":0,
				"metallicRoughnessTexture":{
					"index":2
				}
			}
		}
	],
	"meshes":[
		{
			"name":"Floor_Stone_Body",
			"primitives":[
				{
					"attributes":{
						"POSITION":0,
						"NORMAL":1,
						"TEXCOORD_0":2
					},
					"indices":3,
					"material":0
				},
				{
					"attributes":{
						"POSITION":4,
						"NORMAL":5,
						"TEXCOORD_0":6
					},
					"indices":7,
					"material":1
				}
			]
		},
		{
			"name":"Floor_Stone_Col-colonly",
			"primitives":[
				{
					"attributes":{
						"POSITION":8,
						"NORMAL":9,
						"TEXCOORD_0":10
					},
					"indices":11
				}
			]
		}
	],
	"textures":[
		{
			"sampler":0,
			"source":0
		},
		{
			"sampler":0,
			"source":1
		},
		{
			"sampler":0,
			"source":2
		}
	],
	"images":[
		{
			"mimeType":"image/jpeg",
			"name":"stone_rough_normal",
			"uri":"../textures/stone_rough_normal.jpg"
		},
		{
			"mimeType":"image/jpeg",
			"name":"stone_rough_albedo",
			"uri":"../textures/stone_rough_albedo.jpg"
		},
		{
			"mimeType":"image/png",
			"name":"stone_rough_rough",
			"uri":"../textures/stone_rough_rough.png"
		}
	],
	"accessors":[
		{
			"bufferView":0,
			"componentType":5126,
			"count":88,
			"max":[
				1,
				-0.019999999552965164,
				1
			],
			"min":[
				-1,
				-0.05999999865889549,
				-1
			],
			"type":"VEC3"
		},
		{
			"bufferView":1,
			"componentType":5126,
			"count":88,
			"type":"VEC3"
		},
		{
			"bufferView":2,
			"componentType":5126,
			"count":88,
			"type":"VEC2"
		},
		{
			"bufferView":3,
			"componentType":5123,
			"count":324,
			"type":"SCALAR"
		},
		{
			"bufferView":4,
			"componentType":5126,
			"count":856,
			"max":[
				0.9930000305175781,
				-0.0014586802572011948,
				0.9930000305175781
			],
			"min":[
				-0.9930000305175781,
				-0.07195677608251572,
				-0.9930000305175781
			],
			"type":"VEC3"
		},
		{
			"bufferView":5,
			"componentType":5126,
			"count":856,
			"type":"VEC3"
		},
		{
			"bufferView":6,
			"componentType":5126,
			"count":856,
			"type":"VEC2"
		},
		{
			"bufferView":7,
			"componentType":5123,
			"count":2916,
			"type":"SCALAR"
		},
		{
			"bufferView":8,
			"componentType":5126,
			"count":24,
			"max":[
				1,
				0,
				1
			],
			"min":[
				-1,
				-0.05999999865889549,
				-1
			],
			"type":"VEC3"
		},
		{
			"bufferView":9,
			"componentType":5126,
			"count":24,
			"type":"VEC3"
		},
		{
			"bufferView":10,
			"componentType":5126,
			"count":24,
			"type":"VEC2"
		},
		{
			"bufferView":11,
			"componentType":5123,
			"count":36,
			"type":"SCALAR"
		}
	],
	"bufferViews":[
		{
			"buffer":0,
			"byteLength":1056,
			"byteOffset":0,
			"target":34962
		},
		{
			"buffer":0,
			"byteLength":1056,
			"byteOffset":1056,
			"target":34962
		},
		{
			"buffer":0,
			"byteLength":704,
			"byteOffset":2112,
			"target":34962
		},
		{
			"buffer":0,
			"byteLength":648,
			"byteOffset":2816,
			"target":34963
		},
		{
			"buffer":0,
			"byteLength":10272,
			"byteOffset":3464,
			"target":34962
		},
		{
			"buffer":0,
			"byteLength":10272,
			"byteOffset":13736,
			"target":34962
		},
		{
			"buffer":0,
			"byteLength":6848,
			"byteOffset":24008,
			"target":34962
		},
		{
			"buffer":0,
			"byteLength":5832,
			"byteOffset":30856,
			"target":34963
		},
		{
			"buffer":0,
			"byteLength":288,
			"byteOffset":36688,
			"target":34962
		},
		{
			"buffer":0,
			"byteLength":288,
			"byteOffset":36976,
			"target":34962
		},
		{
			"buffer":0,
			"byteLength":192,
			"byteOffset":37264,
			"target":34962
		},
		{
			"buffer":0,
			"byteLength":72,
			"byteOffset":37456,
			"target":34963
		}
	],
	"samplers":[
		{
			"magFilter":9729,
			"minFilter":9987
		}
	],
	"buffers":[
		{
			"byteLength":37528,
			"uri":"Floor_Stone.bin"
		}
	]
}
