{
	"asset":{
		"generator":"Khronos glTF Blender I/O v5.2.40",
		"version":"2.0"
	},
	"scene":0,
	"scenes":[
		{
			"name":"Scene",
			"nodes":[
				2
			]
		}
	],
	"nodes":[
		{
			"mesh":0,
			"name":"Floor_Wood_Body"
		},
		{
			"mesh":1,
			"name":"Floor_Wood_Col-colonly"
		},
		{
			"children":[
				0,
				1
			],
			"name":"Floor_Wood"
		}
	],
	"materials":[
		{
			"name":"Soot",
			"pbrMetallicRoughness":{
				"baseColorFactor":[
					0.00022559522767551243,
					0.0001829220273066312,
					0.00014507731248158962,
					1
				],
				"metallicFactor":0,
				"roughnessFactor":0.949999988079071
			}
		},
		{
			"name":"Wood_Worn",
			"normalTexture":{
				"index":0
			},
			"pbrMetallicRoughness":{
				"baseColorTexture":{
					"index":1
				},
				"metallicFactor":0,
				"metallicRoughnessTexture":{
					"index":2
				}
			}
		}
	],
	"meshes":[
		{
			"name":"Floor_Wood_Body",
			"primitives":[
				{
					"attributes":{
						"POSITION":0,
						"NORMAL":1,
						"TEXCOORD_0":2
					},
					"indices":3,
					"material":0
				},
				{
					"attributes":{
						"POSITION":4,
						"NORMAL":5,
						"TEXCOORD_0":6
					},
					"indices":7,
					"material":1
				}
			]
		},
		{
			"name":"Floor_Wood_Col-colonly",
			"primitives":[
				{
					"attributes":{
						"POSITION":8,
						"NORMAL":9,
						"TEXCOORD_0":10
					},
					"indices":11
				}
			]
		}
	],
	"textures":[
		{
			"sampler":0,
			"source":0
		},
		{
			"sampler":0,
			"source":1
		},
		{
			"sampler":0,
			"source":2
		}
	],
	"images":[
		{
			"mimeType":"image/jpeg",
			"name":"wood_worn_normal",
			"uri":"../textures/wood_worn_normal.jpg"
		},
		{
			"mimeType":"image/jpeg",
			"name":"wood_worn_albedo",
			"uri":"../textures/wood_worn_albedo.jpg"
		},
		{
			"mimeType":"image/png",
			"name":"wood_worn_rough",
			"uri":"../textures/wood_worn_rough.png"
		}
	],
	"accessors":[
		{
			"bufferView":0,
			"componentType":5126,
			"count":92,
			"max":[
				1,
				-0.030000001192092896,
				1
			],
			"min":[
				-1,
				-0.06000000238418579,
				-1
			],
			"type":"VEC3"
		},
		{
			"bufferView":1,
			"componentType":5126,
			"count":92,
			"type":"VEC3"
		},
		{
			"bufferView":2,
			"componentType":5126,
			"count":92,
			"type":"VEC2"
		},
		{
			"bufferView":3,
			"componentType":5123,
			"count":324,
			"type":"SCALAR"
		},
		{
			"bufferView":4,
			"componentType":5126,
			"count":1973,
			"max":[
				0.996999979019165,
				-3.6675482988357544e-05,
				0.9970000386238098
			],
			"min":[
				-0.996999979019165,
				-0.032833926379680634,
				-0.9970000386238098
			],
			"type":"VEC3"
		},
		{
			"bufferView":5,
			"componentType":5126,
			"count":1973,
			"type":"VEC3"
		},
		{
			"bufferView":6,
			"componentType":5126,
			"count":1973,
			"type":"VEC2"
		},
		{
			"bufferView":7,
			"componentType":5123,
			"count":6480,
			"type":"SCALAR"
		},
		{
			"bufferView":8,
			"componentType":5126,
			"count":24,
			"max":[
				1,
				0,
				1
			],
			"min":[
				-1,
				-0.05999999865889549,
				-1
			],
			"type":"VEC3"
		},
		{
			"bufferView":9,
			"componentType":5126,
			"count":24,
			"type":"VEC3"
		},
		{
			"bufferView":10,
			"componentType":5126,
			"count":24,
			"type":"VEC2"
		},
		{
			"bufferView":11,
			"componentType":5123,
			"count":36,
			"type":"SCALAR"
		}
	],
	"bufferViews":[
		{
			"buffer":0,
			"byteLength":1104,
			"byteOffset":0,
			"target":34962
		},
		{
			"buffer":0,
			"byteLength":1104,
			"byteOffset":1104,
			"target":34962
		},
		{
			"buffer":0,
			"byteLength":736,
			"byteOffset":2208,
			"target":34962
		},
		{
			"buffer":0,
			"byteLength":648,
			"byteOffset":2944,
			"target":34963
		},
		{
			"buffer":0,
			"byteLength":23676,
			"byteOffset":3592,
			"target":34962
		},
		{
			"buffer":0,
			"byteLength":23676,
			"byteOffset":27268,
			"target":34962
		},
		{
			"buffer":0,
			"byteLength":15784,
			"byteOffset":50944,
			"target":34962
		},
		{
			"buffer":0,
			"byteLength":12960,
			"byteOffset":66728,
			"target":34963
		},
		{
			"buffer":0,
			"byteLength":288,
			"byteOffset":79688,
			"target":34962
		},
		{
			"buffer":0,
			"byteLength":288,
			"byteOffset":79976,
			"target":34962
		},
		{
			"buffer":0,
			"byteLength":192,
			"byteOffset":80264,
			"target":34962
		},
		{
			"buffer":0,
			"byteLength":72,
			"byteOffset":80456,
			"target":34963
		}
	],
	"samplers":[
		{
			"magFilter":9729,
			"minFilter":9987
		}
	],
	"buffers":[
		{
			"byteLength":80528,
			"uri":"Floor_Wood.bin"
		}
	]
}
