{
	"asset":{
		"generator":"Khronos glTF Blender I/O v5.2.40",
		"version":"2.0"
	},
	"scene":0,
	"scenes":[
		{
			"name":"Scene",
			"nodes":[
				2
			]
		}
	],
	"nodes":[
		{
			"mesh":0,
			"name":"Newel_Post_Body"
		},
		{
			"mesh":1,
			"name":"Newel_Post_Col-colonly"
		},
		{
			"children":[
				0,
				1
			],
			"name":"Newel_Post"
		}
	],
	"materials":[
		{
			"name":"Wood_Worn",
			"normalTexture":{
				"index":0
			},
			"pbrMetallicRoughness":{
				"baseColorTexture":{
					"index":1
				},
				"metallicFactor":0,
				"metallicRoughnessTexture":{
					"index":2
				}
			}
		}
	],
	"meshes":[
		{
			"name":"Newel_Post_Body",
			"primitives":[
				{
					"attributes":{
						"POSITION":0,
						"NORMAL":1,
						"TEXCOORD_0":2
					},
					"indices":3,
					"material":0
				}
			]
		},
		{
			"name":"Newel_Post_Col-colonly",
			"primitives":[
				{
					"attributes":{
						"POSITION":4,
						"NORMAL":5,
						"TEXCOORD_0":6
					},
					"indices":7
				}
			]
		}
	],
	"textures":[
		{
			"sampler":0,
			"source":0
		},
		{
			"sampler":0,
			"source":1
		},
		{
			"sampler":0,
			"source":2
		}
	],
	"images":[
		{
			"mimeType":"image/jpeg",
			"name":"wood_worn_normal",
			"uri":"../textures/wood_worn_normal.jpg"
		},
		{
			"mimeType":"image/jpeg",
			"name":"wood_worn_albedo",
			"uri":"../textures/wood_worn_albedo.jpg"
		},
		{
			"mimeType":"image/png",
			"name":"wood_worn_rough",
			"uri":"../textures/wood_worn_rough.png"
		}
	],
	"accessors":[
		{
			"bufferView":0,
			"componentType":5126,
			"count":2193,
			"max":[
				0.0949999988079071,
				1.090000033378601,
				0.0949999988079071
			],
			"min":[
				-0.0949999988079071,
				0,
				-0.0949999988079071
			],
			"type":"VEC3"
		},
		{
			"bufferView":1,
			"componentType":5126,
			"count":2193,
			"type":"VEC3"
		},
		{
			"bufferView":2,
			"componentType":5126,
			"count":2193,
			"type":"VEC2"
		},
		{
			"bufferView":3,
			"componentType":5123,
			"count":7524,
			"type":"SCALAR"
		},
		{
			"bufferView":4,
			"componentType":5126,
			"count":24,
			"max":[
				0.10000000149011612,
				1.090000033378601,
				0.10000000149011612
			],
			"min":[
				-0.10000000149011612,
				0,
				-0.10000000149011612
			],
			"type":"VEC3"
		},
		{
			"bufferView":5,
			"componentType":5126,
			"count":24,
			"type":"VEC3"
		},
		{
			"bufferView":6,
			"componentType":5126,
			"count":24,
			"type":"VEC2"
		},
		{
			"bufferView":7,
			"componentType":5123,
			"count":36,
			"type":"SCALAR"
		}
	],
	"bufferViews":[
		{
			"buffer":0,
			"byteLength":26316,
			"byteOffset":0,
			"target":34962
		},
		{
			"buffer":0,
			"byteLength":26316,
			"byteOffset":26316,
			"target":34962
		},
		{
			"buffer":0,
			"byteLength":17544,
			"byteOffset":52632,
			"target":34962
		},
		{
			"buffer":0,
			"byteLength":15048,
			"byteOffset":70176,
			"target":34963
		},
		{
			"buffer":0,
			"byteLength":288,
			"byteOffset":85224,
			"target":34962
		},
		{
			"buffer":0,
			"byteLength":288,
			"byteOffset":85512,
			"target":34962
		},
		{
			"buffer":0,
			"byteLength":192,
			"byteOffset":85800,
			"target":34962
		},
		{
			"buffer":0,
			"byteLength":72,
			"byteOffset":85992,
			"target":34963
		}
	],
	"samplers":[
		{
			"magFilter":9729,
			"minFilter":9987
		}
	],
	"buffers":[
		{
			"byteLength":86064,
			"uri":"Newel_Post.bin"
		}
	]
}
