{
	"asset":{
		"generator":"Khronos glTF Blender I/O v5.2.40",
		"version":"2.0"
	},
	"scene":0,
	"scenes":[
		{
			"name":"Scene",
			"nodes":[
				2
			]
		}
	],
	"nodes":[
		{
			"mesh":0,
			"name":"Railing_Segment_Body"
		},
		{
			"mesh":1,
			"name":"Railing_Segment_Col-colonly"
		},
		{
			"children":[
				0,
				1
			],
			"name":"Railing_Segment"
		}
	],
	"materials":[
		{
			"name":"Wood_Worn",
			"normalTexture":{
				"index":0
			},
			"pbrMetallicRoughness":{
				"baseColorTexture":{
					"index":1
				},
				"metallicFactor":0,
				"metallicRoughnessTexture":{
					"index":2
				}
			}
		}
	],
	"meshes":[
		{
			"name":"Railing_Segment_Body",
			"primitives":[
				{
					"attributes":{
						"POSITION":0,
						"NORMAL":1,
						"TEXCOORD_0":2
					},
					"indices":3,
					"material":0
				}
			]
		},
		{
			"name":"Railing_Segment_Col-colonly",
			"primitives":[
				{
					"attributes":{
						"POSITION":4,
						"NORMAL":5,
						"TEXCOORD_0":6
					},
					"indices":7
				}
			]
		}
	],
	"textures":[
		{
			"sampler":0,
			"source":0
		},
		{
			"sampler":0,
			"source":1
		},
		{
			"sampler":0,
			"source":2
		}
	],
	"images":[
		{
			"mimeType":"image/jpeg",
			"name":"wood_worn_normal",
			"uri":"../textures/wood_worn_normal.jpg"
		},
		{
			"mimeType":"image/jpeg",
			"name":"wood_worn_albedo",
			"uri":"../textures/wood_worn_albedo.jpg"
		},
		{
			"mimeType":"image/png",
			"name":"wood_worn_rough",
			"uri":"../textures/wood_worn_rough.png"
		}
	],
	"accessors":[
		{
			"bufferView":0,
			"componentType":5126,
			"count":7503,
			"max":[
				1,
				0.9229999780654907,
				0.04500000178813934
			],
			"min":[
				-1,
				0,
				-0.04500000178813934
			],
			"type":"VEC3"
		},
		{
			"bufferView":1,
			"componentType":5126,
			"count":7503,
			"type":"VEC3"
		},
		{
			"bufferView":2,
			"componentType":5126,
			"count":7503,
			"type":"VEC2"
		},
		{
			"bufferView":3,
			"componentType":5123,
			"count":27336,
			"type":"SCALAR"
		},
		{
			"bufferView":4,
			"componentType":5126,
			"count":24,
			"max":[
				1,
				0.949999988079071,
				0.05000000074505806
			],
			"min":[
				-1,
				0,
				-0.05000000074505806
			],
			"type":"VEC3"
		},
		{
			"bufferView":5,
			"componentType":5126,
			"count":24,
			"type":"VEC3"
		},
		{
			"bufferView":6,
			"componentType":5126,
			"count":24,
			"type":"VEC2"
		},
		{
			"bufferView":7,
			"componentType":5123,
			"count":36,
			"type":"SCALAR"
		}
	],
	"bufferViews":[
		{
			"buffer":0,
			"byteLength":90036,
			"byteOffset":0,
			"target":34962
		},
		{
			"buffer":0,
			"byteLength":90036,
			"byteOffset":90036,
			"target":34962
		},
		{
			"buffer":0,
			"byteLength":60024,
			"byteOffset":180072,
			"target":34962
		},
		{
			"buffer":0,
			"byteLength":54672,
			"byteOffset":240096,
			"target":34963
		},
		{
			"buffer":0,
			"byteLength":288,
			"byteOffset":294768,
			"target":34962
		},
		{
			"buffer":0,
			"byteLength":288,
			"byteOffset":295056,
			"target":34962
		},
		{
			"buffer":0,
			"byteLength":192,
			"byteOffset":295344,
			"target":34962
		},
		{
			"buffer":0,
			"byteLength":72,
			"byteOffset":295536,
			"target":34963
		}
	],
	"samplers":[
		{
			"magFilter":9729,
			"minFilter":9987
		}
	],
	"buffers":[
		{
			"byteLength":295608,
			"uri":"Railing_Segment.bin"
		}
	]
}
