{
	"asset":{
		"generator":"Khronos glTF Blender I/O v5.2.40",
		"version":"2.0"
	},
	"scene":0,
	"scenes":[
		{
			"name":"Scene",
			"nodes":[
				3
			]
		}
	],
	"nodes":[
		{
			"mesh":0,
			"name":"Rubble_Pile_Beams"
		},
		{
			"mesh":1,
			"name":"Rubble_Pile_Col-colonly"
		},
		{
			"mesh":2,
			"name":"Rubble_Pile_Stone"
		},
		{
			"children":[
				0,
				1,
				2
			],
			"name":"Rubble_Pile"
		}
	],
	"materials":[
		{
			"name":"Wood_Worn",
			"normalTexture":{
				"index":0
			},
			"pbrMetallicRoughness":{
				"baseColorTexture":{
					"index":1
				},
				"metallicFactor":0,
				"metallicRoughnessTexture":{
					"index":2
				}
			}
		},
		{
			"name":"Stone_Rough",
			"normalTexture":{
				"index":3,
				"scale":2
			},
			"pbrMetallicRoughness":{
				"baseColorTexture":{
					"index":4
				},
				"metallicFactor":0,
				"metallicRoughnessTexture":{
					"index":5
				}
			}
		},
		{
			"name":"Plaster_Old",
			"normalTexture":{
				"index":6,
				"scale":0.699999988079071
			},
			"pbrMetallicRoughness":{
				"baseColorTexture":{
					"index":7
				},
				"metallicFactor":0,
				"metallicRoughnessTexture":{
					"index":8
				}
			}
		}
	],
	"meshes":[
		{
			"name":"Rubble_Pile_Beams",
			"primitives":[
				{
					"attributes":{
						"POSITION":0,
						"NORMAL":1,
						"TEXCOORD_0":2
					},
					"indices":3,
					"material":0
				}
			]
		},
		{
			"name":"Rubble_Pile_Col-colonly",
			"primitives":[
				{
					"attributes":{
						"POSITION":4,
						"NORMAL":5,
						"TEXCOORD_0":6
					},
					"indices":7
				}
			]
		},
		{
			"name":"Rubble_Pile_Stone",
			"primitives":[
				{
					"attributes":{
						"POSITION":8,
						"NORMAL":9,
						"TEXCOORD_0":10
					},
					"indices":11,
					"material":1
				},
				{
					"attributes":{
						"POSITION":12,
						"NORMAL":13,
						"TEXCOORD_0":14
					},
					"indices":15,
					"material":2
				}
			]
		}
	],
	"textures":[
		{
			"sampler":0,
			"source":0
		},
		{
			"sampler":0,
			"source":1
		},
		{
			"sampler":0,
			"source":2
		},
		{
			"sampler":0,
			"source":3
		},
		{
			"sampler":0,
			"source":4
		},
		{
			"sampler":0,
			"source":5
		},
		{
			"sampler":0,
			"source":6
		},
		{
			"sampler":0,
			"source":7
		},
		{
			"sampler":0,
			"source":8
		}
	],
	"images":[
		{
			"mimeType":"image/jpeg",
			"name":"wood_worn_normal",
			"uri":"../textures/wood_worn_normal.jpg"
		},
		{
			"mimeType":"image/jpeg",
			"name":"wood_worn_albedo",
			"uri":"../textures/wood_worn_albedo.jpg"
		},
		{
			"mimeType":"image/png",
			"name":"wood_worn_rough",
			"uri":"../textures/wood_worn_rough.png"
		},
		{
			"mimeType":"image/jpeg",
			"name":"stone_rough_normal",
			"uri":"../textures/stone_rough_normal.jpg"
		},
		{
			"mimeType":"image/jpeg",
			"name":"stone_rough_albedo",
			"uri":"../textures/stone_rough_albedo.jpg"
		},
		{
			"mimeType":"image/png",
			"name":"stone_rough_rough",
			"uri":"../textures/stone_rough_rough.png"
		},
		{
			"mimeType":"image/jpeg",
			"name":"plaster_old_normal",
			"uri":"../textures/plaster_old_normal.jpg"
		},
		{
			"mimeType":"image/jpeg",
			"name":"plaster_old_albedo",
			"uri":"../textures/plaster_old_albedo.jpg"
		},
		{
			"mimeType":"image/png",
			"name":"plaster_old_rough",
			"uri":"../textures/plaster_old_rough.png"
		}
	],
	"accessors":[
		{
			"bufferView":0,
			"componentType":5126,
			"count":1246,
			"max":[
				1.4162046909332275,
				1.7327154874801636,
				0.7907095551490784
			],
			"min":[
				-1.4834884405136108,
				0.6382361054420471,
				-0.2459440529346466
			],
			"type":"VEC3"
		},
		{
			"bufferView":1,
			"componentType":5126,
			"count":1246,
			"type":"VEC3"
		},
		{
			"bufferView":2,
			"componentType":5126,
			"count":1246,
			"type":"VEC2"
		},
		{
			"bufferView":3,
			"componentType":5123,
			"count":3924,
			"type":"SCALAR"
		},
		{
			"bufferView":4,
			"componentType":5126,
			"count":24,
			"max":[
				1.2000000476837158,
				3,
				0.800000011920929
			],
			"min":[
				-1.2000000476837158,
				0,
				-1.2000000476837158
			],
			"type":"VEC3"
		},
		{
			"bufferView":5,
			"componentType":5126,
			"count":24,
			"type":"VEC3"
		},
		{
			"bufferView":6,
			"componentType":5126,
			"count":24,
			"type":"VEC2"
		},
		{
			"bufferView":7,
			"componentType":5123,
			"count":36,
			"type":"SCALAR"
		},
		{
			"bufferView":8,
			"componentType":5126,
			"count":14072,
			"max":[
				1.7123509645462036,
				3.102752208709717,
				1.6936973333358765
			],
			"min":[
				-1.6283823251724243,
				-2.835278272628784,
				-2.0167322158813477
			],
			"type":"VEC3"
		},
		{
			"bufferView":9,
			"componentType":5126,
			"count":14072,
			"type":"VEC3"
		},
		{
			"bufferView":10,
			"componentType":5126,
			"count":14072,
			"type":"VEC2"
		},
		{
			"bufferView":11,
			"componentType":5123,
			"count":21972,
			"type":"SCALAR"
		},
		{
			"bufferView":12,
			"componentType":5126,
			"count":168,
			"max":[
				0.9613085985183716,
				2.9866600036621094,
				0.43050527572631836
			],
			"min":[
				-1.0663055181503296,
				1.7639472484588623,
				-1.023059368133545
			],
			"type":"VEC3"
		},
		{
			"bufferView":13,
			"componentType":5126,
			"count":168,
			"type":"VEC3"
		},
		{
			"bufferView":14,
			"componentType":5126,
			"count":168,
			"type":"VEC2"
		},
		{
			"bufferView":15,
			"componentType":5123,
			"count":252,
			"type":"SCALAR"
		}
	],
	"bufferViews":[
		{
			"buffer":0,
			"byteLength":14952,
			"byteOffset":0,
			"target":34962
		},
		{
			"buffer":0,
			"byteLength":14952,
			"byteOffset":14952,
			"target":34962
		},
		{
			"buffer":0,
			"byteLength":9968,
			"byteOffset":29904,
			"target":34962
		},
		{
			"buffer":0,
			"byteLength":7848,
			"byteOffset":39872,
			"target":34963
		},
		{
			"buffer":0,
			"byteLength":288,
			"byteOffset":47720,
			"target":34962
		},
		{
			"buffer":0,
			"byteLength":288,
			"byteOffset":48008,
			"target":34962
		},
		{
			"buffer":0,
			"byteLength":192,
			"byteOffset":48296,
			"target":34962
		},
		{
			"buffer":0,
			"byteLength":72,
			"byteOffset":48488,
			"target":34963
		},
		{
			"buffer":0,
			"byteLength":168864,
			"byteOffset":48560,
			"target":34962
		},
		{
			"buffer":0,
			"byteLength":168864,
			"byteOffset":217424,
			"target":34962
		},
		{
			"buffer":0,
			"byteLength":112576,
			"byteOffset":386288,
			"target":34962
		},
		{
			"buffer":0,
			"byteLength":43944,
			"byteOffset":498864,
			"target":34963
		},
		{
			"buffer":0,
			"byteLength":2016,
			"byteOffset":542808,
			"target":34962
		},
		{
			"buffer":0,
			"byteLength":2016,
			"byteOffset":544824,
			"target":34962
		},
		{
			"buffer":0,
			"byteLength":1344,
			"byteOffset":546840,
			"target":34962
		},
		{
			"buffer":0,
			"byteLength":504,
			"byteOffset":548184,
			"target":34963
		}
	],
	"samplers":[
		{
			"magFilter":9729,
			"minFilter":9987
		}
	],
	"buffers":[
		{
			"byteLength":548688,
			"uri":"Rubble_Pile.bin"
		}
	]
}
