{
	"asset":{
		"generator":"Khronos glTF Blender I/O v5.2.40",
		"version":"2.0"
	},
	"scene":0,
	"scenes":[
		{
			"name":"Scene",
			"nodes":[
				4
			]
		}
	],
	"nodes":[
		{
			"mesh":0,
			"name":"Stairs_Grand_Carpet"
		},
		{
			"mesh":1,
			"name":"Stairs_Grand_Ramp-colonly"
		},
		{
			"mesh":2,
			"name":"Stairs_Grand_Stone"
		},
		{
			"mesh":3,
			"name":"Stairs_Grand_Wood"
		},
		{
			"children":[
				0,
				1,
				2,
				3
			],
			"name":"Stairs_Grand"
		}
	],
	"materials":[
		{
			"name":"Carpet_Persian",
			"normalTexture":{
				"index":0,
				"scale":1.399999976158142
			},
			"pbrMetallicRoughness":{
				"baseColorTexture":{
					"index":1
				},
				"metallicFactor":0,
				"roughnessFactor":0.9200000166893005
			}
		},
		{
			"name":"Stone_Carved",
			"normalTexture":{
				"index":2,
				"scale":1.5
			},
			"pbrMetallicRoughness":{
				"baseColorTexture":{
					"index":3
				},
				"metallicFactor":0,
				"metallicRoughnessTexture":{
					"index":4
				}
			}
		},
		{
			"name":"Wood_Worn",
			"normalTexture":{
				"index":5
			},
			"pbrMetallicRoughness":{
				"baseColorTexture":{
					"index":6
				},
				"metallicFactor":0,
				"metallicRoughnessTexture":{
					"index":7
				}
			}
		},
		{
			"name":"Brass_Aged",
			"normalTexture":{
				"index":8
			},
			"pbrMetallicRoughness":{
				"baseColorTexture":{
					"index":9
				},
				"metallicRoughnessTexture":{
					"index":10
				}
			}
		}
	],
	"meshes":[
		{
			"name":"Stairs_Grand_Carpet",
			"primitives":[
				{
					"attributes":{
						"POSITION":0,
						"NORMAL":1,
						"TEXCOORD_0":2
					},
					"indices":3,
					"material":0
				}
			]
		},
		{
			"name":"Stairs_Grand_Ramp-colonly",
			"primitives":[
				{
					"attributes":{
						"POSITION":4,
						"NORMAL":5,
						"TEXCOORD_0":6
					},
					"indices":7
				}
			]
		},
		{
			"name":"Stairs_Grand_Stone",
			"primitives":[
				{
					"attributes":{
						"POSITION":8,
						"NORMAL":9,
						"TEXCOORD_0":10
					},
					"indices":11,
					"material":1
				}
			]
		},
		{
			"name":"Stairs_Grand_Wood",
			"primitives":[
				{
					"attributes":{
						"POSITION":12,
						"NORMAL":13,
						"TEXCOORD_0":14
					},
					"indices":15,
					"material":2
				},
				{
					"attributes":{
						"POSITION":16,
						"NORMAL":17,
						"TEXCOORD_0":18
					},
					"indices":19,
					"material":3
				}
			]
		}
	],
	"textures":[
		{
			"sampler":0,
			"source":0
		},
		{
			"sampler":0,
			"source":1
		},
		{
			"sampler":0,
			"source":2
		},
		{
			"sampler":0,
			"source":3
		},
		{
			"sampler":0,
			"source":4
		},
		{
			"sampler":0,
			"source":5
		},
		{
			"sampler":0,
			"source":6
		},
		{
			"sampler":0,
			"source":7
		},
		{
			"sampler":0,
			"source":8
		},
		{
			"sampler":0,
			"source":9
		},
		{
			"sampler":0,
			"source":10
		}
	],
	"images":[
		{
			"mimeType":"image/jpeg",
			"name":"carpet_normal",
			"uri":"../textures/carpet_normal.jpg"
		},
		{
			"mimeType":"image/jpeg",
			"name":"carpet_albedo",
			"uri":"../textures/carpet_albedo.jpg"
		},
		{
			"mimeType":"image/jpeg",
			"name":"stone_carved_normal",
			"uri":"../textures/stone_carved_normal.jpg"
		},
		{
			"mimeType":"image/jpeg",
			"name":"stone_carved_albedo",
			"uri":"../textures/stone_carved_albedo.jpg"
		},
		{
			"mimeType":"image/png",
			"name":"stone_carved_rough",
			"uri":"../textures/stone_carved_rough.png"
		},
		{
			"mimeType":"image/jpeg",
			"name":"wood_worn_normal",
			"uri":"../textures/wood_worn_normal.jpg"
		},
		{
			"mimeType":"image/jpeg",
			"name":"wood_worn_albedo",
			"uri":"../textures/wood_worn_albedo.jpg"
		},
		{
			"mimeType":"image/png",
			"name":"wood_worn_rough",
			"uri":"../textures/wood_worn_rough.png"
		},
		{
			"mimeType":"image/jpeg",
			"name":"brass_normal",
			"uri":"../textures/brass_normal.jpg"
		},
		{
			"mimeType":"image/jpeg",
			"name":"brass_albedo",
			"uri":"../textures/brass_albedo.jpg"
		},
		{
			"mimeType":"image/png",
			"name":"brass_rough",
			"uri":"../textures/brass_rough.png"
		}
	],
	"accessors":[
		{
			"bufferView":0,
			"componentType":5126,
			"count":124,
			"max":[
				0.6000000238418579,
				2.1679999828338623,
				0.6000000238418579
			],
			"min":[
				-0.6000000238418579,
				0.006000000052154064,
				-4.349999904632568
			],
			"type":"VEC3"
		},
		{
			"bufferView":1,
			"componentType":5126,
			"count":124,
			"type":"VEC3"
		},
		{
			"bufferView":2,
			"componentType":5126,
			"count":124,
			"type":"VEC2"
		},
		{
			"bufferView":3,
			"componentType":5123,
			"count":222,
			"type":"SCALAR"
		},
		{
			"bufferView":4,
			"componentType":5126,
			"count":22,
			"max":[
				1.100000023841858,
				2.1600000858306885,
				0.15000000596046448
			],
			"min":[
				-1.100000023841858,
				0,
				-4.599999904632568
			],
			"type":"VEC3"
		},
		{
			"bufferView":5,
			"componentType":5126,
			"count":22,
			"type":"VEC3"
		},
		{
			"bufferView":6,
			"componentType":5126,
			"count":22,
			"type":"VEC2"
		},
		{
			"bufferView":7,
			"componentType":5123,
			"count":36,
			"type":"SCALAR"
		},
		{
			"bufferView":8,
			"componentType":5126,
			"count":641,
			"max":[
				1,
				2.119999885559082,
				0
			],
			"min":[
				-1,
				0,
				-4.599999904632568
			],
			"type":"VEC3"
		},
		{
			"bufferView":9,
			"componentType":5126,
			"count":641,
			"type":"VEC3"
		},
		{
			"bufferView":10,
			"componentType":5126,
			"count":641,
			"type":"VEC2"
		},
		{
			"bufferView":11,
			"componentType":5123,
			"count":2208,
			"type":"SCALAR"
		},
		{
			"bufferView":12,
			"componentType":5126,
			"count":49083,
			"max":[
				1.125,
				3.3399999141693115,
				0.29500001668930054
			],
			"min":[
				-1.125,
				0,
				-4.599999904632568
			],
			"type":"VEC3"
		},
		{
			"bufferView":13,
			"componentType":5126,
			"count":49083,
			"type":"VEC3"
		},
		{
			"bufferView":14,
			"componentType":5126,
			"count":49083,
			"type":"VEC2"
		},
		{
			"bufferView":15,
			"componentType":5123,
			"count":186948,
			"type":"SCALAR"
		},
		{
			"bufferView":16,
			"componentType":5126,
			"count":8116,
			"max":[
				0.6659999489784241,
				2.188999891281128,
				-0.23400001227855682
			],
			"min":[
				-0.6659999489784241,
				0.18299999833106995,
				-3.559999942779541
			],
			"type":"VEC3"
		},
		{
			"bufferView":17,
			"componentType":5126,
			"count":8116,
			"type":"VEC3"
		},
		{
			"bufferView":18,
			"componentType":5126,
			"count":8116,
			"type":"VEC2"
		},
		{
			"bufferView":19,
			"componentType":5123,
			"count":28944,
			"type":"SCALAR"
		}
	],
	"bufferViews":[
		{
			"buffer":0,
			"byteLength":1488,
			"byteOffset":0,
			"target":34962
		},
		{
			"buffer":0,
			"byteLength":1488,
			"byteOffset":1488,
			"target":34962
		},
		{
			"buffer":0,
			"byteLength":992,
			"byteOffset":2976,
			"target":34962
		},
		{
			"buffer":0,
			"byteLength":444,
			"byteOffset":3968,
			"target":34963
		},
		{
			"buffer":0,
			"byteLength":264,
			"byteOffset":4412,
			"target":34962
		},
		{
			"buffer":0,
			"byteLength":264,
			"byteOffset":4676,
			"target":34962
		},
		{
			"buffer":0,
			"byteLength":176,
			"byteOffset":4940,
			"target":34962
		},
		{
			"buffer":0,
			"byteLength":72,
			"byteOffset":5116,
			"target":34963
		},
		{
			"buffer":0,
			"byteLength":7692,
			"byteOffset":5188,
			"target":34962
		},
		{
			"buffer":0,
			"byteLength":7692,
			"byteOffset":12880,
			"target":34962
		},
		{
			"buffer":0,
			"byteLength":5128,
			"byteOffset":20572,
			"target":34962
		},
		{
			"buffer":0,
			"byteLength":4416,
			"byteOffset":25700,
			"target":34963
		},
		{
			"buffer":0,
			"byteLength":588996,
			"byteOffset":30116,
			"target":34962
		},
		{
			"buffer":0,
			"byteLength":588996,
			"byteOffset":619112,
			"target":34962
		},
		{
			"buffer":0,
			"byteLength":392664,
			"byteOffset":1208108,
			"target":34962
		},
		{
			"buffer":0,
			"byteLength":373896,
			"byteOffset":1600772,
			"target":34963
		},
		{
			"buffer":0,
			"byteLength":97392,
			"byteOffset":1974668,
			"target":34962
		},
		{
			"buffer":0,
			"byteLength":97392,
			"byteOffset":2072060,
			"target":34962
		},
		{
			"buffer":0,
			"byteLength":64928,
			"byteOffset":2169452,
			"target":34962
		},
		{
			"buffer":0,
			"byteLength":57888,
			"byteOffset":2234380,
			"target":34963
		}
	],
	"samplers":[
		{
			"magFilter":9729,
			"minFilter":9987
		}
	],
	"buffers":[
		{
			"byteLength":2292268,
			"uri":"Stairs_Grand.bin"
		}
	]
}
