{
	"asset":{
		"generator":"Khronos glTF Blender I/O v5.2.40",
		"version":"2.0"
	},
	"scene":0,
	"scenes":[
		{
			"name":"Scene",
			"nodes":[
				2
			]
		}
	],
	"nodes":[
		{
			"mesh":0,
			"name":"Stairs_Short_Body"
		},
		{
			"mesh":1,
			"name":"Stairs_Short_Ramp-colonly"
		},
		{
			"children":[
				0,
				1
			],
			"name":"Stairs_Short"
		}
	],
	"materials":[
		{
			"name":"Stone_Carved",
			"normalTexture":{
				"index":0,
				"scale":1.5
			},
			"pbrMetallicRoughness":{
				"baseColorTexture":{
					"index":1
				},
				"metallicFactor":0,
				"metallicRoughnessTexture":{
					"index":2
				}
			}
		}
	],
	"meshes":[
		{
			"name":"Stairs_Short_Body",
			"primitives":[
				{
					"attributes":{
						"POSITION":0,
						"NORMAL":1,
						"TEXCOORD_0":2
					},
					"indices":3,
					"material":0
				}
			]
		},
		{
			"name":"Stairs_Short_Ramp-colonly",
			"primitives":[
				{
					"attributes":{
						"POSITION":4,
						"NORMAL":5,
						"TEXCOORD_0":6
					},
					"indices":7
				}
			]
		}
	],
	"textures":[
		{
			"sampler":0,
			"source":0
		},
		{
			"sampler":0,
			"source":1
		},
		{
			"sampler":0,
			"source":2
		}
	],
	"images":[
		{
			"mimeType":"image/jpeg",
			"name":"stone_carved_normal",
			"uri":"../textures/stone_carved_normal.jpg"
		},
		{
			"mimeType":"image/jpeg",
			"name":"stone_carved_albedo",
			"uri":"../textures/stone_carved_albedo.jpg"
		},
		{
			"mimeType":"image/png",
			"name":"stone_carved_rough",
			"uri":"../textures/stone_carved_rough.png"
		}
	],
	"accessors":[
		{
			"bufferView":0,
			"componentType":5126,
			"count":1150,
			"max":[
				2,
				1.0800000429153442,
				0.03500000014901161
			],
			"min":[
				-2,
				0,
				-1.8000000715255737
			],
			"type":"VEC3"
		},
		{
			"bufferView":1,
			"componentType":5126,
			"count":1150,
			"type":"VEC3"
		},
		{
			"bufferView":2,
			"componentType":5126,
			"count":1150,
			"type":"VEC2"
		},
		{
			"bufferView":3,
			"componentType":5123,
			"count":3888,
			"type":"SCALAR"
		},
		{
			"bufferView":4,
			"componentType":5126,
			"count":22,
			"max":[
				2,
				1.0800000429153442,
				0.10000000149011612
			],
			"min":[
				-2,
				0,
				-1.7999999523162842
			],
			"type":"VEC3"
		},
		{
			"bufferView":5,
			"componentType":5126,
			"count":22,
			"type":"VEC3"
		},
		{
			"bufferView":6,
			"componentType":5126,
			"count":22,
			"type":"VEC2"
		},
		{
			"bufferView":7,
			"componentType":5123,
			"count":36,
			"type":"SCALAR"
		}
	],
	"bufferViews":[
		{
			"buffer":0,
			"byteLength":13800,
			"byteOffset":0,
			"target":34962
		},
		{
			"buffer":0,
			"byteLength":13800,
			"byteOffset":13800,
			"target":34962
		},
		{
			"buffer":0,
			"byteLength":9200,
			"byteOffset":27600,
			"target":34962
		},
		{
			"buffer":0,
			"byteLength":7776,
			"byteOffset":36800,
			"target":34963
		},
		{
			"buffer":0,
			"byteLength":264,
			"byteOffset":44576,
			"target":34962
		},
		{
			"buffer":0,
			"byteLength":264,
			"byteOffset":44840,
			"target":34962
		},
		{
			"buffer":0,
			"byteLength":176,
			"byteOffset":45104,
			"target":34962
		},
		{
			"buffer":0,
			"byteLength":72,
			"byteOffset":45280,
			"target":34963
		}
	],
	"samplers":[
		{
			"magFilter":9729,
			"minFilter":9987
		}
	],
	"buffers":[
		{
			"byteLength":45352,
			"uri":"Stairs_Short.bin"
		}
	]
}
