{
	"asset":{
		"generator":"Khronos glTF Blender I/O v5.2.40",
		"version":"2.0"
	},
	"scene":0,
	"scenes":[
		{
			"name":"Scene",
			"nodes":[
				2
			]
		}
	],
	"nodes":[
		{
			"mesh":0,
			"name":"Stairs_Spiral_Body"
		},
		{
			"mesh":1,
			"name":"Stairs_Spiral_Ramp-colonly"
		},
		{
			"children":[
				0,
				1
			],
			"name":"Stairs_Spiral"
		}
	],
	"materials":[
		{
			"name":"Iron_Wrought",
			"normalTexture":{
				"index":0,
				"scale":1.399999976158142
			},
			"pbrMetallicRoughness":{
				"baseColorTexture":{
					"index":1
				},
				"metallicRoughnessTexture":{
					"index":2
				}
			}
		},
		{
			"name":"Wood_Worn",
			"normalTexture":{
				"index":3
			},
			"pbrMetallicRoughness":{
				"baseColorTexture":{
					"index":4
				},
				"metallicFactor":0,
				"metallicRoughnessTexture":{
					"index":5
				}
			}
		}
	],
	"meshes":[
		{
			"name":"Stairs_Spiral_Body",
			"primitives":[
				{
					"attributes":{
						"POSITION":0,
						"NORMAL":1,
						"TEXCOORD_0":2
					},
					"indices":3,
					"material":0
				},
				{
					"attributes":{
						"POSITION":4,
						"NORMAL":5,
						"TEXCOORD_0":6
					},
					"indices":7,
					"material":1
				}
			]
		},
		{
			"name":"Stairs_Spiral_Ramp-colonly",
			"primitives":[
				{
					"attributes":{
						"POSITION":8,
						"NORMAL":9,
						"TEXCOORD_0":10
					},
					"indices":11
				}
			]
		}
	],
	"textures":[
		{
			"sampler":0,
			"source":0
		},
		{
			"sampler":0,
			"source":1
		},
		{
			"sampler":0,
			"source":2
		},
		{
			"sampler":0,
			"source":3
		},
		{
			"sampler":0,
			"source":4
		},
		{
			"sampler":0,
			"source":5
		}
	],
	"images":[
		{
			"mimeType":"image/jpeg",
			"name":"iron_normal",
			"uri":"../textures/iron_normal.jpg"
		},
		{
			"mimeType":"image/jpeg",
			"name":"iron_albedo",
			"uri":"../textures/iron_albedo.jpg"
		},
		{
			"mimeType":"image/png",
			"name":"iron_rough",
			"uri":"../textures/iron_rough.png"
		},
		{
			"mimeType":"image/jpeg",
			"name":"wood_worn_normal",
			"uri":"../textures/wood_worn_normal.jpg"
		},
		{
			"mimeType":"image/jpeg",
			"name":"wood_worn_albedo",
			"uri":"../textures/wood_worn_albedo.jpg"
		},
		{
			"mimeType":"image/png",
			"name":"wood_worn_rough",
			"uri":"../textures/wood_worn_rough.png"
		}
	],
	"accessors":[
		{
			"bufferView":0,
			"componentType":5126,
			"count":22686,
			"max":[
				1.1619564294815063,
				4.409999847412109,
				1.1618393659591675
			],
			"min":[
				-1.1618865728378296,
				-0.04790067672729492,
				-1.1619255542755127
			],
			"type":"VEC3"
		},
		{
			"bufferView":1,
			"componentType":5126,
			"count":22686,
			"type":"VEC3"
		},
		{
			"bufferView":2,
			"componentType":5126,
			"count":22686,
			"type":"VEC2"
		},
		{
			"bufferView":3,
			"componentType":5123,
			"count":71832,
			"type":"SCALAR"
		},
		{
			"bufferView":4,
			"componentType":5126,
			"count":10843,
			"max":[
				1.149999976158142,
				4.254731178283691,
				1.1498196125030518
			],
			"min":[
				-1.149999976158142,
				0.12999999523162842,
				-1.1498196125030518
			],
			"type":"VEC3"
		},
		{
			"bufferView":5,
			"componentType":5126,
			"count":10843,
			"type":"VEC3"
		},
		{
			"bufferView":6,
			"componentType":5126,
			"count":10843,
			"type":"VEC2"
		},
		{
			"bufferView":7,
			"componentType":5123,
			"count":35598,
			"type":"SCALAR"
		},
		{
			"bufferView":8,
			"componentType":5126,
			"count":648,
			"max":[
				1.149999976158142,
				4.340000152587891,
				1.149999976158142
			],
			"min":[
				-1.149999976158142,
				-0.07000000029802322,
				-1.149999976158142
			],
			"type":"VEC3"
		},
		{
			"bufferView":9,
			"componentType":5126,
			"count":648,
			"type":"VEC3"
		},
		{
			"bufferView":10,
			"componentType":5126,
			"count":648,
			"type":"VEC2"
		},
		{
			"bufferView":11,
			"componentType":5123,
			"count":1824,
			"type":"SCALAR"
		}
	],
	"bufferViews":[
		{
			"buffer":0,
			"byteLength":272232,
			"byteOffset":0,
			"target":34962
		},
		{
			"buffer":0,
			"byteLength":272232,
			"byteOffset":272232,
			"target":34962
		},
		{
			"buffer":0,
			"byteLength":181488,
			"byteOffset":544464,
			"target":34962
		},
		{
			"buffer":0,
			"byteLength":143664,
			"byteOffset":725952,
			"target":34963
		},
		{
			"buffer":0,
			"byteLength":130116,
			"byteOffset":869616,
			"target":34962
		},
		{
			"buffer":0,
			"byteLength":130116,
			"byteOffset":999732,
			"target":34962
		},
		{
			"buffer":0,
			"byteLength":86744,
			"byteOffset":1129848,
			"target":34962
		},
		{
			"buffer":0,
			"byteLength":71196,
			"byteOffset":1216592,
			"target":34963
		},
		{
			"buffer":0,
			"byteLength":7776,
			"byteOffset":1287788,
			"target":34962
		},
		{
			"buffer":0,
			"byteLength":7776,
			"byteOffset":1295564,
			"target":34962
		},
		{
			"buffer":0,
			"byteLength":5184,
			"byteOffset":1303340,
			"target":34962
		},
		{
			"buffer":0,
			"byteLength":3648,
			"byteOffset":1308524,
			"target":34963
		}
	],
	"samplers":[
		{
			"magFilter":9729,
			"minFilter":9987
		}
	],
	"buffers":[
		{
			"byteLength":1312172,
			"uri":"Stairs_Spiral.bin"
		}
	]
}
