{
	"asset":{
		"generator":"Khronos glTF Blender I/O v5.2.40",
		"version":"2.0"
	},
	"scene":0,
	"scenes":[
		{
			"name":"Scene",
			"nodes":[
				5
			]
		}
	],
	"nodes":[
		{
			"mesh":0,
			"name":"Wall_Arch_ColL-colonly"
		},
		{
			"mesh":1,
			"name":"Wall_Arch_ColR-colonly"
		},
		{
			"mesh":2,
			"name":"Wall_Arch_ColTop-colonly"
		},
		{
			"mesh":3,
			"name":"Wall_Arch_Trim"
		},
		{
			"mesh":4,
			"name":"Wall_Arch_Wall"
		},
		{
			"children":[
				0,
				1,
				2,
				3,
				4
			],
			"name":"Wall_Arch"
		}
	],
	"materials":[
		{
			"name":"Stone_Carved",
			"normalTexture":{
				"index":0,
				"scale":1.5
			},
			"pbrMetallicRoughness":{
				"baseColorTexture":{
					"index":1
				},
				"metallicFactor":0,
				"metallicRoughnessTexture":{
					"index":2
				}
			}
		}
	],
	"meshes":[
		{
			"name":"Wall_Arch_ColL-colonly",
			"primitives":[
				{
					"attributes":{
						"POSITION":0,
						"NORMAL":1,
						"TEXCOORD_0":2
					},
					"indices":3
				}
			]
		},
		{
			"name":"Wall_Arch_ColR-colonly",
			"primitives":[
				{
					"attributes":{
						"POSITION":4,
						"NORMAL":5,
						"TEXCOORD_0":6
					},
					"indices":3
				}
			]
		},
		{
			"name":"Wall_Arch_ColTop-colonly",
			"primitives":[
				{
					"attributes":{
						"POSITION":7,
						"NORMAL":8,
						"TEXCOORD_0":9
					},
					"indices":3
				}
			]
		},
		{
			"name":"Wall_Arch_Trim",
			"primitives":[
				{
					"attributes":{
						"POSITION":10,
						"NORMAL":11,
						"TEXCOORD_0":12
					},
					"indices":13,
					"material":0
				}
			]
		},
		{
			"name":"Wall_Arch_Wall",
			"primitives":[
				{
					"attributes":{
						"POSITION":14,
						"NORMAL":15,
						"TEXCOORD_0":16
					},
					"indices":17,
					"material":0
				}
			]
		}
	],
	"textures":[
		{
			"sampler":0,
			"source":0
		},
		{
			"sampler":0,
			"source":1
		},
		{
			"sampler":0,
			"source":2
		}
	],
	"images":[
		{
			"mimeType":"image/jpeg",
			"name":"stone_carved_normal",
			"uri":"../textures/stone_carved_normal.jpg"
		},
		{
			"mimeType":"image/jpeg",
			"name":"stone_carved_albedo",
			"uri":"../textures/stone_carved_albedo.jpg"
		},
		{
			"mimeType":"image/png",
			"name":"stone_carved_rough",
			"uri":"../textures/stone_carved_rough.png"
		}
	],
	"accessors":[
		{
			"bufferView":0,
			"componentType":5126,
			"count":24,
			"max":[
				-0.7000000476837158,
				3.200000047683716,
				0.15000000596046448
			],
			"min":[
				-1,
				0,
				-0.15000000596046448
			],
			"type":"VEC3"
		},
		{
			"bufferView":1,
			"componentType":5126,
			"count":24,
			"type":"VEC3"
		},
		{
			"bufferView":2,
			"componentType":5126,
			"count":24,
			"type":"VEC2"
		},
		{
			"bufferView":3,
			"componentType":5123,
			"count":36,
			"type":"SCALAR"
		},
		{
			"bufferView":4,
			"componentType":5126,
			"count":24,
			"max":[
				1,
				3.200000047683716,
				0.15000000596046448
			],
			"min":[
				0.7000000476837158,
				0,
				-0.15000000596046448
			],
			"type":"VEC3"
		},
		{
			"bufferView":5,
			"componentType":5126,
			"count":24,
			"type":"VEC3"
		},
		{
			"bufferView":6,
			"componentType":5126,
			"count":24,
			"type":"VEC2"
		},
		{
			"bufferView":7,
			"componentType":5126,
			"count":24,
			"max":[
				1,
				3.200000047683716,
				0.15000000596046448
			],
			"min":[
				-1,
				2.7799999713897705,
				-0.15000000596046448
			],
			"type":"VEC3"
		},
		{
			"bufferView":8,
			"componentType":5126,
			"count":24,
			"type":"VEC3"
		},
		{
			"bufferView":9,
			"componentType":5126,
			"count":24,
			"type":"VEC2"
		},
		{
			"bufferView":10,
			"componentType":5126,
			"count":4220,
			"max":[
				0.8199999928474426,
				2.9902000427246094,
				0.20475000143051147
			],
			"min":[
				-0.8199999928474426,
				-0.20000000298023224,
				-0.20475000143051147
			],
			"type":"VEC3"
		},
		{
			"bufferView":11,
			"componentType":5126,
			"count":4220,
			"type":"VEC3"
		},
		{
			"bufferView":12,
			"componentType":5126,
			"count":4220,
			"type":"VEC2"
		},
		{
			"bufferView":13,
			"componentType":5123,
			"count":16392,
			"type":"SCALAR"
		},
		{
			"bufferView":14,
			"componentType":5126,
			"count":224,
			"max":[
				1,
				3.200000047683716,
				0.15000000596046448
			],
			"min":[
				-1,
				0,
				-0.15000000596046448
			],
			"type":"VEC3"
		},
		{
			"bufferView":15,
			"componentType":5126,
			"count":224,
			"type":"VEC3"
		},
		{
			"bufferView":16,
			"componentType":5126,
			"count":224,
			"type":"VEC2"
		},
		{
			"bufferView":17,
			"componentType":5123,
			"count":576,
			"type":"SCALAR"
		}
	],
	"bufferViews":[
		{
			"buffer":0,
			"byteLength":288,
			"byteOffset":0,
			"target":34962
		},
		{
			"buffer":0,
			"byteLength":288,
			"byteOffset":288,
			"target":34962
		},
		{
			"buffer":0,
			"byteLength":192,
			"byteOffset":576,
			"target":34962
		},
		{
			"buffer":0,
			"byteLength":72,
			"byteOffset":768,
			"target":34963
		},
		{
			"buffer":0,
			"byteLength":288,
			"byteOffset":840,
			"target":34962
		},
		{
			"buffer":0,
			"byteLength":288,
			"byteOffset":1128,
			"target":34962
		},
		{
			"buffer":0,
			"byteLength":192,
			"byteOffset":1416,
			"target":34962
		},
		{
			"buffer":0,
			"byteLength":288,
			"byteOffset":1608,
			"target":34962
		},
		{
			"buffer":0,
			"byteLength":288,
			"byteOffset":1896,
			"target":34962
		},
		{
			"buffer":0,
			"byteLength":192,
			"byteOffset":2184,
			"target":34962
		},
		{
			"buffer":0,
			"byteLength":50640,
			"byteOffset":2376,
			"target":34962
		},
		{
			"buffer":0,
			"byteLength":50640,
			"byteOffset":53016,
			"target":34962
		},
		{
			"buffer":0,
			"byteLength":33760,
			"byteOffset":103656,
			"target":34962
		},
		{
			"buffer":0,
			"byteLength":32784,
			"byteOffset":137416,
			"target":34963
		},
		{
			"buffer":0,
			"byteLength":2688,
			"byteOffset":170200,
			"target":34962
		},
		{
			"buffer":0,
			"byteLength":2688,
			"byteOffset":172888,
			"target":34962
		},
		{
			"buffer":0,
			"byteLength":1792,
			"byteOffset":175576,
			"target":34962
		},
		{
			"buffer":0,
			"byteLength":1152,
			"byteOffset":177368,
			"target":34963
		}
	],
	"samplers":[
		{
			"magFilter":9729,
			"minFilter":9987
		}
	],
	"buffers":[
		{
			"byteLength":178520,
			"uri":"Wall_Arch.bin"
		}
	]
}
