{
	"asset":{
		"generator":"Khronos glTF Blender I/O v5.2.40",
		"version":"2.0"
	},
	"scene":0,
	"scenes":[
		{
			"name":"Scene",
			"nodes":[
				2
			]
		}
	],
	"nodes":[
		{
			"mesh":0,
			"name":"Wall_Low_Body"
		},
		{
			"mesh":1,
			"name":"Wall_Low_Col-colonly"
		},
		{
			"children":[
				0,
				1
			],
			"name":"Wall_Low"
		}
	],
	"materials":[
		{
			"name":"Mortar",
			"pbrMetallicRoughness":{
				"baseColorFactor":[
					0.009423207491636276,
					0.007781510706990957,
					0.0063095735386013985,
					1
				],
				"metallicFactor":0,
				"roughnessFactor":0.949999988079071
			}
		},
		{
			"name":"Stone_Rough",
			"normalTexture":{
				"index":0,
				"scale":2
			},
			"pbrMetallicRoughness":{
				"baseColorTexture":{
					"index":1
				},
				"metallicFactor":0,
				"metallicRoughnessTexture":{
					"index":2
				}
			}
		},
		{
			"name":"Stone_Carved",
			"normalTexture":{
				"index":3,
				"scale":1.5
			},
			"pbrMetallicRoughness":{
				"baseColorTexture":{
					"index":4
				},
				"metallicFactor":0,
				"metallicRoughnessTexture":{
					"index":5
				}
			}
		}
	],
	"meshes":[
		{
			"name":"Wall_Low_Body",
			"primitives":[
				{
					"attributes":{
						"POSITION":0,
						"NORMAL":1,
						"TEXCOORD_0":2
					},
					"indices":3,
					"material":0
				},
				{
					"attributes":{
						"POSITION":4,
						"NORMAL":5,
						"TEXCOORD_0":6
					},
					"indices":7,
					"material":1
				},
				{
					"attributes":{
						"POSITION":8,
						"NORMAL":9,
						"TEXCOORD_0":10
					},
					"indices":11,
					"material":2
				}
			]
		},
		{
			"name":"Wall_Low_Col-colonly",
			"primitives":[
				{
					"attributes":{
						"POSITION":12,
						"NORMAL":13,
						"TEXCOORD_0":14
					},
					"indices":15
				}
			]
		}
	],
	"textures":[
		{
			"sampler":0,
			"source":0
		},
		{
			"sampler":0,
			"source":1
		},
		{
			"sampler":0,
			"source":2
		},
		{
			"sampler":0,
			"source":3
		},
		{
			"sampler":0,
			"source":4
		},
		{
			"sampler":0,
			"source":5
		}
	],
	"images":[
		{
			"mimeType":"image/jpeg",
			"name":"stone_rough_normal",
			"uri":"../textures/stone_rough_normal.jpg"
		},
		{
			"mimeType":"image/jpeg",
			"name":"stone_rough_albedo",
			"uri":"../textures/stone_rough_albedo.jpg"
		},
		{
			"mimeType":"image/png",
			"name":"stone_rough_rough",
			"uri":"../textures/stone_rough_rough.png"
		},
		{
			"mimeType":"image/jpeg",
			"name":"stone_carved_normal",
			"uri":"../textures/stone_carved_normal.jpg"
		},
		{
			"mimeType":"image/jpeg",
			"name":"stone_carved_albedo",
			"uri":"../textures/stone_carved_albedo.jpg"
		},
		{
			"mimeType":"image/png",
			"name":"stone_carved_rough",
			"uri":"../textures/stone_carved_rough.png"
		}
	],
	"accessors":[
		{
			"bufferView":0,
			"componentType":5126,
			"count":96,
			"max":[
				1,
				1,
				-0.019999995827674866
			],
			"min":[
				-1,
				0,
				-0.30000001192092896
			],
			"type":"VEC3"
		},
		{
			"bufferView":1,
			"componentType":5126,
			"count":96,
			"type":"VEC3"
		},
		{
			"bufferView":2,
			"componentType":5126,
			"count":96,
			"type":"VEC2"
		},
		{
			"bufferView":3,
			"componentType":5123,
			"count":324,
			"type":"SCALAR"
		},
		{
			"bufferView":4,
			"componentType":5126,
			"count":960,
			"max":[
				0.9940000176429749,
				0.9939999580383301,
				0.04785757511854172
			],
			"min":[
				-0.9940000176429749,
				0.006000012159347534,
				-0.2800000011920929
			],
			"type":"VEC3"
		},
		{
			"bufferView":5,
			"componentType":5126,
			"count":960,
			"type":"VEC3"
		},
		{
			"bufferView":6,
			"componentType":5126,
			"count":960,
			"type":"VEC2"
		},
		{
			"bufferView":7,
			"componentType":5123,
			"count":3240,
			"type":"SCALAR"
		},
		{
			"bufferView":8,
			"componentType":5126,
			"count":96,
			"max":[
				1,
				1.0799999237060547,
				0.07999999821186066
			],
			"min":[
				-1,
				0.9999999403953552,
				-0.30000001192092896
			],
			"type":"VEC3"
		},
		{
			"bufferView":9,
			"componentType":5126,
			"count":96,
			"type":"VEC3"
		},
		{
			"bufferView":10,
			"componentType":5126,
			"count":96,
			"type":"VEC2"
		},
		{
			"bufferView":11,
			"componentType":5123,
			"count":324,
			"type":"SCALAR"
		},
		{
			"bufferView":12,
			"componentType":5126,
			"count":24,
			"max":[
				1,
				1.0800000429153442,
				0
			],
			"min":[
				-1,
				0,
				-0.30000001192092896
			],
			"type":"VEC3"
		},
		{
			"bufferView":13,
			"componentType":5126,
			"count":24,
			"type":"VEC3"
		},
		{
			"bufferView":14,
			"componentType":5126,
			"count":24,
			"type":"VEC2"
		},
		{
			"bufferView":15,
			"componentType":5123,
			"count":36,
			"type":"SCALAR"
		}
	],
	"bufferViews":[
		{
			"buffer":0,
			"byteLength":1152,
			"byteOffset":0,
			"target":34962
		},
		{
			"buffer":0,
			"byteLength":1152,
			"byteOffset":1152,
			"target":34962
		},
		{
			"buffer":0,
			"byteLength":768,
			"byteOffset":2304,
			"target":34962
		},
		{
			"buffer":0,
			"byteLength":648,
			"byteOffset":3072,
			"target":34963
		},
		{
			"buffer":0,
			"byteLength":11520,
			"byteOffset":3720,
			"target":34962
		},
		{
			"buffer":0,
			"byteLength":11520,
			"byteOffset":15240,
			"target":34962
		},
		{
			"buffer":0,
			"byteLength":7680,
			"byteOffset":26760,
			"target":34962
		},
		{
			"buffer":0,
			"byteLength":6480,
			"byteOffset":34440,
			"target":34963
		},
		{
			"buffer":0,
			"byteLength":1152,
			"byteOffset":40920,
			"target":34962
		},
		{
			"buffer":0,
			"byteLength":1152,
			"byteOffset":42072,
			"target":34962
		},
		{
			"buffer":0,
			"byteLength":768,
			"byteOffset":43224,
			"target":34962
		},
		{
			"buffer":0,
			"byteLength":648,
			"byteOffset":43992,
			"target":34963
		},
		{
			"buffer":0,
			"byteLength":288,
			"byteOffset":44640,
			"target":34962
		},
		{
			"buffer":0,
			"byteLength":288,
			"byteOffset":44928,
			"target":34962
		},
		{
			"buffer":0,
			"byteLength":192,
			"byteOffset":45216,
			"target":34962
		},
		{
			"buffer":0,
			"byteLength":72,
			"byteOffset":45408,
			"target":34963
		}
	],
	"samplers":[
		{
			"magFilter":9729,
			"minFilter":9987
		}
	],
	"buffers":[
		{
			"byteLength":45480,
			"uri":"Wall_Low.bin"
		}
	]
}
