{
	"asset":{
		"generator":"Khronos glTF Blender I/O v5.2.40",
		"version":"2.0"
	},
	"scene":0,
	"scenes":[
		{
			"name":"Scene",
			"nodes":[
				3
			]
		}
	],
	"nodes":[
		{
			"mesh":0,
			"name":"Wall_Niche_Col-colonly"
		},
		{
			"mesh":1,
			"name":"Wall_Niche_Trim"
		},
		{
			"mesh":2,
			"name":"Wall_Niche_Wall"
		},
		{
			"children":[
				0,
				1,
				2
			],
			"name":"Wall_Niche"
		}
	],
	"materials":[
		{
			"name":"Stone_Carved",
			"normalTexture":{
				"index":0,
				"scale":1.5
			},
			"pbrMetallicRoughness":{
				"baseColorTexture":{
					"index":1
				},
				"metallicFactor":0,
				"metallicRoughnessTexture":{
					"index":2
				}
			}
		}
	],
	"meshes":[
		{
			"name":"Wall_Niche_Col-colonly",
			"primitives":[
				{
					"attributes":{
						"POSITION":0,
						"NORMAL":1,
						"TEXCOORD_0":2
					},
					"indices":3
				}
			]
		},
		{
			"name":"Wall_Niche_Trim",
			"primitives":[
				{
					"attributes":{
						"POSITION":4,
						"NORMAL":5,
						"TEXCOORD_0":6
					},
					"indices":7,
					"material":0
				}
			]
		},
		{
			"name":"Wall_Niche_Wall",
			"primitives":[
				{
					"attributes":{
						"POSITION":8,
						"NORMAL":9,
						"TEXCOORD_0":10
					},
					"indices":11,
					"material":0
				}
			]
		}
	],
	"textures":[
		{
			"sampler":0,
			"source":0
		},
		{
			"sampler":0,
			"source":1
		},
		{
			"sampler":0,
			"source":2
		}
	],
	"images":[
		{
			"mimeType":"image/jpeg",
			"name":"stone_carved_normal",
			"uri":"../textures/stone_carved_normal.jpg"
		},
		{
			"mimeType":"image/jpeg",
			"name":"stone_carved_albedo",
			"uri":"../textures/stone_carved_albedo.jpg"
		},
		{
			"mimeType":"image/png",
			"name":"stone_carved_rough",
			"uri":"../textures/stone_carved_rough.png"
		}
	],
	"accessors":[
		{
			"bufferView":0,
			"componentType":5126,
			"count":24,
			"max":[
				1,
				3.200000047683716,
				0
			],
			"min":[
				-1,
				0,
				-0.30000001192092896
			],
			"type":"VEC3"
		},
		{
			"bufferView":1,
			"componentType":5126,
			"count":24,
			"type":"VEC3"
		},
		{
			"bufferView":2,
			"componentType":5126,
			"count":24,
			"type":"VEC2"
		},
		{
			"bufferView":3,
			"componentType":5123,
			"count":36,
			"type":"SCALAR"
		},
		{
			"bufferView":4,
			"componentType":5126,
			"count":2114,
			"max":[
				1,
				3.0999999046325684,
				0.12000000476837158
			],
			"min":[
				-1,
				0,
				-0.030000001192092896
			],
			"type":"VEC3"
		},
		{
			"bufferView":5,
			"componentType":5126,
			"count":2114,
			"type":"VEC3"
		},
		{
			"bufferView":6,
			"componentType":5126,
			"count":2114,
			"type":"VEC2"
		},
		{
			"bufferView":7,
			"componentType":5123,
			"count":7938,
			"type":"SCALAR"
		},
		{
			"bufferView":8,
			"componentType":5126,
			"count":660,
			"max":[
				1,
				3.200000047683716,
				0
			],
			"min":[
				-1,
				0,
				-0.75
			],
			"type":"VEC3"
		},
		{
			"bufferView":9,
			"componentType":5126,
			"count":660,
			"type":"VEC3"
		},
		{
			"bufferView":10,
			"componentType":5126,
			"count":660,
			"type":"VEC2"
		},
		{
			"bufferView":11,
			"componentType":5123,
			"count":1776,
			"type":"SCALAR"
		}
	],
	"bufferViews":[
		{
			"buffer":0,
			"byteLength":288,
			"byteOffset":0,
			"target":34962
		},
		{
			"buffer":0,
			"byteLength":288,
			"byteOffset":288,
			"target":34962
		},
		{
			"buffer":0,
			"byteLength":192,
			"byteOffset":576,
			"target":34962
		},
		{
			"buffer":0,
			"byteLength":72,
			"byteOffset":768,
			"target":34963
		},
		{
			"buffer":0,
			"byteLength":25368,
			"byteOffset":840,
			"target":34962
		},
		{
			"buffer":0,
			"byteLength":25368,
			"byteOffset":26208,
			"target":34962
		},
		{
			"buffer":0,
			"byteLength":16912,
			"byteOffset":51576,
			"target":34962
		},
		{
			"buffer":0,
			"byteLength":15876,
			"byteOffset":68488,
			"target":34963
		},
		{
			"buffer":0,
			"byteLength":7920,
			"byteOffset":84364,
			"target":34962
		},
		{
			"buffer":0,
			"byteLength":7920,
			"byteOffset":92284,
			"target":34962
		},
		{
			"buffer":0,
			"byteLength":5280,
			"byteOffset":100204,
			"target":34962
		},
		{
			"buffer":0,
			"byteLength":3552,
			"byteOffset":105484,
			"target":34963
		}
	],
	"samplers":[
		{
			"magFilter":9729,
			"minFilter":9987
		}
	],
	"buffers":[
		{
			"byteLength":109036,
			"uri":"Wall_Niche.bin"
		}
	]
}
