{
	"asset":{
		"generator":"Khronos glTF Blender I/O v5.2.40",
		"version":"2.0"
	},
	"scene":0,
	"scenes":[
		{
			"name":"Scene",
			"nodes":[
				6
			]
		}
	],
	"nodes":[
		{
			"mesh":0,
			"name":"Wall_Window_Col-colonly"
		},
		{
			"mesh":1,
			"name":"Wall_Window_Wall"
		},
		{
			"mesh":2,
			"name":"Window_Arched_Glass"
		},
		{
			"mesh":3,
			"name":"Window_Arched_Iron"
		},
		{
			"mesh":4,
			"name":"Window_Arched_Stone"
		},
		{
			"children":[
				2,
				3,
				4
			],
			"name":"Window_Arched",
			"translation":[
				0,
				0.25,
				-0.15000000596046448
			]
		},
		{
			"children":[
				0,
				1,
				5
			],
			"name":"Wall_Window"
		}
	],
	"materials":[
		{
			"name":"Stone_Rough",
			"normalTexture":{
				"index":0,
				"scale":2
			},
			"pbrMetallicRoughness":{
				"baseColorTexture":{
					"index":1
				},
				"metallicFactor":0,
				"metallicRoughnessTexture":{
					"index":2
				}
			}
		},
		{
			"alphaMode":"BLEND",
			"doubleSided":true,
			"emissiveFactor":[
				0.017685068771243095,
				0.033302128314971924,
				0.06710238009691238
			],
			"name":"Glass_Leaded",
			"normalTexture":{
				"index":3
			},
			"pbrMetallicRoughness":{
				"baseColorTexture":{
					"index":4
				},
				"metallicFactor":0,
				"roughnessFactor":0.11999999731779099
			}
		},
		{
			"name":"Iron_Wrought",
			"normalTexture":{
				"index":5,
				"scale":1.399999976158142
			},
			"pbrMetallicRoughness":{
				"baseColorTexture":{
					"index":6
				},
				"metallicRoughnessTexture":{
					"index":7
				}
			}
		},
		{
			"name":"Stone_Carved",
			"normalTexture":{
				"index":8,
				"scale":1.5
			},
			"pbrMetallicRoughness":{
				"baseColorTexture":{
					"index":9
				},
				"metallicFactor":0,
				"metallicRoughnessTexture":{
					"index":10
				}
			}
		}
	],
	"meshes":[
		{
			"name":"Wall_Window_Col-colonly",
			"primitives":[
				{
					"attributes":{
						"POSITION":0,
						"NORMAL":1,
						"TEXCOORD_0":2
					},
					"indices":3
				}
			]
		},
		{
			"name":"Wall_Window_Wall",
			"primitives":[
				{
					"attributes":{
						"POSITION":4,
						"NORMAL":5,
						"TEXCOORD_0":6
					},
					"indices":7,
					"material":0
				}
			]
		},
		{
			"name":"Window_Arched_Glass",
			"primitives":[
				{
					"attributes":{
						"POSITION":8,
						"NORMAL":9,
						"TEXCOORD_0":10
					},
					"indices":11,
					"material":1
				}
			]
		},
		{
			"name":"Window_Arched_Iron",
			"primitives":[
				{
					"attributes":{
						"POSITION":12,
						"NORMAL":13,
						"TEXCOORD_0":14
					},
					"indices":15,
					"material":2
				}
			]
		},
		{
			"name":"Window_Arched_Stone",
			"primitives":[
				{
					"attributes":{
						"POSITION":16,
						"NORMAL":17,
						"TEXCOORD_0":18
					},
					"indices":19,
					"material":3
				}
			]
		}
	],
	"textures":[
		{
			"sampler":0,
			"source":0
		},
		{
			"sampler":0,
			"source":1
		},
		{
			"sampler":0,
			"source":2
		},
		{
			"sampler":0,
			"source":3
		},
		{
			"sampler":0,
			"source":4
		},
		{
			"sampler":0,
			"source":5
		},
		{
			"sampler":0,
			"source":6
		},
		{
			"sampler":0,
			"source":7
		},
		{
			"sampler":0,
			"source":8
		},
		{
			"sampler":0,
			"source":9
		},
		{
			"sampler":0,
			"source":10
		}
	],
	"images":[
		{
			"mimeType":"image/jpeg",
			"name":"stone_rough_normal",
			"uri":"../textures/stone_rough_normal.jpg"
		},
		{
			"mimeType":"image/jpeg",
			"name":"stone_rough_albedo",
			"uri":"../textures/stone_rough_albedo.jpg"
		},
		{
			"mimeType":"image/png",
			"name":"stone_rough_rough",
			"uri":"../textures/stone_rough_rough.png"
		},
		{
			"mimeType":"image/jpeg",
			"name":"glass_leaded_normal",
			"uri":"../textures/glass_leaded_normal.jpg"
		},
		{
			"mimeType":"image/png",
			"name":"glass_leaded_albedo",
			"uri":"../textures/glass_leaded_albedo.png"
		},
		{
			"mimeType":"image/jpeg",
			"name":"iron_normal",
			"uri":"../textures/iron_normal.jpg"
		},
		{
			"mimeType":"image/jpeg",
			"name":"iron_albedo",
			"uri":"../textures/iron_albedo.jpg"
		},
		{
			"mimeType":"image/png",
			"name":"iron_rough",
			"uri":"../textures/iron_rough.png"
		},
		{
			"mimeType":"image/jpeg",
			"name":"stone_carved_normal",
			"uri":"../textures/stone_carved_normal.jpg"
		},
		{
			"mimeType":"image/jpeg",
			"name":"stone_carved_albedo",
			"uri":"../textures/stone_carved_albedo.jpg"
		},
		{
			"mimeType":"image/png",
			"name":"stone_carved_rough",
			"uri":"../textures/stone_carved_rough.png"
		}
	],
	"accessors":[
		{
			"bufferView":0,
			"componentType":5126,
			"count":24,
			"max":[
				1,
				3.200000047683716,
				0
			],
			"min":[
				-1,
				0,
				-0.30000001192092896
			],
			"type":"VEC3"
		},
		{
			"bufferView":1,
			"componentType":5126,
			"count":24,
			"type":"VEC3"
		},
		{
			"bufferView":2,
			"componentType":5126,
			"count":24,
			"type":"VEC2"
		},
		{
			"bufferView":3,
			"componentType":5123,
			"count":36,
			"type":"SCALAR"
		},
		{
			"bufferView":4,
			"componentType":5126,
			"count":280,
			"max":[
				1,
				3.200000047683716,
				0
			],
			"min":[
				-1,
				0,
				-0.30000001192092896
			],
			"type":"VEC3"
		},
		{
			"bufferView":5,
			"componentType":5126,
			"count":280,
			"type":"VEC3"
		},
		{
			"bufferView":6,
			"componentType":5126,
			"count":280,
			"type":"VEC2"
		},
		{
			"bufferView":7,
			"componentType":5123,
			"count":720,
			"type":"SCALAR"
		},
		{
			"bufferView":8,
			"componentType":5126,
			"count":51,
			"max":[
				0.75,
				2.75,
				0
			],
			"min":[
				-0.75,
				0,
				0
			],
			"type":"VEC3"
		},
		{
			"bufferView":9,
			"componentType":5126,
			"count":51,
			"type":"VEC3"
		},
		{
			"bufferView":10,
			"componentType":5126,
			"count":51,
			"type":"VEC2"
		},
		{
			"bufferView":11,
			"componentType":5123,
			"count":147,
			"type":"SCALAR"
		},
		{
			"bufferView":12,
			"componentType":5126,
			"count":2486,
			"max":[
				0.75,
				2.75,
				0.02500000037252903
			],
			"min":[
				-0.75,
				0,
				-0.02500000037252903
			],
			"type":"VEC3"
		},
		{
			"bufferView":13,
			"componentType":5126,
			"count":2486,
			"type":"VEC3"
		},
		{
			"bufferView":14,
			"componentType":5126,
			"count":2486,
			"type":"VEC2"
		},
		{
			"bufferView":15,
			"componentType":5123,
			"count":10008,
			"type":"SCALAR"
		},
		{
			"bufferView":16,
			"componentType":5126,
			"count":3783,
			"max":[
				0.9750000238418579,
				2.8499999046325684,
				0.25999999046325684
			],
			"min":[
				-0.9750000238418579,
				-0.2150000035762787,
				-0.15000000596046448
			],
			"type":"VEC3"
		},
		{
			"bufferView":17,
			"componentType":5126,
			"count":3783,
			"type":"VEC3"
		},
		{
			"bufferView":18,
			"componentType":5126,
			"count":3783,
			"type":"VEC2"
		},
		{
			"bufferView":19,
			"componentType":5123,
			"count":13938,
			"type":"SCALAR"
		}
	],
	"bufferViews":[
		{
			"buffer":0,
			"byteLength":288,
			"byteOffset":0,
			"target":34962
		},
		{
			"buffer":0,
			"byteLength":288,
			"byteOffset":288,
			"target":34962
		},
		{
			"buffer":0,
			"byteLength":192,
			"byteOffset":576,
			"target":34962
		},
		{
			"buffer":0,
			"byteLength":72,
			"byteOffset":768,
			"target":34963
		},
		{
			"buffer":0,
			"byteLength":3360,
			"byteOffset":840,
			"target":34962
		},
		{
			"buffer":0,
			"byteLength":3360,
			"byteOffset":4200,
			"target":34962
		},
		{
			"buffer":0,
			"byteLength":2240,
			"byteOffset":7560,
			"target":34962
		},
		{
			"buffer":0,
			"byteLength":1440,
			"byteOffset":9800,
			"target":34963
		},
		{
			"buffer":0,
			"byteLength":612,
			"byteOffset":11240,
			"target":34962
		},
		{
			"buffer":0,
			"byteLength":612,
			"byteOffset":11852,
			"target":34962
		},
		{
			"buffer":0,
			"byteLength":408,
			"byteOffset":12464,
			"target":34962
		},
		{
			"buffer":0,
			"byteLength":294,
			"byteOffset":12872,
			"target":34963
		},
		{
			"buffer":0,
			"byteLength":29832,
			"byteOffset":13168,
			"target":34962
		},
		{
			"buffer":0,
			"byteLength":29832,
			"byteOffset":43000,
			"target":34962
		},
		{
			"buffer":0,
			"byteLength":19888,
			"byteOffset":72832,
			"target":34962
		},
		{
			"buffer":0,
			"byteLength":20016,
			"byteOffset":92720,
			"target":34963
		},
		{
			"buffer":0,
			"byteLength":45396,
			"byteOffset":112736,
			"target":34962
		},
		{
			"buffer":0,
			"byteLength":45396,
			"byteOffset":158132,
			"target":34962
		},
		{
			"buffer":0,
			"byteLength":30264,
			"byteOffset":203528,
			"target":34962
		},
		{
			"buffer":0,
			"byteLength":27876,
			"byteOffset":233792,
			"target":34963
		}
	],
	"samplers":[
		{
			"magFilter":9729,
			"minFilter":9987
		}
	],
	"buffers":[
		{
			"byteLength":261668,
			"uri":"Wall_Window.bin"
		}
	]
}
