{
	"asset":{
		"generator":"Khronos glTF Blender I/O v5.2.40",
		"version":"2.0"
	},
	"scene":0,
	"scenes":[
		{
			"name":"Scene",
			"nodes":[
				4
			]
		}
	],
	"nodes":[
		{
			"mesh":0,
			"name":"Wall_Panel_Clean_Col-colonly"
		},
		{
			"mesh":1,
			"name":"Wall_Panel_Clean_Frieze"
		},
		{
			"mesh":2,
			"name":"Wall_Panel_Clean_Wall"
		},
		{
			"mesh":3,
			"name":"Wall_Panel_Clean_Wood"
		},
		{
			"children":[
				0,
				1,
				2,
				3
			],
			"name":"Wall_Panel_Clean"
		}
	],
	"materials":[
		{
			"name":"Gold_Gilt",
			"normalTexture":{
				"index":0
			},
			"pbrMetallicRoughness":{
				"baseColorTexture":{
					"index":1
				},
				"metallicRoughnessTexture":{
					"index":2
				}
			}
		},
		{
			"name":"Wallpaper_Clean",
			"normalTexture":{
				"index":3
			},
			"pbrMetallicRoughness":{
				"baseColorTexture":{
					"index":4
				},
				"metallicFactor":0,
				"metallicRoughnessTexture":{
					"index":5
				}
			}
		},
		{
			"name":"Wood_Polished",
			"normalTexture":{
				"index":6
			},
			"pbrMetallicRoughness":{
				"baseColorTexture":{
					"index":7
				},
				"metallicFactor":0,
				"metallicRoughnessTexture":{
					"index":8
				}
			}
		}
	],
	"meshes":[
		{
			"name":"Wall_Panel_Col-colonly",
			"primitives":[
				{
					"attributes":{
						"POSITION":0,
						"NORMAL":1,
						"TEXCOORD_0":2
					},
					"indices":3
				}
			]
		},
		{
			"name":"Wall_Panel_Clean_Frieze",
			"primitives":[
				{
					"attributes":{
						"POSITION":4,
						"NORMAL":5,
						"TEXCOORD_0":6
					},
					"indices":7,
					"material":0
				}
			]
		},
		{
			"name":"Wall_Panel_Wall",
			"primitives":[
				{
					"attributes":{
						"POSITION":8,
						"NORMAL":9,
						"TEXCOORD_0":10
					},
					"indices":3,
					"material":1
				}
			]
		},
		{
			"name":"Wall_Panel_Wood",
			"primitives":[
				{
					"attributes":{
						"POSITION":11,
						"NORMAL":12,
						"TEXCOORD_0":13
					},
					"indices":14,
					"material":2
				}
			]
		}
	],
	"textures":[
		{
			"sampler":0,
			"source":0
		},
		{
			"sampler":0,
			"source":1
		},
		{
			"sampler":0,
			"source":2
		},
		{
			"sampler":0,
			"source":3
		},
		{
			"sampler":0,
			"source":4
		},
		{
			"sampler":0,
			"source":5
		},
		{
			"sampler":0,
			"source":6
		},
		{
			"sampler":0,
			"source":7
		},
		{
			"sampler":0,
			"source":8
		}
	],
	"images":[
		{
			"mimeType":"image/jpeg",
			"name":"gilt_normal",
			"uri":"../textures/gilt_normal.jpg"
		},
		{
			"mimeType":"image/jpeg",
			"name":"gilt_albedo",
			"uri":"../textures/gilt_albedo.jpg"
		},
		{
			"mimeType":"image/png",
			"name":"gilt_rough",
			"uri":"../textures/gilt_rough.png"
		},
		{
			"mimeType":"image/jpeg",
			"name":"wallpaper_clean_normal",
			"uri":"../textures/wallpaper_clean_normal.jpg"
		},
		{
			"mimeType":"image/jpeg",
			"name":"wallpaper_clean_albedo",
			"uri":"../textures/wallpaper_clean_albedo.jpg"
		},
		{
			"mimeType":"image/png",
			"name":"wallpaper_clean_rough",
			"uri":"../textures/wallpaper_clean_rough.png"
		},
		{
			"mimeType":"image/jpeg",
			"name":"wood_polished_normal",
			"uri":"../textures/wood_polished_normal.jpg"
		},
		{
			"mimeType":"image/jpeg",
			"name":"wood_polished_albedo",
			"uri":"../textures/wood_polished_albedo.jpg"
		},
		{
			"mimeType":"image/png",
			"name":"wood_polished_rough",
			"uri":"../textures/wood_polished_rough.png"
		}
	],
	"accessors":[
		{
			"bufferView":0,
			"componentType":5126,
			"count":24,
			"max":[
				1,
				3.200000047683716,
				0.05000000447034836
			],
			"min":[
				-1,
				0,
				-0.10000000149011612
			],
			"type":"VEC3"
		},
		{
			"bufferView":1,
			"componentType":5126,
			"count":24,
			"type":"VEC3"
		},
		{
			"bufferView":2,
			"componentType":5126,
			"count":24,
			"type":"VEC2"
		},
		{
			"bufferView":3,
			"componentType":5123,
			"count":36,
			"type":"SCALAR"
		},
		{
			"bufferView":4,
			"componentType":5126,
			"count":1057,
			"max":[
				1,
				2.8550000190734863,
				0.04349999874830246
			],
			"min":[
				-1,
				2.7849998474121094,
				0
			],
			"type":"VEC3"
		},
		{
			"bufferView":5,
			"componentType":5126,
			"count":1057,
			"type":"VEC3"
		},
		{
			"bufferView":6,
			"componentType":5126,
			"count":1057,
			"type":"VEC2"
		},
		{
			"bufferView":7,
			"componentType":5123,
			"count":3588,
			"type":"SCALAR"
		},
		{
			"bufferView":8,
			"componentType":5126,
			"count":24,
			"max":[
				1,
				3.200000047683716,
				0
			],
			"min":[
				-1,
				0,
				-0.10000000149011612
			],
			"type":"VEC3"
		},
		{
			"bufferView":9,
			"componentType":5126,
			"count":24,
			"type":"VEC3"
		},
		{
			"bufferView":10,
			"componentType":5126,
			"count":24,
			"type":"VEC2"
		},
		{
			"bufferView":11,
			"componentType":5126,
			"count":1991,
			"max":[
				1,
				3.200000047683716,
				0.10499999672174454
			],
			"min":[
				-1,
				0,
				0
			],
			"type":"VEC3"
		},
		{
			"bufferView":12,
			"componentType":5126,
			"count":1991,
			"type":"VEC3"
		},
		{
			"bufferView":13,
			"componentType":5126,
			"count":1991,
			"type":"VEC2"
		},
		{
			"bufferView":14,
			"componentType":5123,
			"count":6120,
			"type":"SCALAR"
		}
	],
	"bufferViews":[
		{
			"buffer":0,
			"byteLength":288,
			"byteOffset":0,
			"target":34962
		},
		{
			"buffer":0,
			"byteLength":288,
			"byteOffset":288,
			"target":34962
		},
		{
			"buffer":0,
			"byteLength":192,
			"byteOffset":576,
			"target":34962
		},
		{
			"buffer":0,
			"byteLength":72,
			"byteOffset":768,
			"target":34963
		},
		{
			"buffer":0,
			"byteLength":12684,
			"byteOffset":840,
			"target":34962
		},
		{
			"buffer":0,
			"byteLength":12684,
			"byteOffset":13524,
			"target":34962
		},
		{
			"buffer":0,
			"byteLength":8456,
			"byteOffset":26208,
			"target":34962
		},
		{
			"buffer":0,
			"byteLength":7176,
			"byteOffset":34664,
			"target":34963
		},
		{
			"buffer":0,
			"byteLength":288,
			"byteOffset":41840,
			"target":34962
		},
		{
			"buffer":0,
			"byteLength":288,
			"byteOffset":42128,
			"target":34962
		},
		{
			"buffer":0,
			"byteLength":192,
			"byteOffset":42416,
			"target":34962
		},
		{
			"buffer":0,
			"byteLength":23892,
			"byteOffset":42608,
			"target":34962
		},
		{
			"buffer":0,
			"byteLength":23892,
			"byteOffset":66500,
			"target":34962
		},
		{
			"buffer":0,
			"byteLength":15928,
			"byteOffset":90392,
			"target":34962
		},
		{
			"buffer":0,
			"byteLength":12240,
			"byteOffset":106320,
			"target":34963
		}
	],
	"samplers":[
		{
			"magFilter":9729,
			"minFilter":9987
		}
	],
	"buffers":[
		{
			"byteLength":118560,
			"uri":"Wall_Panel_Clean.bin"
		}
	]
}
