{
	"asset":{
		"generator":"Khronos glTF Blender I/O v5.2.40",
		"version":"2.0"
	},
	"scene":0,
	"scenes":[
		{
			"name":"Scene",
			"nodes":[
				5
			]
		}
	],
	"nodes":[
		{
			"mesh":0,
			"name":"Wall_Breach_ColL-colonly"
		},
		{
			"mesh":1,
			"name":"Wall_Breach_ColR-colonly"
		},
		{
			"mesh":2,
			"name":"Wall_Breach_ColTop-colonly"
		},
		{
			"mesh":3,
			"name":"Wall_Breach_Rubble"
		},
		{
			"mesh":4,
			"name":"Wall_Breach_Wall"
		},
		{
			"children":[
				0,
				1,
				2,
				3,
				4
			],
			"name":"Wall_Breach"
		}
	],
	"materials":[
		{
			"name":"Stone_Rough",
			"normalTexture":{
				"index":0,
				"scale":2
			},
			"pbrMetallicRoughness":{
				"baseColorTexture":{
					"index":1
				},
				"metallicFactor":0,
				"metallicRoughnessTexture":{
					"index":2
				}
			}
		}
	],
	"meshes":[
		{
			"name":"Wall_Breach_ColL-colonly",
			"primitives":[
				{
					"attributes":{
						"POSITION":0,
						"NORMAL":1,
						"TEXCOORD_0":2
					},
					"indices":3
				}
			]
		},
		{
			"name":"Wall_Breach_ColR-colonly",
			"primitives":[
				{
					"attributes":{
						"POSITION":4,
						"NORMAL":5,
						"TEXCOORD_0":6
					},
					"indices":3
				}
			]
		},
		{
			"name":"Wall_Breach_ColTop-colonly",
			"primitives":[
				{
					"attributes":{
						"POSITION":7,
						"NORMAL":8,
						"TEXCOORD_0":9
					},
					"indices":3
				}
			]
		},
		{
			"name":"Wall_Breach_Rubble",
			"primitives":[
				{
					"attributes":{
						"POSITION":10,
						"NORMAL":11,
						"TEXCOORD_0":12
					},
					"indices":13,
					"material":0
				}
			]
		},
		{
			"name":"Wall_Breach_Wall",
			"primitives":[
				{
					"attributes":{
						"POSITION":14,
						"NORMAL":15,
						"TEXCOORD_0":16
					},
					"indices":17,
					"material":0
				}
			]
		}
	],
	"textures":[
		{
			"sampler":0,
			"source":0
		},
		{
			"sampler":0,
			"source":1
		},
		{
			"sampler":0,
			"source":2
		}
	],
	"images":[
		{
			"mimeType":"image/jpeg",
			"name":"stone_rough_normal",
			"uri":"../textures/stone_rough_normal.jpg"
		},
		{
			"mimeType":"image/jpeg",
			"name":"stone_rough_albedo",
			"uri":"../textures/stone_rough_albedo.jpg"
		},
		{
			"mimeType":"image/png",
			"name":"stone_rough_rough",
			"uri":"../textures/stone_rough_rough.png"
		}
	],
	"accessors":[
		{
			"bufferView":0,
			"componentType":5126,
			"count":24,
			"max":[
				-0.5499999523162842,
				3.200000047683716,
				0.15000000596046448
			],
			"min":[
				-1,
				0,
				-0.15000000596046448
			],
			"type":"VEC3"
		},
		{
			"bufferView":1,
			"componentType":5126,
			"count":24,
			"type":"VEC3"
		},
		{
			"bufferView":2,
			"componentType":5126,
			"count":24,
			"type":"VEC2"
		},
		{
			"bufferView":3,
			"componentType":5123,
			"count":36,
			"type":"SCALAR"
		},
		{
			"bufferView":4,
			"componentType":5126,
			"count":24,
			"max":[
				1,
				3.200000047683716,
				0.15000000596046448
			],
			"min":[
				0.5499999523162842,
				0,
				-0.15000000596046448
			],
			"type":"VEC3"
		},
		{
			"bufferView":5,
			"componentType":5126,
			"count":24,
			"type":"VEC3"
		},
		{
			"bufferView":6,
			"componentType":5126,
			"count":24,
			"type":"VEC2"
		},
		{
			"bufferView":7,
			"componentType":5126,
			"count":24,
			"max":[
				1,
				3.200000047683716,
				0.15000000596046448
			],
			"min":[
				-1,
				2.049999952316284,
				-0.15000000596046448
			],
			"type":"VEC3"
		},
		{
			"bufferView":8,
			"componentType":5126,
			"count":24,
			"type":"VEC3"
		},
		{
			"bufferView":9,
			"componentType":5126,
			"count":24,
			"type":"VEC2"
		},
		{
			"bufferView":10,
			"componentType":5126,
			"count":2696,
			"max":[
				1.0105990171432495,
				1.907566785812378,
				0.7582365870475769
			],
			"min":[
				-1.039929747581482,
				-0.08637882769107819,
				-0.87493896484375
			],
			"type":"VEC3"
		},
		{
			"bufferView":11,
			"componentType":5126,
			"count":2696,
			"type":"VEC3"
		},
		{
			"bufferView":12,
			"componentType":5126,
			"count":2696,
			"type":"VEC2"
		},
		{
			"bufferView":13,
			"componentType":5123,
			"count":3960,
			"type":"SCALAR"
		},
		{
			"bufferView":14,
			"componentType":5126,
			"count":132,
			"max":[
				1,
				3.200000047683716,
				0.15000000596046448
			],
			"min":[
				-1,
				0,
				-0.15000000596046448
			],
			"type":"VEC3"
		},
		{
			"bufferView":15,
			"componentType":5126,
			"count":132,
			"type":"VEC3"
		},
		{
			"bufferView":16,
			"componentType":5126,
			"count":132,
			"type":"VEC2"
		},
		{
			"bufferView":17,
			"componentType":5123,
			"count":312,
			"type":"SCALAR"
		}
	],
	"bufferViews":[
		{
			"buffer":0,
			"byteLength":288,
			"byteOffset":0,
			"target":34962
		},
		{
			"buffer":0,
			"byteLength":288,
			"byteOffset":288,
			"target":34962
		},
		{
			"buffer":0,
			"byteLength":192,
			"byteOffset":576,
			"target":34962
		},
		{
			"buffer":0,
			"byteLength":72,
			"byteOffset":768,
			"target":34963
		},
		{
			"buffer":0,
			"byteLength":288,
			"byteOffset":840,
			"target":34962
		},
		{
			"buffer":0,
			"byteLength":288,
			"byteOffset":1128,
			"target":34962
		},
		{
			"buffer":0,
			"byteLength":192,
			"byteOffset":1416,
			"target":34962
		},
		{
			"buffer":0,
			"byteLength":288,
			"byteOffset":1608,
			"target":34962
		},
		{
			"buffer":0,
			"byteLength":288,
			"byteOffset":1896,
			"target":34962
		},
		{
			"buffer":0,
			"byteLength":192,
			"byteOffset":2184,
			"target":34962
		},
		{
			"buffer":0,
			"byteLength":32352,
			"byteOffset":2376,
			"target":34962
		},
		{
			"buffer":0,
			"byteLength":32352,
			"byteOffset":34728,
			"target":34962
		},
		{
			"buffer":0,
			"byteLength":21568,
			"byteOffset":67080,
			"target":34962
		},
		{
			"buffer":0,
			"byteLength":7920,
			"byteOffset":88648,
			"target":34963
		},
		{
			"buffer":0,
			"byteLength":1584,
			"byteOffset":96568,
			"target":34962
		},
		{
			"buffer":0,
			"byteLength":1584,
			"byteOffset":98152,
			"target":34962
		},
		{
			"buffer":0,
			"byteLength":1056,
			"byteOffset":99736,
			"target":34962
		},
		{
			"buffer":0,
			"byteLength":624,
			"byteOffset":100792,
			"target":34963
		}
	],
	"samplers":[
		{
			"magFilter":9729,
			"minFilter":9987
		}
	],
	"buffers":[
		{
			"byteLength":101416,
			"uri":"Wall_Breach.bin"
		}
	]
}
