{
	"asset":{
		"generator":"Khronos glTF Blender I/O v5.2.40",
		"version":"2.0"
	},
	"scene":0,
	"scenes":[
		{
			"name":"Scene",
			"nodes":[
				2
			]
		}
	],
	"nodes":[
		{
			"mesh":0,
			"name":"Wall_Stone_Body"
		},
		{
			"mesh":1,
			"name":"Wall_Stone_Col-colonly"
		},
		{
			"children":[
				0,
				1
			],
			"name":"Wall_Stone"
		}
	],
	"materials":[
		{
			"name":"Mortar",
			"pbrMetallicRoughness":{
				"baseColorFactor":[
					0.009423207491636276,
					0.007781510706990957,
					0.0063095735386013985,
					1
				],
				"metallicFactor":0,
				"roughnessFactor":0.949999988079071
			}
		},
		{
			"name":"Stone_Rough",
			"normalTexture":{
				"index":0,
				"scale":2
			},
			"pbrMetallicRoughness":{
				"baseColorTexture":{
					"index":1
				},
				"metallicFactor":0,
				"metallicRoughnessTexture":{
					"index":2
				}
			}
		}
	],
	"meshes":[
		{
			"name":"Wall_Stone_Body",
			"primitives":[
				{
					"attributes":{
						"POSITION":0,
						"NORMAL":1,
						"TEXCOORD_0":2
					},
					"indices":3,
					"material":0
				},
				{
					"attributes":{
						"POSITION":4,
						"NORMAL":5,
						"TEXCOORD_0":6
					},
					"indices":7,
					"material":1
				}
			]
		},
		{
			"name":"Wall_Stone_Col-colonly",
			"primitives":[
				{
					"attributes":{
						"POSITION":8,
						"NORMAL":9,
						"TEXCOORD_0":10
					},
					"indices":11
				}
			]
		}
	],
	"textures":[
		{
			"sampler":0,
			"source":0
		},
		{
			"sampler":0,
			"source":1
		},
		{
			"sampler":0,
			"source":2
		}
	],
	"images":[
		{
			"mimeType":"image/jpeg",
			"name":"stone_rough_normal",
			"uri":"../textures/stone_rough_normal.jpg"
		},
		{
			"mimeType":"image/jpeg",
			"name":"stone_rough_albedo",
			"uri":"../textures/stone_rough_albedo.jpg"
		},
		{
			"mimeType":"image/png",
			"name":"stone_rough_rough",
			"uri":"../textures/stone_rough_rough.png"
		}
	],
	"accessors":[
		{
			"bufferView":0,
			"componentType":5126,
			"count":96,
			"max":[
				1,
				3.200000047683716,
				-0.019999995827674866
			],
			"min":[
				-1,
				0,
				-0.30000001192092896
			],
			"type":"VEC3"
		},
		{
			"bufferView":1,
			"componentType":5126,
			"count":96,
			"type":"VEC3"
		},
		{
			"bufferView":2,
			"componentType":5126,
			"count":96,
			"type":"VEC2"
		},
		{
			"bufferView":3,
			"componentType":5123,
			"count":324,
			"type":"SCALAR"
		},
		{
			"bufferView":4,
			"componentType":5126,
			"count":2724,
			"max":[
				0.9940000176429749,
				3.194000005722046,
				0.040994346141815186
			],
			"min":[
				-0.9940000176429749,
				0.00599999725818634,
				-0.2800000011920929
			],
			"type":"VEC3"
		},
		{
			"bufferView":5,
			"componentType":5126,
			"count":2724,
			"type":"VEC3"
		},
		{
			"bufferView":6,
			"componentType":5126,
			"count":2724,
			"type":"VEC2"
		},
		{
			"bufferView":7,
			"componentType":5123,
			"count":9072,
			"type":"SCALAR"
		},
		{
			"bufferView":8,
			"componentType":5126,
			"count":24,
			"max":[
				1,
				3.200000047683716,
				0
			],
			"min":[
				-1,
				0,
				-0.30000001192092896
			],
			"type":"VEC3"
		},
		{
			"bufferView":9,
			"componentType":5126,
			"count":24,
			"type":"VEC3"
		},
		{
			"bufferView":10,
			"componentType":5126,
			"count":24,
			"type":"VEC2"
		},
		{
			"bufferView":11,
			"componentType":5123,
			"count":36,
			"type":"SCALAR"
		}
	],
	"bufferViews":[
		{
			"buffer":0,
			"byteLength":1152,
			"byteOffset":0,
			"target":34962
		},
		{
			"buffer":0,
			"byteLength":1152,
			"byteOffset":1152,
			"target":34962
		},
		{
			"buffer":0,
			"byteLength":768,
			"byteOffset":2304,
			"target":34962
		},
		{
			"buffer":0,
			"byteLength":648,
			"byteOffset":3072,
			"target":34963
		},
		{
			"buffer":0,
			"byteLength":32688,
			"byteOffset":3720,
			"target":34962
		},
		{
			"buffer":0,
			"byteLength":32688,
			"byteOffset":36408,
			"target":34962
		},
		{
			"buffer":0,
			"byteLength":21792,
			"byteOffset":69096,
			"target":34962
		},
		{
			"buffer":0,
			"byteLength":18144,
			"byteOffset":90888,
			"target":34963
		},
		{
			"buffer":0,
			"byteLength":288,
			"byteOffset":109032,
			"target":34962
		},
		{
			"buffer":0,
			"byteLength":288,
			"byteOffset":109320,
			"target":34962
		},
		{
			"buffer":0,
			"byteLength":192,
			"byteOffset":109608,
			"target":34962
		},
		{
			"buffer":0,
			"byteLength":72,
			"byteOffset":109800,
			"target":34963
		}
	],
	"samplers":[
		{
			"magFilter":9729,
			"minFilter":9987
		}
	],
	"buffers":[
		{
			"byteLength":109872,
			"uri":"Wall_Stone.bin"
		}
	]
}
