{
	"asset":{
		"generator":"Khronos glTF Blender I/O v5.2.40",
		"version":"2.0"
	},
	"scene":0,
	"scenes":[
		{
			"name":"Scene",
			"nodes":[
				3
			]
		}
	],
	"nodes":[
		{
			"mesh":0,
			"name":"Window_Arched_Glass"
		},
		{
			"mesh":1,
			"name":"Window_Arched_Iron"
		},
		{
			"mesh":2,
			"name":"Window_Arched_Stone"
		},
		{
			"children":[
				0,
				1,
				2
			],
			"name":"Window_Arched"
		}
	],
	"materials":[
		{
			"alphaMode":"BLEND",
			"doubleSided":true,
			"emissiveFactor":[
				0.017685068771243095,
				0.033302128314971924,
				0.06710238009691238
			],
			"name":"Glass_Leaded",
			"normalTexture":{
				"index":0
			},
			"pbrMetallicRoughness":{
				"baseColorTexture":{
					"index":1
				},
				"metallicFactor":0,
				"roughnessFactor":0.11999999731779099
			}
		},
		{
			"name":"Iron_Wrought",
			"normalTexture":{
				"index":2,
				"scale":1.399999976158142
			},
			"pbrMetallicRoughness":{
				"baseColorTexture":{
					"index":3
				},
				"metallicRoughnessTexture":{
					"index":4
				}
			}
		},
		{
			"name":"Stone_Carved",
			"normalTexture":{
				"index":5,
				"scale":1.5
			},
			"pbrMetallicRoughness":{
				"baseColorTexture":{
					"index":6
				},
				"metallicFactor":0,
				"metallicRoughnessTexture":{
					"index":7
				}
			}
		}
	],
	"meshes":[
		{
			"name":"Window_Arched_Glass",
			"primitives":[
				{
					"attributes":{
						"POSITION":0,
						"NORMAL":1,
						"TEXCOORD_0":2
					},
					"indices":3,
					"material":0
				}
			]
		},
		{
			"name":"Window_Arched_Iron",
			"primitives":[
				{
					"attributes":{
						"POSITION":4,
						"NORMAL":5,
						"TEXCOORD_0":6
					},
					"indices":7,
					"material":1
				}
			]
		},
		{
			"name":"Window_Arched_Stone",
			"primitives":[
				{
					"attributes":{
						"POSITION":8,
						"NORMAL":9,
						"TEXCOORD_0":10
					},
					"indices":11,
					"material":2
				}
			]
		}
	],
	"textures":[
		{
			"sampler":0,
			"source":0
		},
		{
			"sampler":0,
			"source":1
		},
		{
			"sampler":0,
			"source":2
		},
		{
			"sampler":0,
			"source":3
		},
		{
			"sampler":0,
			"source":4
		},
		{
			"sampler":0,
			"source":5
		},
		{
			"sampler":0,
			"source":6
		},
		{
			"sampler":0,
			"source":7
		}
	],
	"images":[
		{
			"mimeType":"image/jpeg",
			"name":"glass_leaded_normal",
			"uri":"../textures/glass_leaded_normal.jpg"
		},
		{
			"mimeType":"image/png",
			"name":"glass_leaded_albedo",
			"uri":"../textures/glass_leaded_albedo.png"
		},
		{
			"mimeType":"image/jpeg",
			"name":"iron_normal",
			"uri":"../textures/iron_normal.jpg"
		},
		{
			"mimeType":"image/jpeg",
			"name":"iron_albedo",
			"uri":"../textures/iron_albedo.jpg"
		},
		{
			"mimeType":"image/png",
			"name":"iron_rough",
			"uri":"../textures/iron_rough.png"
		},
		{
			"mimeType":"image/jpeg",
			"name":"stone_carved_normal",
			"uri":"../textures/stone_carved_normal.jpg"
		},
		{
			"mimeType":"image/jpeg",
			"name":"stone_carved_albedo",
			"uri":"../textures/stone_carved_albedo.jpg"
		},
		{
			"mimeType":"image/png",
			"name":"stone_carved_rough",
			"uri":"../textures/stone_carved_rough.png"
		}
	],
	"accessors":[
		{
			"bufferView":0,
			"componentType":5126,
			"count":51,
			"max":[
				0.75,
				2.75,
				0
			],
			"min":[
				-0.75,
				0,
				0
			],
			"type":"VEC3"
		},
		{
			"bufferView":1,
			"componentType":5126,
			"count":51,
			"type":"VEC3"
		},
		{
			"bufferView":2,
			"componentType":5126,
			"count":51,
			"type":"VEC2"
		},
		{
			"bufferView":3,
			"componentType":5123,
			"count":147,
			"type":"SCALAR"
		},
		{
			"bufferView":4,
			"componentType":5126,
			"count":2486,
			"max":[
				0.75,
				2.75,
				0.02500000037252903
			],
			"min":[
				-0.75,
				0,
				-0.02500000037252903
			],
			"type":"VEC3"
		},
		{
			"bufferView":5,
			"componentType":5126,
			"count":2486,
			"type":"VEC3"
		},
		{
			"bufferView":6,
			"componentType":5126,
			"count":2486,
			"type":"VEC2"
		},
		{
			"bufferView":7,
			"componentType":5123,
			"count":10008,
			"type":"SCALAR"
		},
		{
			"bufferView":8,
			"componentType":5126,
			"count":3783,
			"max":[
				0.9750000238418579,
				2.8499999046325684,
				0.25999999046325684
			],
			"min":[
				-0.9750000238418579,
				-0.2150000035762787,
				-0.15000000596046448
			],
			"type":"VEC3"
		},
		{
			"bufferView":9,
			"componentType":5126,
			"count":3783,
			"type":"VEC3"
		},
		{
			"bufferView":10,
			"componentType":5126,
			"count":3783,
			"type":"VEC2"
		},
		{
			"bufferView":11,
			"componentType":5123,
			"count":13938,
			"type":"SCALAR"
		}
	],
	"bufferViews":[
		{
			"buffer":0,
			"byteLength":612,
			"byteOffset":0,
			"target":34962
		},
		{
			"buffer":0,
			"byteLength":612,
			"byteOffset":612,
			"target":34962
		},
		{
			"buffer":0,
			"byteLength":408,
			"byteOffset":1224,
			"target":34962
		},
		{
			"buffer":0,
			"byteLength":294,
			"byteOffset":1632,
			"target":34963
		},
		{
			"buffer":0,
			"byteLength":29832,
			"byteOffset":1928,
			"target":34962
		},
		{
			"buffer":0,
			"byteLength":29832,
			"byteOffset":31760,
			"target":34962
		},
		{
			"buffer":0,
			"byteLength":19888,
			"byteOffset":61592,
			"target":34962
		},
		{
			"buffer":0,
			"byteLength":20016,
			"byteOffset":81480,
			"target":34963
		},
		{
			"buffer":0,
			"byteLength":45396,
			"byteOffset":101496,
			"target":34962
		},
		{
			"buffer":0,
			"byteLength":45396,
			"byteOffset":146892,
			"target":34962
		},
		{
			"buffer":0,
			"byteLength":30264,
			"byteOffset":192288,
			"target":34962
		},
		{
			"buffer":0,
			"byteLength":27876,
			"byteOffset":222552,
			"target":34963
		}
	],
	"samplers":[
		{
			"magFilter":9729,
			"minFilter":9987
		}
	],
	"buffers":[
		{
			"byteLength":250428,
			"uri":"Window_Arched.bin"
		}
	]
}
