{
	"asset":{
		"generator":"Khronos glTF Blender I/O v5.2.40",
		"version":"2.0"
	},
	"scene":0,
	"scenes":[
		{
			"name":"Scene",
			"nodes":[
				66
			]
		}
	],
	"nodes":[
		{
			"name":"index_03_l",
			"rotation":[
				0.056193865835666656,
				0.008662783540785313,
				0.015901001170277596,
				0.9982556700706482
			],
			"scale":[
				1,
				1.0000001192092896,
				1
			],
			"translation":[
				-8.940696716308594e-08,
				0.02437673881649971,
				-5.960464477539063e-08
			]
		},
		{
			"children":[
				0
			],
			"name":"index_02_l",
			"rotation":[
				0.1052655279636383,
				-0.0045015932992100716,
				0.0069390833377838135,
				0.9944097995758057
			],
			"scale":[
				0.9999999403953552,
				1,
				0.9999999403953552
			],
			"translation":[
				1.4901161193847656e-08,
				0.027090400457382202,
				7.450580596923828e-09
			]
		},
		{
			"children":[
				1
			],
			"name":"index_01_l",
			"rotation":[
				0.1100919172167778,
				0.46192607283592224,
				-3.420898792683147e-05,
				0.8800591826438904
			],
			"scale":[
				1,
				1,
				0.9999998807907104
			],
			"translation":[
				-0.013864543288946152,
				0.10927756130695343,
				0.00893642008304596
			]
		},
		{
			"name":"middle_03_l",
			"rotation":[
				0.05091472715139389,
				0.025143392384052277,
				-0.0059835114516317844,
				0.9983685612678528
			],
			"scale":[
				0.9999998211860657,
				0.9999998807907104,
				0.9999998211860657
			],
			"translation":[
				-5.960464477539063e-08,
				0.028021913021802902,
				-2.9802322387695312e-08
			]
		},
		{
			"children":[
				3
			],
			"name":"middle_02_l",
			"rotation":[
				0.052805978804826736,
				-0.017617985606193542,
				0.03802170604467392,
				0.9977251887321472
			],
			"scale":[
				1,
				0.9999998807907104,
				0.9999998807907104
			],
			"translation":[
				4.470348358154297e-08,
				0.03541085869073868,
				-5.21540641784668e-08
			]
		},
		{
			"children":[
				4
			],
			"name":"middle_01_l",
			"rotation":[
				0.09960329532623291,
				0.40494778752326965,
				-0.14722831547260284,
				0.8968948125839233
			],
			"scale":[
				0.9999999403953552,
				0.9999999403953552,
				1
			],
			"translation":[
				0.0038514845073223114,
				0.10570128262042999,
				-0.011394225060939789
			]
		},
		{
			"name":"pinky_03_l",
			"rotation":[
				0.01172112300992012,
				-0.028211195021867752,
				-0.015227044001221657,
				0.9994173049926758
			],
			"translation":[
				1.4901161193847656e-08,
				0.016099564731121063,
				-7.450580596923828e-08
			]
		},
		{
			"children":[
				6
			],
			"name":"pinky_02_l",
			"rotation":[
				0.07544402778148651,
				0.0029950025491416454,
				0.022047851234674454,
				0.9969017505645752
			],
			"scale":[
				1,
				0.9999998807907104,
				1
			],
			"translation":[
				-2.9802322387695312e-08,
				0.022189974784851074,
				1.862645149230957e-08
			]
		},
		{
			"children":[
				7
			],
			"name":"pinky_01_l",
			"rotation":[
				0.05377735197544098,
				0.2834433913230896,
				-0.2909679710865021,
				0.9121981859207153
			],
			"scale":[
				1,
				1.0000001192092896,
				0.9999999403953552
			],
			"translation":[
				0.03647977113723755,
				0.08601266145706177,
				-0.031215496361255646
			]
		},
		{
			"name":"ring_03_l",
			"rotation":[
				0.061871666461229324,
				-0.004282582085579634,
				-0.025374580174684525,
				0.9977523684501648
			],
			"scale":[
				1,
				0.9999998807907104,
				1
			],
			"translation":[
				-1.4901161193847656e-08,
				0.02571873366832733,
				-3.725290298461914e-08
			]
		},
		{
			"children":[
				9
			],
			"name":"ring_02_l",
			"rotation":[
				0.04716585576534271,
				0.011762049980461597,
				0.046921614557504654,
				0.9977151155471802
			],
			"scale":[
				1,
				1.0000001192092896,
				1
			],
			"translation":[
				1.4901161193847656e-08,
				0.031082868576049805,
				7.450580596923828e-09
			]
		},
		{
			"children":[
				10
			],
			"name":"ring_01_l",
			"rotation":[
				0.05966437980532646,
				0.3730071485042572,
				-0.2283150553703308,
				0.8973171710968018
			],
			"translation":[
				0.018783167004585266,
				0.0972849428653717,
				-0.023880980908870697
			]
		},
		{
			"name":"thumb_03_l",
			"rotation":[
				0.14950542151927948,
				0.049451619386672974,
				-0.04444578289985657,
				0.9865227937698364
			],
			"scale":[
				0.9999998807907104,
				1,
				0.9999999403953552
			],
			"translation":[
				-1.3969838619232178e-09,
				0.038142621517181396,
				2.2351741790771484e-08
			]
		},
		{
			"children":[
				12
			],
			"name":"thumb_02_l",
			"rotation":[
				0.04010460153222084,
				-0.05623739957809448,
				-0.18628491461277008,
				0.9800647497177124
			],
			"scale":[
				1,
				0.9999998807907104,
				1.0000001192092896
			],
			"translation":[
				2.380693331360817e-08,
				0.03188998997211456,
				-6.705522537231445e-08
			]
		},
		{
			"children":[
				13
			],
			"name":"thumb_01_l",
			"rotation":[
				0.27484965324401855,
				0.7097368836402893,
				0.4322934150695801,
				0.48358413577079773
			],
			"scale":[
				0.9999998807907104,
				1.000000238418579,
				1.0000001192092896
			],
			"translation":[
				-0.015547636896371841,
				0.041690826416015625,
				0.014555275440216064
			]
		},
		{
			"children":[
				2,
				5,
				8,
				11,
				14
			],
			"name":"hand_l",
			"rotation":[
				0.10327501595020294,
				0.40465405583381653,
				-0.015921704471111298,
				0.9084799885749817
			],
			"scale":[
				0.9999998807907104,
				0.9999998807907104,
				0.9999999403953552
			],
			"translation":[
				-3.4924596548080444e-08,
				0.2484661191701889,
				0
			]
		},
		{
			"children":[
				15
			],
			"name":"lowerarm_l",
			"rotation":[
				0.3793866038322449,
				0.02666478604078293,
				0.022666430100798607,
				0.9245761632919312
			],
			"scale":[
				0.9999999403953552,
				1,
				1
			],
			"translation":[
				2.0605511963367462e-08,
				0.25780826807022095,
				-5.587935447692871e-09
			]
		},
		{
			"children":[
				16
			],
			"name":"upperarm_l",
			"rotation":[
				0.024022042751312256,
				0.01358221285045147,
				-0.3446734845638275,
				0.9383169412612915
			],
			"scale":[
				0.9999999403953552,
				0.9999998211860657,
				1
			],
			"translation":[
				1.0582152754068375e-07,
				0.16790661215782166,
				-5.587935447692871e-09
			]
		},
		{
			"children":[
				17
			],
			"name":"clavicle_l",
			"rotation":[
				0.00048751215217635036,
				0.061167240142822266,
				-0.754163384437561,
				0.6538317799568176
			],
			"translation":[
				0.021959669888019562,
				0.2457520067691803,
				0.09136874973773956
			]
		},
		{
			"name":"index_03_r",
			"rotation":[
				0.056193865835666656,
				-0.008662783540785313,
				-0.015901001170277596,
				0.9982556700706482
			],
			"scale":[
				1,
				1.0000001192092896,
				1
			],
			"translation":[
				8.940696716308594e-08,
				0.02437673881649971,
				-5.960464477539063e-08
			]
		},
		{
			"children":[
				19
			],
			"name":"index_02_r",
			"rotation":[
				0.1052655279636383,
				0.0045015932992100716,
				-0.0069390833377838135,
				0.9944097995758057
			],
			"scale":[
				0.9999999403953552,
				1,
				0.9999999403953552
			],
			"translation":[
				-1.4901161193847656e-08,
				0.027090400457382202,
				7.450580596923828e-09
			]
		},
		{
			"children":[
				20
			],
			"name":"index_01_r",
			"rotation":[
				0.1100919172167778,
				-0.46192607283592224,
				3.420898792683147e-05,
				0.8800591826438904
			],
			"scale":[
				1,
				1,
				0.9999998807907104
			],
			"translation":[
				0.013864543288946152,
				0.10927756130695343,
				0.00893642008304596
			]
		},
		{
			"name":"middle_03_r",
			"rotation":[
				0.05091472715139389,
				-0.025143392384052277,
				0.0059835114516317844,
				0.9983685612678528
			],
			"scale":[
				0.9999998211860657,
				0.9999998807907104,
				0.9999998211860657
			],
			"translation":[
				5.960464477539063e-08,
				0.028021913021802902,
				-2.9802322387695312e-08
			]
		},
		{
			"children":[
				22
			],
			"name":"middle_02_r",
			"rotation":[
				0.052805978804826736,
				0.017617985606193542,
				-0.03802170604467392,
				0.9977251887321472
			],
			"scale":[
				1,
				0.9999998807907104,
				0.9999998807907104
			],
			"translation":[
				-4.470348358154297e-08,
				0.03541085869073868,
				-5.21540641784668e-08
			]
		},
		{
			"children":[
				23
			],
			"name":"middle_01_r",
			"rotation":[
				0.09960329532623291,
				-0.40494778752326965,
				0.14722831547260284,
				0.8968948125839233
			],
			"scale":[
				0.9999999403953552,
				0.9999999403953552,
				1
			],
			"translation":[
				-0.0038514845073223114,
				0.10570128262042999,
				-0.011394225060939789
			]
		},
		{
			"name":"pinky_03_r",
			"rotation":[
				0.01172112300992012,
				0.028211195021867752,
				0.015227044001221657,
				0.9994173049926758
			],
			"translation":[
				-1.4901161193847656e-08,
				0.016099564731121063,
				-7.450580596923828e-08
			]
		},
		{
			"children":[
				25
			],
			"name":"pinky_02_r",
			"rotation":[
				0.07544402778148651,
				-0.0029950025491416454,
				-0.022047851234674454,
				0.9969017505645752
			],
			"scale":[
				1,
				0.9999998807907104,
				1
			],
			"translation":[
				2.9802322387695312e-08,
				0.022189974784851074,
				1.862645149230957e-08
			]
		},
		{
			"children":[
				26
			],
			"name":"pinky_01_r",
			"rotation":[
				0.05377735197544098,
				-0.2834433913230896,
				0.2909679710865021,
				0.9121981859207153
			],
			"scale":[
				1,
				1.0000001192092896,
				0.9999999403953552
			],
			"translation":[
				-0.03647977113723755,
				0.08601266145706177,
				-0.031215496361255646
			]
		},
		{
			"name":"ring_03_r",
			"rotation":[
				0.061871666461229324,
				0.004282582085579634,
				0.025374580174684525,
				0.9977523684501648
			],
			"scale":[
				1,
				0.9999998807907104,
				1
			],
			"translation":[
				1.4901161193847656e-08,
				0.02571873366832733,
				-3.725290298461914e-08
			]
		},
		{
			"children":[
				28
			],
			"name":"ring_02_r",
			"rotation":[
				0.04716585576534271,
				-0.011762049980461597,
				-0.046921614557504654,
				0.9977151155471802
			],
			"scale":[
				1,
				1.0000001192092896,
				1
			],
			"translation":[
				-1.4901161193847656e-08,
				0.031082868576049805,
				7.450580596923828e-09
			]
		},
		{
			"children":[
				29
			],
			"name":"ring_01_r",
			"rotation":[
				0.05966437980532646,
				-0.3730071485042572,
				0.2283150553703308,
				0.8973171710968018
			],
			"translation":[
				-0.018783167004585266,
				0.0972849428653717,
				-0.023880980908870697
			]
		},
		{
			"name":"thumb_03_r",
			"rotation":[
				0.14950542151927948,
				-0.049451619386672974,
				0.04444578289985657,
				0.9865227937698364
			],
			"scale":[
				0.9999998807907104,
				1,
				0.9999999403953552
			],
			"translation":[
				1.3969838619232178e-09,
				0.038142621517181396,
				2.2351741790771484e-08
			]
		},
		{
			"children":[
				31
			],
			"name":"thumb_02_r",
			"rotation":[
				0.04010460153222084,
				0.05623739957809448,
				0.18628491461277008,
				0.9800647497177124
			],
			"scale":[
				1,
				0.9999998807907104,
				1.0000001192092896
			],
			"translation":[
				-2.380693331360817e-08,
				0.03188998997211456,
				-6.705522537231445e-08
			]
		},
		{
			"children":[
				32
			],
			"name":"thumb_01_r",
			"rotation":[
				0.27484965324401855,
				-0.7097368836402893,
				-0.4322934150695801,
				0.48358413577079773
			],
			"scale":[
				0.9999998807907104,
				1.000000238418579,
				1.0000001192092896
			],
			"translation":[
				0.015547636896371841,
				0.041690826416015625,
				0.014555275440216064
			]
		},
		{
			"children":[
				21,
				24,
				27,
				30,
				33
			],
			"name":"hand_r",
			"rotation":[
				0.10327501595020294,
				-0.40465405583381653,
				0.015921704471111298,
				0.9084799885749817
			],
			"scale":[
				0.9999998807907104,
				0.9999998807907104,
				0.9999999403953552
			],
			"translation":[
				3.4924596548080444e-08,
				0.2484661191701889,
				0
			]
		},
		{
			"children":[
				34
			],
			"name":"lowerarm_r",
			"rotation":[
				0.3793866038322449,
				-0.02666478604078293,
				-0.022666430100798607,
				0.9245761632919312
			],
			"scale":[
				0.9999999403953552,
				1,
				1
			],
			"translation":[
				-2.0605511963367462e-08,
				0.25780826807022095,
				-5.587935447692871e-09
			]
		},
		{
			"children":[
				35
			],
			"name":"upperarm_r",
			"rotation":[
				0.024022042751312256,
				-0.01358221285045147,
				0.3446734845638275,
				0.9383169412612915
			],
			"scale":[
				0.9999999403953552,
				0.9999998211860657,
				1
			],
			"translation":[
				-1.0582152754068375e-07,
				0.16790661215782166,
				-5.587935447692871e-09
			]
		},
		{
			"children":[
				36
			],
			"name":"clavicle_r",
			"rotation":[
				0.00048751215217635036,
				-0.061167240142822266,
				0.754163384437561,
				0.6538317799568176
			],
			"translation":[
				-0.021959669888019562,
				0.2457520067691803,
				0.09136874973773956
			]
		},
		{
			"name":"head",
			"rotation":[
				-0.13652385771274567,
				0,
				0,
				0.9906368255615234
			],
			"translation":[
				0,
				0.09348764270544052,
				7.450580596923828e-09
			]
		},
		{
			"children":[
				38
			],
			"name":"neck_01",
			"rotation":[
				0.2118714451789856,
				0,
				0,
				0.9772976040840149
			],
			"scale":[
				1,
				0.9999999403953552,
				1
			],
			"translation":[
				0,
				0.3187813460826874,
				0.08530336618423462
			]
		},
		{
			"children":[
				18,
				37,
				39
			],
			"name":"spine_03",
			"rotation":[
				0.011900865472853184,
				0,
				0,
				0.9999291896820068
			],
			"translation":[
				0,
				0.06449473649263382,
				7.450580596923828e-09
			]
		},
		{
			"children":[
				40
			],
			"name":"spine_02",
			"rotation":[
				-0.1538938730955124,
				0,
				0,
				0.9880874156951904
			],
			"translation":[
				0,
				0.0649137943983078,
				2.7939677238464355e-09
			]
		},
		{
			"children":[
				41
			],
			"name":"spine_01",
			"rotation":[
				0.24362105131149292,
				0,
				0,
				0.9698705077171326
			],
			"scale":[
				1,
				0.9999998807907104,
				1
			],
			"translation":[
				0,
				0.08612541854381561,
				-7.450580596923828e-09
			]
		},
		{
			"name":"ball_l",
			"rotation":[
				-0.24415645003318787,
				-0.2523767650127411,
				0.10731406509876251,
				0.9301490783691406
			],
			"scale":[
				1,
				1.0000001192092896,
				1
			],
			"translation":[
				7.60337570682168e-10,
				0.14212949573993683,
				-8.149072527885437e-09
			]
		},
		{
			"children":[
				43
			],
			"name":"foot_l",
			"rotation":[
				-0.5495308637619019,
				-0.03346897289156914,
				0.03524869680404663,
				0.8340582847595215
			],
			"scale":[
				1,
				0.9999998807907104,
				0.9999998807907104
			],
			"translation":[
				-2.585693437140435e-09,
				0.4258156716823578,
				2.9103830456733704e-10
			]
		},
		{
			"children":[
				44
			],
			"name":"calf_l",
			"rotation":[
				0.057332754135131836,
				0.24383993446826935,
				-0.02116549387574196,
				0.9678879976272583
			],
			"scale":[
				0.9999999403953552,
				0.9999999403953552,
				1
			],
			"translation":[
				-1.30385160446167e-08,
				0.4547361731529236,
				5.587935447692871e-09
			]
		},
		{
			"children":[
				45
			],
			"name":"thigh_l",
			"rotation":[
				-0.9613333940505981,
				-0.07270382344722748,
				0.23264622688293457,
				0.1281718611717224
			],
			"scale":[
				1,
				0.9999999403953552,
				1.0000007152557373
			],
			"translation":[
				0.1054210364818573,
				-0.007489836774766445,
				-0.012933112680912018
			]
		},
		{
			"name":"ball_r",
			"rotation":[
				-0.24415645003318787,
				0.2523767650127411,
				-0.10731406509876251,
				0.9301490783691406
			],
			"scale":[
				1,
				1.0000001192092896,
				1
			],
			"translation":[
				-7.60337570682168e-10,
				0.14212949573993683,
				-8.149072527885437e-09
			]
		},
		{
			"children":[
				47
			],
			"name":"foot_r",
			"rotation":[
				-0.5495308637619019,
				0.03346897289156914,
				-0.03524869680404663,
				0.8340582847595215
			],
			"scale":[
				1,
				0.9999998807907104,
				0.9999998807907104
			],
			"translation":[
				2.585693437140435e-09,
				0.4258156716823578,
				2.9103830456733704e-10
			]
		},
		{
			"children":[
				48
			],
			"name":"calf_r",
			"rotation":[
				0.057332754135131836,
				-0.24383993446826935,
				0.02116549387574196,
				0.9678879976272583
			],
			"scale":[
				0.9999999403953552,
				0.9999999403953552,
				1
			],
			"translation":[
				1.30385160446167e-08,
				0.4547361731529236,
				5.587935447692871e-09
			]
		},
		{
			"children":[
				49
			],
			"name":"thigh_r",
			"rotation":[
				-0.9613333940505981,
				0.07270382344722748,
				-0.23264622688293457,
				0.1281718611717224
			],
			"scale":[
				1,
				0.9999999403953552,
				1.0000007152557373
			],
			"translation":[
				-0.1054210364818573,
				-0.007489836774766445,
				-0.012933112680912018
			]
		},
		{
			"children":[
				42,
				46,
				50
			],
			"name":"pelvis",
			"rotation":[
				0.5716182589530945,
				0,
				0,
				0.8205196857452393
			],
			"translation":[
				0,
				-0.0029522483237087727,
				0.9570217132568359
			]
		},
		{
			"children":[
				51
			],
			"name":"Root",
			"rotation":[
				-0.7071067690849304,
				0,
				0,
				0.7071067690849304
			],
			"scale":[
				1,
				0.9999999403953552,
				1
			],
			"translation":[
				0,
				0.0009823066648095846,
				0.003778191050514579
			]
		},
		{
			"mesh":0,
			"name":"Character_Arms",
			"skin":0
		},
		{
			"mesh":1,
			"name":"Character_Coat",
			"skin":0
		},
		{
			"mesh":2,
			"name":"Character_FP_Suit",
			"skin":0
		},
		{
			"mesh":3,
			"name":"Character_Gloves",
			"skin":0
		},
		{
			"mesh":4,
			"name":"Character_Head",
			"skin":0
		},
		{
			"mesh":5,
			"name":"Character_Head_Brows",
			"skin":0
		},
		{
			"mesh":6,
			"name":"Character_Head_Eyes",
			"skin":0
		},
		{
			"mesh":7,
			"name":"Character_Head_Hair",
			"skin":0
		},
		{
			"mesh":8,
			"name":"Character_Head_Lashes",
			"skin":0
		},
		{
			"mesh":9,
			"name":"Character_Shoes",
			"skin":0
		},
		{
			"mesh":10,
			"name":"Character_Suit",
			"skin":0
		},
		{
			"mesh":11,
			"name":"Character_Torso_Skin",
			"skin":0
		},
		{
			"children":[
				53,
				54,
				55,
				56,
				57,
				58,
				59,
				60,
				61,
				62,
				63,
				64,
				52
			],
			"name":"Character_Rig"
		},
		{
			"children":[
				65
			],
			"name":"Character_Gentleman"
		}
	],
	"materials":[
		{
			"doubleSided":true,
			"name":"Skin",
			"pbrMetallicRoughness":{
				"baseColorTexture":{
					"index":0
				},
				"metallicFactor":0,
				"roughnessFactor":0.550000011920929
			}
		},
		{
			"doubleSided":true,
			"name":"Coat_Wool",
			"normalTexture":{
				"index":1
			},
			"pbrMetallicRoughness":{
				"baseColorTexture":{
					"index":2
				},
				"metallicFactor":0,
				"roughnessFactor":0.8799999952316284
			}
		},
		{
			"doubleSided":true,
			"name":"Suit_Black",
			"pbrMetallicRoughness":{
				"baseColorTexture":{
					"index":3
				},
				"metallicFactor":0,
				"roughnessFactor":0.800000011920929
			}
		},
		{
			"doubleSided":true,
			"name":"FP_Cap",
			"pbrMetallicRoughness":{
				"baseColorFactor":[
					0.012000000104308128,
					0.012000000104308128,
					0.014000000432133675,
					1
				],
				"metallicFactor":0
			}
		},
		{
			"doubleSided":true,
			"name":"Glove_Leather",
			"normalTexture":{
				"index":4
			},
			"pbrMetallicRoughness":{
				"baseColorTexture":{
					"index":5
				},
				"metallicFactor":0,
				"roughnessFactor":0.3799999952316284
			}
		},
		{
			"alphaMode":"BLEND",
			"doubleSided":true,
			"name":"Brows_Character.eyebrow010",
			"pbrMetallicRoughness":{
				"baseColorTexture":{
					"index":6
				},
				"metallicFactor":0,
				"roughnessFactor":0.6000000238418579
			}
		},
		{
			"doubleSided":true,
			"name":"Eyes",
			"pbrMetallicRoughness":{
				"baseColorTexture":{
					"index":7
				},
				"metallicFactor":0,
				"roughnessFactor":0.15000000596046448
			}
		},
		{
			"alphaMode":"BLEND",
			"doubleSided":true,
			"name":"Hair_Black",
			"pbrMetallicRoughness":{
				"baseColorTexture":{
					"index":8
				},
				"metallicFactor":0,
				"roughnessFactor":0.44999998807907104
			}
		},
		{
			"alphaMode":"BLEND",
			"doubleSided":true,
			"name":"Brows_Character.eyelashes02",
			"pbrMetallicRoughness":{
				"baseColorTexture":{
					"index":9
				},
				"metallicFactor":0,
				"roughnessFactor":0.6000000238418579
			}
		},
		{
			"doubleSided":true,
			"name":"Shoes",
			"pbrMetallicRoughness":{
				"baseColorTexture":{
					"index":10
				},
				"metallicFactor":0,
				"roughnessFactor":0.30000001192092896
			}
		}
	],
	"meshes":[
		{
			"name":"Character_Arms",
			"primitives":[
				{
					"attributes":{
						"POSITION":0,
						"NORMAL":1,
						"TEXCOORD_0":2,
						"JOINTS_0":3,
						"WEIGHTS_0":4
					},
					"indices":5,
					"material":0
				}
			]
		},
		{
			"name":"Character_Coat",
			"primitives":[
				{
					"attributes":{
						"POSITION":7,
						"NORMAL":8,
						"TEXCOORD_0":9,
						"JOINTS_0":10,
						"WEIGHTS_0":11
					},
					"indices":12,
					"material":1
				}
			]
		},
		{
			"name":"Character_FP_Suit",
			"primitives":[
				{
					"attributes":{
						"POSITION":13,
						"NORMAL":14,
						"TEXCOORD_0":15,
						"JOINTS_0":16,
						"WEIGHTS_0":17
					},
					"indices":18,
					"material":2
				},
				{
					"attributes":{
						"POSITION":19,
						"NORMAL":20,
						"TEXCOORD_0":21,
						"JOINTS_0":22,
						"WEIGHTS_0":23
					},
					"indices":24,
					"material":3
				}
			]
		},
		{
			"name":"Character_Gloves",
			"primitives":[
				{
					"attributes":{
						"POSITION":25,
						"NORMAL":26,
						"TEXCOORD_0":27,
						"JOINTS_0":28,
						"WEIGHTS_0":29
					},
					"indices":30,
					"material":4
				}
			]
		},
		{
			"name":"Character_Head",
			"primitives":[
				{
					"attributes":{
						"POSITION":31,
						"NORMAL":32,
						"TEXCOORD_0":33,
						"JOINTS_0":34,
						"WEIGHTS_0":35
					},
					"indices":36,
					"material":0
				}
			]
		},
		{
			"name":"eyebrow010",
			"primitives":[
				{
					"attributes":{
						"POSITION":37,
						"NORMAL":38,
						"TEXCOORD_0":39,
						"JOINTS_0":40,
						"WEIGHTS_0":41
					},
					"indices":42,
					"material":5
				}
			]
		},
		{
			"name":"high-poly",
			"primitives":[
				{
					"attributes":{
						"POSITION":43,
						"NORMAL":44,
						"TEXCOORD_0":45,
						"JOINTS_0":46,
						"WEIGHTS_0":47
					},
					"indices":48,
					"material":6
				}
			]
		},
		{
			"name":"short02",
			"primitives":[
				{
					"attributes":{
						"POSITION":49,
						"NORMAL":50,
						"TEXCOORD_0":51,
						"JOINTS_0":52,
						"WEIGHTS_0":53
					},
					"indices":54,
					"material":7
				}
			]
		},
		{
			"name":"eyelashes02",
			"primitives":[
				{
					"attributes":{
						"POSITION":55,
						"NORMAL":56,
						"TEXCOORD_0":57,
						"JOINTS_0":58,
						"WEIGHTS_0":59
					},
					"indices":60,
					"material":8
				}
			]
		},
		{
			"name":"shoes02",
			"primitives":[
				{
					"attributes":{
						"POSITION":61,
						"NORMAL":62,
						"TEXCOORD_0":63,
						"JOINTS_0":64,
						"WEIGHTS_0":65
					},
					"indices":66,
					"material":9
				}
			]
		},
		{
			"name":"male_elegantsuit01",
			"primitives":[
				{
					"attributes":{
						"POSITION":67,
						"NORMAL":68,
						"TEXCOORD_0":69,
						"JOINTS_0":70,
						"WEIGHTS_0":71
					},
					"indices":72,
					"material":2
				}
			]
		},
		{
			"name":"base",
			"primitives":[
				{
					"attributes":{
						"POSITION":73,
						"NORMAL":74,
						"TEXCOORD_0":75,
						"JOINTS_0":76,
						"WEIGHTS_0":77
					},
					"indices":78,
					"material":0
				}
			]
		}
	],
	"textures":[
		{
			"sampler":0,
			"source":0
		},
		{
			"sampler":0,
			"source":1
		},
		{
			"sampler":0,
			"source":2
		},
		{
			"sampler":0,
			"source":3
		},
		{
			"sampler":0,
			"source":4
		},
		{
			"sampler":0,
			"source":5
		},
		{
			"sampler":0,
			"source":6
		},
		{
			"sampler":0,
			"source":7
		},
		{
			"sampler":0,
			"source":8
		},
		{
			"sampler":0,
			"source":9
		},
		{
			"sampler":0,
			"source":10
		}
	],
	"images":[
		{
			"mimeType":"image/png",
			"name":"middleage_lightskinned_male_diffuse",
			"uri":"../textures/middleage_lightskinned_male_diffuse.png"
		},
		{
			"mimeType":"image/jpeg",
			"name":"coat_wool_normal",
			"uri":"../textures/coat_wool_normal.jpg"
		},
		{
			"mimeType":"image/jpeg",
			"name":"coat_wool_albedo",
			"uri":"../textures/coat_wool_albedo.jpg"
		},
		{
			"mimeType":"image/png",
			"name":"char_male_elegantsuit01_diffuse_dark",
			"uri":"../textures/char_male_elegantsuit01_diffuse_dark.png"
		},
		{
			"mimeType":"image/jpeg",
			"name":"glove_leather_normal",
			"uri":"../textures/glove_leather_normal.jpg"
		},
		{
			"mimeType":"image/jpeg",
			"name":"glove_leather_albedo",
			"uri":"../textures/glove_leather_albedo.jpg"
		},
		{
			"mimeType":"image/png",
			"name":"char_eyebrow010_dark",
			"uri":"../textures/char_eyebrow010_dark.png"
		},
		{
			"mimeType":"image/png",
			"name":"brown_eye",
			"uri":"../textures/brown_eye.png"
		},
		{
			"mimeType":"image/png",
			"name":"char_short02_diffuse_dark",
			"uri":"../textures/char_short02_diffuse_dark.png"
		},
		{
			"mimeType":"image/png",
			"name":"char_eyelashes02_dark",
			"uri":"../textures/char_eyelashes02_dark.png"
		},
		{
			"mimeType":"image/png",
			"name":"char_shoes02_diffuse_dark",
			"uri":"../textures/char_shoes02_diffuse_dark.png"
		}
	],
	"skins":[
		{
			"inverseBindMatrices":6,
			"joints":[
				52,
				51,
				42,
				41,
				40,
				18,
				17,
				16,
				15,
				2,
				1,
				0,
				5,
				4,
				3,
				8,
				7,
				6,
				11,
				10,
				9,
				14,
				13,
				12,
				37,
				36,
				35,
				34,
				21,
				20,
				19,
				24,
				23,
				22,
				27,
				26,
				25,
				30,
				29,
				28,
				33,
				32,
				31,
				39,
				38,
				46,
				45,
				44,
				43,
				50,
				49,
				48,
				47
			],
			"name":"Character_Rig"
		}
	],
	"accessors":[
		{
			"bufferView":0,
			"componentType":5126,
			"count":302,
			"max":[
				0.5075715184211731,
				1.1427783966064453,
				0.22327519953250885
			],
			"min":[
				-0.5075715184211731,
				1.0588775873184204,
				0.13158683478832245
			],
			"type":"VEC3"
		},
		{
			"bufferView":1,
			"componentType":5126,
			"count":302,
			"type":"VEC3"
		},
		{
			"bufferView":2,
			"componentType":5126,
			"count":302,
			"type":"VEC2"
		},
		{
			"bufferView":3,
			"componentType":5121,
			"count":302,
			"type":"VEC4"
		},
		{
			"bufferView":4,
			"componentType":5126,
			"count":302,
			"type":"VEC4"
		},
		{
			"bufferView":5,
			"componentType":5123,
			"count":1308,
			"type":"SCALAR"
		},
		{
			"bufferView":6,
			"componentType":5126,
			"count":53,
			"type":"MAT4"
		},
		{
			"bufferView":7,
			"componentType":5126,
			"count":1260,
			"max":[
				0.3306376039981842,
				1.0086777210235596,
				0.2495483011007309
			],
			"min":[
				-0.33159011602401733,
				0.3224472403526306,
				-0.22724837064743042
			],
			"type":"VEC3"
		},
		{
			"bufferView":8,
			"componentType":5126,
			"count":1260,
			"type":"VEC3"
		},
		{
			"bufferView":9,
			"componentType":5126,
			"count":1260,
			"type":"VEC2"
		},
		{
			"bufferView":10,
			"componentType":5121,
			"count":1260,
			"type":"VEC4"
		},
		{
			"bufferView":11,
			"componentType":5126,
			"count":1260,
			"type":"VEC4"
		},
		{
			"bufferView":12,
			"componentType":5123,
			"count":7548,
			"type":"SCALAR"
		},
		{
			"bufferView":13,
			"componentType":5126,
			"count":4738,
			"max":[
				0.23752257227897644,
				1.4500000476837158,
				0.16160111129283905
			],
			"min":[
				-0.24051763117313385,
				0.060909926891326904,
				-0.11438582837581635
			],
			"type":"VEC3"
		},
		{
			"bufferView":14,
			"componentType":5126,
			"count":4738,
			"type":"VEC3"
		},
		{
			"bufferView":15,
			"componentType":5126,
			"count":4738,
			"type":"VEC2"
		},
		{
			"bufferView":16,
			"componentType":5121,
			"count":4738,
			"type":"VEC4"
		},
		{
			"bufferView":17,
			"componentType":5126,
			"count":4738,
			"type":"VEC4"
		},
		{
			"bufferView":18,
			"componentType":5123,
			"count":25965,
			"type":"SCALAR"
		},
		{
			"bufferView":19,
			"componentType":5126,
			"count":162,
			"max":[
				0.20592470467090607,
				1.4500000476837158,
				0.1040646955370903
			],
			"min":[
				-0.20333777368068695,
				1.288576364517212,
				-0.07428435981273651
			],
			"type":"VEC3"
		},
		{
			"bufferView":20,
			"componentType":5126,
			"count":162,
			"type":"VEC3"
		},
		{
			"bufferView":21,
			"componentType":5126,
			"count":162,
			"type":"VEC2"
		},
		{
			"bufferView":22,
			"componentType":5121,
			"count":162,
			"type":"VEC4"
		},
		{
			"bufferView":23,
			"componentType":5126,
			"count":162,
			"type":"VEC4"
		},
		{
			"bufferView":24,
			"componentType":5123,
			"count":480,
			"type":"SCALAR"
		},
		{
			"bufferView":25,
			"componentType":5126,
			"count":3624,
			"max":[
				0.5575116872787476,
				1.1043773889541626,
				0.36225029826164246
			],
			"min":[
				-0.5575116872787476,
				0.9539987444877625,
				0.1902272254228592
			],
			"type":"VEC3"
		},
		{
			"bufferView":26,
			"componentType":5126,
			"count":3624,
			"type":"VEC3"
		},
		{
			"bufferView":27,
			"componentType":5126,
			"count":3624,
			"type":"VEC2"
		},
		{
			"bufferView":28,
			"componentType":5121,
			"count":3624,
			"type":"VEC4"
		},
		{
			"bufferView":29,
			"componentType":5126,
			"count":3624,
			"type":"VEC4"
		},
		{
			"bufferView":30,
			"componentType":5123,
			"count":19068,
			"type":"SCALAR"
		},
		{
			"bufferView":31,
			"componentType":5126,
			"count":4500,
			"max":[
				0.08274399489164352,
				1.7233607769012451,
				0.1641065627336502
			],
			"min":[
				-0.08274399489164352,
				1.4554282426834106,
				-0.043501727283000946
			],
			"type":"VEC3"
		},
		{
			"bufferView":32,
			"componentType":5126,
			"count":4500,
			"type":"VEC3"
		},
		{
			"bufferView":33,
			"componentType":5126,
			"count":4500,
			"type":"VEC2"
		},
		{
			"bufferView":34,
			"componentType":5121,
			"count":4500,
			"type":"VEC4"
		},
		{
			"bufferView":35,
			"componentType":5126,
			"count":4500,
			"type":"VEC4"
		},
		{
			"bufferView":36,
			"componentType":5123,
			"count":25704,
			"type":"SCALAR"
		},
		{
			"bufferView":37,
			"componentType":5126,
			"count":124,
			"max":[
				0.053954098373651505,
				1.6356523036956787,
				0.14675650000572205
			],
			"min":[
				-0.053954094648361206,
				1.6231507062911987,
				0.12005122750997543
			],
			"type":"VEC3"
		},
		{
			"bufferView":38,
			"componentType":5126,
			"count":124,
			"type":"VEC3"
		},
		{
			"bufferView":39,
			"componentType":5126,
			"count":124,
			"type":"VEC2"
		},
		{
			"bufferView":40,
			"componentType":5121,
			"count":124,
			"type":"VEC4"
		},
		{
			"bufferView":41,
			"componentType":5126,
			"count":124,
			"type":"VEC4"
		},
		{
			"bufferView":42,
			"componentType":5123,
			"count":576,
			"type":"SCALAR"
		},
		{
			"bufferView":43,
			"componentType":5126,
			"count":1076,
			"max":[
				0.04261151701211929,
				1.6341770887374878,
				0.1371954083442688
			],
			"min":[
				-0.04261151701211929,
				1.6058229207992554,
				0.11348164826631546
			],
			"type":"VEC3"
		},
		{
			"bufferView":44,
			"componentType":5126,
			"count":1076,
			"type":"VEC3"
		},
		{
			"bufferView":45,
			"componentType":5126,
			"count":1076,
			"type":"VEC2"
		},
		{
			"bufferView":46,
			"componentType":5121,
			"count":1076,
			"type":"VEC4"
		},
		{
			"bufferView":47,
			"componentType":5126,
			"count":1076,
			"type":"VEC4"
		},
		{
			"bufferView":48,
			"componentType":5123,
			"count":6120,
			"type":"SCALAR"
		},
		{
			"bufferView":49,
			"componentType":5126,
			"count":1794,
			"max":[
				0.08018506318330765,
				1.7380973100662231,
				0.1595599353313446
			],
			"min":[
				-0.08560768514871597,
				1.5474894046783447,
				-0.04594801738858223
			],
			"type":"VEC3"
		},
		{
			"bufferView":50,
			"componentType":5126,
			"count":1794,
			"type":"VEC3"
		},
		{
			"bufferView":51,
			"componentType":5126,
			"count":1794,
			"type":"VEC2"
		},
		{
			"bufferView":52,
			"componentType":5121,
			"count":1794,
			"type":"VEC4"
		},
		{
			"bufferView":53,
			"componentType":5126,
			"count":1794,
			"type":"VEC4"
		},
		{
			"bufferView":54,
			"componentType":5123,
			"count":10032,
			"type":"SCALAR"
		},
		{
			"bufferView":55,
			"componentType":5126,
			"count":250,
			"max":[
				0.05190851911902428,
				1.6250324249267578,
				0.14030182361602783
			],
			"min":[
				-0.05190851911902428,
				1.610365867614746,
				0.1269090324640274
			],
			"type":"VEC3"
		},
		{
			"bufferView":56,
			"componentType":5126,
			"count":250,
			"type":"VEC3"
		},
		{
			"bufferView":57,
			"componentType":5126,
			"count":250,
			"type":"VEC2"
		},
		{
			"bufferView":58,
			"componentType":5121,
			"count":250,
			"type":"VEC4"
		},
		{
			"bufferView":59,
			"componentType":5126,
			"count":250,
			"type":"VEC4"
		},
		{
			"bufferView":60,
			"componentType":5123,
			"count":1104,
			"type":"SCALAR"
		},
		{
			"bufferView":61,
			"componentType":5126,
			"count":1738,
			"max":[
				0.24496258795261383,
				0.2121172696352005,
				0.21476595103740692
			],
			"min":[
				-0.24496258795261383,
				-0.01686604879796505,
				-0.06226586177945137
			],
			"type":"VEC3"
		},
		{
			"bufferView":62,
			"componentType":5126,
			"count":1738,
			"type":"VEC3"
		},
		{
			"bufferView":63,
			"componentType":5126,
			"count":1738,
			"type":"VEC2"
		},
		{
			"bufferView":64,
			"componentType":5121,
			"count":1738,
			"type":"VEC4"
		},
		{
			"bufferView":65,
			"componentType":5126,
			"count":1738,
			"type":"VEC4"
		},
		{
			"bufferView":66,
			"componentType":5123,
			"count":9192,
			"type":"SCALAR"
		},
		{
			"bufferView":67,
			"componentType":5126,
			"count":8250,
			"max":[
				0.520763099193573,
				1.5231397151947021,
				0.2396799474954605
			],
			"min":[
				-0.5161003470420837,
				0.060909926891326904,
				-0.11438582837581635
			],
			"type":"VEC3"
		},
		{
			"bufferView":68,
			"componentType":5126,
			"count":8250,
			"type":"VEC3"
		},
		{
			"bufferView":69,
			"componentType":5126,
			"count":8250,
			"type":"VEC2"
		},
		{
			"bufferView":70,
			"componentType":5121,
			"count":8250,
			"type":"VEC4"
		},
		{
			"bufferView":71,
			"componentType":5126,
			"count":8250,
			"type":"VEC4"
		},
		{
			"bufferView":72,
			"componentType":5123,
			"count":44868,
			"type":"SCALAR"
		},
		{
			"bufferView":73,
			"componentType":5126,
			"count":125,
			"max":[
				0.21312350034713745,
				1.5047023296356201,
				0.07981866598129272
			],
			"min":[
				-0.21312350034713745,
				0.15949146449565887,
				-0.04221130535006523
			],
			"type":"VEC3"
		},
		{
			"bufferView":74,
			"componentType":5126,
			"count":125,
			"type":"VEC3"
		},
		{
			"bufferView":75,
			"componentType":5126,
			"count":125,
			"type":"VEC2"
		},
		{
			"bufferView":76,
			"componentType":5121,
			"count":125,
			"type":"VEC4"
		},
		{
			"bufferView":77,
			"componentType":5126,
			"count":125,
			"type":"VEC4"
		},
		{
			"bufferView":78,
			"componentType":5123,
			"count":360,
			"type":"SCALAR"
		}
	],
	"bufferViews":[
		{
			"buffer":0,
			"byteLength":3624,
			"byteOffset":0,
			"target":34962
		},
		{
			"buffer":0,
			"byteLength":3624,
			"byteOffset":3624,
			"target":34962
		},
		{
			"buffer":0,
			"byteLength":2416,
			"byteOffset":7248,
			"target":34962
		},
		{
			"buffer":0,
			"byteLength":1208,
			"byteOffset":9664,
			"target":34962
		},
		{
			"buffer":0,
			"byteLength":4832,
			"byteOffset":10872,
			"target":34962
		},
		{
			"buffer":0,
			"byteLength":2616,
			"byteOffset":15704,
			"target":34963
		},
		{
			"buffer":0,
			"byteLength":3392,
			"byteOffset":18320
		},
		{
			"buffer":0,
			"byteLength":15120,
			"byteOffset":21712,
			"target":34962
		},
		{
			"buffer":0,
			"byteLength":15120,
			"byteOffset":36832,
			"target":34962
		},
		{
			"buffer":0,
			"byteLength":10080,
			"byteOffset":51952,
			"target":34962
		},
		{
			"buffer":0,
			"byteLength":5040,
			"byteOffset":62032,
			"target":34962
		},
		{
			"buffer":0,
			"byteLength":20160,
			"byteOffset":67072,
			"target":34962
		},
		{
			"buffer":0,
			"byteLength":15096,
			"byteOffset":87232,
			"target":34963
		},
		{
			"buffer":0,
			"byteLength":56856,
			"byteOffset":102328,
			"target":34962
		},
		{
			"buffer":0,
			"byteLength":56856,
			"byteOffset":159184,
			"target":34962
		},
		{
			"buffer":0,
			"byteLength":37904,
			"byteOffset":216040,
			"target":34962
		},
		{
			"buffer":0,
			"byteLength":18952,
			"byteOffset":253944,
			"target":34962
		},
		{
			"buffer":0,
			"byteLength":75808,
			"byteOffset":272896,
			"target":34962
		},
		{
			"buffer":0,
			"byteLength":51930,
			"byteOffset":348704,
			"target":34963
		},
		{
			"buffer":0,
			"byteLength":1944,
			"byteOffset":400636,
			"target":34962
		},
		{
			"buffer":0,
			"byteLength":1944,
			"byteOffset":402580,
			"target":34962
		},
		{
			"buffer":0,
			"byteLength":1296,
			"byteOffset":404524,
			"target":34962
		},
		{
			"buffer":0,
			"byteLength":648,
			"byteOffset":405820,
			"target":34962
		},
		{
			"buffer":0,
			"byteLength":2592,
			"byteOffset":406468,
			"target":34962
		},
		{
			"buffer":0,
			"byteLength":960,
			"byteOffset":409060,
			"target":34963
		},
		{
			"buffer":0,
			"byteLength":43488,
			"byteOffset":410020,
			"target":34962
		},
		{
			"buffer":0,
			"byteLength":43488,
			"byteOffset":453508,
			"target":34962
		},
		{
			"buffer":0,
			"byteLength":28992,
			"byteOffset":496996,
			"target":34962
		},
		{
			"buffer":0,
			"byteLength":14496,
			"byteOffset":525988,
			"target":34962
		},
		{
			"buffer":0,
			"byteLength":57984,
			"byteOffset":540484,
			"target":34962
		},
		{
			"buffer":0,
			"byteLength":38136,
			"byteOffset":598468,
			"target":34963
		},
		{
			"buffer":0,
			"byteLength":54000,
			"byteOffset":636604,
			"target":34962
		},
		{
			"buffer":0,
			"byteLength":54000,
			"byteOffset":690604,
			"target":34962
		},
		{
			"buffer":0,
			"byteLength":36000,
			"byteOffset":744604,
			"target":34962
		},
		{
			"buffer":0,
			"byteLength":18000,
			"byteOffset":780604,
			"target":34962
		},
		{
			"buffer":0,
			"byteLength":72000,
			"byteOffset":798604,
			"target":34962
		},
		{
			"buffer":0,
			"byteLength":51408,
			"byteOffset":870604,
			"target":34963
		},
		{
			"buffer":0,
			"byteLength":1488,
			"byteOffset":922012,
			"target":34962
		},
		{
			"buffer":0,
			"byteLength":1488,
			"byteOffset":923500,
			"target":34962
		},
		{
			"buffer":0,
			"byteLength":992,
			"byteOffset":924988,
			"target":34962
		},
		{
			"buffer":0,
			"byteLength":496,
			"byteOffset":925980,
			"target":34962
		},
		{
			"buffer":0,
			"byteLength":1984,
			"byteOffset":926476,
			"target":34962
		},
		{
			"buffer":0,
			"byteLength":1152,
			"byteOffset":928460,
			"target":34963
		},
		{
			"buffer":0,
			"byteLength":12912,
			"byteOffset":929612,
			"target":34962
		},
		{
			"buffer":0,
			"byteLength":12912,
			"byteOffset":942524,
			"target":34962
		},
		{
			"buffer":0,
			"byteLength":8608,
			"byteOffset":955436,
			"target":34962
		},
		{
			"buffer":0,
			"byteLength":4304,
			"byteOffset":964044,
			"target":34962
		},
		{
			"buffer":0,
			"byteLength":17216,
			"byteOffset":968348,
			"target":34962
		},
		{
			"buffer":0,
			"byteLength":12240,
			"byteOffset":985564,
			"target":34963
		},
		{
			"buffer":0,
			"byteLength":21528,
			"byteOffset":997804,
			"target":34962
		},
		{
			"buffer":0,
			"byteLength":21528,
			"byteOffset":1019332,
			"target":34962
		},
		{
			"buffer":0,
			"byteLength":14352,
			"byteOffset":1040860,
			"target":34962
		},
		{
			"buffer":0,
			"byteLength":7176,
			"byteOffset":1055212,
			"target":34962
		},
		{
			"buffer":0,
			"byteLength":28704,
			"byteOffset":1062388,
			"target":34962
		},
		{
			"buffer":0,
			"byteLength":20064,
			"byteOffset":1091092,
			"target":34963
		},
		{
			"buffer":0,
			"byteLength":3000,
			"byteOffset":1111156,
			"target":34962
		},
		{
			"buffer":0,
			"byteLength":3000,
			"byteOffset":1114156,
			"target":34962
		},
		{
			"buffer":0,
			"byteLength":2000,
			"byteOffset":1117156,
			"target":34962
		},
		{
			"buffer":0,
			"byteLength":1000,
			"byteOffset":1119156,
			"target":34962
		},
		{
			"buffer":0,
			"byteLength":4000,
			"byteOffset":1120156,
			"target":34962
		},
		{
			"buffer":0,
			"byteLength":2208,
			"byteOffset":1124156,
			"target":34963
		},
		{
			"buffer":0,
			"byteLength":20856,
			"byteOffset":1126364,
			"target":34962
		},
		{
			"buffer":0,
			"byteLength":20856,
			"byteOffset":1147220,
			"target":34962
		},
		{
			"buffer":0,
			"byteLength":13904,
			"byteOffset":1168076,
			"target":34962
		},
		{
			"buffer":0,
			"byteLength":6952,
			"byteOffset":1181980,
			"target":34962
		},
		{
			"buffer":0,
			"byteLength":27808,
			"byteOffset":1188932,
			"target":34962
		},
		{
			"buffer":0,
			"byteLength":18384,
			"byteOffset":1216740,
			"target":34963
		},
		{
			"buffer":0,
			"byteLength":99000,
			"byteOffset":1235124,
			"target":34962
		},
		{
			"buffer":0,
			"byteLength":99000,
			"byteOffset":1334124,
			"target":34962
		},
		{
			"buffer":0,
			"byteLength":66000,
			"byteOffset":1433124,
			"target":34962
		},
		{
			"buffer":0,
			"byteLength":33000,
			"byteOffset":1499124,
			"target":34962
		},
		{
			"buffer":0,
			"byteLength":132000,
			"byteOffset":1532124,
			"target":34962
		},
		{
			"buffer":0,
			"byteLength":89736,
			"byteOffset":1664124,
			"target":34963
		},
		{
			"buffer":0,
			"byteLength":1500,
			"byteOffset":1753860,
			"target":34962
		},
		{
			"buffer":0,
			"byteLength":1500,
			"byteOffset":1755360,
			"target":34962
		},
		{
			"buffer":0,
			"byteLength":1000,
			"byteOffset":1756860,
			"target":34962
		},
		{
			"buffer":0,
			"byteLength":500,
			"byteOffset":1757860,
			"target":34962
		},
		{
			"buffer":0,
			"byteLength":2000,
			"byteOffset":1758360,
			"target":34962
		},
		{
			"buffer":0,
			"byteLength":720,
			"byteOffset":1760360,
			"target":34963
		}
	],
	"samplers":[
		{
			"magFilter":9729,
			"minFilter":9987
		}
	],
	"buffers":[
		{
			"byteLength":1761080,
			"uri":"Character_Gentleman.bin"
		}
	]
}
