{
	"asset":{
		"generator":"Khronos glTF Blender I/O v5.2.40",
		"version":"2.0"
	},
	"scene":0,
	"scenes":[
		{
			"name":"Scene",
			"nodes":[
				2
			]
		}
	],
	"nodes":[
		{
			"mesh":0,
			"name":"FP_Glove_Shield_L_Hand"
		},
		{
			"mesh":1,
			"name":"FP_Glove_Shield_L_Sleeve"
		},
		{
			"children":[
				0,
				1
			],
			"name":"FP_Glove_Shield_L"
		}
	],
	"materials":[
		{
			"doubleSided":true,
			"name":"material",
			"normalTexture":{
				"index":0
			},
			"occlusionTexture":{
				"index":1
			},
			"pbrMetallicRoughness":{
				"baseColorTexture":{
					"index":2
				},
				"metallicRoughnessTexture":{
					"index":1
				}
			}
		},
		{
			"doubleSided":true,
			"name":"Suit_Black",
			"pbrMetallicRoughness":{
				"baseColorFactor":[
					0.017999999225139618,
					0.017999999225139618,
					0.019999999552965164,
					1
				],
				"metallicFactor":0,
				"roughnessFactor":0.8500000238418579
			}
		}
	],
	"meshes":[
		{
			"name":"FP_Glove_Shield_L_Hand",
			"primitives":[
				{
					"attributes":{
						"POSITION":0,
						"NORMAL":1,
						"TEXCOORD_0":2
					},
					"indices":3,
					"material":0
				}
			]
		},
		{
			"name":"FP_Glove_Shield_L_Sleeve",
			"primitives":[
				{
					"attributes":{
						"POSITION":4,
						"NORMAL":5,
						"TEXCOORD_0":6
					},
					"indices":7,
					"material":1
				}
			]
		}
	],
	"textures":[
		{
			"sampler":0,
			"source":0
		},
		{
			"sampler":0,
			"source":1
		},
		{
			"sampler":0,
			"source":2
		}
	],
	"images":[
		{
			"mimeType":"image/png",
			"name":"fp_arms_normal",
			"uri":"../textures/fp_arms_normal.png"
		},
		{
			"mimeType":"image/png",
			"name":"fp_arms_metalrough",
			"uri":"../textures/fp_arms_metalrough.png"
		},
		{
			"mimeType":"image/jpeg",
			"name":"fp_arms_albedo",
			"uri":"../textures/fp_arms_albedo.jpg"
		}
	],
	"accessors":[
		{
			"bufferView":0,
			"componentType":5126,
			"count":1766,
			"max":[
				0.06489302217960358,
				0.0659644603729248,
				0.01722392439842224
			],
			"min":[
				-0.03663673251867294,
				-0.058302998542785645,
				-0.17110219597816467
			],
			"type":"VEC3"
		},
		{
			"bufferView":1,
			"componentType":5126,
			"count":1766,
			"type":"VEC3"
		},
		{
			"bufferView":2,
			"componentType":5126,
			"count":1766,
			"type":"VEC2"
		},
		{
			"bufferView":3,
			"componentType":5123,
			"count":8166,
			"type":"SCALAR"
		},
		{
			"bufferView":4,
			"componentType":5126,
			"count":455,
			"max":[
				0.01258467510342598,
				0.03754764795303345,
				0.2595803141593933
			],
			"min":[
				-0.09275729954242706,
				-0.08575722575187683,
				0.0035268962383270264
			],
			"type":"VEC3"
		},
		{
			"bufferView":5,
			"componentType":5126,
			"count":455,
			"type":"VEC3"
		},
		{
			"bufferView":6,
			"componentType":5126,
			"count":455,
			"type":"VEC2"
		},
		{
			"bufferView":7,
			"componentType":5123,
			"count":2469,
			"type":"SCALAR"
		}
	],
	"bufferViews":[
		{
			"buffer":0,
			"byteLength":21192,
			"byteOffset":0,
			"target":34962
		},
		{
			"buffer":0,
			"byteLength":21192,
			"byteOffset":21192,
			"target":34962
		},
		{
			"buffer":0,
			"byteLength":14128,
			"byteOffset":42384,
			"target":34962
		},
		{
			"buffer":0,
			"byteLength":16332,
			"byteOffset":56512,
			"target":34963
		},
		{
			"buffer":0,
			"byteLength":5460,
			"byteOffset":72844,
			"target":34962
		},
		{
			"buffer":0,
			"byteLength":5460,
			"byteOffset":78304,
			"target":34962
		},
		{
			"buffer":0,
			"byteLength":3640,
			"byteOffset":83764,
			"target":34962
		},
		{
			"buffer":0,
			"byteLength":4938,
			"byteOffset":87404,
			"target":34963
		}
	],
	"samplers":[
		{
			"magFilter":9729,
			"minFilter":9987
		}
	],
	"buffers":[
		{
			"byteLength":92344,
			"uri":"FP_Glove_Shield_L.bin"
		}
	]
}
