{
	"asset":{
		"generator":"Khronos glTF Blender I/O v5.2.40",
		"version":"2.0"
	},
	"extensionsUsed":[
		"KHR_materials_emissive_strength",
		"KHR_lights_punctual"
	],
	"extensionsRequired":[
		"KHR_lights_punctual"
	],
	"extensions":{
		"KHR_lights_punctual":{
			"lights":[
				{
					"color":[
						1,
						0.5799999833106995,
						0.25
					],
					"intensity":0.6366197723675814,
					"type":"point",
					"name":"Candelabra_Lit_Light"
				}
			]
		}
	},
	"scene":0,
	"scenes":[
		{
			"name":"Scene",
			"nodes":[
				3
			]
		}
	],
	"nodes":[
		{
			"mesh":0,
			"name":"Candelabra_Lit_Body"
		},
		{
			"mesh":1,
			"name":"Candelabra_Lit_Flame"
		},
		{
			"extensions":{
				"KHR_lights_punctual":{
					"light":0
				}
			},
			"name":"Candelabra_Lit_Light",
			"rotation":[
				-0.7071068286895752,
				0,
				0,
				0.7071068286895752
			],
			"translation":[
				0,
				0.699999988079071,
				0
			]
		},
		{
			"children":[
				0,
				1,
				2
			],
			"name":"Candelabra_Lit"
		}
	],
	"materials":[
		{
			"name":"Brass_Aged",
			"normalTexture":{
				"index":0
			},
			"pbrMetallicRoughness":{
				"baseColorTexture":{
					"index":1
				},
				"metallicRoughnessTexture":{
					"index":2
				}
			}
		},
		{
			"name":"Wax_Ivory",
			"normalTexture":{
				"index":3
			},
			"pbrMetallicRoughness":{
				"baseColorTexture":{
					"index":4
				},
				"metallicFactor":0,
				"metallicRoughnessTexture":{
					"index":5
				}
			}
		},
		{
			"name":"Wick",
			"pbrMetallicRoughness":{
				"baseColorFactor":[
					0.0004463409713935107,
					0.0002988601627293974,
					0.0001829220273066312,
					1
				],
				"metallicFactor":0,
				"roughnessFactor":0.8999999761581421
			}
		},
		{
			"emissiveFactor":[
				1,
				0.09930010139942169,
				0.0038618729449808598
			],
			"extensions":{
				"KHR_materials_emissive_strength":{
					"emissiveStrength":6
				}
			},
			"name":"Ember",
			"pbrMetallicRoughness":{
				"baseColorFactor":[
					0.02899118699133396,
					0.0013732006773352623,
					0.0001829220273066312,
					1
				],
				"metallicFactor":0,
				"roughnessFactor":0.8999999761581421
			}
		},
		{
			"emissiveFactor":[
				1,
				0.6120656132698059,
				0.21763764321804047
			],
			"extensions":{
				"KHR_materials_emissive_strength":{
					"emissiveStrength":25
				}
			},
			"name":"Flame_Core",
			"pbrMetallicRoughness":{
				"baseColorFactor":[
					1,
					0.5789061188697815,
					0.17261062562465668,
					1
				],
				"metallicFactor":0
			}
		},
		{
			"alphaMode":"BLEND",
			"doubleSided":true,
			"emissiveFactor":[
				1,
				1,
				1
			],
			"emissiveTexture":{
				"index":6
			},
			"extensions":{
				"KHR_materials_emissive_strength":{
					"emissiveStrength":6
				}
			},
			"name":"Flame_Glow",
			"pbrMetallicRoughness":{
				"baseColorTexture":{
					"index":7
				},
				"metallicFactor":0
			}
		}
	],
	"meshes":[
		{
			"name":"Candelabra_Lit_Body",
			"primitives":[
				{
					"attributes":{
						"POSITION":0,
						"NORMAL":1,
						"TEXCOORD_0":2
					},
					"indices":3,
					"material":0
				},
				{
					"attributes":{
						"POSITION":4,
						"NORMAL":5,
						"TEXCOORD_0":6
					},
					"indices":7,
					"material":1
				},
				{
					"attributes":{
						"POSITION":8,
						"NORMAL":9,
						"TEXCOORD_0":10
					},
					"indices":11,
					"material":2
				},
				{
					"attributes":{
						"POSITION":12,
						"NORMAL":13,
						"TEXCOORD_0":14
					},
					"indices":15,
					"material":3
				}
			]
		},
		{
			"name":"Candelabra_Lit_Flame",
			"primitives":[
				{
					"attributes":{
						"POSITION":16,
						"NORMAL":17,
						"TEXCOORD_0":18
					},
					"indices":19,
					"material":4
				},
				{
					"attributes":{
						"POSITION":20,
						"NORMAL":21,
						"TEXCOORD_0":22
					},
					"indices":23,
					"material":5
				}
			]
		}
	],
	"textures":[
		{
			"sampler":0,
			"source":0
		},
		{
			"sampler":0,
			"source":1
		},
		{
			"sampler":0,
			"source":2
		},
		{
			"sampler":0,
			"source":3
		},
		{
			"sampler":0,
			"source":4
		},
		{
			"sampler":0,
			"source":5
		},
		{
			"sampler":0,
			"source":6
		},
		{
			"sampler":0,
			"source":6
		}
	],
	"images":[
		{
			"mimeType":"image/jpeg",
			"name":"brass_normal",
			"uri":"../textures/brass_normal.jpg"
		},
		{
			"mimeType":"image/jpeg",
			"name":"brass_albedo",
			"uri":"../textures/brass_albedo.jpg"
		},
		{
			"mimeType":"image/png",
			"name":"brass_rough",
			"uri":"../textures/brass_rough.png"
		},
		{
			"mimeType":"image/jpeg",
			"name":"wax_normal",
			"uri":"../textures/wax_normal.jpg"
		},
		{
			"mimeType":"image/jpeg",
			"name":"wax_albedo",
			"uri":"../textures/wax_albedo.jpg"
		},
		{
			"mimeType":"image/png",
			"name":"wax_rough",
			"uri":"../textures/wax_rough.png"
		},
		{
			"mimeType":"image/png",
			"name":"flame_gradient",
			"uri":"../textures/flame_gradient.png"
		}
	],
	"accessors":[
		{
			"bufferView":0,
			"componentType":5126,
			"count":12806,
			"max":[
				0.21837325394153595,
				0.4869363605976105,
				0.09591324627399445
			],
			"min":[
				-0.21837325394153595,
				0,
				-0.09591324627399445
			],
			"type":"VEC3"
		},
		{
			"bufferView":1,
			"componentType":5126,
			"count":12806,
			"type":"VEC3"
		},
		{
			"bufferView":2,
			"componentType":5126,
			"count":12806,
			"type":"VEC2"
		},
		{
			"bufferView":3,
			"componentType":5123,
			"count":41952,
			"type":"SCALAR"
		},
		{
			"bufferView":4,
			"componentType":5126,
			"count":11207,
			"max":[
				0.20538552105426788,
				0.6881179809570312,
				0.025926584377884865
			],
			"min":[
				-0.20657414197921753,
				0.4012500047683716,
				-0.02483227476477623
			],
			"type":"VEC3"
		},
		{
			"bufferView":5,
			"componentType":5126,
			"count":11207,
			"type":"VEC3"
		},
		{
			"bufferView":6,
			"componentType":5126,
			"count":11207,
			"type":"VEC2"
		},
		{
			"bufferView":7,
			"componentType":5123,
			"count":40608,
			"type":"SCALAR"
		},
		{
			"bufferView":8,
			"componentType":5126,
			"count":1540,
			"max":[
				0.18411102890968323,
				0.6982434988021851,
				0.0009624246158637106
			],
			"min":[
				-0.18105800449848175,
				0.561244010925293,
				-0.0009624234517104924
			],
			"type":"VEC3"
		},
		{
			"bufferView":9,
			"componentType":5126,
			"count":1540,
			"type":"VEC3"
		},
		{
			"bufferView":10,
			"componentType":5126,
			"count":1540,
			"type":"VEC2"
		},
		{
			"bufferView":11,
			"componentType":5123,
			"count":5040,
			"type":"SCALAR"
		},
		{
			"bufferView":12,
			"componentType":5126,
			"count":768,
			"max":[
				0.18498112261295319,
				0.6996000409126282,
				0.0014811219880357385
			],
			"min":[
				-0.17798112332820892,
				0.5826500058174133,
				-0.0014811219880357385
			],
			"type":"VEC3"
		},
		{
			"bufferView":13,
			"componentType":5126,
			"count":768,
			"type":"VEC3"
		},
		{
			"bufferView":14,
			"componentType":5126,
			"count":768,
			"type":"VEC2"
		},
		{
			"bufferView":15,
			"componentType":5123,
			"count":1872,
			"type":"SCALAR"
		},
		{
			"bufferView":16,
			"componentType":5126,
			"count":880,
			"max":[
				0.18342091143131256,
				0.7148000001907349,
				0.0034209061414003372
			],
			"min":[
				-0.18342091143131256,
				0.5762500166893005,
				-0.0034209061414003372
			],
			"type":"VEC3"
		},
		{
			"bufferView":17,
			"componentType":5126,
			"count":880,
			"type":"VEC3"
		},
		{
			"bufferView":18,
			"componentType":5126,
			"count":880,
			"type":"VEC2"
		},
		{
			"bufferView":19,
			"componentType":5123,
			"count":4320,
			"type":"SCALAR"
		},
		{
			"bufferView":20,
			"componentType":5126,
			"count":1086,
			"max":[
				0.18777479231357574,
				0.7319999933242798,
				0.007774787023663521
			],
			"min":[
				-0.18777479231357574,
				0.5722500085830688,
				-0.007774787023663521
			],
			"type":"VEC3"
		},
		{
			"bufferView":21,
			"componentType":5126,
			"count":1086,
			"type":"VEC3"
		},
		{
			"bufferView":22,
			"componentType":5126,
			"count":1086,
			"type":"VEC2"
		},
		{
			"bufferView":23,
			"componentType":5123,
			"count":6480,
			"type":"SCALAR"
		}
	],
	"bufferViews":[
		{
			"buffer":0,
			"byteLength":153672,
			"byteOffset":0,
			"target":34962
		},
		{
			"buffer":0,
			"byteLength":153672,
			"byteOffset":153672,
			"target":34962
		},
		{
			"buffer":0,
			"byteLength":102448,
			"byteOffset":307344,
			"target":34962
		},
		{
			"buffer":0,
			"byteLength":83904,
			"byteOffset":409792,
			"target":34963
		},
		{
			"buffer":0,
			"byteLength":134484,
			"byteOffset":493696,
			"target":34962
		},
		{
			"buffer":0,
			"byteLength":134484,
			"byteOffset":628180,
			"target":34962
		},
		{
			"buffer":0,
			"byteLength":89656,
			"byteOffset":762664,
			"target":34962
		},
		{
			"buffer":0,
			"byteLength":81216,
			"byteOffset":852320,
			"target":34963
		},
		{
			"buffer":0,
			"byteLength":18480,
			"byteOffset":933536,
			"target":34962
		},
		{
			"buffer":0,
			"byteLength":18480,
			"byteOffset":952016,
			"target":34962
		},
		{
			"buffer":0,
			"byteLength":12320,
			"byteOffset":970496,
			"target":34962
		},
		{
			"buffer":0,
			"byteLength":10080,
			"byteOffset":982816,
			"target":34963
		},
		{
			"buffer":0,
			"byteLength":9216,
			"byteOffset":992896,
			"target":34962
		},
		{
			"buffer":0,
			"byteLength":9216,
			"byteOffset":1002112,
			"target":34962
		},
		{
			"buffer":0,
			"byteLength":6144,
			"byteOffset":1011328,
			"target":34962
		},
		{
			"buffer":0,
			"byteLength":3744,
			"byteOffset":1017472,
			"target":34963
		},
		{
			"buffer":0,
			"byteLength":10560,
			"byteOffset":1021216,
			"target":34962
		},
		{
			"buffer":0,
			"byteLength":10560,
			"byteOffset":1031776,
			"target":34962
		},
		{
			"buffer":0,
			"byteLength":7040,
			"byteOffset":1042336,
			"target":34962
		},
		{
			"buffer":0,
			"byteLength":8640,
			"byteOffset":1049376,
			"target":34963
		},
		{
			"buffer":0,
			"byteLength":13032,
			"byteOffset":1058016,
			"target":34962
		},
		{
			"buffer":0,
			"byteLength":13032,
			"byteOffset":1071048,
			"target":34962
		},
		{
			"buffer":0,
			"byteLength":8688,
			"byteOffset":1084080,
			"target":34962
		},
		{
			"buffer":0,
			"byteLength":12960,
			"byteOffset":1092768,
			"target":34963
		}
	],
	"samplers":[
		{
			"magFilter":9729,
			"minFilter":9987
		}
	],
	"buffers":[
		{
			"byteLength":1105728,
			"uri":"Candelabra_Lit.bin"
		}
	]
}
