{
	"asset":{
		"generator":"Khronos glTF Blender I/O v5.2.40",
		"version":"2.0"
	},
	"extensionsUsed":[
		"KHR_materials_emissive_strength",
		"KHR_lights_punctual"
	],
	"extensionsRequired":[
		"KHR_lights_punctual"
	],
	"extensions":{
		"KHR_lights_punctual":{
			"lights":[
				{
					"color":[
						1,
						0.5799999833106995,
						0.25
					],
					"intensity":0.238732414637843,
					"type":"point",
					"name":"Candlestick_Lit_Light"
				}
			]
		}
	},
	"scene":0,
	"scenes":[
		{
			"name":"Scene",
			"nodes":[
				3
			]
		}
	],
	"nodes":[
		{
			"mesh":0,
			"name":"Candlestick_Lit_Body"
		},
		{
			"mesh":1,
			"name":"Candlestick_Lit_Flame"
		},
		{
			"extensions":{
				"KHR_lights_punctual":{
					"light":0
				}
			},
			"name":"Candlestick_Lit_Light",
			"rotation":[
				-0.7071068286895752,
				0,
				0,
				0.7071068286895752
			],
			"translation":[
				0,
				0.4269999861717224,
				0
			]
		},
		{
			"children":[
				0,
				1,
				2
			],
			"name":"Candlestick_Lit"
		}
	],
	"materials":[
		{
			"name":"Brass_Aged",
			"normalTexture":{
				"index":0
			},
			"pbrMetallicRoughness":{
				"baseColorTexture":{
					"index":1
				},
				"metallicRoughnessTexture":{
					"index":2
				}
			}
		},
		{
			"name":"Wax_Ivory",
			"normalTexture":{
				"index":3
			},
			"pbrMetallicRoughness":{
				"baseColorTexture":{
					"index":4
				},
				"metallicFactor":0,
				"metallicRoughnessTexture":{
					"index":5
				}
			}
		},
		{
			"name":"Wick",
			"pbrMetallicRoughness":{
				"baseColorFactor":[
					0.0004463409713935107,
					0.0002988601627293974,
					0.0001829220273066312,
					1
				],
				"metallicFactor":0,
				"roughnessFactor":0.8999999761581421
			}
		},
		{
			"emissiveFactor":[
				1,
				0.09930010139942169,
				0.0038618729449808598
			],
			"extensions":{
				"KHR_materials_emissive_strength":{
					"emissiveStrength":6
				}
			},
			"name":"Ember",
			"pbrMetallicRoughness":{
				"baseColorFactor":[
					0.02899118699133396,
					0.0013732006773352623,
					0.0001829220273066312,
					1
				],
				"metallicFactor":0,
				"roughnessFactor":0.8999999761581421
			}
		},
		{
			"emissiveFactor":[
				1,
				0.6120656132698059,
				0.21763764321804047
			],
			"extensions":{
				"KHR_materials_emissive_strength":{
					"emissiveStrength":25
				}
			},
			"name":"Flame_Core",
			"pbrMetallicRoughness":{
				"baseColorFactor":[
					1,
					0.5789061188697815,
					0.17261062562465668,
					1
				],
				"metallicFactor":0
			}
		},
		{
			"alphaMode":"BLEND",
			"doubleSided":true,
			"emissiveFactor":[
				1,
				1,
				1
			],
			"emissiveTexture":{
				"index":6
			},
			"extensions":{
				"KHR_materials_emissive_strength":{
					"emissiveStrength":6
				}
			},
			"name":"Flame_Glow",
			"pbrMetallicRoughness":{
				"baseColorTexture":{
					"index":7
				},
				"metallicFactor":0
			}
		}
	],
	"meshes":[
		{
			"name":"Candlestick_Lit_Body",
			"primitives":[
				{
					"attributes":{
						"POSITION":0,
						"NORMAL":1,
						"TEXCOORD_0":2
					},
					"indices":3,
					"material":0
				},
				{
					"attributes":{
						"POSITION":4,
						"NORMAL":5,
						"TEXCOORD_0":6
					},
					"indices":7,
					"material":1
				},
				{
					"attributes":{
						"POSITION":8,
						"NORMAL":9,
						"TEXCOORD_0":10
					},
					"indices":11,
					"material":2
				},
				{
					"attributes":{
						"POSITION":12,
						"NORMAL":13,
						"TEXCOORD_0":14
					},
					"indices":15,
					"material":3
				}
			]
		},
		{
			"name":"Candlestick_Lit_Flame",
			"primitives":[
				{
					"attributes":{
						"POSITION":16,
						"NORMAL":17,
						"TEXCOORD_0":18
					},
					"indices":19,
					"material":4
				},
				{
					"attributes":{
						"POSITION":20,
						"NORMAL":21,
						"TEXCOORD_0":22
					},
					"indices":23,
					"material":5
				}
			]
		}
	],
	"textures":[
		{
			"sampler":0,
			"source":0
		},
		{
			"sampler":0,
			"source":1
		},
		{
			"sampler":0,
			"source":2
		},
		{
			"sampler":0,
			"source":3
		},
		{
			"sampler":0,
			"source":4
		},
		{
			"sampler":0,
			"source":5
		},
		{
			"sampler":0,
			"source":6
		},
		{
			"sampler":0,
			"source":6
		}
	],
	"images":[
		{
			"mimeType":"image/jpeg",
			"name":"brass_normal",
			"uri":"../textures/brass_normal.jpg"
		},
		{
			"mimeType":"image/jpeg",
			"name":"brass_albedo",
			"uri":"../textures/brass_albedo.jpg"
		},
		{
			"mimeType":"image/png",
			"name":"brass_rough",
			"uri":"../textures/brass_rough.png"
		},
		{
			"mimeType":"image/jpeg",
			"name":"wax_normal",
			"uri":"../textures/wax_normal.jpg"
		},
		{
			"mimeType":"image/jpeg",
			"name":"wax_albedo",
			"uri":"../textures/wax_albedo.jpg"
		},
		{
			"mimeType":"image/png",
			"name":"wax_rough",
			"uri":"../textures/wax_rough.png"
		},
		{
			"mimeType":"image/png",
			"name":"flame_gradient",
			"uri":"../textures/flame_gradient.png"
		}
	],
	"accessors":[
		{
			"bufferView":0,
			"componentType":5126,
			"count":3236,
			"max":[
				0.06988196820020676,
				0.2239416092634201,
				0.06988196820020676
			],
			"min":[
				-0.06988196820020676,
				0,
				-0.06988196820020676
			],
			"type":"VEC3"
		},
		{
			"bufferView":1,
			"componentType":5126,
			"count":3236,
			"type":"VEC3"
		},
		{
			"bufferView":2,
			"componentType":5126,
			"count":3236,
			"type":"VEC2"
		},
		{
			"bufferView":3,
			"componentType":5123,
			"count":11808,
			"type":"SCALAR"
		},
		{
			"bufferView":4,
			"componentType":5126,
			"count":3698,
			"max":[
				0.022267276421189308,
				0.4051867127418518,
				0.023074163123965263
			],
			"min":[
				-0.028125252574682236,
				0.22200000286102295,
				-0.02838992327451706
			],
			"type":"VEC3"
		},
		{
			"bufferView":5,
			"componentType":5126,
			"count":3698,
			"type":"VEC3"
		},
		{
			"bufferView":6,
			"componentType":5126,
			"count":3698,
			"type":"VEC2"
		},
		{
			"bufferView":7,
			"componentType":5123,
			"count":13620,
			"type":"SCALAR"
		},
		{
			"bufferView":8,
			"componentType":5126,
			"count":506,
			"max":[
				0.004111042711883783,
				0.4152435064315796,
				0.0009624238591641188
			],
			"min":[
				-0.0010580080561339855,
				0.39199399948120117,
				-0.0009624226950109005
			],
			"type":"VEC3"
		},
		{
			"bufferView":9,
			"componentType":5126,
			"count":506,
			"type":"VEC3"
		},
		{
			"bufferView":10,
			"componentType":5126,
			"count":506,
			"type":"VEC2"
		},
		{
			"bufferView":11,
			"componentType":5123,
			"count":1680,
			"type":"SCALAR"
		},
		{
			"bufferView":12,
			"componentType":5126,
			"count":258,
			"max":[
				0.004981130361557007,
				0.41659998893737793,
				0.0014811300206929445
			],
			"min":[
				0.002018870087340474,
				0.41339999437332153,
				-0.0014811300206929445
			],
			"type":"VEC3"
		},
		{
			"bufferView":13,
			"componentType":5126,
			"count":258,
			"type":"VEC3"
		},
		{
			"bufferView":14,
			"componentType":5126,
			"count":258,
			"type":"VEC2"
		},
		{
			"bufferView":15,
			"componentType":5123,
			"count":624,
			"type":"SCALAR"
		},
		{
			"bufferView":16,
			"componentType":5126,
			"count":272,
			"max":[
				0.0034209061414003372,
				0.4318000078201294,
				0.0034209061414003372
			],
			"min":[
				-0.0034209061414003372,
				0.40700000524520874,
				-0.0034209061414003372
			],
			"type":"VEC3"
		},
		{
			"bufferView":17,
			"componentType":5126,
			"count":272,
			"type":"VEC3"
		},
		{
			"bufferView":18,
			"componentType":5126,
			"count":272,
			"type":"VEC2"
		},
		{
			"bufferView":19,
			"componentType":5123,
			"count":1440,
			"type":"SCALAR"
		},
		{
			"bufferView":20,
			"componentType":5126,
			"count":362,
			"max":[
				0.007774787023663521,
				0.4490000009536743,
				0.007774787023663521
			],
			"min":[
				-0.007774787023663521,
				0.40299999713897705,
				-0.007774787023663521
			],
			"type":"VEC3"
		},
		{
			"bufferView":21,
			"componentType":5126,
			"count":362,
			"type":"VEC3"
		},
		{
			"bufferView":22,
			"componentType":5126,
			"count":362,
			"type":"VEC2"
		},
		{
			"bufferView":23,
			"componentType":5123,
			"count":2160,
			"type":"SCALAR"
		}
	],
	"bufferViews":[
		{
			"buffer":0,
			"byteLength":38832,
			"byteOffset":0,
			"target":34962
		},
		{
			"buffer":0,
			"byteLength":38832,
			"byteOffset":38832,
			"target":34962
		},
		{
			"buffer":0,
			"byteLength":25888,
			"byteOffset":77664,
			"target":34962
		},
		{
			"buffer":0,
			"byteLength":23616,
			"byteOffset":103552,
			"target":34963
		},
		{
			"buffer":0,
			"byteLength":44376,
			"byteOffset":127168,
			"target":34962
		},
		{
			"buffer":0,
			"byteLength":44376,
			"byteOffset":171544,
			"target":34962
		},
		{
			"buffer":0,
			"byteLength":29584,
			"byteOffset":215920,
			"target":34962
		},
		{
			"buffer":0,
			"byteLength":27240,
			"byteOffset":245504,
			"target":34963
		},
		{
			"buffer":0,
			"byteLength":6072,
			"byteOffset":272744,
			"target":34962
		},
		{
			"buffer":0,
			"byteLength":6072,
			"byteOffset":278816,
			"target":34962
		},
		{
			"buffer":0,
			"byteLength":4048,
			"byteOffset":284888,
			"target":34962
		},
		{
			"buffer":0,
			"byteLength":3360,
			"byteOffset":288936,
			"target":34963
		},
		{
			"buffer":0,
			"byteLength":3096,
			"byteOffset":292296,
			"target":34962
		},
		{
			"buffer":0,
			"byteLength":3096,
			"byteOffset":295392,
			"target":34962
		},
		{
			"buffer":0,
			"byteLength":2064,
			"byteOffset":298488,
			"target":34962
		},
		{
			"buffer":0,
			"byteLength":1248,
			"byteOffset":300552,
			"target":34963
		},
		{
			"buffer":0,
			"byteLength":3264,
			"byteOffset":301800,
			"target":34962
		},
		{
			"buffer":0,
			"byteLength":3264,
			"byteOffset":305064,
			"target":34962
		},
		{
			"buffer":0,
			"byteLength":2176,
			"byteOffset":308328,
			"target":34962
		},
		{
			"buffer":0,
			"byteLength":2880,
			"byteOffset":310504,
			"target":34963
		},
		{
			"buffer":0,
			"byteLength":4344,
			"byteOffset":313384,
			"target":34962
		},
		{
			"buffer":0,
			"byteLength":4344,
			"byteOffset":317728,
			"target":34962
		},
		{
			"buffer":0,
			"byteLength":2896,
			"byteOffset":322072,
			"target":34962
		},
		{
			"buffer":0,
			"byteLength":4320,
			"byteOffset":324968,
			"target":34963
		}
	],
	"samplers":[
		{
			"magFilter":9729,
			"minFilter":9987
		}
	],
	"buffers":[
		{
			"byteLength":329288,
			"uri":"Candlestick_Lit.bin"
		}
	]
}
