{
	"asset":{
		"generator":"Khronos glTF Blender I/O v5.2.40",
		"version":"2.0"
	},
	"extensionsUsed":[
		"KHR_materials_emissive_strength",
		"KHR_lights_punctual"
	],
	"extensionsRequired":[
		"KHR_lights_punctual"
	],
	"extensions":{
		"KHR_lights_punctual":{
			"lights":[
				{
					"color":[
						1,
						0.5799999833106995,
						0.25
					],
					"intensity":0.238732414637843,
					"type":"point",
					"name":"Candle_Lit_Light"
				}
			]
		}
	},
	"scene":0,
	"scenes":[
		{
			"name":"Scene",
			"nodes":[
				3
			]
		}
	],
	"nodes":[
		{
			"mesh":0,
			"name":"Candle_Lit_Body"
		},
		{
			"mesh":1,
			"name":"Candle_Lit_Flame"
		},
		{
			"extensions":{
				"KHR_lights_punctual":{
					"light":0
				}
			},
			"name":"Candle_Lit_Light",
			"rotation":[
				-0.7071068286895752,
				0,
				0,
				0.7071068286895752
			],
			"translation":[
				0,
				0.18799999356269836,
				0
			]
		},
		{
			"children":[
				0,
				1,
				2
			],
			"name":"Candle_Lit"
		}
	],
	"materials":[
		{
			"name":"Wax_Ivory",
			"normalTexture":{
				"index":0
			},
			"pbrMetallicRoughness":{
				"baseColorTexture":{
					"index":1
				},
				"metallicFactor":0,
				"metallicRoughnessTexture":{
					"index":2
				}
			}
		},
		{
			"name":"Wick",
			"pbrMetallicRoughness":{
				"baseColorFactor":[
					0.0004463409713935107,
					0.0002988601627293974,
					0.0001829220273066312,
					1
				],
				"metallicFactor":0,
				"roughnessFactor":0.8999999761581421
			}
		},
		{
			"emissiveFactor":[
				1,
				0.09930010139942169,
				0.0038618729449808598
			],
			"extensions":{
				"KHR_materials_emissive_strength":{
					"emissiveStrength":6
				}
			},
			"name":"Ember",
			"pbrMetallicRoughness":{
				"baseColorFactor":[
					0.02899118699133396,
					0.0013732006773352623,
					0.0001829220273066312,
					1
				],
				"metallicFactor":0,
				"roughnessFactor":0.8999999761581421
			}
		},
		{
			"emissiveFactor":[
				1,
				0.6120656132698059,
				0.21763764321804047
			],
			"extensions":{
				"KHR_materials_emissive_strength":{
					"emissiveStrength":25
				}
			},
			"name":"Flame_Core",
			"pbrMetallicRoughness":{
				"baseColorFactor":[
					1,
					0.5789061188697815,
					0.17261062562465668,
					1
				],
				"metallicFactor":0
			}
		},
		{
			"alphaMode":"BLEND",
			"doubleSided":true,
			"emissiveFactor":[
				1,
				1,
				1
			],
			"emissiveTexture":{
				"index":3
			},
			"extensions":{
				"KHR_materials_emissive_strength":{
					"emissiveStrength":6
				}
			},
			"name":"Flame_Glow",
			"pbrMetallicRoughness":{
				"baseColorTexture":{
					"index":4
				},
				"metallicFactor":0
			}
		}
	],
	"meshes":[
		{
			"name":"Candle_Lit_Body",
			"primitives":[
				{
					"attributes":{
						"POSITION":0,
						"NORMAL":1,
						"TEXCOORD_0":2
					},
					"indices":3,
					"material":0
				},
				{
					"attributes":{
						"POSITION":4,
						"NORMAL":5,
						"TEXCOORD_0":6
					},
					"indices":7,
					"material":1
				},
				{
					"attributes":{
						"POSITION":8,
						"NORMAL":9,
						"TEXCOORD_0":10
					},
					"indices":11,
					"material":2
				}
			]
		},
		{
			"name":"Candle_Lit_Flame",
			"primitives":[
				{
					"attributes":{
						"POSITION":12,
						"NORMAL":13,
						"TEXCOORD_0":14
					},
					"indices":15,
					"material":3
				},
				{
					"attributes":{
						"POSITION":16,
						"NORMAL":17,
						"TEXCOORD_0":18
					},
					"indices":19,
					"material":4
				}
			]
		}
	],
	"textures":[
		{
			"sampler":0,
			"source":0
		},
		{
			"sampler":0,
			"source":1
		},
		{
			"sampler":0,
			"source":2
		},
		{
			"sampler":0,
			"source":3
		},
		{
			"sampler":0,
			"source":3
		}
	],
	"images":[
		{
			"mimeType":"image/jpeg",
			"name":"wax_normal",
			"uri":"../textures/wax_normal.jpg"
		},
		{
			"mimeType":"image/jpeg",
			"name":"wax_albedo",
			"uri":"../textures/wax_albedo.jpg"
		},
		{
			"mimeType":"image/png",
			"name":"wax_rough",
			"uri":"../textures/wax_rough.png"
		},
		{
			"mimeType":"image/png",
			"name":"flame_gradient",
			"uri":"../textures/flame_gradient.png"
		}
	],
	"accessors":[
		{
			"bufferView":0,
			"componentType":5126,
			"count":4895,
			"max":[
				0.04490506276488304,
				0.16667793691158295,
				0.04490506276488304
			],
			"min":[
				-0.04490506276488304,
				0,
				-0.04490506276488304
			],
			"type":"VEC3"
		},
		{
			"bufferView":1,
			"componentType":5126,
			"count":4895,
			"type":"VEC3"
		},
		{
			"bufferView":2,
			"componentType":5126,
			"count":4895,
			"type":"VEC2"
		},
		{
			"bufferView":3,
			"componentType":5123,
			"count":17484,
			"type":"SCALAR"
		},
		{
			"bufferView":4,
			"componentType":5126,
			"count":503,
			"max":[
				0.004249825142323971,
				0.17637869715690613,
				0.0010481019271537662
			],
			"min":[
				-0.0010580080561339855,
				0.15298940241336823,
				-0.0010481035569682717
			],
			"type":"VEC3"
		},
		{
			"bufferView":5,
			"componentType":5126,
			"count":503,
			"type":"VEC3"
		},
		{
			"bufferView":6,
			"componentType":5126,
			"count":503,
			"type":"VEC2"
		},
		{
			"bufferView":7,
			"componentType":5123,
			"count":1680,
			"type":"SCALAR"
		},
		{
			"bufferView":8,
			"componentType":5126,
			"count":263,
			"max":[
				0.005055160261690617,
				0.17759999632835388,
				0.0015551600372418761
			],
			"min":[
				0.0019448401872068644,
				0.17440000176429749,
				-0.0015551600372418761
			],
			"type":"VEC3"
		},
		{
			"bufferView":9,
			"componentType":5126,
			"count":263,
			"type":"VEC3"
		},
		{
			"bufferView":10,
			"componentType":5126,
			"count":263,
			"type":"VEC2"
		},
		{
			"bufferView":11,
			"componentType":5123,
			"count":624,
			"type":"SCALAR"
		},
		{
			"bufferView":12,
			"componentType":5126,
			"count":272,
			"max":[
				0.0034209061414003372,
				0.19280000030994415,
				0.0034209061414003372
			],
			"min":[
				-0.0034209061414003372,
				0.1679999977350235,
				-0.0034209061414003372
			],
			"type":"VEC3"
		},
		{
			"bufferView":13,
			"componentType":5126,
			"count":272,
			"type":"VEC3"
		},
		{
			"bufferView":14,
			"componentType":5126,
			"count":272,
			"type":"VEC2"
		},
		{
			"bufferView":15,
			"componentType":5123,
			"count":1440,
			"type":"SCALAR"
		},
		{
			"bufferView":16,
			"componentType":5126,
			"count":362,
			"max":[
				0.007774787023663521,
				0.21000000834465027,
				0.007774787023663521
			],
			"min":[
				-0.007774787023663521,
				0.164000004529953,
				-0.007774787023663521
			],
			"type":"VEC3"
		},
		{
			"bufferView":17,
			"componentType":5126,
			"count":362,
			"type":"VEC3"
		},
		{
			"bufferView":18,
			"componentType":5126,
			"count":362,
			"type":"VEC2"
		},
		{
			"bufferView":19,
			"componentType":5123,
			"count":2160,
			"type":"SCALAR"
		}
	],
	"bufferViews":[
		{
			"buffer":0,
			"byteLength":58740,
			"byteOffset":0,
			"target":34962
		},
		{
			"buffer":0,
			"byteLength":58740,
			"byteOffset":58740,
			"target":34962
		},
		{
			"buffer":0,
			"byteLength":39160,
			"byteOffset":117480,
			"target":34962
		},
		{
			"buffer":0,
			"byteLength":34968,
			"byteOffset":156640,
			"target":34963
		},
		{
			"buffer":0,
			"byteLength":6036,
			"byteOffset":191608,
			"target":34962
		},
		{
			"buffer":0,
			"byteLength":6036,
			"byteOffset":197644,
			"target":34962
		},
		{
			"buffer":0,
			"byteLength":4024,
			"byteOffset":203680,
			"target":34962
		},
		{
			"buffer":0,
			"byteLength":3360,
			"byteOffset":207704,
			"target":34963
		},
		{
			"buffer":0,
			"byteLength":3156,
			"byteOffset":211064,
			"target":34962
		},
		{
			"buffer":0,
			"byteLength":3156,
			"byteOffset":214220,
			"target":34962
		},
		{
			"buffer":0,
			"byteLength":2104,
			"byteOffset":217376,
			"target":34962
		},
		{
			"buffer":0,
			"byteLength":1248,
			"byteOffset":219480,
			"target":34963
		},
		{
			"buffer":0,
			"byteLength":3264,
			"byteOffset":220728,
			"target":34962
		},
		{
			"buffer":0,
			"byteLength":3264,
			"byteOffset":223992,
			"target":34962
		},
		{
			"buffer":0,
			"byteLength":2176,
			"byteOffset":227256,
			"target":34962
		},
		{
			"buffer":0,
			"byteLength":2880,
			"byteOffset":229432,
			"target":34963
		},
		{
			"buffer":0,
			"byteLength":4344,
			"byteOffset":232312,
			"target":34962
		},
		{
			"buffer":0,
			"byteLength":4344,
			"byteOffset":236656,
			"target":34962
		},
		{
			"buffer":0,
			"byteLength":2896,
			"byteOffset":241000,
			"target":34962
		},
		{
			"buffer":0,
			"byteLength":4320,
			"byteOffset":243896,
			"target":34963
		}
	],
	"samplers":[
		{
			"magFilter":9729,
			"minFilter":9987
		}
	],
	"buffers":[
		{
			"byteLength":248216,
			"uri":"Candle_Lit.bin"
		}
	]
}
