{
	"asset":{
		"generator":"Khronos glTF Blender I/O v5.2.40",
		"version":"2.0"
	},
	"scene":0,
	"scenes":[
		{
			"name":"Scene",
			"nodes":[
				1
			]
		}
	],
	"nodes":[
		{
			"mesh":0,
			"name":"Candle_Body"
		},
		{
			"children":[
				0
			],
			"name":"Candle"
		}
	],
	"materials":[
		{
			"name":"Wax_Ivory",
			"normalTexture":{
				"index":0
			},
			"pbrMetallicRoughness":{
				"baseColorTexture":{
					"index":1
				},
				"metallicFactor":0,
				"metallicRoughnessTexture":{
					"index":2
				}
			}
		},
		{
			"name":"Wick",
			"pbrMetallicRoughness":{
				"baseColorFactor":[
					0.0004463409713935107,
					0.0002988601627293974,
					0.0001829220273066312,
					1
				],
				"metallicFactor":0,
				"roughnessFactor":0.8999999761581421
			}
		}
	],
	"meshes":[
		{
			"name":"Candle_Body",
			"primitives":[
				{
					"attributes":{
						"POSITION":0,
						"NORMAL":1,
						"TEXCOORD_0":2
					},
					"indices":3,
					"material":0
				},
				{
					"attributes":{
						"POSITION":4,
						"NORMAL":5,
						"TEXCOORD_0":6
					},
					"indices":7,
					"material":1
				}
			]
		}
	],
	"textures":[
		{
			"sampler":0,
			"source":0
		},
		{
			"sampler":0,
			"source":1
		},
		{
			"sampler":0,
			"source":2
		}
	],
	"images":[
		{
			"mimeType":"image/jpeg",
			"name":"wax_normal",
			"uri":"../textures/wax_normal.jpg"
		},
		{
			"mimeType":"image/jpeg",
			"name":"wax_albedo",
			"uri":"../textures/wax_albedo.jpg"
		},
		{
			"mimeType":"image/png",
			"name":"wax_rough",
			"uri":"../textures/wax_rough.png"
		}
	],
	"accessors":[
		{
			"bufferView":0,
			"componentType":5126,
			"count":3711,
			"max":[
				0.026626208797097206,
				0.16368353366851807,
				0.0222751684486866
			],
			"min":[
				-0.026780379936099052,
				0,
				-0.0222751684486866
			],
			"type":"VEC3"
		},
		{
			"bufferView":1,
			"componentType":5126,
			"count":3711,
			"type":"VEC3"
		},
		{
			"bufferView":2,
			"componentType":5126,
			"count":3711,
			"type":"VEC2"
		},
		{
			"bufferView":3,
			"componentType":5123,
			"count":13620,
			"type":"SCALAR"
		},
		{
			"bufferView":4,
			"componentType":5126,
			"count":500,
			"max":[
				0.0042528375051915646,
				0.17338161170482635,
				0.0010499568888917565
			],
			"min":[
				-0.0010580080561339855,
				0.1499893069267273,
				-0.0010499567724764347
			],
			"type":"VEC3"
		},
		{
			"bufferView":5,
			"componentType":5126,
			"count":500,
			"type":"VEC3"
		},
		{
			"bufferView":6,
			"componentType":5126,
			"count":500,
			"type":"VEC2"
		},
		{
			"bufferView":7,
			"componentType":5123,
			"count":1680,
			"type":"SCALAR"
		}
	],
	"bufferViews":[
		{
			"buffer":0,
			"byteLength":44532,
			"byteOffset":0,
			"target":34962
		},
		{
			"buffer":0,
			"byteLength":44532,
			"byteOffset":44532,
			"target":34962
		},
		{
			"buffer":0,
			"byteLength":29688,
			"byteOffset":89064,
			"target":34962
		},
		{
			"buffer":0,
			"byteLength":27240,
			"byteOffset":118752,
			"target":34963
		},
		{
			"buffer":0,
			"byteLength":6000,
			"byteOffset":145992,
			"target":34962
		},
		{
			"buffer":0,
			"byteLength":6000,
			"byteOffset":151992,
			"target":34962
		},
		{
			"buffer":0,
			"byteLength":4000,
			"byteOffset":157992,
			"target":34962
		},
		{
			"buffer":0,
			"byteLength":3360,
			"byteOffset":161992,
			"target":34963
		}
	],
	"samplers":[
		{
			"magFilter":9729,
			"minFilter":9987
		}
	],
	"buffers":[
		{
			"byteLength":165352,
			"uri":"Candle.bin"
		}
	]
}
