{
	"asset":{
		"generator":"Khronos glTF Blender I/O v5.2.40",
		"version":"2.0"
	},
	"extensionsUsed":[
		"KHR_materials_emissive_strength",
		"KHR_lights_punctual"
	],
	"extensionsRequired":[
		"KHR_lights_punctual"
	],
	"extensions":{
		"KHR_lights_punctual":{
			"lights":[
				{
					"color":[
						1,
						0.5799999833106995,
						0.25
					],
					"intensity":0.477464829275686,
					"type":"point",
					"name":"Candle_Cluster_Lit_Light"
				}
			]
		}
	},
	"scene":0,
	"scenes":[
		{
			"name":"Scene",
			"nodes":[
				3
			]
		}
	],
	"nodes":[
		{
			"mesh":0,
			"name":"Candle_Cluster_Lit_Body"
		},
		{
			"mesh":1,
			"name":"Candle_Cluster_Lit_Flame"
		},
		{
			"extensions":{
				"KHR_lights_punctual":{
					"light":0
				}
			},
			"name":"Candle_Cluster_Lit_Light",
			"rotation":[
				-0.7071068286895752,
				0,
				0,
				0.7071068286895752
			],
			"translation":[
				0,
				0.25,
				0
			]
		},
		{
			"children":[
				0,
				1,
				2
			],
			"name":"Candle_Cluster_Lit"
		}
	],
	"materials":[
		{
			"name":"Wax_Ivory",
			"normalTexture":{
				"index":0
			},
			"pbrMetallicRoughness":{
				"baseColorTexture":{
					"index":1
				},
				"metallicFactor":0,
				"metallicRoughnessTexture":{
					"index":2
				}
			}
		},
		{
			"name":"Wick",
			"pbrMetallicRoughness":{
				"baseColorFactor":[
					0.0004463409713935107,
					0.0002988601627293974,
					0.0001829220273066312,
					1
				],
				"metallicFactor":0,
				"roughnessFactor":0.8999999761581421
			}
		},
		{
			"emissiveFactor":[
				1,
				0.09930010139942169,
				0.0038618729449808598
			],
			"extensions":{
				"KHR_materials_emissive_strength":{
					"emissiveStrength":6
				}
			},
			"name":"Ember",
			"pbrMetallicRoughness":{
				"baseColorFactor":[
					0.02899118699133396,
					0.0013732006773352623,
					0.0001829220273066312,
					1
				],
				"metallicFactor":0,
				"roughnessFactor":0.8999999761581421
			}
		},
		{
			"emissiveFactor":[
				1,
				0.6120656132698059,
				0.21763764321804047
			],
			"extensions":{
				"KHR_materials_emissive_strength":{
					"emissiveStrength":25
				}
			},
			"name":"Flame_Core",
			"pbrMetallicRoughness":{
				"baseColorFactor":[
					1,
					0.5789061188697815,
					0.17261062562465668,
					1
				],
				"metallicFactor":0
			}
		},
		{
			"alphaMode":"BLEND",
			"doubleSided":true,
			"emissiveFactor":[
				1,
				1,
				1
			],
			"emissiveTexture":{
				"index":3
			},
			"extensions":{
				"KHR_materials_emissive_strength":{
					"emissiveStrength":6
				}
			},
			"name":"Flame_Glow",
			"pbrMetallicRoughness":{
				"baseColorTexture":{
					"index":4
				},
				"metallicFactor":0
			}
		}
	],
	"meshes":[
		{
			"name":"Candle_Cluster_Lit_Body",
			"primitives":[
				{
					"attributes":{
						"POSITION":0,
						"NORMAL":1,
						"TEXCOORD_0":2
					},
					"indices":3,
					"material":0
				},
				{
					"attributes":{
						"POSITION":4,
						"NORMAL":5,
						"TEXCOORD_0":6
					},
					"indices":7,
					"material":1
				},
				{
					"attributes":{
						"POSITION":8,
						"NORMAL":9,
						"TEXCOORD_0":10
					},
					"indices":11,
					"material":2
				}
			]
		},
		{
			"name":"Candle_Cluster_Lit_Flame",
			"primitives":[
				{
					"attributes":{
						"POSITION":12,
						"NORMAL":13,
						"TEXCOORD_0":14
					},
					"indices":15,
					"material":3
				},
				{
					"attributes":{
						"POSITION":16,
						"NORMAL":17,
						"TEXCOORD_0":18
					},
					"indices":19,
					"material":4
				}
			]
		}
	],
	"textures":[
		{
			"sampler":0,
			"source":0
		},
		{
			"sampler":0,
			"source":1
		},
		{
			"sampler":0,
			"source":2
		},
		{
			"sampler":0,
			"source":3
		},
		{
			"sampler":0,
			"source":3
		}
	],
	"images":[
		{
			"mimeType":"image/jpeg",
			"name":"wax_normal",
			"uri":"../textures/wax_normal.jpg"
		},
		{
			"mimeType":"image/jpeg",
			"name":"wax_albedo",
			"uri":"../textures/wax_albedo.jpg"
		},
		{
			"mimeType":"image/png",
			"name":"wax_rough",
			"uri":"../textures/wax_rough.png"
		},
		{
			"mimeType":"image/png",
			"name":"flame_gradient",
			"uri":"../textures/flame_gradient.png"
		}
	],
	"accessors":[
		{
			"bufferView":0,
			"componentType":5126,
			"count":22954,
			"max":[
				0.13923022150993347,
				0.2729001045227051,
				0.13923022150993347
			],
			"min":[
				-0.13923022150993347,
				0,
				-0.13923022150993347
			],
			"type":"VEC3"
		},
		{
			"bufferView":1,
			"componentType":5126,
			"count":22954,
			"type":"VEC3"
		},
		{
			"bufferView":2,
			"componentType":5126,
			"count":22954,
			"type":"VEC2"
		},
		{
			"bufferView":3,
			"componentType":5123,
			"count":81540,
			"type":"SCALAR"
		},
		{
			"bufferView":4,
			"componentType":5126,
			"count":2545,
			"max":[
				0.06930776685476303,
				0.2834351062774658,
				0.07108386605978012
			],
			"min":[
				-0.061058010905981064,
				0.06498746573925018,
				-0.046083878725767136
			],
			"type":"VEC3"
		},
		{
			"bufferView":5,
			"componentType":5126,
			"count":2545,
			"type":"VEC3"
		},
		{
			"bufferView":6,
			"componentType":5126,
			"count":2545,
			"type":"VEC2"
		},
		{
			"bufferView":7,
			"componentType":5123,
			"count":8400,
			"type":"SCALAR"
		},
		{
			"bufferView":8,
			"componentType":5126,
			"count":1028,
			"max":[
				0.0700860545039177,
				0.28459998965263367,
				0.05158606544137001
			],
			"min":[
				-0.05808606371283531,
				0.08640000224113464,
				-0.046586066484451294
			],
			"type":"VEC3"
		},
		{
			"bufferView":9,
			"componentType":5126,
			"count":1028,
			"type":"VEC3"
		},
		{
			"bufferView":10,
			"componentType":5126,
			"count":1028,
			"type":"VEC2"
		},
		{
			"bufferView":11,
			"componentType":5123,
			"count":2496,
			"type":"SCALAR"
		},
		{
			"bufferView":12,
			"componentType":5126,
			"count":1184,
			"max":[
				0.0684209018945694,
				0.29980000853538513,
				0.053420908749103546
			],
			"min":[
				-0.06342090666294098,
				0.07999999821186066,
				-0.04842090606689453
			],
			"type":"VEC3"
		},
		{
			"bufferView":13,
			"componentType":5126,
			"count":1184,
			"type":"VEC3"
		},
		{
			"bufferView":14,
			"componentType":5126,
			"count":1184,
			"type":"VEC2"
		},
		{
			"bufferView":15,
			"componentType":5123,
			"count":5760,
			"type":"SCALAR"
		},
		{
			"bufferView":16,
			"componentType":5126,
			"count":1448,
			"max":[
				0.07277478277683258,
				0.31700000166893005,
				0.05777478963136673
			],
			"min":[
				-0.06777478754520416,
				0.07599999755620956,
				-0.052774786949157715
			],
			"type":"VEC3"
		},
		{
			"bufferView":17,
			"componentType":5126,
			"count":1448,
			"type":"VEC3"
		},
		{
			"bufferView":18,
			"componentType":5126,
			"count":1448,
			"type":"VEC2"
		},
		{
			"bufferView":19,
			"componentType":5123,
			"count":8640,
			"type":"SCALAR"
		}
	],
	"bufferViews":[
		{
			"buffer":0,
			"byteLength":275448,
			"byteOffset":0,
			"target":34962
		},
		{
			"buffer":0,
			"byteLength":275448,
			"byteOffset":275448,
			"target":34962
		},
		{
			"buffer":0,
			"byteLength":183632,
			"byteOffset":550896,
			"target":34962
		},
		{
			"buffer":0,
			"byteLength":163080,
			"byteOffset":734528,
			"target":34963
		},
		{
			"buffer":0,
			"byteLength":30540,
			"byteOffset":897608,
			"target":34962
		},
		{
			"buffer":0,
			"byteLength":30540,
			"byteOffset":928148,
			"target":34962
		},
		{
			"buffer":0,
			"byteLength":20360,
			"byteOffset":958688,
			"target":34962
		},
		{
			"buffer":0,
			"byteLength":16800,
			"byteOffset":979048,
			"target":34963
		},
		{
			"buffer":0,
			"byteLength":12336,
			"byteOffset":995848,
			"target":34962
		},
		{
			"buffer":0,
			"byteLength":12336,
			"byteOffset":1008184,
			"target":34962
		},
		{
			"buffer":0,
			"byteLength":8224,
			"byteOffset":1020520,
			"target":34962
		},
		{
			"buffer":0,
			"byteLength":4992,
			"byteOffset":1028744,
			"target":34963
		},
		{
			"buffer":0,
			"byteLength":14208,
			"byteOffset":1033736,
			"target":34962
		},
		{
			"buffer":0,
			"byteLength":14208,
			"byteOffset":1047944,
			"target":34962
		},
		{
			"buffer":0,
			"byteLength":9472,
			"byteOffset":1062152,
			"target":34962
		},
		{
			"buffer":0,
			"byteLength":11520,
			"byteOffset":1071624,
			"target":34963
		},
		{
			"buffer":0,
			"byteLength":17376,
			"byteOffset":1083144,
			"target":34962
		},
		{
			"buffer":0,
			"byteLength":17376,
			"byteOffset":1100520,
			"target":34962
		},
		{
			"buffer":0,
			"byteLength":11584,
			"byteOffset":1117896,
			"target":34962
		},
		{
			"buffer":0,
			"byteLength":17280,
			"byteOffset":1129480,
			"target":34963
		}
	],
	"samplers":[
		{
			"magFilter":9729,
			"minFilter":9987
		}
	],
	"buffers":[
		{
			"byteLength":1146760,
			"uri":"Candle_Cluster_Lit.bin"
		}
	]
}
