{
	"asset":{
		"generator":"Khronos glTF Blender I/O v5.2.40",
		"version":"2.0"
	},
	"extensionsUsed":[
		"KHR_materials_emissive_strength"
	],
	"scene":0,
	"scenes":[
		{
			"name":"Scene",
			"nodes":[
				3
			]
		}
	],
	"nodes":[
		{
			"mesh":0,
			"name":"Candlestick_Hand_Body",
			"translation":[
				0,
				0.18400000035762787,
				0
			]
		},
		{
			"mesh":1,
			"name":"Candlestick_Hand_Brass"
		},
		{
			"mesh":2,
			"name":"Candlestick_Hand_Flame",
			"translation":[
				0,
				0.18400000035762787,
				0
			]
		},
		{
			"children":[
				0,
				1,
				2
			],
			"name":"Candlestick_Hand"
		}
	],
	"materials":[
		{
			"name":"Wax_Ivory",
			"normalTexture":{
				"index":0
			},
			"pbrMetallicRoughness":{
				"baseColorTexture":{
					"index":1
				},
				"metallicFactor":0,
				"metallicRoughnessTexture":{
					"index":2
				}
			}
		},
		{
			"name":"Wick",
			"pbrMetallicRoughness":{
				"baseColorFactor":[
					0.0004463409713935107,
					0.0002988601627293974,
					0.0001829220273066312,
					1
				],
				"metallicFactor":0,
				"roughnessFactor":0.8999999761581421
			}
		},
		{
			"emissiveFactor":[
				1,
				0.09930010139942169,
				0.0038618729449808598
			],
			"extensions":{
				"KHR_materials_emissive_strength":{
					"emissiveStrength":6
				}
			},
			"name":"Ember",
			"pbrMetallicRoughness":{
				"baseColorFactor":[
					0.02899118699133396,
					0.0013732006773352623,
					0.0001829220273066312,
					1
				],
				"metallicFactor":0,
				"roughnessFactor":0.8999999761581421
			}
		},
		{
			"name":"Brass_Aged",
			"normalTexture":{
				"index":3
			},
			"pbrMetallicRoughness":{
				"baseColorTexture":{
					"index":4
				},
				"metallicRoughnessTexture":{
					"index":5
				}
			}
		},
		{
			"emissiveFactor":[
				1,
				0.6120656132698059,
				0.21763764321804047
			],
			"extensions":{
				"KHR_materials_emissive_strength":{
					"emissiveStrength":25
				}
			},
			"name":"Flame_Core",
			"pbrMetallicRoughness":{
				"baseColorFactor":[
					1,
					0.5789061188697815,
					0.17261062562465668,
					1
				],
				"metallicFactor":0
			}
		},
		{
			"alphaMode":"BLEND",
			"doubleSided":true,
			"emissiveFactor":[
				1,
				1,
				1
			],
			"emissiveTexture":{
				"index":6
			},
			"extensions":{
				"KHR_materials_emissive_strength":{
					"emissiveStrength":6
				}
			},
			"name":"Flame_Glow",
			"pbrMetallicRoughness":{
				"baseColorTexture":{
					"index":7
				},
				"metallicFactor":0
			}
		}
	],
	"meshes":[
		{
			"name":"Candlestick_Hand_Body",
			"primitives":[
				{
					"attributes":{
						"POSITION":0,
						"NORMAL":1,
						"TEXCOORD_0":2
					},
					"indices":3,
					"material":0
				},
				{
					"attributes":{
						"POSITION":4,
						"NORMAL":5,
						"TEXCOORD_0":6
					},
					"indices":7,
					"material":1
				},
				{
					"attributes":{
						"POSITION":8,
						"NORMAL":9,
						"TEXCOORD_0":10
					},
					"indices":11,
					"material":2
				}
			]
		},
		{
			"name":"Candlestick_Hand_Brass",
			"primitives":[
				{
					"attributes":{
						"POSITION":12,
						"NORMAL":13,
						"TEXCOORD_0":14
					},
					"indices":15,
					"material":3
				}
			]
		},
		{
			"name":"Candlestick_Hand_Flame",
			"primitives":[
				{
					"attributes":{
						"POSITION":16,
						"NORMAL":17,
						"TEXCOORD_0":18
					},
					"indices":19,
					"material":4
				},
				{
					"attributes":{
						"POSITION":20,
						"NORMAL":21,
						"TEXCOORD_0":22
					},
					"indices":23,
					"material":5
				}
			]
		}
	],
	"textures":[
		{
			"sampler":0,
			"source":0
		},
		{
			"sampler":0,
			"source":1
		},
		{
			"sampler":0,
			"source":2
		},
		{
			"sampler":0,
			"source":3
		},
		{
			"sampler":0,
			"source":4
		},
		{
			"sampler":0,
			"source":5
		},
		{
			"sampler":0,
			"source":6
		},
		{
			"sampler":0,
			"source":6
		}
	],
	"images":[
		{
			"mimeType":"image/jpeg",
			"name":"wax_normal",
			"uri":"../textures/wax_normal.jpg"
		},
		{
			"mimeType":"image/jpeg",
			"name":"wax_albedo",
			"uri":"../textures/wax_albedo.jpg"
		},
		{
			"mimeType":"image/png",
			"name":"wax_rough",
			"uri":"../textures/wax_rough.png"
		},
		{
			"mimeType":"image/jpeg",
			"name":"brass_normal",
			"uri":"../textures/brass_normal.jpg"
		},
		{
			"mimeType":"image/jpeg",
			"name":"brass_albedo",
			"uri":"../textures/brass_albedo.jpg"
		},
		{
			"mimeType":"image/png",
			"name":"brass_rough",
			"uri":"../textures/brass_rough.png"
		},
		{
			"mimeType":"image/png",
			"name":"flame_gradient",
			"uri":"../textures/flame_gradient.png"
		}
	],
	"accessors":[
		{
			"bufferView":0,
			"componentType":5126,
			"count":1648,
			"max":[
				0.02036381885409355,
				0.13294753432273865,
				0.014730959199368954
			],
			"min":[
				-0.02083967998623848,
				0,
				-0.014800681732594967
			],
			"type":"VEC3"
		},
		{
			"bufferView":1,
			"componentType":5126,
			"count":1648,
			"type":"VEC3"
		},
		{
			"bufferView":2,
			"componentType":5126,
			"count":1648,
			"type":"VEC2"
		},
		{
			"bufferView":3,
			"componentType":5123,
			"count":6324,
			"type":"SCALAR"
		},
		{
			"bufferView":4,
			"componentType":5126,
			"count":168,
			"max":[
				0.004333888180553913,
				0.14346058666706085,
				0.0010999999940395355
			],
			"min":[
				-0.0010580080561339855,
				0.11998660117387772,
				-0.0010999999940395355
			],
			"type":"VEC3"
		},
		{
			"bufferView":5,
			"componentType":5126,
			"count":168,
			"type":"VEC3"
		},
		{
			"bufferView":6,
			"componentType":5126,
			"count":168,
			"type":"VEC2"
		},
		{
			"bufferView":7,
			"componentType":5123,
			"count":456,
			"type":"SCALAR"
		},
		{
			"bufferView":8,
			"componentType":5126,
			"count":82,
			"max":[
				0.0050999997183680534,
				0.1446000039577484,
				0.0015999997267499566
			],
			"min":[
				0.001900000381283462,
				0.14140000939369202,
				-0.0015999997267499566
			],
			"type":"VEC3"
		},
		{
			"bufferView":9,
			"componentType":5126,
			"count":82,
			"type":"VEC3"
		},
		{
			"bufferView":10,
			"componentType":5126,
			"count":82,
			"type":"VEC2"
		},
		{
			"bufferView":11,
			"componentType":5123,
			"count":240,
			"type":"SCALAR"
		},
		{
			"bufferView":12,
			"componentType":5126,
			"count":2566,
			"max":[
				0.043765049427747726,
				0.1860000044107437,
				0.043765049427747726
			],
			"min":[
				-0.043765049427747726,
				0,
				-0.043765049427747726
			],
			"type":"VEC3"
		},
		{
			"bufferView":13,
			"componentType":5126,
			"count":2566,
			"type":"VEC3"
		},
		{
			"bufferView":14,
			"componentType":5126,
			"count":2566,
			"type":"VEC2"
		},
		{
			"bufferView":15,
			"componentType":5123,
			"count":8880,
			"type":"SCALAR"
		},
		{
			"bufferView":16,
			"componentType":5126,
			"count":272,
			"max":[
				0.0034209061414003372,
				0.15980000793933868,
				0.0034209061414003372
			],
			"min":[
				-0.0034209061414003372,
				0.13500000536441803,
				-0.0034209061414003372
			],
			"type":"VEC3"
		},
		{
			"bufferView":17,
			"componentType":5126,
			"count":272,
			"type":"VEC3"
		},
		{
			"bufferView":18,
			"componentType":5126,
			"count":272,
			"type":"VEC2"
		},
		{
			"bufferView":19,
			"componentType":5123,
			"count":1440,
			"type":"SCALAR"
		},
		{
			"bufferView":20,
			"componentType":5126,
			"count":362,
			"max":[
				0.007774787023663521,
				0.1770000010728836,
				0.007774787023663521
			],
			"min":[
				-0.007774787023663521,
				0.13099999725818634,
				-0.007774787023663521
			],
			"type":"VEC3"
		},
		{
			"bufferView":21,
			"componentType":5126,
			"count":362,
			"type":"VEC3"
		},
		{
			"bufferView":22,
			"componentType":5126,
			"count":362,
			"type":"VEC2"
		},
		{
			"bufferView":23,
			"componentType":5123,
			"count":2160,
			"type":"SCALAR"
		}
	],
	"bufferViews":[
		{
			"buffer":0,
			"byteLength":19776,
			"byteOffset":0,
			"target":34962
		},
		{
			"buffer":0,
			"byteLength":19776,
			"byteOffset":19776,
			"target":34962
		},
		{
			"buffer":0,
			"byteLength":13184,
			"byteOffset":39552,
			"target":34962
		},
		{
			"buffer":0,
			"byteLength":12648,
			"byteOffset":52736,
			"target":34963
		},
		{
			"buffer":0,
			"byteLength":2016,
			"byteOffset":65384,
			"target":34962
		},
		{
			"buffer":0,
			"byteLength":2016,
			"byteOffset":67400,
			"target":34962
		},
		{
			"buffer":0,
			"byteLength":1344,
			"byteOffset":69416,
			"target":34962
		},
		{
			"buffer":0,
			"byteLength":912,
			"byteOffset":70760,
			"target":34963
		},
		{
			"buffer":0,
			"byteLength":984,
			"byteOffset":71672,
			"target":34962
		},
		{
			"buffer":0,
			"byteLength":984,
			"byteOffset":72656,
			"target":34962
		},
		{
			"buffer":0,
			"byteLength":656,
			"byteOffset":73640,
			"target":34962
		},
		{
			"buffer":0,
			"byteLength":480,
			"byteOffset":74296,
			"target":34963
		},
		{
			"buffer":0,
			"byteLength":30792,
			"byteOffset":74776,
			"target":34962
		},
		{
			"buffer":0,
			"byteLength":30792,
			"byteOffset":105568,
			"target":34962
		},
		{
			"buffer":0,
			"byteLength":20528,
			"byteOffset":136360,
			"target":34962
		},
		{
			"buffer":0,
			"byteLength":17760,
			"byteOffset":156888,
			"target":34963
		},
		{
			"buffer":0,
			"byteLength":3264,
			"byteOffset":174648,
			"target":34962
		},
		{
			"buffer":0,
			"byteLength":3264,
			"byteOffset":177912,
			"target":34962
		},
		{
			"buffer":0,
			"byteLength":2176,
			"byteOffset":181176,
			"target":34962
		},
		{
			"buffer":0,
			"byteLength":2880,
			"byteOffset":183352,
			"target":34963
		},
		{
			"buffer":0,
			"byteLength":4344,
			"byteOffset":186232,
			"target":34962
		},
		{
			"buffer":0,
			"byteLength":4344,
			"byteOffset":190576,
			"target":34962
		},
		{
			"buffer":0,
			"byteLength":2896,
			"byteOffset":194920,
			"target":34962
		},
		{
			"buffer":0,
			"byteLength":4320,
			"byteOffset":197816,
			"target":34963
		}
	],
	"samplers":[
		{
			"magFilter":9729,
			"minFilter":9987
		}
	],
	"buffers":[
		{
			"byteLength":202136,
			"uri":"Candlestick_Hand.bin"
		}
	]
}
