{
	"asset":{
		"generator":"Khronos glTF Blender I/O v5.2.40",
		"version":"2.0"
	},
	"extensionsUsed":[
		"KHR_materials_emissive_strength",
		"KHR_lights_punctual"
	],
	"extensionsRequired":[
		"KHR_lights_punctual"
	],
	"extensions":{
		"KHR_lights_punctual":{
			"lights":[
				{
					"color":[
						1,
						0.5799999833106995,
						0.25
					],
					"intensity":3.183098861837907,
					"type":"point",
					"name":"Chandelier_Lit_Light"
				}
			]
		}
	},
	"scene":0,
	"scenes":[
		{
			"name":"Scene",
			"nodes":[
				4
			]
		}
	],
	"nodes":[
		{
			"mesh":0,
			"name":"Chandelier_Lit_Body"
		},
		{
			"mesh":1,
			"name":"Chandelier_Lit_Crystals"
		},
		{
			"mesh":2,
			"name":"Chandelier_Lit_Flame"
		},
		{
			"extensions":{
				"KHR_lights_punctual":{
					"light":0
				}
			},
			"name":"Chandelier_Lit_Light",
			"rotation":[
				-0.7071068286895752,
				0,
				0,
				0.7071068286895752
			],
			"translation":[
				0,
				-0.8999999761581421,
				0
			]
		},
		{
			"children":[
				0,
				1,
				2,
				3
			],
			"name":"Chandelier_Lit"
		}
	],
	"materials":[
		{
			"name":"Brass_Aged",
			"normalTexture":{
				"index":0
			},
			"pbrMetallicRoughness":{
				"baseColorTexture":{
					"index":1
				},
				"metallicRoughnessTexture":{
					"index":2
				}
			}
		},
		{
			"name":"Wax_Ivory",
			"normalTexture":{
				"index":3
			},
			"pbrMetallicRoughness":{
				"baseColorTexture":{
					"index":4
				},
				"metallicFactor":0,
				"metallicRoughnessTexture":{
					"index":5
				}
			}
		},
		{
			"name":"Wick",
			"pbrMetallicRoughness":{
				"baseColorFactor":[
					0.0004463409713935107,
					0.0002988601627293974,
					0.0001829220273066312,
					1
				],
				"metallicFactor":0,
				"roughnessFactor":0.8999999761581421
			}
		},
		{
			"emissiveFactor":[
				1,
				0.09930010139942169,
				0.0038618729449808598
			],
			"extensions":{
				"KHR_materials_emissive_strength":{
					"emissiveStrength":6
				}
			},
			"name":"Ember",
			"pbrMetallicRoughness":{
				"baseColorFactor":[
					0.02899118699133396,
					0.0013732006773352623,
					0.0001829220273066312,
					1
				],
				"metallicFactor":0,
				"roughnessFactor":0.8999999761581421
			}
		},
		{
			"alphaMode":"BLEND",
			"doubleSided":true,
			"name":"Crystal",
			"pbrMetallicRoughness":{
				"baseColorFactor":[
					0.8727327585220337,
					0.9141063094139099,
					1,
					0.3499999940395355
				],
				"metallicFactor":0,
				"roughnessFactor":0.009999999776482582
			}
		},
		{
			"emissiveFactor":[
				1,
				0.6120656132698059,
				0.21763764321804047
			],
			"extensions":{
				"KHR_materials_emissive_strength":{
					"emissiveStrength":25
				}
			},
			"name":"Flame_Core",
			"pbrMetallicRoughness":{
				"baseColorFactor":[
					1,
					0.5789061188697815,
					0.17261062562465668,
					1
				],
				"metallicFactor":0
			}
		},
		{
			"alphaMode":"BLEND",
			"doubleSided":true,
			"emissiveFactor":[
				1,
				1,
				1
			],
			"emissiveTexture":{
				"index":6
			},
			"extensions":{
				"KHR_materials_emissive_strength":{
					"emissiveStrength":6
				}
			},
			"name":"Flame_Glow",
			"pbrMetallicRoughness":{
				"baseColorTexture":{
					"index":7
				},
				"metallicFactor":0
			}
		}
	],
	"meshes":[
		{
			"name":"Chandelier_Lit_Body",
			"primitives":[
				{
					"attributes":{
						"POSITION":0,
						"NORMAL":1,
						"TEXCOORD_0":2
					},
					"indices":3,
					"material":0
				},
				{
					"attributes":{
						"POSITION":4,
						"NORMAL":5,
						"TEXCOORD_0":6
					},
					"indices":7,
					"material":1
				},
				{
					"attributes":{
						"POSITION":8,
						"NORMAL":9,
						"TEXCOORD_0":10
					},
					"indices":11,
					"material":2
				},
				{
					"attributes":{
						"POSITION":12,
						"NORMAL":13,
						"TEXCOORD_0":14
					},
					"indices":15,
					"material":3
				}
			]
		},
		{
			"name":"Chandelier_Lit_Crystals",
			"primitives":[
				{
					"attributes":{
						"POSITION":16,
						"NORMAL":17,
						"TEXCOORD_0":18
					},
					"indices":19,
					"material":4
				}
			]
		},
		{
			"name":"Chandelier_Lit_Flame",
			"primitives":[
				{
					"attributes":{
						"POSITION":20,
						"NORMAL":21,
						"TEXCOORD_0":22
					},
					"indices":23,
					"material":5
				},
				{
					"attributes":{
						"POSITION":24,
						"NORMAL":25,
						"TEXCOORD_0":26
					},
					"indices":27,
					"material":6
				}
			]
		}
	],
	"textures":[
		{
			"sampler":0,
			"source":0
		},
		{
			"sampler":0,
			"source":1
		},
		{
			"sampler":0,
			"source":2
		},
		{
			"sampler":0,
			"source":3
		},
		{
			"sampler":0,
			"source":4
		},
		{
			"sampler":0,
			"source":5
		},
		{
			"sampler":0,
			"source":6
		},
		{
			"sampler":0,
			"source":6
		}
	],
	"images":[
		{
			"mimeType":"image/jpeg",
			"name":"brass_normal",
			"uri":"../textures/brass_normal.jpg"
		},
		{
			"mimeType":"image/jpeg",
			"name":"brass_albedo",
			"uri":"../textures/brass_albedo.jpg"
		},
		{
			"mimeType":"image/png",
			"name":"brass_rough",
			"uri":"../textures/brass_rough.png"
		},
		{
			"mimeType":"image/jpeg",
			"name":"wax_normal",
			"uri":"../textures/wax_normal.jpg"
		},
		{
			"mimeType":"image/jpeg",
			"name":"wax_albedo",
			"uri":"../textures/wax_albedo.jpg"
		},
		{
			"mimeType":"image/png",
			"name":"wax_rough",
			"uri":"../textures/wax_rough.png"
		},
		{
			"mimeType":"image/png",
			"name":"flame_gradient",
			"uri":"../textures/flame_gradient.png"
		}
	],
	"accessors":[
		{
			"bufferView":0,
			"componentType":5126,
			"count":61890,
			"max":[
				0.6127683520317078,
				0,
				0.6127683520317078
			],
			"min":[
				-0.6127683520317078,
				-1.4500000476837158,
				-0.6127683520317078
			],
			"type":"VEC3"
		},
		{
			"bufferView":1,
			"componentType":5126,
			"count":61890,
			"type":"VEC3"
		},
		{
			"bufferView":2,
			"componentType":5126,
			"count":61890,
			"type":"VEC2"
		},
		{
			"bufferView":3,
			"componentType":5123,
			"count":202368,
			"type":"SCALAR"
		},
		{
			"bufferView":4,
			"componentType":5126,
			"count":25743,
			"max":[
				0.5813941359519958,
				-0.8198381066322327,
				0.5836265683174133
			],
			"min":[
				-0.5792476534843445,
				-0.943600058555603,
				-0.5792682766914368
			],
			"type":"VEC3"
		},
		{
			"bufferView":5,
			"componentType":5126,
			"count":25743,
			"type":"VEC3"
		},
		{
			"bufferView":6,
			"componentType":5126,
			"count":25743,
			"type":"VEC2"
		},
		{
			"bufferView":7,
			"componentType":5123,
			"count":91740,
			"type":"SCALAR"
		},
		{
			"bufferView":8,
			"componentType":5126,
			"count":4200,
			"max":[
				0.564278244972229,
				-0.8101935982704163,
				0.5610657334327698
			],
			"min":[
				-0.5610580444335938,
				-0.8336116075515747,
				-0.561065673828125
			],
			"type":"VEC3"
		},
		{
			"bufferView":9,
			"componentType":5126,
			"count":4200,
			"type":"VEC3"
		},
		{
			"bufferView":10,
			"componentType":5126,
			"count":4200,
			"type":"VEC2"
		},
		{
			"bufferView":11,
			"componentType":5123,
			"count":13440,
			"type":"SCALAR"
		},
		{
			"bufferView":12,
			"componentType":5126,
			"count":2078,
			"max":[
				0.5650703310966492,
				-0.8090000152587891,
				0.5615703463554382
			],
			"min":[
				-0.5580703616142273,
				-0.8122000694274902,
				-0.5615703463554382
			],
			"type":"VEC3"
		},
		{
			"bufferView":13,
			"componentType":5126,
			"count":2078,
			"type":"VEC3"
		},
		{
			"bufferView":14,
			"componentType":5126,
			"count":2078,
			"type":"VEC2"
		},
		{
			"bufferView":15,
			"componentType":5123,
			"count":4992,
			"type":"SCALAR"
		},
		{
			"bufferView":16,
			"componentType":5126,
			"count":6014,
			"max":[
				0.5707331299781799,
				-0.761400043964386,
				0.5702076554298401
			],
			"min":[
				-0.5707331299781799,
				-1.5500000715255737,
				-0.5702076554298401
			],
			"type":"VEC3"
		},
		{
			"bufferView":17,
			"componentType":5126,
			"count":6014,
			"type":"VEC3"
		},
		{
			"bufferView":18,
			"componentType":5126,
			"count":6014,
			"type":"VEC2"
		},
		{
			"bufferView":19,
			"componentType":5123,
			"count":10416,
			"type":"SCALAR"
		},
		{
			"bufferView":20,
			"componentType":5126,
			"count":2368,
			"max":[
				0.5634208917617798,
				-0.7938000559806824,
				0.5634208917617798
			],
			"min":[
				-0.5634208917617798,
				-0.818600058555603,
				-0.5634208917617798
			],
			"type":"VEC3"
		},
		{
			"bufferView":21,
			"componentType":5126,
			"count":2368,
			"type":"VEC3"
		},
		{
			"bufferView":22,
			"componentType":5126,
			"count":2368,
			"type":"VEC2"
		},
		{
			"bufferView":23,
			"componentType":5123,
			"count":11520,
			"type":"SCALAR"
		},
		{
			"bufferView":24,
			"componentType":5126,
			"count":2896,
			"max":[
				0.567774772644043,
				-0.7766000628471375,
				0.567774772644043
			],
			"min":[
				-0.567774772644043,
				-0.8226000666618347,
				-0.567774772644043
			],
			"type":"VEC3"
		},
		{
			"bufferView":25,
			"componentType":5126,
			"count":2896,
			"type":"VEC3"
		},
		{
			"bufferView":26,
			"componentType":5126,
			"count":2896,
			"type":"VEC2"
		},
		{
			"bufferView":27,
			"componentType":5123,
			"count":17280,
			"type":"SCALAR"
		}
	],
	"bufferViews":[
		{
			"buffer":0,
			"byteLength":742680,
			"byteOffset":0,
			"target":34962
		},
		{
			"buffer":0,
			"byteLength":742680,
			"byteOffset":742680,
			"target":34962
		},
		{
			"buffer":0,
			"byteLength":495120,
			"byteOffset":1485360,
			"target":34962
		},
		{
			"buffer":0,
			"byteLength":404736,
			"byteOffset":1980480,
			"target":34963
		},
		{
			"buffer":0,
			"byteLength":308916,
			"byteOffset":2385216,
			"target":34962
		},
		{
			"buffer":0,
			"byteLength":308916,
			"byteOffset":2694132,
			"target":34962
		},
		{
			"buffer":0,
			"byteLength":205944,
			"byteOffset":3003048,
			"target":34962
		},
		{
			"buffer":0,
			"byteLength":183480,
			"byteOffset":3208992,
			"target":34963
		},
		{
			"buffer":0,
			"byteLength":50400,
			"byteOffset":3392472,
			"target":34962
		},
		{
			"buffer":0,
			"byteLength":50400,
			"byteOffset":3442872,
			"target":34962
		},
		{
			"buffer":0,
			"byteLength":33600,
			"byteOffset":3493272,
			"target":34962
		},
		{
			"buffer":0,
			"byteLength":26880,
			"byteOffset":3526872,
			"target":34963
		},
		{
			"buffer":0,
			"byteLength":24936,
			"byteOffset":3553752,
			"target":34962
		},
		{
			"buffer":0,
			"byteLength":24936,
			"byteOffset":3578688,
			"target":34962
		},
		{
			"buffer":0,
			"byteLength":16624,
			"byteOffset":3603624,
			"target":34962
		},
		{
			"buffer":0,
			"byteLength":9984,
			"byteOffset":3620248,
			"target":34963
		},
		{
			"buffer":0,
			"byteLength":72168,
			"byteOffset":3630232,
			"target":34962
		},
		{
			"buffer":0,
			"byteLength":72168,
			"byteOffset":3702400,
			"target":34962
		},
		{
			"buffer":0,
			"byteLength":48112,
			"byteOffset":3774568,
			"target":34962
		},
		{
			"buffer":0,
			"byteLength":20832,
			"byteOffset":3822680,
			"target":34963
		},
		{
			"buffer":0,
			"byteLength":28416,
			"byteOffset":3843512,
			"target":34962
		},
		{
			"buffer":0,
			"byteLength":28416,
			"byteOffset":3871928,
			"target":34962
		},
		{
			"buffer":0,
			"byteLength":18944,
			"byteOffset":3900344,
			"target":34962
		},
		{
			"buffer":0,
			"byteLength":23040,
			"byteOffset":3919288,
			"target":34963
		},
		{
			"buffer":0,
			"byteLength":34752,
			"byteOffset":3942328,
			"target":34962
		},
		{
			"buffer":0,
			"byteLength":34752,
			"byteOffset":3977080,
			"target":34962
		},
		{
			"buffer":0,
			"byteLength":23168,
			"byteOffset":4011832,
			"target":34962
		},
		{
			"buffer":0,
			"byteLength":34560,
			"byteOffset":4035000,
			"target":34963
		}
	],
	"samplers":[
		{
			"magFilter":9729,
			"minFilter":9987
		}
	],
	"buffers":[
		{
			"byteLength":4069560,
			"uri":"Chandelier_Lit.bin"
		}
	]
}
