{
	"asset":{
		"generator":"Khronos glTF Blender I/O v5.2.40",
		"version":"2.0"
	},
	"extensionsUsed":[
		"KHR_materials_emissive_strength",
		"KHR_lights_punctual"
	],
	"extensionsRequired":[
		"KHR_lights_punctual"
	],
	"extensions":{
		"KHR_lights_punctual":{
			"lights":[
				{
					"color":[
						1,
						0.5799999833106995,
						0.25
					],
					"intensity":0.238732414637843,
					"type":"point",
					"name":"Lantern_Hanging_Lit_Light"
				}
			]
		}
	},
	"scene":0,
	"scenes":[
		{
			"name":"Scene",
			"nodes":[
				4
			]
		}
	],
	"nodes":[
		{
			"mesh":0,
			"name":"Lantern_Hanging_Lit_Body"
		},
		{
			"mesh":1,
			"name":"Lantern_Hanging_Lit_Flame"
		},
		{
			"mesh":2,
			"name":"Lantern_Hanging_Lit_Glass"
		},
		{
			"extensions":{
				"KHR_lights_punctual":{
					"light":0
				}
			},
			"name":"Lantern_Hanging_Lit_Light",
			"rotation":[
				-0.7071068286895752,
				0,
				0,
				0.7071068286895752
			],
			"translation":[
				0,
				-0.3199999928474426,
				0
			]
		},
		{
			"children":[
				0,
				1,
				2,
				3
			],
			"name":"Lantern_Hanging_Lit"
		}
	],
	"materials":[
		{
			"name":"Iron_Wrought",
			"normalTexture":{
				"index":0,
				"scale":1.399999976158142
			},
			"pbrMetallicRoughness":{
				"baseColorTexture":{
					"index":1
				},
				"metallicRoughnessTexture":{
					"index":2
				}
			}
		},
		{
			"name":"Wax_Ivory",
			"normalTexture":{
				"index":3
			},
			"pbrMetallicRoughness":{
				"baseColorTexture":{
					"index":4
				},
				"metallicFactor":0,
				"metallicRoughnessTexture":{
					"index":5
				}
			}
		},
		{
			"name":"Wick",
			"pbrMetallicRoughness":{
				"baseColorFactor":[
					0.0004463409713935107,
					0.0002988601627293974,
					0.0001829220273066312,
					1
				],
				"metallicFactor":0,
				"roughnessFactor":0.8999999761581421
			}
		},
		{
			"emissiveFactor":[
				1,
				0.09930010139942169,
				0.0038618729449808598
			],
			"extensions":{
				"KHR_materials_emissive_strength":{
					"emissiveStrength":6
				}
			},
			"name":"Ember",
			"pbrMetallicRoughness":{
				"baseColorFactor":[
					0.02899118699133396,
					0.0013732006773352623,
					0.0001829220273066312,
					1
				],
				"metallicFactor":0,
				"roughnessFactor":0.8999999761581421
			}
		},
		{
			"emissiveFactor":[
				1,
				0.6120656132698059,
				0.21763764321804047
			],
			"extensions":{
				"KHR_materials_emissive_strength":{
					"emissiveStrength":25
				}
			},
			"name":"Flame_Core",
			"pbrMetallicRoughness":{
				"baseColorFactor":[
					1,
					0.5789061188697815,
					0.17261062562465668,
					1
				],
				"metallicFactor":0
			}
		},
		{
			"alphaMode":"BLEND",
			"doubleSided":true,
			"emissiveFactor":[
				1,
				1,
				1
			],
			"emissiveTexture":{
				"index":6
			},
			"extensions":{
				"KHR_materials_emissive_strength":{
					"emissiveStrength":6
				}
			},
			"name":"Flame_Glow",
			"pbrMetallicRoughness":{
				"baseColorTexture":{
					"index":7
				},
				"metallicFactor":0
			}
		},
		{
			"alphaMode":"BLEND",
			"doubleSided":true,
			"name":"Glass_Clear",
			"pbrMetallicRoughness":{
				"baseColorFactor":[
					0.5789061188697815,
					0.6462349891662598,
					0.681419312953949,
					0.14000000059604645
				],
				"metallicFactor":0,
				"roughnessFactor":0.03999999910593033
			}
		}
	],
	"meshes":[
		{
			"name":"Lantern_Hanging_Lit_Body",
			"primitives":[
				{
					"attributes":{
						"POSITION":0,
						"NORMAL":1,
						"TEXCOORD_0":2
					},
					"indices":3,
					"material":0
				},
				{
					"attributes":{
						"POSITION":4,
						"NORMAL":5,
						"TEXCOORD_0":6
					},
					"indices":7,
					"material":1
				},
				{
					"attributes":{
						"POSITION":8,
						"NORMAL":9,
						"TEXCOORD_0":10
					},
					"indices":11,
					"material":2
				},
				{
					"attributes":{
						"POSITION":12,
						"NORMAL":13,
						"TEXCOORD_0":14
					},
					"indices":15,
					"material":3
				}
			]
		},
		{
			"name":"Lantern_Hanging_Lit_Flame",
			"primitives":[
				{
					"attributes":{
						"POSITION":16,
						"NORMAL":17,
						"TEXCOORD_0":18
					},
					"indices":19,
					"material":4
				},
				{
					"attributes":{
						"POSITION":20,
						"NORMAL":21,
						"TEXCOORD_0":22
					},
					"indices":23,
					"material":5
				}
			]
		},
		{
			"name":"Lantern_Hanging_Lit_Glass",
			"primitives":[
				{
					"attributes":{
						"POSITION":24,
						"NORMAL":25,
						"TEXCOORD_0":26
					},
					"indices":27,
					"material":6
				}
			]
		}
	],
	"textures":[
		{
			"sampler":0,
			"source":0
		},
		{
			"sampler":0,
			"source":1
		},
		{
			"sampler":0,
			"source":2
		},
		{
			"sampler":0,
			"source":3
		},
		{
			"sampler":0,
			"source":4
		},
		{
			"sampler":0,
			"source":5
		},
		{
			"sampler":0,
			"source":6
		},
		{
			"sampler":0,
			"source":6
		}
	],
	"images":[
		{
			"mimeType":"image/jpeg",
			"name":"iron_normal",
			"uri":"../textures/iron_normal.jpg"
		},
		{
			"mimeType":"image/jpeg",
			"name":"iron_albedo",
			"uri":"../textures/iron_albedo.jpg"
		},
		{
			"mimeType":"image/png",
			"name":"iron_rough",
			"uri":"../textures/iron_rough.png"
		},
		{
			"mimeType":"image/jpeg",
			"name":"wax_normal",
			"uri":"../textures/wax_normal.jpg"
		},
		{
			"mimeType":"image/jpeg",
			"name":"wax_albedo",
			"uri":"../textures/wax_albedo.jpg"
		},
		{
			"mimeType":"image/png",
			"name":"wax_rough",
			"uri":"../textures/wax_rough.png"
		},
		{
			"mimeType":"image/png",
			"name":"flame_gradient",
			"uri":"../textures/flame_gradient.png"
		}
	],
	"accessors":[
		{
			"bufferView":0,
			"componentType":5126,
			"count":3921,
			"max":[
				0.16257382929325104,
				0.0015000011771917343,
				0.14482209086418152
			],
			"min":[
				-0.16257382929325104,
				-0.6049999594688416,
				-0.14482209086418152
			],
			"type":"VEC3"
		},
		{
			"bufferView":1,
			"componentType":5126,
			"count":3921,
			"type":"VEC3"
		},
		{
			"bufferView":2,
			"componentType":5126,
			"count":3921,
			"type":"VEC2"
		},
		{
			"bufferView":3,
			"componentType":5123,
			"count":13080,
			"type":"SCALAR"
		},
		{
			"bufferView":4,
			"componentType":5126,
			"count":3763,
			"max":[
				0.020338641479611397,
				-0.3412906527519226,
				0.024233173578977585
			],
			"min":[
				-0.0217809546738863,
				-0.45500001311302185,
				-0.024675289168953896
			],
			"type":"VEC3"
		},
		{
			"bufferView":5,
			"componentType":5126,
			"count":3763,
			"type":"VEC3"
		},
		{
			"bufferView":6,
			"componentType":5126,
			"count":3763,
			"type":"VEC2"
		},
		{
			"bufferView":7,
			"componentType":5123,
			"count":13692,
			"type":"SCALAR"
		},
		{
			"bufferView":8,
			"componentType":5126,
			"count":508,
			"max":[
				0.0042428020387887955,
				-0.3316281735897064,
				0.0010437620803713799
			],
			"min":[
				-0.0010580080561339855,
				-0.35501033067703247,
				-0.0010437589371576905
			],
			"type":"VEC3"
		},
		{
			"bufferView":9,
			"componentType":5126,
			"count":508,
			"type":"VEC3"
		},
		{
			"bufferView":10,
			"componentType":5126,
			"count":508,
			"type":"VEC2"
		},
		{
			"bufferView":11,
			"componentType":5123,
			"count":1680,
			"type":"SCALAR"
		},
		{
			"bufferView":12,
			"componentType":5126,
			"count":258,
			"max":[
				0.005051406100392342,
				-0.3303999900817871,
				0.0015514061087742448
			],
			"min":[
				0.0019485941156744957,
				-0.3335999846458435,
				-0.0015514061087742448
			],
			"type":"VEC3"
		},
		{
			"bufferView":13,
			"componentType":5126,
			"count":258,
			"type":"VEC3"
		},
		{
			"bufferView":14,
			"componentType":5126,
			"count":258,
			"type":"VEC2"
		},
		{
			"bufferView":15,
			"componentType":5123,
			"count":624,
			"type":"SCALAR"
		},
		{
			"bufferView":16,
			"componentType":5126,
			"count":272,
			"max":[
				0.0034209061414003372,
				-0.31520000100135803,
				0.0034209061414003372
			],
			"min":[
				-0.0034209061414003372,
				-0.3400000035762787,
				-0.0034209061414003372
			],
			"type":"VEC3"
		},
		{
			"bufferView":17,
			"componentType":5126,
			"count":272,
			"type":"VEC3"
		},
		{
			"bufferView":18,
			"componentType":5126,
			"count":272,
			"type":"VEC2"
		},
		{
			"bufferView":19,
			"componentType":5123,
			"count":1440,
			"type":"SCALAR"
		},
		{
			"bufferView":20,
			"componentType":5126,
			"count":362,
			"max":[
				0.007774787023663521,
				-0.2980000078678131,
				0.007774787023663521
			],
			"min":[
				-0.007774787023663521,
				-0.3440000116825104,
				-0.007774787023663521
			],
			"type":"VEC3"
		},
		{
			"bufferView":21,
			"componentType":5126,
			"count":362,
			"type":"VEC3"
		},
		{
			"bufferView":22,
			"componentType":5126,
			"count":362,
			"type":"VEC2"
		},
		{
			"bufferView":23,
			"componentType":5123,
			"count":2160,
			"type":"SCALAR"
		},
		{
			"bufferView":24,
			"componentType":5126,
			"count":24,
			"max":[
				0.10999999940395355,
				-0.2150000035762787,
				0.0952627956867218
			],
			"min":[
				-0.10999999940395355,
				-0.4699999988079071,
				-0.0952627956867218
			],
			"type":"VEC3"
		},
		{
			"bufferView":25,
			"componentType":5126,
			"count":24,
			"type":"VEC3"
		},
		{
			"bufferView":26,
			"componentType":5126,
			"count":24,
			"type":"VEC2"
		},
		{
			"bufferView":27,
			"componentType":5123,
			"count":36,
			"type":"SCALAR"
		}
	],
	"bufferViews":[
		{
			"buffer":0,
			"byteLength":47052,
			"byteOffset":0,
			"target":34962
		},
		{
			"buffer":0,
			"byteLength":47052,
			"byteOffset":47052,
			"target":34962
		},
		{
			"buffer":0,
			"byteLength":31368,
			"byteOffset":94104,
			"target":34962
		},
		{
			"buffer":0,
			"byteLength":26160,
			"byteOffset":125472,
			"target":34963
		},
		{
			"buffer":0,
			"byteLength":45156,
			"byteOffset":151632,
			"target":34962
		},
		{
			"buffer":0,
			"byteLength":45156,
			"byteOffset":196788,
			"target":34962
		},
		{
			"buffer":0,
			"byteLength":30104,
			"byteOffset":241944,
			"target":34962
		},
		{
			"buffer":0,
			"byteLength":27384,
			"byteOffset":272048,
			"target":34963
		},
		{
			"buffer":0,
			"byteLength":6096,
			"byteOffset":299432,
			"target":34962
		},
		{
			"buffer":0,
			"byteLength":6096,
			"byteOffset":305528,
			"target":34962
		},
		{
			"buffer":0,
			"byteLength":4064,
			"byteOffset":311624,
			"target":34962
		},
		{
			"buffer":0,
			"byteLength":3360,
			"byteOffset":315688,
			"target":34963
		},
		{
			"buffer":0,
			"byteLength":3096,
			"byteOffset":319048,
			"target":34962
		},
		{
			"buffer":0,
			"byteLength":3096,
			"byteOffset":322144,
			"target":34962
		},
		{
			"buffer":0,
			"byteLength":2064,
			"byteOffset":325240,
			"target":34962
		},
		{
			"buffer":0,
			"byteLength":1248,
			"byteOffset":327304,
			"target":34963
		},
		{
			"buffer":0,
			"byteLength":3264,
			"byteOffset":328552,
			"target":34962
		},
		{
			"buffer":0,
			"byteLength":3264,
			"byteOffset":331816,
			"target":34962
		},
		{
			"buffer":0,
			"byteLength":2176,
			"byteOffset":335080,
			"target":34962
		},
		{
			"buffer":0,
			"byteLength":2880,
			"byteOffset":337256,
			"target":34963
		},
		{
			"buffer":0,
			"byteLength":4344,
			"byteOffset":340136,
			"target":34962
		},
		{
			"buffer":0,
			"byteLength":4344,
			"byteOffset":344480,
			"target":34962
		},
		{
			"buffer":0,
			"byteLength":2896,
			"byteOffset":348824,
			"target":34962
		},
		{
			"buffer":0,
			"byteLength":4320,
			"byteOffset":351720,
			"target":34963
		},
		{
			"buffer":0,
			"byteLength":288,
			"byteOffset":356040,
			"target":34962
		},
		{
			"buffer":0,
			"byteLength":288,
			"byteOffset":356328,
			"target":34962
		},
		{
			"buffer":0,
			"byteLength":192,
			"byteOffset":356616,
			"target":34962
		},
		{
			"buffer":0,
			"byteLength":72,
			"byteOffset":356808,
			"target":34963
		}
	],
	"samplers":[
		{
			"magFilter":9729,
			"minFilter":9987
		}
	],
	"buffers":[
		{
			"byteLength":356880,
			"uri":"Lantern_Hanging_Lit.bin"
		}
	]
}
