{
	"asset":{
		"generator":"Khronos glTF Blender I/O v5.2.40",
		"version":"2.0"
	},
	"extensionsUsed":[
		"KHR_materials_emissive_strength",
		"KHR_lights_punctual"
	],
	"extensionsRequired":[
		"KHR_lights_punctual"
	],
	"extensions":{
		"KHR_lights_punctual":{
			"lights":[
				{
					"color":[
						1,
						0.5799999833106995,
						0.25
					],
					"intensity":0.3183098861837907,
					"type":"point",
					"name":"OilLamp_Lit_Light"
				}
			]
		}
	},
	"scene":0,
	"scenes":[
		{
			"name":"Scene",
			"nodes":[
				4
			]
		}
	],
	"nodes":[
		{
			"mesh":0,
			"name":"OilLamp_Lit_Body"
		},
		{
			"mesh":1,
			"name":"OilLamp_Lit_Flame"
		},
		{
			"mesh":2,
			"name":"OilLamp_Lit_Glass"
		},
		{
			"extensions":{
				"KHR_lights_punctual":{
					"light":0
				}
			},
			"name":"OilLamp_Lit_Light",
			"rotation":[
				-0.7071068286895752,
				0,
				0,
				0.7071068286895752
			],
			"translation":[
				0,
				0.25999999046325684,
				0
			]
		},
		{
			"children":[
				0,
				1,
				2,
				3
			],
			"name":"OilLamp_Lit"
		}
	],
	"materials":[
		{
			"name":"Brass_Aged",
			"normalTexture":{
				"index":0
			},
			"pbrMetallicRoughness":{
				"baseColorTexture":{
					"index":1
				},
				"metallicRoughnessTexture":{
					"index":2
				}
			}
		},
		{
			"name":"Wick",
			"pbrMetallicRoughness":{
				"baseColorFactor":[
					0.0004463409713935107,
					0.0002988601627293974,
					0.0001829220273066312,
					1
				],
				"metallicFactor":0,
				"roughnessFactor":0.8999999761581421
			}
		},
		{
			"emissiveFactor":[
				1,
				0.6120656132698059,
				0.21763764321804047
			],
			"extensions":{
				"KHR_materials_emissive_strength":{
					"emissiveStrength":25
				}
			},
			"name":"Flame_Core",
			"pbrMetallicRoughness":{
				"baseColorFactor":[
					1,
					0.5789061188697815,
					0.17261062562465668,
					1
				],
				"metallicFactor":0
			}
		},
		{
			"alphaMode":"BLEND",
			"doubleSided":true,
			"emissiveFactor":[
				1,
				1,
				1
			],
			"emissiveTexture":{
				"index":3
			},
			"extensions":{
				"KHR_materials_emissive_strength":{
					"emissiveStrength":6
				}
			},
			"name":"Flame_Glow",
			"pbrMetallicRoughness":{
				"baseColorTexture":{
					"index":4
				},
				"metallicFactor":0
			}
		},
		{
			"alphaMode":"BLEND",
			"doubleSided":true,
			"name":"Glass_Clear",
			"pbrMetallicRoughness":{
				"baseColorFactor":[
					0.5789061188697815,
					0.6462349891662598,
					0.681419312953949,
					0.14000000059604645
				],
				"metallicFactor":0,
				"roughnessFactor":0.03999999910593033
			}
		}
	],
	"meshes":[
		{
			"name":"OilLamp_Lit_Body",
			"primitives":[
				{
					"attributes":{
						"POSITION":0,
						"NORMAL":1,
						"TEXCOORD_0":2
					},
					"indices":3,
					"material":0
				},
				{
					"attributes":{
						"POSITION":4,
						"NORMAL":5,
						"TEXCOORD_0":6
					},
					"indices":7,
					"material":1
				}
			]
		},
		{
			"name":"OilLamp_Lit_Flame",
			"primitives":[
				{
					"attributes":{
						"POSITION":8,
						"NORMAL":9,
						"TEXCOORD_0":10
					},
					"indices":11,
					"material":2
				},
				{
					"attributes":{
						"POSITION":12,
						"NORMAL":13,
						"TEXCOORD_0":14
					},
					"indices":15,
					"material":3
				}
			]
		},
		{
			"name":"OilLamp_Lit_Glass",
			"primitives":[
				{
					"attributes":{
						"POSITION":16,
						"NORMAL":17,
						"TEXCOORD_0":18
					},
					"indices":19,
					"material":4
				}
			]
		}
	],
	"textures":[
		{
			"sampler":0,
			"source":0
		},
		{
			"sampler":0,
			"source":1
		},
		{
			"sampler":0,
			"source":2
		},
		{
			"sampler":0,
			"source":3
		},
		{
			"sampler":0,
			"source":3
		}
	],
	"images":[
		{
			"mimeType":"image/jpeg",
			"name":"brass_normal",
			"uri":"../textures/brass_normal.jpg"
		},
		{
			"mimeType":"image/jpeg",
			"name":"brass_albedo",
			"uri":"../textures/brass_albedo.jpg"
		},
		{
			"mimeType":"image/png",
			"name":"brass_rough",
			"uri":"../textures/brass_rough.png"
		},
		{
			"mimeType":"image/png",
			"name":"flame_gradient",
			"uri":"../textures/flame_gradient.png"
		}
	],
	"accessors":[
		{
			"bufferView":0,
			"componentType":5126,
			"count":2974,
			"max":[
				0.07800000160932541,
				0.21590028703212738,
				0.07800000160932541
			],
			"min":[
				-0.07800000160932541,
				0,
				-0.07800000160932541
			],
			"type":"VEC3"
		},
		{
			"bufferView":1,
			"componentType":5126,
			"count":2974,
			"type":"VEC3"
		},
		{
			"bufferView":2,
			"componentType":5126,
			"count":2974,
			"type":"VEC2"
		},
		{
			"bufferView":3,
			"componentType":5123,
			"count":10200,
			"type":"SCALAR"
		},
		{
			"bufferView":4,
			"componentType":5126,
			"count":130,
			"max":[
				0.00570633914321661,
				0.22599999606609344,
				0.006000000052154064
			],
			"min":[
				-0.00570633914321661,
				0.20000000298023224,
				-0.006000000052154064
			],
			"type":"VEC3"
		},
		{
			"bufferView":5,
			"componentType":5126,
			"count":130,
			"type":"VEC3"
		},
		{
			"bufferView":6,
			"componentType":5126,
			"count":130,
			"type":"VEC2"
		},
		{
			"bufferView":7,
			"componentType":5123,
			"count":348,
			"type":"SCALAR"
		},
		{
			"bufferView":8,
			"componentType":5126,
			"count":272,
			"max":[
				0.004353880416601896,
				0.2639999985694885,
				0.004353880416601896
			],
			"min":[
				-0.004353880416601896,
				0.2280000001192093,
				-0.004353880416601896
			],
			"type":"VEC3"
		},
		{
			"bufferView":9,
			"componentType":5126,
			"count":272,
			"type":"VEC3"
		},
		{
			"bufferView":10,
			"componentType":5126,
			"count":272,
			"type":"VEC2"
		},
		{
			"bufferView":11,
			"componentType":5123,
			"count":1440,
			"type":"SCALAR"
		},
		{
			"bufferView":12,
			"componentType":5126,
			"count":362,
			"max":[
				0.00932974461466074,
				0.2840000092983246,
				0.00932974461466074
			],
			"min":[
				-0.00932974461466074,
				0.2240000069141388,
				-0.00932974461466074
			],
			"type":"VEC3"
		},
		{
			"bufferView":13,
			"componentType":5126,
			"count":362,
			"type":"VEC3"
		},
		{
			"bufferView":14,
			"componentType":5126,
			"count":362,
			"type":"VEC2"
		},
		{
			"bufferView":15,
			"componentType":5123,
			"count":2160,
			"type":"SCALAR"
		},
		{
			"bufferView":16,
			"componentType":5126,
			"count":336,
			"max":[
				0.04699999839067459,
				0.44999998807907104,
				0.04699999839067459
			],
			"min":[
				-0.04699999839067459,
				0.2160000056028366,
				-0.04699999839067459
			],
			"type":"VEC3"
		},
		{
			"bufferView":17,
			"componentType":5126,
			"count":336,
			"type":"VEC3"
		},
		{
			"bufferView":18,
			"componentType":5126,
			"count":336,
			"type":"VEC2"
		},
		{
			"bufferView":19,
			"componentType":5123,
			"count":1680,
			"type":"SCALAR"
		}
	],
	"bufferViews":[
		{
			"buffer":0,
			"byteLength":35688,
			"byteOffset":0,
			"target":34962
		},
		{
			"buffer":0,
			"byteLength":35688,
			"byteOffset":35688,
			"target":34962
		},
		{
			"buffer":0,
			"byteLength":23792,
			"byteOffset":71376,
			"target":34962
		},
		{
			"buffer":0,
			"byteLength":20400,
			"byteOffset":95168,
			"target":34963
		},
		{
			"buffer":0,
			"byteLength":1560,
			"byteOffset":115568,
			"target":34962
		},
		{
			"buffer":0,
			"byteLength":1560,
			"byteOffset":117128,
			"target":34962
		},
		{
			"buffer":0,
			"byteLength":1040,
			"byteOffset":118688,
			"target":34962
		},
		{
			"buffer":0,
			"byteLength":696,
			"byteOffset":119728,
			"target":34963
		},
		{
			"buffer":0,
			"byteLength":3264,
			"byteOffset":120424,
			"target":34962
		},
		{
			"buffer":0,
			"byteLength":3264,
			"byteOffset":123688,
			"target":34962
		},
		{
			"buffer":0,
			"byteLength":2176,
			"byteOffset":126952,
			"target":34962
		},
		{
			"buffer":0,
			"byteLength":2880,
			"byteOffset":129128,
			"target":34963
		},
		{
			"buffer":0,
			"byteLength":4344,
			"byteOffset":132008,
			"target":34962
		},
		{
			"buffer":0,
			"byteLength":4344,
			"byteOffset":136352,
			"target":34962
		},
		{
			"buffer":0,
			"byteLength":2896,
			"byteOffset":140696,
			"target":34962
		},
		{
			"buffer":0,
			"byteLength":4320,
			"byteOffset":143592,
			"target":34963
		},
		{
			"buffer":0,
			"byteLength":4032,
			"byteOffset":147912,
			"target":34962
		},
		{
			"buffer":0,
			"byteLength":4032,
			"byteOffset":151944,
			"target":34962
		},
		{
			"buffer":0,
			"byteLength":2688,
			"byteOffset":155976,
			"target":34962
		},
		{
			"buffer":0,
			"byteLength":3360,
			"byteOffset":158664,
			"target":34963
		}
	],
	"samplers":[
		{
			"magFilter":9729,
			"minFilter":9987
		}
	],
	"buffers":[
		{
			"byteLength":162024,
			"uri":"OilLamp_Lit.bin"
		}
	]
}
