{
	"asset":{
		"generator":"Khronos glTF Blender I/O v5.2.40",
		"version":"2.0"
	},
	"extensionsUsed":[
		"KHR_materials_emissive_strength",
		"KHR_lights_punctual"
	],
	"extensionsRequired":[
		"KHR_lights_punctual"
	],
	"extensions":{
		"KHR_lights_punctual":{
			"lights":[
				{
					"color":[
						1,
						0.5799999833106995,
						0.25
					],
					"intensity":0.477464829275686,
					"type":"point",
					"name":"WallSconce_Double_Lit_Light"
				}
			]
		}
	},
	"scene":0,
	"scenes":[
		{
			"name":"Scene",
			"nodes":[
				3
			]
		}
	],
	"nodes":[
		{
			"mesh":0,
			"name":"WallSconce_Double_Lit_Body"
		},
		{
			"mesh":1,
			"name":"WallSconce_Double_Lit_Flame"
		},
		{
			"extensions":{
				"KHR_lights_punctual":{
					"light":0
				}
			},
			"name":"WallSconce_Double_Lit_Light",
			"rotation":[
				-0.7071068286895752,
				0,
				0,
				0.7071068286895752
			],
			"translation":[
				0,
				0.24009999632835388,
				0.20000000298023224
			]
		},
		{
			"children":[
				0,
				1,
				2
			],
			"name":"WallSconce_Double_Lit"
		}
	],
	"materials":[
		{
			"name":"Brass_Aged",
			"normalTexture":{
				"index":0
			},
			"pbrMetallicRoughness":{
				"baseColorTexture":{
					"index":1
				},
				"metallicRoughnessTexture":{
					"index":2
				}
			}
		},
		{
			"name":"Wax_Ivory",
			"normalTexture":{
				"index":3
			},
			"pbrMetallicRoughness":{
				"baseColorTexture":{
					"index":4
				},
				"metallicFactor":0,
				"metallicRoughnessTexture":{
					"index":5
				}
			}
		},
		{
			"name":"Wick",
			"pbrMetallicRoughness":{
				"baseColorFactor":[
					0.0004463409713935107,
					0.0002988601627293974,
					0.0001829220273066312,
					1
				],
				"metallicFactor":0,
				"roughnessFactor":0.8999999761581421
			}
		},
		{
			"emissiveFactor":[
				1,
				0.09930010139942169,
				0.0038618729449808598
			],
			"extensions":{
				"KHR_materials_emissive_strength":{
					"emissiveStrength":6
				}
			},
			"name":"Ember",
			"pbrMetallicRoughness":{
				"baseColorFactor":[
					0.02899118699133396,
					0.0013732006773352623,
					0.0001829220273066312,
					1
				],
				"metallicFactor":0,
				"roughnessFactor":0.8999999761581421
			}
		},
		{
			"emissiveFactor":[
				1,
				0.6120656132698059,
				0.21763764321804047
			],
			"extensions":{
				"KHR_materials_emissive_strength":{
					"emissiveStrength":25
				}
			},
			"name":"Flame_Core",
			"pbrMetallicRoughness":{
				"baseColorFactor":[
					1,
					0.5789061188697815,
					0.17261062562465668,
					1
				],
				"metallicFactor":0
			}
		},
		{
			"alphaMode":"BLEND",
			"doubleSided":true,
			"emissiveFactor":[
				1,
				1,
				1
			],
			"emissiveTexture":{
				"index":6
			},
			"extensions":{
				"KHR_materials_emissive_strength":{
					"emissiveStrength":6
				}
			},
			"name":"Flame_Glow",
			"pbrMetallicRoughness":{
				"baseColorTexture":{
					"index":7
				},
				"metallicFactor":0
			}
		}
	],
	"meshes":[
		{
			"name":"WallSconce_Double_Lit_Body",
			"primitives":[
				{
					"attributes":{
						"POSITION":0,
						"NORMAL":1,
						"TEXCOORD_0":2
					},
					"indices":3,
					"material":0
				},
				{
					"attributes":{
						"POSITION":4,
						"NORMAL":5,
						"TEXCOORD_0":6
					},
					"indices":7,
					"material":1
				},
				{
					"attributes":{
						"POSITION":8,
						"NORMAL":9,
						"TEXCOORD_0":10
					},
					"indices":11,
					"material":2
				},
				{
					"attributes":{
						"POSITION":12,
						"NORMAL":13,
						"TEXCOORD_0":14
					},
					"indices":15,
					"material":3
				}
			]
		},
		{
			"name":"WallSconce_Double_Lit_Flame",
			"primitives":[
				{
					"attributes":{
						"POSITION":16,
						"NORMAL":17,
						"TEXCOORD_0":18
					},
					"indices":19,
					"material":4
				},
				{
					"attributes":{
						"POSITION":20,
						"NORMAL":21,
						"TEXCOORD_0":22
					},
					"indices":23,
					"material":5
				}
			]
		}
	],
	"textures":[
		{
			"sampler":0,
			"source":0
		},
		{
			"sampler":0,
			"source":1
		},
		{
			"sampler":0,
			"source":2
		},
		{
			"sampler":0,
			"source":3
		},
		{
			"sampler":0,
			"source":4
		},
		{
			"sampler":0,
			"source":5
		},
		{
			"sampler":0,
			"source":6
		},
		{
			"sampler":0,
			"source":6
		}
	],
	"images":[
		{
			"mimeType":"image/jpeg",
			"name":"brass_normal",
			"uri":"../textures/brass_normal.jpg"
		},
		{
			"mimeType":"image/jpeg",
			"name":"brass_albedo",
			"uri":"../textures/brass_albedo.jpg"
		},
		{
			"mimeType":"image/png",
			"name":"brass_rough",
			"uri":"../textures/brass_rough.png"
		},
		{
			"mimeType":"image/jpeg",
			"name":"wax_normal",
			"uri":"../textures/wax_normal.jpg"
		},
		{
			"mimeType":"image/jpeg",
			"name":"wax_albedo",
			"uri":"../textures/wax_albedo.jpg"
		},
		{
			"mimeType":"image/png",
			"name":"wax_rough",
			"uri":"../textures/wax_rough.png"
		},
		{
			"mimeType":"image/png",
			"name":"flame_gradient",
			"uri":"../textures/flame_gradient.png"
		}
	],
	"accessors":[
		{
			"bufferView":0,
			"componentType":5126,
			"count":12530,
			"max":[
				0.18607325851917267,
				0.16499999165534973,
				0.24607326090335846
			],
			"min":[
				-0.18607325851917267,
				-0.1899999976158142,
				-0.007845667190849781
			],
			"type":"VEC3"
		},
		{
			"bufferView":1,
			"componentType":5126,
			"count":12530,
			"type":"VEC3"
		},
		{
			"bufferView":2,
			"componentType":5126,
			"count":12530,
			"type":"VEC2"
		},
		{
			"bufferView":3,
			"componentType":5123,
			"count":40776,
			"type":"SCALAR"
		},
		{
			"bufferView":4,
			"componentType":5126,
			"count":7460,
			"max":[
				0.1602606624364853,
				0.2182244211435318,
				0.2249428778886795
			],
			"min":[
				-0.16035015881061554,
				0.06509999930858612,
				0.17361842095851898
			],
			"type":"VEC3"
		},
		{
			"bufferView":5,
			"componentType":5126,
			"count":7460,
			"type":"VEC3"
		},
		{
			"bufferView":6,
			"componentType":5126,
			"count":7460,
			"type":"VEC2"
		},
		{
			"bufferView":7,
			"componentType":5123,
			"count":27024,
			"type":"SCALAR"
		},
		{
			"bufferView":8,
			"componentType":5126,
			"count":1041,
			"max":[
				0.14411106705665588,
				0.22834348678588867,
				0.20096242427825928
			],
			"min":[
				-0.1410580277442932,
				0.20509402453899384,
				0.1990375816822052
			],
			"type":"VEC3"
		},
		{
			"bufferView":9,
			"componentType":5126,
			"count":1041,
			"type":"VEC3"
		},
		{
			"bufferView":10,
			"componentType":5126,
			"count":1041,
			"type":"VEC2"
		},
		{
			"bufferView":11,
			"componentType":5123,
			"count":3360,
			"type":"SCALAR"
		},
		{
			"bufferView":12,
			"componentType":5126,
			"count":528,
			"max":[
				0.14498113095760345,
				0.2296999990940094,
				0.20148113369941711
			],
			"min":[
				-0.1379811316728592,
				0.226500004529953,
				0.19851887226104736
			],
			"type":"VEC3"
		},
		{
			"bufferView":13,
			"componentType":5126,
			"count":528,
			"type":"VEC3"
		},
		{
			"bufferView":14,
			"componentType":5126,
			"count":528,
			"type":"VEC2"
		},
		{
			"bufferView":15,
			"componentType":5123,
			"count":1248,
			"type":"SCALAR"
		},
		{
			"bufferView":16,
			"componentType":5126,
			"count":608,
			"max":[
				0.14342090487480164,
				0.24490000307559967,
				0.20342090725898743
			],
			"min":[
				-0.14342090487480164,
				0.22010000050067902,
				0.19657909870147705
			],
			"type":"VEC3"
		},
		{
			"bufferView":17,
			"componentType":5126,
			"count":608,
			"type":"VEC3"
		},
		{
			"bufferView":18,
			"componentType":5126,
			"count":608,
			"type":"VEC2"
		},
		{
			"bufferView":19,
			"componentType":5123,
			"count":2880,
			"type":"SCALAR"
		},
		{
			"bufferView":20,
			"componentType":5126,
			"count":724,
			"max":[
				0.14777478575706482,
				0.2620999813079834,
				0.2077747881412506
			],
			"min":[
				-0.14777478575706482,
				0.21609999239444733,
				0.19222521781921387
			],
			"type":"VEC3"
		},
		{
			"bufferView":21,
			"componentType":5126,
			"count":724,
			"type":"VEC3"
		},
		{
			"bufferView":22,
			"componentType":5126,
			"count":724,
			"type":"VEC2"
		},
		{
			"bufferView":23,
			"componentType":5123,
			"count":4320,
			"type":"SCALAR"
		}
	],
	"bufferViews":[
		{
			"buffer":0,
			"byteLength":150360,
			"byteOffset":0,
			"target":34962
		},
		{
			"buffer":0,
			"byteLength":150360,
			"byteOffset":150360,
			"target":34962
		},
		{
			"buffer":0,
			"byteLength":100240,
			"byteOffset":300720,
			"target":34962
		},
		{
			"buffer":0,
			"byteLength":81552,
			"byteOffset":400960,
			"target":34963
		},
		{
			"buffer":0,
			"byteLength":89520,
			"byteOffset":482512,
			"target":34962
		},
		{
			"buffer":0,
			"byteLength":89520,
			"byteOffset":572032,
			"target":34962
		},
		{
			"buffer":0,
			"byteLength":59680,
			"byteOffset":661552,
			"target":34962
		},
		{
			"buffer":0,
			"byteLength":54048,
			"byteOffset":721232,
			"target":34963
		},
		{
			"buffer":0,
			"byteLength":12492,
			"byteOffset":775280,
			"target":34962
		},
		{
			"buffer":0,
			"byteLength":12492,
			"byteOffset":787772,
			"target":34962
		},
		{
			"buffer":0,
			"byteLength":8328,
			"byteOffset":800264,
			"target":34962
		},
		{
			"buffer":0,
			"byteLength":6720,
			"byteOffset":808592,
			"target":34963
		},
		{
			"buffer":0,
			"byteLength":6336,
			"byteOffset":815312,
			"target":34962
		},
		{
			"buffer":0,
			"byteLength":6336,
			"byteOffset":821648,
			"target":34962
		},
		{
			"buffer":0,
			"byteLength":4224,
			"byteOffset":827984,
			"target":34962
		},
		{
			"buffer":0,
			"byteLength":2496,
			"byteOffset":832208,
			"target":34963
		},
		{
			"buffer":0,
			"byteLength":7296,
			"byteOffset":834704,
			"target":34962
		},
		{
			"buffer":0,
			"byteLength":7296,
			"byteOffset":842000,
			"target":34962
		},
		{
			"buffer":0,
			"byteLength":4864,
			"byteOffset":849296,
			"target":34962
		},
		{
			"buffer":0,
			"byteLength":5760,
			"byteOffset":854160,
			"target":34963
		},
		{
			"buffer":0,
			"byteLength":8688,
			"byteOffset":859920,
			"target":34962
		},
		{
			"buffer":0,
			"byteLength":8688,
			"byteOffset":868608,
			"target":34962
		},
		{
			"buffer":0,
			"byteLength":5792,
			"byteOffset":877296,
			"target":34962
		},
		{
			"buffer":0,
			"byteLength":8640,
			"byteOffset":883088,
			"target":34963
		}
	],
	"samplers":[
		{
			"magFilter":9729,
			"minFilter":9987
		}
	],
	"buffers":[
		{
			"byteLength":891728,
			"uri":"WallSconce_Double_Lit.bin"
		}
	]
}
