{
	"asset":{
		"generator":"Khronos glTF Blender I/O v5.2.40",
		"version":"2.0"
	},
	"scene":0,
	"scenes":[
		{
			"name":"Scene",
			"nodes":[
				2
			]
		}
	],
	"nodes":[
		{
			"mesh":0,
			"name":"Carpet_Runner_Body"
		},
		{
			"mesh":1,
			"name":"Carpet_Runner_Fringe"
		},
		{
			"children":[
				0,
				1
			],
			"name":"Carpet_Runner"
		}
	],
	"materials":[
		{
			"name":"Carpet_Persian",
			"normalTexture":{
				"index":0,
				"scale":1.399999976158142
			},
			"pbrMetallicRoughness":{
				"baseColorTexture":{
					"index":1
				},
				"metallicFactor":0,
				"roughnessFactor":0.9200000166893005
			}
		},
		{
			"name":"Fringe_Cream",
			"pbrMetallicRoughness":{
				"baseColorFactor":[
					0.4562634527683258,
					0.3746243119239807,
					0.21763764321804047,
					1
				],
				"metallicFactor":0,
				"roughnessFactor":0.949999988079071
			}
		}
	],
	"meshes":[
		{
			"name":"Carpet_Runner_Body",
			"primitives":[
				{
					"attributes":{
						"POSITION":0,
						"NORMAL":1,
						"TEXCOORD_0":2
					},
					"indices":3,
					"material":0
				}
			]
		},
		{
			"name":"Carpet_Runner_Fringe",
			"primitives":[
				{
					"attributes":{
						"POSITION":4,
						"NORMAL":5,
						"TEXCOORD_0":6
					},
					"indices":7,
					"material":1
				}
			]
		}
	],
	"textures":[
		{
			"sampler":0,
			"source":0
		},
		{
			"sampler":0,
			"source":1
		}
	],
	"images":[
		{
			"mimeType":"image/jpeg",
			"name":"carpet_normal",
			"uri":"../textures/carpet_normal.jpg"
		},
		{
			"mimeType":"image/jpeg",
			"name":"carpet_albedo",
			"uri":"../textures/carpet_albedo.jpg"
		}
	],
	"accessors":[
		{
			"bufferView":0,
			"componentType":5126,
			"count":104,
			"max":[
				0.6000000238418579,
				0.011500000022351742,
				2.4000000953674316
			],
			"min":[
				-0.6000000238418579,
				0,
				-2.4000000953674316
			],
			"type":"VEC3"
		},
		{
			"bufferView":1,
			"componentType":5126,
			"count":104,
			"type":"VEC3"
		},
		{
			"bufferView":2,
			"componentType":5126,
			"count":104,
			"type":"VEC2"
		},
		{
			"bufferView":3,
			"componentType":5123,
			"count":330,
			"type":"SCALAR"
		},
		{
			"bufferView":4,
			"componentType":5126,
			"count":8000,
			"max":[
				0.5988090634346008,
				0.005711241625249386,
				2.4678919315338135
			],
			"min":[
				-0.59579998254776,
				-0.00021488917991518974,
				-2.468198299407959
			],
			"type":"VEC3"
		},
		{
			"bufferView":5,
			"componentType":5126,
			"count":8000,
			"type":"VEC3"
		},
		{
			"bufferView":6,
			"componentType":5126,
			"count":8000,
			"type":"VEC2"
		},
		{
			"bufferView":7,
			"componentType":5123,
			"count":15600,
			"type":"SCALAR"
		}
	],
	"bufferViews":[
		{
			"buffer":0,
			"byteLength":1248,
			"byteOffset":0,
			"target":34962
		},
		{
			"buffer":0,
			"byteLength":1248,
			"byteOffset":1248,
			"target":34962
		},
		{
			"buffer":0,
			"byteLength":832,
			"byteOffset":2496,
			"target":34962
		},
		{
			"buffer":0,
			"byteLength":660,
			"byteOffset":3328,
			"target":34963
		},
		{
			"buffer":0,
			"byteLength":96000,
			"byteOffset":3988,
			"target":34962
		},
		{
			"buffer":0,
			"byteLength":96000,
			"byteOffset":99988,
			"target":34962
		},
		{
			"buffer":0,
			"byteLength":64000,
			"byteOffset":195988,
			"target":34962
		},
		{
			"buffer":0,
			"byteLength":31200,
			"byteOffset":259988,
			"target":34963
		}
	],
	"samplers":[
		{
			"magFilter":9729,
			"minFilter":9987
		}
	],
	"buffers":[
		{
			"byteLength":291188,
			"uri":"Carpet_Runner.bin"
		}
	]
}
