{
	"asset":{
		"generator":"Khronos glTF Blender I/O v5.2.40",
		"version":"2.0"
	},
	"scene":0,
	"scenes":[
		{
			"name":"Scene",
			"nodes":[
				2
			]
		}
	],
	"nodes":[
		{
			"mesh":0,
			"name":"Debris_Scatter_Stone"
		},
		{
			"mesh":1,
			"name":"Debris_Scatter_Wood"
		},
		{
			"children":[
				0,
				1
			],
			"name":"Debris_Scatter"
		}
	],
	"materials":[
		{
			"name":"Plaster_Old",
			"normalTexture":{
				"index":0,
				"scale":0.699999988079071
			},
			"pbrMetallicRoughness":{
				"baseColorTexture":{
					"index":1
				},
				"metallicFactor":0,
				"metallicRoughnessTexture":{
					"index":2
				}
			}
		},
		{
			"name":"Stone_Rough",
			"normalTexture":{
				"index":3,
				"scale":2
			},
			"pbrMetallicRoughness":{
				"baseColorTexture":{
					"index":4
				},
				"metallicFactor":0,
				"metallicRoughnessTexture":{
					"index":5
				}
			}
		},
		{
			"name":"Wood_Worn",
			"normalTexture":{
				"index":6
			},
			"pbrMetallicRoughness":{
				"baseColorTexture":{
					"index":7
				},
				"metallicFactor":0,
				"metallicRoughnessTexture":{
					"index":8
				}
			}
		}
	],
	"meshes":[
		{
			"name":"Debris_Scatter_Stone",
			"primitives":[
				{
					"attributes":{
						"POSITION":0,
						"NORMAL":1,
						"TEXCOORD_0":2
					},
					"indices":3,
					"material":0
				},
				{
					"attributes":{
						"POSITION":4,
						"NORMAL":5,
						"TEXCOORD_0":6
					},
					"indices":7,
					"material":1
				}
			]
		},
		{
			"name":"Debris_Scatter_Wood",
			"primitives":[
				{
					"attributes":{
						"POSITION":8,
						"NORMAL":9,
						"TEXCOORD_0":10
					},
					"indices":11,
					"material":2
				}
			]
		}
	],
	"textures":[
		{
			"sampler":0,
			"source":0
		},
		{
			"sampler":0,
			"source":1
		},
		{
			"sampler":0,
			"source":2
		},
		{
			"sampler":0,
			"source":3
		},
		{
			"sampler":0,
			"source":4
		},
		{
			"sampler":0,
			"source":5
		},
		{
			"sampler":0,
			"source":6
		},
		{
			"sampler":0,
			"source":7
		},
		{
			"sampler":0,
			"source":8
		}
	],
	"images":[
		{
			"mimeType":"image/jpeg",
			"name":"plaster_old_normal",
			"uri":"../textures/plaster_old_normal.jpg"
		},
		{
			"mimeType":"image/jpeg",
			"name":"plaster_old_albedo",
			"uri":"../textures/plaster_old_albedo.jpg"
		},
		{
			"mimeType":"image/png",
			"name":"plaster_old_rough",
			"uri":"../textures/plaster_old_rough.png"
		},
		{
			"mimeType":"image/jpeg",
			"name":"stone_rough_normal",
			"uri":"../textures/stone_rough_normal.jpg"
		},
		{
			"mimeType":"image/jpeg",
			"name":"stone_rough_albedo",
			"uri":"../textures/stone_rough_albedo.jpg"
		},
		{
			"mimeType":"image/png",
			"name":"stone_rough_rough",
			"uri":"../textures/stone_rough_rough.png"
		},
		{
			"mimeType":"image/jpeg",
			"name":"wood_worn_normal",
			"uri":"../textures/wood_worn_normal.jpg"
		},
		{
			"mimeType":"image/jpeg",
			"name":"wood_worn_albedo",
			"uri":"../textures/wood_worn_albedo.jpg"
		},
		{
			"mimeType":"image/png",
			"name":"wood_worn_rough",
			"uri":"../textures/wood_worn_rough.png"
		}
	],
	"accessors":[
		{
			"bufferView":0,
			"componentType":5126,
			"count":955,
			"max":[
				0.9777669310569763,
				0.14620192348957062,
				0.9246761202812195
			],
			"min":[
				-0.771629273891449,
				-0.06526115536689758,
				-0.9265612363815308
			],
			"type":"VEC3"
		},
		{
			"bufferView":1,
			"componentType":5126,
			"count":955,
			"type":"VEC3"
		},
		{
			"bufferView":2,
			"componentType":5126,
			"count":955,
			"type":"VEC2"
		},
		{
			"bufferView":3,
			"componentType":5123,
			"count":1416,
			"type":"SCALAR"
		},
		{
			"bufferView":4,
			"componentType":5126,
			"count":988,
			"max":[
				0.9727301001548767,
				0.12683016061782837,
				0.9326842427253723
			],
			"min":[
				-0.7860639095306396,
				-0.07796433568000793,
				-0.978766918182373
			],
			"type":"VEC3"
		},
		{
			"bufferView":5,
			"componentType":5126,
			"count":988,
			"type":"VEC3"
		},
		{
			"bufferView":6,
			"componentType":5126,
			"count":988,
			"type":"VEC2"
		},
		{
			"bufferView":7,
			"componentType":5123,
			"count":1500,
			"type":"SCALAR"
		},
		{
			"bufferView":8,
			"componentType":5126,
			"count":426,
			"max":[
				0.9925518035888672,
				0.10501638799905777,
				0.8152583837509155
			],
			"min":[
				-0.5004376173019409,
				-0.006960270460695028,
				-0.7641127109527588
			],
			"type":"VEC3"
		},
		{
			"bufferView":9,
			"componentType":5126,
			"count":426,
			"type":"VEC3"
		},
		{
			"bufferView":10,
			"componentType":5126,
			"count":426,
			"type":"VEC2"
		},
		{
			"bufferView":11,
			"componentType":5123,
			"count":1296,
			"type":"SCALAR"
		}
	],
	"bufferViews":[
		{
			"buffer":0,
			"byteLength":11460,
			"byteOffset":0,
			"target":34962
		},
		{
			"buffer":0,
			"byteLength":11460,
			"byteOffset":11460,
			"target":34962
		},
		{
			"buffer":0,
			"byteLength":7640,
			"byteOffset":22920,
			"target":34962
		},
		{
			"buffer":0,
			"byteLength":2832,
			"byteOffset":30560,
			"target":34963
		},
		{
			"buffer":0,
			"byteLength":11856,
			"byteOffset":33392,
			"target":34962
		},
		{
			"buffer":0,
			"byteLength":11856,
			"byteOffset":45248,
			"target":34962
		},
		{
			"buffer":0,
			"byteLength":7904,
			"byteOffset":57104,
			"target":34962
		},
		{
			"buffer":0,
			"byteLength":3000,
			"byteOffset":65008,
			"target":34963
		},
		{
			"buffer":0,
			"byteLength":5112,
			"byteOffset":68008,
			"target":34962
		},
		{
			"buffer":0,
			"byteLength":5112,
			"byteOffset":73120,
			"target":34962
		},
		{
			"buffer":0,
			"byteLength":3408,
			"byteOffset":78232,
			"target":34962
		},
		{
			"buffer":0,
			"byteLength":2592,
			"byteOffset":81640,
			"target":34963
		}
	],
	"samplers":[
		{
			"magFilter":9729,
			"minFilter":9987
		}
	],
	"buffers":[
		{
			"byteLength":84232,
			"uri":"Debris_Scatter.bin"
		}
	]
}
