{
	"asset":{
		"generator":"Khronos glTF Blender I/O v5.2.40",
		"version":"2.0"
	},
	"scene":0,
	"scenes":[
		{
			"name":"Scene",
			"nodes":[
				3
			]
		}
	],
	"nodes":[
		{
			"mesh":0,
			"name":"Gravestone_A_Base"
		},
		{
			"mesh":1,
			"name":"Gravestone_A_Col-colonly"
		},
		{
			"mesh":2,
			"name":"Gravestone_A_Slab"
		},
		{
			"children":[
				0,
				1,
				2
			],
			"name":"Gravestone_A"
		}
	],
	"materials":[
		{
			"name":"Stone_Pale",
			"normalTexture":{
				"index":0,
				"scale":1.2999999523162842
			},
			"pbrMetallicRoughness":{
				"baseColorTexture":{
					"index":1
				},
				"metallicFactor":0,
				"metallicRoughnessTexture":{
					"index":2
				}
			}
		}
	],
	"meshes":[
		{
			"name":"Gravestone_A_Base",
			"primitives":[
				{
					"attributes":{
						"POSITION":0,
						"NORMAL":1,
						"TEXCOORD_0":2
					},
					"indices":3,
					"material":0
				}
			]
		},
		{
			"name":"Gravestone_A_Col-colonly",
			"primitives":[
				{
					"attributes":{
						"POSITION":4,
						"NORMAL":5,
						"TEXCOORD_0":6
					},
					"indices":7
				}
			]
		},
		{
			"name":"Gravestone_A_Slab",
			"primitives":[
				{
					"attributes":{
						"POSITION":8,
						"NORMAL":9,
						"TEXCOORD_0":10
					},
					"indices":11,
					"material":0
				}
			]
		}
	],
	"textures":[
		{
			"sampler":0,
			"source":0
		},
		{
			"sampler":0,
			"source":1
		},
		{
			"sampler":0,
			"source":2
		}
	],
	"images":[
		{
			"mimeType":"image/jpeg",
			"name":"stone_pale_normal",
			"uri":"../textures/stone_pale_normal.jpg"
		},
		{
			"mimeType":"image/jpeg",
			"name":"stone_pale_albedo",
			"uri":"../textures/stone_pale_albedo.jpg"
		},
		{
			"mimeType":"image/png",
			"name":"stone_pale_rough",
			"uri":"../textures/stone_pale_rough.png"
		}
	],
	"accessors":[
		{
			"bufferView":0,
			"componentType":5126,
			"count":96,
			"max":[
				0.4000000059604645,
				0.10000000149011612,
				0.17000000178813934
			],
			"min":[
				-0.4000000059604645,
				-0.03999999910593033,
				-0.17000000178813934
			],
			"type":"VEC3"
		},
		{
			"bufferView":1,
			"componentType":5126,
			"count":96,
			"type":"VEC3"
		},
		{
			"bufferView":2,
			"componentType":5126,
			"count":96,
			"type":"VEC2"
		},
		{
			"bufferView":3,
			"componentType":5123,
			"count":324,
			"type":"SCALAR"
		},
		{
			"bufferView":4,
			"componentType":5126,
			"count":24,
			"max":[
				0.4000000059604645,
				1,
				0.17000000178813934
			],
			"min":[
				-0.4000000059604645,
				0,
				-0.17000000178813934
			],
			"type":"VEC3"
		},
		{
			"bufferView":5,
			"componentType":5126,
			"count":24,
			"type":"VEC3"
		},
		{
			"bufferView":6,
			"componentType":5126,
			"count":24,
			"type":"VEC2"
		},
		{
			"bufferView":7,
			"componentType":5123,
			"count":36,
			"type":"SCALAR"
		},
		{
			"bufferView":8,
			"componentType":5126,
			"count":644,
			"max":[
				0.34055331349372864,
				0.9605219960212708,
				0.06903637945652008
			],
			"min":[
				-0.2990902364253998,
				0.05424059182405472,
				-0.145732581615448
			],
			"type":"VEC3"
		},
		{
			"bufferView":9,
			"componentType":5126,
			"count":644,
			"type":"VEC3"
		},
		{
			"bufferView":10,
			"componentType":5126,
			"count":644,
			"type":"VEC2"
		},
		{
			"bufferView":11,
			"componentType":5123,
			"count":1992,
			"type":"SCALAR"
		}
	],
	"bufferViews":[
		{
			"buffer":0,
			"byteLength":1152,
			"byteOffset":0,
			"target":34962
		},
		{
			"buffer":0,
			"byteLength":1152,
			"byteOffset":1152,
			"target":34962
		},
		{
			"buffer":0,
			"byteLength":768,
			"byteOffset":2304,
			"target":34962
		},
		{
			"buffer":0,
			"byteLength":648,
			"byteOffset":3072,
			"target":34963
		},
		{
			"buffer":0,
			"byteLength":288,
			"byteOffset":3720,
			"target":34962
		},
		{
			"buffer":0,
			"byteLength":288,
			"byteOffset":4008,
			"target":34962
		},
		{
			"buffer":0,
			"byteLength":192,
			"byteOffset":4296,
			"target":34962
		},
		{
			"buffer":0,
			"byteLength":72,
			"byteOffset":4488,
			"target":34963
		},
		{
			"buffer":0,
			"byteLength":7728,
			"byteOffset":4560,
			"target":34962
		},
		{
			"buffer":0,
			"byteLength":7728,
			"byteOffset":12288,
			"target":34962
		},
		{
			"buffer":0,
			"byteLength":5152,
			"byteOffset":20016,
			"target":34962
		},
		{
			"buffer":0,
			"byteLength":3984,
			"byteOffset":25168,
			"target":34963
		}
	],
	"samplers":[
		{
			"magFilter":9729,
			"minFilter":9987
		}
	],
	"buffers":[
		{
			"byteLength":29152,
			"uri":"Gravestone_A.bin"
		}
	]
}
