{
	"asset":{
		"generator":"Khronos glTF Blender I/O v5.2.40",
		"version":"2.0"
	},
	"scene":0,
	"scenes":[
		{
			"name":"Scene",
			"nodes":[
				3
			]
		}
	],
	"nodes":[
		{
			"mesh":0,
			"name":"Gravestone_C_Base"
		},
		{
			"mesh":1,
			"name":"Gravestone_C_Col-colonly"
		},
		{
			"mesh":2,
			"name":"Gravestone_C_Cross"
		},
		{
			"children":[
				0,
				1,
				2
			],
			"name":"Gravestone_C"
		}
	],
	"materials":[
		{
			"name":"Stone_Pale",
			"normalTexture":{
				"index":0,
				"scale":1.2999999523162842
			},
			"pbrMetallicRoughness":{
				"baseColorTexture":{
					"index":1
				},
				"metallicFactor":0,
				"metallicRoughnessTexture":{
					"index":2
				}
			}
		}
	],
	"meshes":[
		{
			"name":"Gravestone_C_Base",
			"primitives":[
				{
					"attributes":{
						"POSITION":0,
						"NORMAL":1,
						"TEXCOORD_0":2
					},
					"indices":3,
					"material":0
				}
			]
		},
		{
			"name":"Gravestone_C_Col-colonly",
			"primitives":[
				{
					"attributes":{
						"POSITION":4,
						"NORMAL":5,
						"TEXCOORD_0":6
					},
					"indices":7
				}
			]
		},
		{
			"name":"Gravestone_C_Cross",
			"primitives":[
				{
					"attributes":{
						"POSITION":8,
						"NORMAL":9,
						"TEXCOORD_0":10
					},
					"indices":11,
					"material":0
				}
			]
		}
	],
	"textures":[
		{
			"sampler":0,
			"source":0
		},
		{
			"sampler":0,
			"source":1
		},
		{
			"sampler":0,
			"source":2
		}
	],
	"images":[
		{
			"mimeType":"image/jpeg",
			"name":"stone_pale_normal",
			"uri":"../textures/stone_pale_normal.jpg"
		},
		{
			"mimeType":"image/jpeg",
			"name":"stone_pale_albedo",
			"uri":"../textures/stone_pale_albedo.jpg"
		},
		{
			"mimeType":"image/png",
			"name":"stone_pale_rough",
			"uri":"../textures/stone_pale_rough.png"
		}
	],
	"accessors":[
		{
			"bufferView":0,
			"componentType":5126,
			"count":758,
			"max":[
				0.4719965159893036,
				0.24000000953674316,
				0.29302510619163513
			],
			"min":[
				-0.30000001192092896,
				-0.03999999910593033,
				-0.22499999403953552
			],
			"type":"VEC3"
		},
		{
			"bufferView":1,
			"componentType":5126,
			"count":758,
			"type":"VEC3"
		},
		{
			"bufferView":2,
			"componentType":5126,
			"count":758,
			"type":"VEC2"
		},
		{
			"bufferView":3,
			"componentType":5123,
			"count":2148,
			"type":"SCALAR"
		},
		{
			"bufferView":4,
			"componentType":5126,
			"count":24,
			"max":[
				0.30000001192092896,
				1.5,
				0.22499999403953552
			],
			"min":[
				-0.30000001192092896,
				0,
				-0.22499999403953552
			],
			"type":"VEC3"
		},
		{
			"bufferView":5,
			"componentType":5126,
			"count":24,
			"type":"VEC3"
		},
		{
			"bufferView":6,
			"componentType":5126,
			"count":24,
			"type":"VEC2"
		},
		{
			"bufferView":7,
			"componentType":5123,
			"count":36,
			"type":"SCALAR"
		},
		{
			"bufferView":8,
			"componentType":5126,
			"count":2275,
			"max":[
				0.1319519430398941,
				1.340078353881836,
				0.15645068883895874
			],
			"min":[
				-0.41163578629493713,
				0.2629271149635315,
				-0.05905186012387276
			],
			"type":"VEC3"
		},
		{
			"bufferView":9,
			"componentType":5126,
			"count":2275,
			"type":"VEC3"
		},
		{
			"bufferView":10,
			"componentType":5126,
			"count":2275,
			"type":"VEC2"
		},
		{
			"bufferView":11,
			"componentType":5123,
			"count":7176,
			"type":"SCALAR"
		}
	],
	"bufferViews":[
		{
			"buffer":0,
			"byteLength":9096,
			"byteOffset":0,
			"target":34962
		},
		{
			"buffer":0,
			"byteLength":9096,
			"byteOffset":9096,
			"target":34962
		},
		{
			"buffer":0,
			"byteLength":6064,
			"byteOffset":18192,
			"target":34962
		},
		{
			"buffer":0,
			"byteLength":4296,
			"byteOffset":24256,
			"target":34963
		},
		{
			"buffer":0,
			"byteLength":288,
			"byteOffset":28552,
			"target":34962
		},
		{
			"buffer":0,
			"byteLength":288,
			"byteOffset":28840,
			"target":34962
		},
		{
			"buffer":0,
			"byteLength":192,
			"byteOffset":29128,
			"target":34962
		},
		{
			"buffer":0,
			"byteLength":72,
			"byteOffset":29320,
			"target":34963
		},
		{
			"buffer":0,
			"byteLength":27300,
			"byteOffset":29392,
			"target":34962
		},
		{
			"buffer":0,
			"byteLength":27300,
			"byteOffset":56692,
			"target":34962
		},
		{
			"buffer":0,
			"byteLength":18200,
			"byteOffset":83992,
			"target":34962
		},
		{
			"buffer":0,
			"byteLength":14352,
			"byteOffset":102192,
			"target":34963
		}
	],
	"samplers":[
		{
			"magFilter":9729,
			"minFilter":9987
		}
	],
	"buffers":[
		{
			"byteLength":116544,
			"uri":"Gravestone_C.bin"
		}
	]
}
