{
	"asset":{
		"generator":"Khronos glTF Blender I/O v5.2.40",
		"version":"2.0"
	},
	"scene":0,
	"scenes":[
		{
			"name":"Scene",
			"nodes":[
				3
			]
		}
	],
	"nodes":[
		{
			"mesh":0,
			"name":"Mirror_Baroque_Col-colonly"
		},
		{
			"mesh":1,
			"name":"Mirror_Baroque_Frame"
		},
		{
			"mesh":2,
			"name":"Mirror_Baroque_Glass"
		},
		{
			"children":[
				0,
				1,
				2
			],
			"name":"Mirror_Baroque"
		}
	],
	"materials":[
		{
			"name":"Wood_Ebony",
			"normalTexture":{
				"index":0,
				"scale":1.2000000476837158
			},
			"pbrMetallicRoughness":{
				"baseColorTexture":{
					"index":1
				},
				"metallicFactor":0,
				"roughnessFactor":0.3199999928474426
			}
		},
		{
			"name":"Mirror_Aged",
			"pbrMetallicRoughness":{
				"baseColorTexture":{
					"index":2
				},
				"metallicRoughnessTexture":{
					"index":3
				}
			}
		}
	],
	"meshes":[
		{
			"name":"Mirror_Baroque_Col-colonly",
			"primitives":[
				{
					"attributes":{
						"POSITION":0,
						"NORMAL":1,
						"TEXCOORD_0":2
					},
					"indices":3
				}
			]
		},
		{
			"name":"Mirror_Baroque_Frame",
			"primitives":[
				{
					"attributes":{
						"POSITION":4,
						"NORMAL":5,
						"TEXCOORD_0":6
					},
					"indices":7,
					"material":0
				}
			]
		},
		{
			"name":"Mirror_Baroque_Glass",
			"primitives":[
				{
					"attributes":{
						"POSITION":8,
						"NORMAL":9,
						"TEXCOORD_0":10
					},
					"indices":11,
					"material":1
				}
			]
		}
	],
	"textures":[
		{
			"sampler":0,
			"source":0
		},
		{
			"sampler":0,
			"source":1
		},
		{
			"sampler":0,
			"source":2
		},
		{
			"sampler":0,
			"source":3
		}
	],
	"images":[
		{
			"mimeType":"image/jpeg",
			"name":"wood_ebony_normal",
			"uri":"../textures/wood_ebony_normal.jpg"
		},
		{
			"mimeType":"image/jpeg",
			"name":"wood_ebony_albedo",
			"uri":"../textures/wood_ebony_albedo.jpg"
		},
		{
			"mimeType":"image/jpeg",
			"name":"mirror_albedo",
			"uri":"../textures/mirror_albedo.jpg"
		},
		{
			"mimeType":"image/png",
			"name":"mirror_rough",
			"uri":"../textures/mirror_rough.png"
		}
	],
	"accessors":[
		{
			"bufferView":0,
			"componentType":5126,
			"count":24,
			"max":[
				0.6499999761581421,
				2.25,
				0.12999999523162842
			],
			"min":[
				-0.6499999761581421,
				-0.04999995231628418,
				-0.029999997466802597
			],
			"type":"VEC3"
		},
		{
			"bufferView":1,
			"componentType":5126,
			"count":24,
			"type":"VEC3"
		},
		{
			"bufferView":2,
			"componentType":5126,
			"count":24,
			"type":"VEC2"
		},
		{
			"bufferView":3,
			"componentType":5123,
			"count":36,
			"type":"SCALAR"
		},
		{
			"bufferView":4,
			"componentType":5126,
			"count":19738,
			"max":[
				0.7209597229957581,
				2.3400001525878906,
				0.11982673406600952
			],
			"min":[
				-0.7209597229957581,
				-0.14000000059604645,
				0
			],
			"type":"VEC3"
		},
		{
			"bufferView":5,
			"componentType":5126,
			"count":19738,
			"type":"VEC3"
		},
		{
			"bufferView":6,
			"componentType":5126,
			"count":19738,
			"type":"VEC2"
		},
		{
			"bufferView":7,
			"componentType":5123,
			"count":66846,
			"type":"SCALAR"
		},
		{
			"bufferView":8,
			"componentType":5126,
			"count":31,
			"max":[
				0.5,
				1.9199999570846558,
				0.01600000075995922
			],
			"min":[
				-0.5,
				0.11999999731779099,
				0.01600000075995922
			],
			"type":"VEC3"
		},
		{
			"bufferView":9,
			"componentType":5126,
			"count":31,
			"type":"VEC3"
		},
		{
			"bufferView":10,
			"componentType":5126,
			"count":31,
			"type":"VEC2"
		},
		{
			"bufferView":11,
			"componentType":5123,
			"count":87,
			"type":"SCALAR"
		}
	],
	"bufferViews":[
		{
			"buffer":0,
			"byteLength":288,
			"byteOffset":0,
			"target":34962
		},
		{
			"buffer":0,
			"byteLength":288,
			"byteOffset":288,
			"target":34962
		},
		{
			"buffer":0,
			"byteLength":192,
			"byteOffset":576,
			"target":34962
		},
		{
			"buffer":0,
			"byteLength":72,
			"byteOffset":768,
			"target":34963
		},
		{
			"buffer":0,
			"byteLength":236856,
			"byteOffset":840,
			"target":34962
		},
		{
			"buffer":0,
			"byteLength":236856,
			"byteOffset":237696,
			"target":34962
		},
		{
			"buffer":0,
			"byteLength":157904,
			"byteOffset":474552,
			"target":34962
		},
		{
			"buffer":0,
			"byteLength":133692,
			"byteOffset":632456,
			"target":34963
		},
		{
			"buffer":0,
			"byteLength":372,
			"byteOffset":766148,
			"target":34962
		},
		{
			"buffer":0,
			"byteLength":372,
			"byteOffset":766520,
			"target":34962
		},
		{
			"buffer":0,
			"byteLength":248,
			"byteOffset":766892,
			"target":34962
		},
		{
			"buffer":0,
			"byteLength":174,
			"byteOffset":767140,
			"target":34963
		}
	],
	"samplers":[
		{
			"magFilter":9729,
			"minFilter":9987
		}
	],
	"buffers":[
		{
			"byteLength":767316,
			"uri":"Mirror_Baroque.bin"
		}
	]
}
