{
	"asset":{
		"generator":"Khronos glTF Blender I/O v5.2.40",
		"version":"2.0"
	},
	"scene":0,
	"scenes":[
		{
			"name":"Scene",
			"nodes":[
				3
			]
		}
	],
	"nodes":[
		{
			"mesh":0,
			"name":"Mirror_Tall_Col-colonly"
		},
		{
			"mesh":1,
			"name":"Mirror_Tall_Frame"
		},
		{
			"mesh":2,
			"name":"Mirror_Tall_Glass"
		},
		{
			"children":[
				0,
				1,
				2
			],
			"name":"Mirror_Tall"
		}
	],
	"materials":[
		{
			"name":"Gold_Gilt",
			"normalTexture":{
				"index":0
			},
			"pbrMetallicRoughness":{
				"baseColorTexture":{
					"index":1
				},
				"metallicRoughnessTexture":{
					"index":2
				}
			}
		},
		{
			"name":"Wood_Polished",
			"normalTexture":{
				"index":3
			},
			"pbrMetallicRoughness":{
				"baseColorTexture":{
					"index":4
				},
				"metallicFactor":0,
				"metallicRoughnessTexture":{
					"index":5
				}
			}
		},
		{
			"name":"Mirror_Aged",
			"pbrMetallicRoughness":{
				"baseColorTexture":{
					"index":6
				},
				"metallicRoughnessTexture":{
					"index":7
				}
			}
		}
	],
	"meshes":[
		{
			"name":"Mirror_Tall_Col-colonly",
			"primitives":[
				{
					"attributes":{
						"POSITION":0,
						"NORMAL":1,
						"TEXCOORD_0":2
					},
					"indices":3
				}
			]
		},
		{
			"name":"Mirror_Tall_Frame",
			"primitives":[
				{
					"attributes":{
						"POSITION":4,
						"NORMAL":5,
						"TEXCOORD_0":6
					},
					"indices":7,
					"material":0
				},
				{
					"attributes":{
						"POSITION":8,
						"NORMAL":9,
						"TEXCOORD_0":10
					},
					"indices":11,
					"material":1
				}
			]
		},
		{
			"name":"Mirror_Tall_Glass",
			"primitives":[
				{
					"attributes":{
						"POSITION":12,
						"NORMAL":13,
						"TEXCOORD_0":14
					},
					"indices":15,
					"material":2
				}
			]
		}
	],
	"textures":[
		{
			"sampler":0,
			"source":0
		},
		{
			"sampler":0,
			"source":1
		},
		{
			"sampler":0,
			"source":2
		},
		{
			"sampler":0,
			"source":3
		},
		{
			"sampler":0,
			"source":4
		},
		{
			"sampler":0,
			"source":5
		},
		{
			"sampler":0,
			"source":6
		},
		{
			"sampler":0,
			"source":7
		}
	],
	"images":[
		{
			"mimeType":"image/jpeg",
			"name":"gilt_normal",
			"uri":"../textures/gilt_normal.jpg"
		},
		{
			"mimeType":"image/jpeg",
			"name":"gilt_albedo",
			"uri":"../textures/gilt_albedo.jpg"
		},
		{
			"mimeType":"image/png",
			"name":"gilt_rough",
			"uri":"../textures/gilt_rough.png"
		},
		{
			"mimeType":"image/jpeg",
			"name":"wood_polished_normal",
			"uri":"../textures/wood_polished_normal.jpg"
		},
		{
			"mimeType":"image/jpeg",
			"name":"wood_polished_albedo",
			"uri":"../textures/wood_polished_albedo.jpg"
		},
		{
			"mimeType":"image/png",
			"name":"wood_polished_rough",
			"uri":"../textures/wood_polished_rough.png"
		},
		{
			"mimeType":"image/jpeg",
			"name":"mirror_albedo",
			"uri":"../textures/mirror_albedo.jpg"
		},
		{
			"mimeType":"image/png",
			"name":"mirror_rough",
			"uri":"../textures/mirror_rough.png"
		}
	],
	"accessors":[
		{
			"bufferView":0,
			"componentType":5126,
			"count":24,
			"max":[
				0.6399999856948853,
				2.2249999046325684,
				0.12999999523162842
			],
			"min":[
				-0.6399999856948853,
				-0.02499997615814209,
				-0.029999997466802597
			],
			"type":"VEC3"
		},
		{
			"bufferView":1,
			"componentType":5126,
			"count":24,
			"type":"VEC3"
		},
		{
			"bufferView":2,
			"componentType":5126,
			"count":24,
			"type":"VEC2"
		},
		{
			"bufferView":3,
			"componentType":5123,
			"count":36,
			"type":"SCALAR"
		},
		{
			"bufferView":4,
			"componentType":5126,
			"count":7958,
			"max":[
				0.6496658325195312,
				2.3600001335144043,
				0.14000000059604645
			],
			"min":[
				-0.6496658325195312,
				-0.07999999821186066,
				-0.019999999552965164
			],
			"type":"VEC3"
		},
		{
			"bufferView":5,
			"componentType":5126,
			"count":7958,
			"type":"VEC3"
		},
		{
			"bufferView":6,
			"componentType":5126,
			"count":7958,
			"type":"VEC2"
		},
		{
			"bufferView":7,
			"componentType":5123,
			"count":28470,
			"type":"SCALAR"
		},
		{
			"bufferView":8,
			"componentType":5126,
			"count":732,
			"max":[
				0.44999998807907104,
				2.049999952316284,
				0.012000000104308128
			],
			"min":[
				-0.44999998807907104,
				0.10999999940395355,
				0.004999999888241291
			],
			"type":"VEC3"
		},
		{
			"bufferView":9,
			"componentType":5126,
			"count":732,
			"type":"VEC3"
		},
		{
			"bufferView":10,
			"componentType":5126,
			"count":732,
			"type":"VEC2"
		},
		{
			"bufferView":11,
			"componentType":5123,
			"count":2496,
			"type":"SCALAR"
		},
		{
			"bufferView":12,
			"componentType":5126,
			"count":67,
			"max":[
				0.44999998807907104,
				2.049999952316284,
				0.014000000432133675
			],
			"min":[
				-0.44999998807907104,
				0.10999999940395355,
				0.014000000432133675
			],
			"type":"VEC3"
		},
		{
			"bufferView":13,
			"componentType":5126,
			"count":67,
			"type":"VEC3"
		},
		{
			"bufferView":14,
			"componentType":5126,
			"count":67,
			"type":"VEC2"
		},
		{
			"bufferView":15,
			"componentType":5123,
			"count":195,
			"type":"SCALAR"
		}
	],
	"bufferViews":[
		{
			"buffer":0,
			"byteLength":288,
			"byteOffset":0,
			"target":34962
		},
		{
			"buffer":0,
			"byteLength":288,
			"byteOffset":288,
			"target":34962
		},
		{
			"buffer":0,
			"byteLength":192,
			"byteOffset":576,
			"target":34962
		},
		{
			"buffer":0,
			"byteLength":72,
			"byteOffset":768,
			"target":34963
		},
		{
			"buffer":0,
			"byteLength":95496,
			"byteOffset":840,
			"target":34962
		},
		{
			"buffer":0,
			"byteLength":95496,
			"byteOffset":96336,
			"target":34962
		},
		{
			"buffer":0,
			"byteLength":63664,
			"byteOffset":191832,
			"target":34962
		},
		{
			"buffer":0,
			"byteLength":56940,
			"byteOffset":255496,
			"target":34963
		},
		{
			"buffer":0,
			"byteLength":8784,
			"byteOffset":312436,
			"target":34962
		},
		{
			"buffer":0,
			"byteLength":8784,
			"byteOffset":321220,
			"target":34962
		},
		{
			"buffer":0,
			"byteLength":5856,
			"byteOffset":330004,
			"target":34962
		},
		{
			"buffer":0,
			"byteLength":4992,
			"byteOffset":335860,
			"target":34963
		},
		{
			"buffer":0,
			"byteLength":804,
			"byteOffset":340852,
			"target":34962
		},
		{
			"buffer":0,
			"byteLength":804,
			"byteOffset":341656,
			"target":34962
		},
		{
			"buffer":0,
			"byteLength":536,
			"byteOffset":342460,
			"target":34962
		},
		{
			"buffer":0,
			"byteLength":390,
			"byteOffset":342996,
			"target":34963
		}
	],
	"samplers":[
		{
			"magFilter":9729,
			"minFilter":9987
		}
	],
	"buffers":[
		{
			"byteLength":343388,
			"uri":"Mirror_Tall.bin"
		}
	]
}
