{
	"asset":{
		"generator":"Khronos glTF Blender I/O v5.2.40",
		"version":"2.0"
	},
	"scene":0,
	"scenes":[
		{
			"name":"Scene",
			"nodes":[
				3
			]
		}
	],
	"nodes":[
		{
			"mesh":0,
			"name":"Portrait_Frame_Back"
		},
		{
			"mesh":1,
			"name":"Portrait_Frame_Canvas"
		},
		{
			"mesh":2,
			"name":"Portrait_Frame_Gilt"
		},
		{
			"children":[
				0,
				1,
				2
			],
			"name":"Portrait_Frame"
		}
	],
	"materials":[
		{
			"name":"Wood_Polished",
			"normalTexture":{
				"index":0
			},
			"pbrMetallicRoughness":{
				"baseColorTexture":{
					"index":1
				},
				"metallicFactor":0,
				"metallicRoughnessTexture":{
					"index":2
				}
			}
		},
		{
			"name":"Portrait_Canvas",
			"normalTexture":{
				"index":3
			},
			"pbrMetallicRoughness":{
				"baseColorTexture":{
					"index":4
				},
				"metallicFactor":0,
				"metallicRoughnessTexture":{
					"index":5
				}
			}
		},
		{
			"name":"Gold_Gilt",
			"normalTexture":{
				"index":6
			},
			"pbrMetallicRoughness":{
				"baseColorTexture":{
					"index":7
				},
				"metallicRoughnessTexture":{
					"index":8
				}
			}
		}
	],
	"meshes":[
		{
			"name":"Portrait_Frame_Back",
			"primitives":[
				{
					"attributes":{
						"POSITION":0,
						"NORMAL":1,
						"TEXCOORD_0":2
					},
					"indices":3,
					"material":0
				}
			]
		},
		{
			"name":"Portrait_Frame_Canvas",
			"primitives":[
				{
					"attributes":{
						"POSITION":4,
						"NORMAL":5,
						"TEXCOORD_0":6
					},
					"indices":7,
					"material":1
				}
			]
		},
		{
			"name":"Portrait_Frame_Gilt",
			"primitives":[
				{
					"attributes":{
						"POSITION":8,
						"NORMAL":9,
						"TEXCOORD_0":10
					},
					"indices":11,
					"material":2
				}
			]
		}
	],
	"textures":[
		{
			"sampler":0,
			"source":0
		},
		{
			"sampler":0,
			"source":1
		},
		{
			"sampler":0,
			"source":2
		},
		{
			"sampler":0,
			"source":3
		},
		{
			"sampler":0,
			"source":4
		},
		{
			"sampler":0,
			"source":5
		},
		{
			"sampler":0,
			"source":6
		},
		{
			"sampler":0,
			"source":7
		},
		{
			"sampler":0,
			"source":8
		}
	],
	"images":[
		{
			"mimeType":"image/jpeg",
			"name":"wood_polished_normal",
			"uri":"../textures/wood_polished_normal.jpg"
		},
		{
			"mimeType":"image/jpeg",
			"name":"wood_polished_albedo",
			"uri":"../textures/wood_polished_albedo.jpg"
		},
		{
			"mimeType":"image/png",
			"name":"wood_polished_rough",
			"uri":"../textures/wood_polished_rough.png"
		},
		{
			"mimeType":"image/jpeg",
			"name":"portrait_normal",
			"uri":"../textures/portrait_normal.jpg"
		},
		{
			"mimeType":"image/jpeg",
			"name":"portrait_albedo",
			"uri":"../textures/portrait_albedo.jpg"
		},
		{
			"mimeType":"image/png",
			"name":"portrait_rough",
			"uri":"../textures/portrait_rough.png"
		},
		{
			"mimeType":"image/jpeg",
			"name":"gilt_normal",
			"uri":"../textures/gilt_normal.jpg"
		},
		{
			"mimeType":"image/jpeg",
			"name":"gilt_albedo",
			"uri":"../textures/gilt_albedo.jpg"
		},
		{
			"mimeType":"image/png",
			"name":"gilt_rough",
			"uri":"../textures/gilt_rough.png"
		}
	],
	"accessors":[
		{
			"bufferView":0,
			"componentType":5126,
			"count":297,
			"max":[
				0.3619999885559082,
				0.492000013589859,
				0.03500000014901161
			],
			"min":[
				-0.3619999885559082,
				-0.492000013589859,
				0
			],
			"type":"VEC3"
		},
		{
			"bufferView":1,
			"componentType":5126,
			"count":297,
			"type":"VEC3"
		},
		{
			"bufferView":2,
			"componentType":5126,
			"count":297,
			"type":"VEC2"
		},
		{
			"bufferView":3,
			"componentType":5123,
			"count":996,
			"type":"SCALAR"
		},
		{
			"bufferView":4,
			"componentType":5126,
			"count":4,
			"max":[
				0.3449999988079071,
				0.4749999940395355,
				0.012000000104308128
			],
			"min":[
				-0.3449999988079071,
				-0.4749999940395355,
				0.012000000104308128
			],
			"type":"VEC3"
		},
		{
			"bufferView":5,
			"componentType":5126,
			"count":4,
			"type":"VEC3"
		},
		{
			"bufferView":6,
			"componentType":5126,
			"count":4,
			"type":"VEC2"
		},
		{
			"bufferView":7,
			"componentType":5123,
			"count":6,
			"type":"SCALAR"
		},
		{
			"bufferView":8,
			"componentType":5126,
			"count":5634,
			"max":[
				0.48000001907348633,
				0.6585999727249146,
				0.08800000697374344
			],
			"min":[
				-0.48000001907348633,
				-0.6100000143051147,
				0
			],
			"type":"VEC3"
		},
		{
			"bufferView":9,
			"componentType":5126,
			"count":5634,
			"type":"VEC3"
		},
		{
			"bufferView":10,
			"componentType":5126,
			"count":5634,
			"type":"VEC2"
		},
		{
			"bufferView":11,
			"componentType":5123,
			"count":18504,
			"type":"SCALAR"
		}
	],
	"bufferViews":[
		{
			"buffer":0,
			"byteLength":3564,
			"byteOffset":0,
			"target":34962
		},
		{
			"buffer":0,
			"byteLength":3564,
			"byteOffset":3564,
			"target":34962
		},
		{
			"buffer":0,
			"byteLength":2376,
			"byteOffset":7128,
			"target":34962
		},
		{
			"buffer":0,
			"byteLength":1992,
			"byteOffset":9504,
			"target":34963
		},
		{
			"buffer":0,
			"byteLength":48,
			"byteOffset":11496,
			"target":34962
		},
		{
			"buffer":0,
			"byteLength":48,
			"byteOffset":11544,
			"target":34962
		},
		{
			"buffer":0,
			"byteLength":32,
			"byteOffset":11592,
			"target":34962
		},
		{
			"buffer":0,
			"byteLength":12,
			"byteOffset":11624,
			"target":34963
		},
		{
			"buffer":0,
			"byteLength":67608,
			"byteOffset":11636,
			"target":34962
		},
		{
			"buffer":0,
			"byteLength":67608,
			"byteOffset":79244,
			"target":34962
		},
		{
			"buffer":0,
			"byteLength":45072,
			"byteOffset":146852,
			"target":34962
		},
		{
			"buffer":0,
			"byteLength":37008,
			"byteOffset":191924,
			"target":34963
		}
	],
	"samplers":[
		{
			"magFilter":9729,
			"minFilter":9987
		}
	],
	"buffers":[
		{
			"byteLength":228932,
			"uri":"Portrait_Frame.bin"
		}
	]
}
