{
	"asset":{
		"generator":"Khronos glTF Blender I/O v5.2.40",
		"version":"2.0"
	},
	"scene":0,
	"scenes":[
		{
			"name":"Scene",
			"nodes":[
				2
			]
		}
	],
	"nodes":[
		{
			"mesh":0,
			"name":"Rug_Large_Body"
		},
		{
			"mesh":1,
			"name":"Rug_Large_Fringe"
		},
		{
			"children":[
				0,
				1
			],
			"name":"Rug_Large"
		}
	],
	"materials":[
		{
			"name":"Carpet_Persian",
			"normalTexture":{
				"index":0,
				"scale":1.399999976158142
			},
			"pbrMetallicRoughness":{
				"baseColorTexture":{
					"index":1
				},
				"metallicFactor":0,
				"roughnessFactor":0.9200000166893005
			}
		},
		{
			"name":"Fringe_Cream",
			"pbrMetallicRoughness":{
				"baseColorFactor":[
					0.4562634527683258,
					0.3746243119239807,
					0.21763764321804047,
					1
				],
				"metallicFactor":0,
				"roughnessFactor":0.949999988079071
			}
		}
	],
	"meshes":[
		{
			"name":"Rug_Large_Body",
			"primitives":[
				{
					"attributes":{
						"POSITION":0,
						"NORMAL":1,
						"TEXCOORD_0":2
					},
					"indices":3,
					"material":0
				}
			]
		},
		{
			"name":"Rug_Large_Fringe",
			"primitives":[
				{
					"attributes":{
						"POSITION":4,
						"NORMAL":5,
						"TEXCOORD_0":6
					},
					"indices":7,
					"material":1
				}
			]
		}
	],
	"textures":[
		{
			"sampler":0,
			"source":0
		},
		{
			"sampler":0,
			"source":1
		}
	],
	"images":[
		{
			"mimeType":"image/jpeg",
			"name":"carpet_normal",
			"uri":"../textures/carpet_normal.jpg"
		},
		{
			"mimeType":"image/jpeg",
			"name":"carpet_albedo",
			"uri":"../textures/carpet_albedo.jpg"
		}
	],
	"accessors":[
		{
			"bufferView":0,
			"componentType":5126,
			"count":114,
			"max":[
				1.100000023841858,
				0.011500000022351742,
				1.600000023841858
			],
			"min":[
				-1.100000023841858,
				0,
				-1.600000023841858
			],
			"type":"VEC3"
		},
		{
			"bufferView":1,
			"componentType":5126,
			"count":114,
			"type":"VEC3"
		},
		{
			"bufferView":2,
			"componentType":5126,
			"count":114,
			"type":"VEC2"
		},
		{
			"bufferView":3,
			"componentType":5123,
			"count":330,
			"type":"SCALAR"
		},
		{
			"bufferView":4,
			"componentType":5126,
			"count":14640,
			"max":[
				1.0970404148101807,
				0.0057112411595880985,
				1.6682066917419434
			],
			"min":[
				-1.0973179340362549,
				-0.0002147930208593607,
				-1.6679767370224
			],
			"type":"VEC3"
		},
		{
			"bufferView":5,
			"componentType":5126,
			"count":14640,
			"type":"VEC3"
		},
		{
			"bufferView":6,
			"componentType":5126,
			"count":14640,
			"type":"VEC2"
		},
		{
			"bufferView":7,
			"componentType":5123,
			"count":28548,
			"type":"SCALAR"
		}
	],
	"bufferViews":[
		{
			"buffer":0,
			"byteLength":1368,
			"byteOffset":0,
			"target":34962
		},
		{
			"buffer":0,
			"byteLength":1368,
			"byteOffset":1368,
			"target":34962
		},
		{
			"buffer":0,
			"byteLength":912,
			"byteOffset":2736,
			"target":34962
		},
		{
			"buffer":0,
			"byteLength":660,
			"byteOffset":3648,
			"target":34963
		},
		{
			"buffer":0,
			"byteLength":175680,
			"byteOffset":4308,
			"target":34962
		},
		{
			"buffer":0,
			"byteLength":175680,
			"byteOffset":179988,
			"target":34962
		},
		{
			"buffer":0,
			"byteLength":117120,
			"byteOffset":355668,
			"target":34962
		},
		{
			"buffer":0,
			"byteLength":57096,
			"byteOffset":472788,
			"target":34963
		}
	],
	"samplers":[
		{
			"magFilter":9729,
			"minFilter":9987
		}
	],
	"buffers":[
		{
			"byteLength":529884,
			"uri":"Rug_Large.bin"
		}
	]
}
