{
	"asset":{
		"generator":"Khronos glTF Blender I/O v5.2.40",
		"version":"2.0"
	},
	"scene":0,
	"scenes":[
		{
			"name":"Scene",
			"nodes":[
				4
			]
		}
	],
	"nodes":[
		{
			"mesh":0,
			"name":"Sarcophagus_Body"
		},
		{
			"mesh":1,
			"name":"Sarcophagus_Col-colonly"
		},
		{
			"mesh":2,
			"name":"Sarcophagus_Lid"
		},
		{
			"mesh":3,
			"name":"Sarcophagus_Void"
		},
		{
			"children":[
				0,
				1,
				2,
				3
			],
			"name":"Sarcophagus"
		}
	],
	"materials":[
		{
			"name":"Stone_Pale",
			"normalTexture":{
				"index":0,
				"scale":1.2999999523162842
			},
			"pbrMetallicRoughness":{
				"baseColorTexture":{
					"index":1
				},
				"metallicFactor":0,
				"metallicRoughnessTexture":{
					"index":2
				}
			}
		},
		{
			"name":"Soot",
			"pbrMetallicRoughness":{
				"baseColorFactor":[
					0.00022559522767551243,
					0.0001829220273066312,
					0.00014507731248158962,
					1
				],
				"metallicFactor":0,
				"roughnessFactor":0.949999988079071
			}
		}
	],
	"meshes":[
		{
			"name":"Sarcophagus_Body",
			"primitives":[
				{
					"attributes":{
						"POSITION":0,
						"NORMAL":1,
						"TEXCOORD_0":2
					},
					"indices":3,
					"material":0
				}
			]
		},
		{
			"name":"Sarcophagus_Col-colonly",
			"primitives":[
				{
					"attributes":{
						"POSITION":4,
						"NORMAL":5,
						"TEXCOORD_0":6
					},
					"indices":7
				}
			]
		},
		{
			"name":"Sarcophagus_Lid",
			"primitives":[
				{
					"attributes":{
						"POSITION":8,
						"NORMAL":9,
						"TEXCOORD_0":10
					},
					"indices":11,
					"material":0
				}
			]
		},
		{
			"name":"Sarcophagus_Void",
			"primitives":[
				{
					"attributes":{
						"POSITION":12,
						"NORMAL":13,
						"TEXCOORD_0":14
					},
					"indices":7,
					"material":1
				}
			]
		}
	],
	"textures":[
		{
			"sampler":0,
			"source":0
		},
		{
			"sampler":0,
			"source":1
		},
		{
			"sampler":0,
			"source":2
		}
	],
	"images":[
		{
			"mimeType":"image/jpeg",
			"name":"stone_pale_normal",
			"uri":"../textures/stone_pale_normal.jpg"
		},
		{
			"mimeType":"image/jpeg",
			"name":"stone_pale_albedo",
			"uri":"../textures/stone_pale_albedo.jpg"
		},
		{
			"mimeType":"image/png",
			"name":"stone_pale_rough",
			"uri":"../textures/stone_pale_rough.png"
		}
	],
	"accessors":[
		{
			"bufferView":0,
			"componentType":5126,
			"count":831,
			"max":[
				1.149999976158142,
				0.7900000214576721,
				0.5
			],
			"min":[
				-1.149999976158142,
				0,
				-0.5
			],
			"type":"VEC3"
		},
		{
			"bufferView":1,
			"componentType":5126,
			"count":831,
			"type":"VEC3"
		},
		{
			"bufferView":2,
			"componentType":5126,
			"count":831,
			"type":"VEC2"
		},
		{
			"bufferView":3,
			"componentType":5123,
			"count":2640,
			"type":"SCALAR"
		},
		{
			"bufferView":4,
			"componentType":5126,
			"count":24,
			"max":[
				1.149999976158142,
				0.9700000286102295,
				0.5
			],
			"min":[
				-1.149999976158142,
				0,
				-0.5
			],
			"type":"VEC3"
		},
		{
			"bufferView":5,
			"componentType":5126,
			"count":24,
			"type":"VEC3"
		},
		{
			"bufferView":6,
			"componentType":5126,
			"count":24,
			"type":"VEC2"
		},
		{
			"bufferView":7,
			"componentType":5123,
			"count":36,
			"type":"SCALAR"
		},
		{
			"bufferView":8,
			"componentType":5126,
			"count":327,
			"max":[
				1.3033115863800049,
				0.9850000143051147,
				0.6615156531333923
			],
			"min":[
				-0.983311653137207,
				0.7900000214576721,
				-0.5215156674385071
			],
			"type":"VEC3"
		},
		{
			"bufferView":9,
			"componentType":5126,
			"count":327,
			"type":"VEC3"
		},
		{
			"bufferView":10,
			"componentType":5126,
			"count":327,
			"type":"VEC2"
		},
		{
			"bufferView":11,
			"componentType":5123,
			"count":1044,
			"type":"SCALAR"
		},
		{
			"bufferView":12,
			"componentType":5126,
			"count":24,
			"max":[
				0.9599999785423279,
				0.5099999904632568,
				0.3400000035762787
			],
			"min":[
				-0.9599999785423279,
				0.49000000953674316,
				-0.3400000035762787
			],
			"type":"VEC3"
		},
		{
			"bufferView":13,
			"componentType":5126,
			"count":24,
			"type":"VEC3"
		},
		{
			"bufferView":14,
			"componentType":5126,
			"count":24,
			"type":"VEC2"
		}
	],
	"bufferViews":[
		{
			"buffer":0,
			"byteLength":9972,
			"byteOffset":0,
			"target":34962
		},
		{
			"buffer":0,
			"byteLength":9972,
			"byteOffset":9972,
			"target":34962
		},
		{
			"buffer":0,
			"byteLength":6648,
			"byteOffset":19944,
			"target":34962
		},
		{
			"buffer":0,
			"byteLength":5280,
			"byteOffset":26592,
			"target":34963
		},
		{
			"buffer":0,
			"byteLength":288,
			"byteOffset":31872,
			"target":34962
		},
		{
			"buffer":0,
			"byteLength":288,
			"byteOffset":32160,
			"target":34962
		},
		{
			"buffer":0,
			"byteLength":192,
			"byteOffset":32448,
			"target":34962
		},
		{
			"buffer":0,
			"byteLength":72,
			"byteOffset":32640,
			"target":34963
		},
		{
			"buffer":0,
			"byteLength":3924,
			"byteOffset":32712,
			"target":34962
		},
		{
			"buffer":0,
			"byteLength":3924,
			"byteOffset":36636,
			"target":34962
		},
		{
			"buffer":0,
			"byteLength":2616,
			"byteOffset":40560,
			"target":34962
		},
		{
			"buffer":0,
			"byteLength":2088,
			"byteOffset":43176,
			"target":34963
		},
		{
			"buffer":0,
			"byteLength":288,
			"byteOffset":45264,
			"target":34962
		},
		{
			"buffer":0,
			"byteLength":288,
			"byteOffset":45552,
			"target":34962
		},
		{
			"buffer":0,
			"byteLength":192,
			"byteOffset":45840,
			"target":34962
		}
	],
	"samplers":[
		{
			"magFilter":9729,
			"minFilter":9987
		}
	],
	"buffers":[
		{
			"byteLength":46032,
			"uri":"Sarcophagus.bin"
		}
	]
}
