{
	"asset":{
		"generator":"Khronos glTF Blender I/O v5.2.40",
		"version":"2.0"
	},
	"scene":0,
	"scenes":[
		{
			"name":"Scene",
			"nodes":[
				3
			]
		}
	],
	"nodes":[
		{
			"mesh":0,
			"name":"Sign_Plaque_Brass"
		},
		{
			"mesh":1,
			"name":"Sign_Plaque_Field"
		},
		{
			"mesh":2,
			"name":"Sign_Plaque_Text"
		},
		{
			"children":[
				0,
				1,
				2
			],
			"name":"Sign_Plaque"
		}
	],
	"materials":[
		{
			"name":"Brass_Aged",
			"normalTexture":{
				"index":0
			},
			"pbrMetallicRoughness":{
				"baseColorTexture":{
					"index":1
				},
				"metallicRoughnessTexture":{
					"index":2
				}
			}
		},
		{
			"name":"Enamel_Black",
			"pbrMetallicRoughness":{
				"baseColorFactor":[
					5.945641896687448e-05,
					5.945641896687448e-05,
					9.714059706311673e-05,
					1
				],
				"metallicFactor":0,
				"roughnessFactor":0.2800000011920929
			}
		},
		{
			"name":"Brass_Aged",
			"normalTexture":{
				"index":0,
				"texCoord":1
			},
			"pbrMetallicRoughness":{
				"baseColorTexture":{
					"index":1,
					"texCoord":1
				},
				"metallicRoughnessTexture":{
					"index":2,
					"texCoord":1
				}
			}
		}
	],
	"meshes":[
		{
			"name":"Sign_Plaque_Brass",
			"primitives":[
				{
					"attributes":{
						"POSITION":0,
						"NORMAL":1,
						"TEXCOORD_0":2
					},
					"indices":3,
					"material":0
				}
			]
		},
		{
			"name":"Sign_Plaque_Field",
			"primitives":[
				{
					"attributes":{
						"POSITION":4,
						"NORMAL":5,
						"TEXCOORD_0":6
					},
					"indices":7,
					"material":1
				}
			]
		},
		{
			"name":"Sign_Plaque_Text",
			"primitives":[
				{
					"attributes":{
						"POSITION":8,
						"NORMAL":9,
						"TEXCOORD_0":10,
						"TEXCOORD_1":11
					},
					"indices":12,
					"material":2
				}
			]
		}
	],
	"textures":[
		{
			"sampler":0,
			"source":0
		},
		{
			"sampler":0,
			"source":1
		},
		{
			"sampler":0,
			"source":2
		}
	],
	"images":[
		{
			"mimeType":"image/jpeg",
			"name":"brass_normal",
			"uri":"../textures/brass_normal.jpg"
		},
		{
			"mimeType":"image/jpeg",
			"name":"brass_albedo",
			"uri":"../textures/brass_albedo.jpg"
		},
		{
			"mimeType":"image/png",
			"name":"brass_rough",
			"uri":"../textures/brass_rough.png"
		}
	],
	"accessors":[
		{
			"bufferView":0,
			"componentType":5126,
			"count":2710,
			"max":[
				0.3199999928474426,
				0.1899999976158142,
				0.024202363565564156
			],
			"min":[
				-0.3199999928474426,
				-0.1899999976158142,
				0.010000000707805157
			],
			"type":"VEC3"
		},
		{
			"bufferView":1,
			"componentType":5126,
			"count":2710,
			"type":"VEC3"
		},
		{
			"bufferView":2,
			"componentType":5126,
			"count":2710,
			"type":"VEC2"
		},
		{
			"bufferView":3,
			"componentType":5123,
			"count":9792,
			"type":"SCALAR"
		},
		{
			"bufferView":4,
			"componentType":5126,
			"count":264,
			"max":[
				0.3199999928474426,
				0.1899999976158142,
				0.014000000432133675
			],
			"min":[
				-0.3199999928474426,
				-0.1899999976158142,
				0
			],
			"type":"VEC3"
		},
		{
			"bufferView":5,
			"componentType":5126,
			"count":264,
			"type":"VEC3"
		},
		{
			"bufferView":6,
			"componentType":5126,
			"count":264,
			"type":"VEC2"
		},
		{
			"bufferView":7,
			"componentType":5123,
			"count":756,
			"type":"SCALAR"
		},
		{
			"bufferView":8,
			"componentType":5126,
			"count":7500,
			"max":[
				0.23472601175308228,
				0.06034599989652634,
				0.016700001433491707
			],
			"min":[
				-0.23275399208068848,
				0.017020000144839287,
				0.014299998059868813
			],
			"type":"VEC3"
		},
		{
			"bufferView":9,
			"componentType":5126,
			"count":7500,
			"type":"VEC3"
		},
		{
			"bufferView":10,
			"componentType":5126,
			"count":7500,
			"type":"VEC2"
		},
		{
			"bufferView":11,
			"componentType":5126,
			"count":7500,
			"type":"VEC2"
		},
		{
			"bufferView":12,
			"componentType":5123,
			"count":22110,
			"type":"SCALAR"
		}
	],
	"bufferViews":[
		{
			"buffer":0,
			"byteLength":32520,
			"byteOffset":0,
			"target":34962
		},
		{
			"buffer":0,
			"byteLength":32520,
			"byteOffset":32520,
			"target":34962
		},
		{
			"buffer":0,
			"byteLength":21680,
			"byteOffset":65040,
			"target":34962
		},
		{
			"buffer":0,
			"byteLength":19584,
			"byteOffset":86720,
			"target":34963
		},
		{
			"buffer":0,
			"byteLength":3168,
			"byteOffset":106304,
			"target":34962
		},
		{
			"buffer":0,
			"byteLength":3168,
			"byteOffset":109472,
			"target":34962
		},
		{
			"buffer":0,
			"byteLength":2112,
			"byteOffset":112640,
			"target":34962
		},
		{
			"buffer":0,
			"byteLength":1512,
			"byteOffset":114752,
			"target":34963
		},
		{
			"buffer":0,
			"byteLength":90000,
			"byteOffset":116264,
			"target":34962
		},
		{
			"buffer":0,
			"byteLength":90000,
			"byteOffset":206264,
			"target":34962
		},
		{
			"buffer":0,
			"byteLength":60000,
			"byteOffset":296264,
			"target":34962
		},
		{
			"buffer":0,
			"byteLength":60000,
			"byteOffset":356264,
			"target":34962
		},
		{
			"buffer":0,
			"byteLength":44220,
			"byteOffset":416264,
			"target":34963
		}
	],
	"samplers":[
		{
			"magFilter":9729,
			"minFilter":9987
		}
	],
	"buffers":[
		{
			"byteLength":460484,
			"uri":"Sign_Plaque.bin"
		}
	]
}
