{
	"asset":{
		"generator":"Khronos glTF Blender I/O v5.2.40",
		"version":"2.0"
	},
	"scene":0,
	"scenes":[
		{
			"name":"Scene",
			"nodes":[
				4
			]
		}
	],
	"nodes":[
		{
			"mesh":0,
			"name":"Statue_WeepingMaiden_Candles"
		},
		{
			"mesh":1,
			"name":"Statue_WeepingMaiden_Col-colonly"
		},
		{
			"mesh":2,
			"name":"Statue_WeepingMaiden_Figure"
		},
		{
			"mesh":3,
			"name":"Statue_WeepingMaiden_Pedestal"
		},
		{
			"children":[
				0,
				1,
				2,
				3
			],
			"name":"Statue_WeepingMaiden"
		}
	],
	"materials":[
		{
			"name":"Wax_Ivory",
			"normalTexture":{
				"index":0
			},
			"pbrMetallicRoughness":{
				"baseColorTexture":{
					"index":1
				},
				"metallicFactor":0,
				"metallicRoughnessTexture":{
					"index":2
				}
			}
		},
		{
			"name":"Wick",
			"pbrMetallicRoughness":{
				"baseColorFactor":[
					0.0004463409713935107,
					0.0002988601627293974,
					0.0001829220273066312,
					1
				],
				"metallicFactor":0,
				"roughnessFactor":0.8999999761581421
			}
		},
		{
			"name":"Stone_Pale",
			"normalTexture":{
				"index":3,
				"scale":1.2999999523162842
			},
			"pbrMetallicRoughness":{
				"baseColorTexture":{
					"index":4
				},
				"metallicFactor":0,
				"metallicRoughnessTexture":{
					"index":5
				}
			}
		}
	],
	"meshes":[
		{
			"name":"Statue_WeepingMaiden_Candles",
			"primitives":[
				{
					"attributes":{
						"POSITION":0,
						"NORMAL":1,
						"TEXCOORD_0":2
					},
					"indices":3,
					"material":0
				},
				{
					"attributes":{
						"POSITION":4,
						"NORMAL":5,
						"TEXCOORD_0":6
					},
					"indices":7,
					"material":1
				}
			]
		},
		{
			"name":"Statue_WeepingMaiden_Col-colonly",
			"primitives":[
				{
					"attributes":{
						"POSITION":8,
						"NORMAL":9,
						"TEXCOORD_0":10
					},
					"indices":11
				}
			]
		},
		{
			"name":"Statue_WeepingMaiden_Figure",
			"primitives":[
				{
					"attributes":{
						"POSITION":12,
						"NORMAL":13,
						"TEXCOORD_0":14
					},
					"indices":15,
					"material":2
				}
			]
		},
		{
			"name":"Statue_WeepingMaiden_Pedestal",
			"primitives":[
				{
					"attributes":{
						"POSITION":16,
						"NORMAL":17,
						"TEXCOORD_0":18
					},
					"indices":19,
					"material":2
				}
			]
		}
	],
	"textures":[
		{
			"sampler":0,
			"source":0
		},
		{
			"sampler":0,
			"source":1
		},
		{
			"sampler":0,
			"source":2
		},
		{
			"sampler":0,
			"source":3
		},
		{
			"sampler":0,
			"source":4
		},
		{
			"sampler":0,
			"source":5
		}
	],
	"images":[
		{
			"mimeType":"image/jpeg",
			"name":"wax_normal",
			"uri":"../textures/wax_normal.jpg"
		},
		{
			"mimeType":"image/jpeg",
			"name":"wax_albedo",
			"uri":"../textures/wax_albedo.jpg"
		},
		{
			"mimeType":"image/png",
			"name":"wax_rough",
			"uri":"../textures/wax_rough.png"
		},
		{
			"mimeType":"image/jpeg",
			"name":"stone_pale_normal",
			"uri":"../textures/stone_pale_normal.jpg"
		},
		{
			"mimeType":"image/jpeg",
			"name":"stone_pale_albedo",
			"uri":"../textures/stone_pale_albedo.jpg"
		},
		{
			"mimeType":"image/png",
			"name":"stone_pale_rough",
			"uri":"../textures/stone_pale_rough.png"
		}
	],
	"accessors":[
		{
			"bufferView":0,
			"componentType":5126,
			"count":5088,
			"max":[
				0.29053017497062683,
				0.10392370074987411,
				0.6515560150146484
			],
			"min":[
				-0.3311580419540405,
				0,
				0.5486385822296143
			],
			"type":"VEC3"
		},
		{
			"bufferView":1,
			"componentType":5126,
			"count":5088,
			"type":"VEC3"
		},
		{
			"bufferView":2,
			"componentType":5126,
			"count":5088,
			"type":"VEC2"
		},
		{
			"bufferView":3,
			"componentType":5123,
			"count":18972,
			"type":"SCALAR"
		},
		{
			"bufferView":4,
			"componentType":5126,
			"count":504,
			"max":[
				0.26433390378952026,
				0.11346060782670975,
				0.6211000680923462
			],
			"min":[
				-0.3010580241680145,
				0.034986600279808044,
				0.5788999795913696
			],
			"type":"VEC3"
		},
		{
			"bufferView":5,
			"componentType":5126,
			"count":504,
			"type":"VEC3"
		},
		{
			"bufferView":6,
			"componentType":5126,
			"count":504,
			"type":"VEC2"
		},
		{
			"bufferView":7,
			"componentType":5123,
			"count":1368,
			"type":"SCALAR"
		},
		{
			"bufferView":8,
			"componentType":5126,
			"count":24,
			"max":[
				0.4300000071525574,
				2.75,
				0.4300000071525574
			],
			"min":[
				-0.4300000071525574,
				0,
				-0.4300000071525574
			],
			"type":"VEC3"
		},
		{
			"bufferView":9,
			"componentType":5126,
			"count":24,
			"type":"VEC3"
		},
		{
			"bufferView":10,
			"componentType":5126,
			"count":24,
			"type":"VEC2"
		},
		{
			"bufferView":11,
			"componentType":5123,
			"count":36,
			"type":"SCALAR"
		},
		{
			"bufferView":12,
			"componentType":5126,
			"count":3124,
			"max":[
				0.3499999940395355,
				2.6823999881744385,
				0.34516921639442444
			],
			"min":[
				-0.3499999940395355,
				0.8999999761581421,
				-0.27299997210502625
			],
			"type":"VEC3"
		},
		{
			"bufferView":13,
			"componentType":5126,
			"count":3124,
			"type":"VEC3"
		},
		{
			"bufferView":14,
			"componentType":5126,
			"count":3124,
			"type":"VEC2"
		},
		{
			"bufferView":15,
			"componentType":5123,
			"count":11184,
			"type":"SCALAR"
		},
		{
			"bufferView":16,
			"componentType":5126,
			"count":440,
			"max":[
				0.4300000071525574,
				0.8999999761581421,
				0.4300000071525574
			],
			"min":[
				-0.4300000071525574,
				0,
				-0.4300000071525574
			],
			"type":"VEC3"
		},
		{
			"bufferView":17,
			"componentType":5126,
			"count":440,
			"type":"VEC3"
		},
		{
			"bufferView":18,
			"componentType":5126,
			"count":440,
			"type":"VEC2"
		},
		{
			"bufferView":19,
			"componentType":5123,
			"count":1620,
			"type":"SCALAR"
		}
	],
	"bufferViews":[
		{
			"buffer":0,
			"byteLength":61056,
			"byteOffset":0,
			"target":34962
		},
		{
			"buffer":0,
			"byteLength":61056,
			"byteOffset":61056,
			"target":34962
		},
		{
			"buffer":0,
			"byteLength":40704,
			"byteOffset":122112,
			"target":34962
		},
		{
			"buffer":0,
			"byteLength":37944,
			"byteOffset":162816,
			"target":34963
		},
		{
			"buffer":0,
			"byteLength":6048,
			"byteOffset":200760,
			"target":34962
		},
		{
			"buffer":0,
			"byteLength":6048,
			"byteOffset":206808,
			"target":34962
		},
		{
			"buffer":0,
			"byteLength":4032,
			"byteOffset":212856,
			"target":34962
		},
		{
			"buffer":0,
			"byteLength":2736,
			"byteOffset":216888,
			"target":34963
		},
		{
			"buffer":0,
			"byteLength":288,
			"byteOffset":219624,
			"target":34962
		},
		{
			"buffer":0,
			"byteLength":288,
			"byteOffset":219912,
			"target":34962
		},
		{
			"buffer":0,
			"byteLength":192,
			"byteOffset":220200,
			"target":34962
		},
		{
			"buffer":0,
			"byteLength":72,
			"byteOffset":220392,
			"target":34963
		},
		{
			"buffer":0,
			"byteLength":37488,
			"byteOffset":220464,
			"target":34962
		},
		{
			"buffer":0,
			"byteLength":37488,
			"byteOffset":257952,
			"target":34962
		},
		{
			"buffer":0,
			"byteLength":24992,
			"byteOffset":295440,
			"target":34962
		},
		{
			"buffer":0,
			"byteLength":22368,
			"byteOffset":320432,
			"target":34963
		},
		{
			"buffer":0,
			"byteLength":5280,
			"byteOffset":342800,
			"target":34962
		},
		{
			"buffer":0,
			"byteLength":5280,
			"byteOffset":348080,
			"target":34962
		},
		{
			"buffer":0,
			"byteLength":3520,
			"byteOffset":353360,
			"target":34962
		},
		{
			"buffer":0,
			"byteLength":3240,
			"byteOffset":356880,
			"target":34963
		}
	],
	"samplers":[
		{
			"magFilter":9729,
			"minFilter":9987
		}
	],
	"buffers":[
		{
			"byteLength":360120,
			"uri":"Statue_WeepingMaiden.bin"
		}
	]
}
