{
	"asset":{
		"generator":"Khronos glTF Blender I/O v5.2.40",
		"version":"2.0"
	},
	"scene":0,
	"scenes":[
		{
			"name":"Scene",
			"nodes":[
				3
			]
		}
	],
	"nodes":[
		{
			"mesh":0,
			"name":"Statue_Angel_Miller_Col-colonly"
		},
		{
			"mesh":1,
			"name":"Statue_Angel_Miller_Figure"
		},
		{
			"mesh":2,
			"name":"Statue_Angel_Miller_Head",
			"translation":[
				0.164567768573761,
				1.909999966621399,
				-0.1278318464756012
			]
		},
		{
			"children":[
				0,
				1,
				2
			],
			"name":"Statue_Angel_Miller"
		}
	],
	"materials":[
		{
			"name":"Stone_Angel_Miller",
			"normalTexture":{
				"index":0
			},
			"pbrMetallicRoughness":{
				"baseColorTexture":{
					"index":1
				},
				"metallicFactor":0,
				"roughnessFactor":0.8799999952316284
			}
		}
	],
	"meshes":[
		{
			"name":"Statue_Angel_Miller_Col",
			"primitives":[
				{
					"attributes":{
						"POSITION":0,
						"NORMAL":1
					},
					"indices":2
				}
			]
		},
		{
			"name":"default.001",
			"primitives":[
				{
					"attributes":{
						"POSITION":3,
						"NORMAL":4,
						"TEXCOORD_0":5
					},
					"indices":6,
					"material":0
				}
			]
		},
		{
			"name":"default.002",
			"primitives":[
				{
					"attributes":{
						"POSITION":7,
						"NORMAL":8,
						"TEXCOORD_0":9
					},
					"indices":10,
					"material":0
				}
			]
		}
	],
	"textures":[
		{
			"sampler":0,
			"source":0
		},
		{
			"sampler":0,
			"source":1
		}
	],
	"images":[
		{
			"mimeType":"image/png",
			"name":"angel_miller_normal",
			"uri":"../textures/angel_miller_normal.png"
		},
		{
			"mimeType":"image/jpeg",
			"name":"angel_miller_albedo",
			"uri":"../textures/angel_miller_albedo.jpg"
		}
	],
	"accessors":[
		{
			"bufferView":0,
			"componentType":5126,
			"count":24,
			"max":[
				0.6741558313369751,
				1.5,
				0.7467986345291138
			],
			"min":[
				-0.6895714998245239,
				0,
				-0.8207067251205444
			],
			"type":"VEC3"
		},
		{
			"bufferView":1,
			"componentType":5126,
			"count":24,
			"type":"VEC3"
		},
		{
			"bufferView":2,
			"componentType":5123,
			"count":36,
			"type":"SCALAR"
		},
		{
			"bufferView":3,
			"componentType":5126,
			"count":18606,
			"max":[
				0.742648720741272,
				2.509507656097412,
				0.7545394897460938
			],
			"min":[
				-0.6948918104171753,
				-0.0012950387317687273,
				-0.9572099447250366
			],
			"type":"VEC3"
		},
		{
			"bufferView":4,
			"componentType":5126,
			"count":18606,
			"type":"VEC3"
		},
		{
			"bufferView":5,
			"componentType":5126,
			"count":18606,
			"type":"VEC2"
		},
		{
			"bufferView":6,
			"componentType":5123,
			"count":48096,
			"type":"SCALAR"
		},
		{
			"bufferView":7,
			"componentType":5126,
			"count":2288,
			"max":[
				0.08894127607345581,
				0.24518507719039917,
				0.16470375657081604
			],
			"min":[
				-0.11698710918426514,
				-0.0050241886638104916,
				-0.10141545534133911
			],
			"type":"VEC3"
		},
		{
			"bufferView":8,
			"componentType":5126,
			"count":2288,
			"type":"VEC3"
		},
		{
			"bufferView":9,
			"componentType":5126,
			"count":2288,
			"type":"VEC2"
		},
		{
			"bufferView":10,
			"componentType":5123,
			"count":7800,
			"type":"SCALAR"
		}
	],
	"bufferViews":[
		{
			"buffer":0,
			"byteLength":288,
			"byteOffset":0,
			"target":34962
		},
		{
			"buffer":0,
			"byteLength":288,
			"byteOffset":288,
			"target":34962
		},
		{
			"buffer":0,
			"byteLength":72,
			"byteOffset":576,
			"target":34963
		},
		{
			"buffer":0,
			"byteLength":223272,
			"byteOffset":648,
			"target":34962
		},
		{
			"buffer":0,
			"byteLength":223272,
			"byteOffset":223920,
			"target":34962
		},
		{
			"buffer":0,
			"byteLength":148848,
			"byteOffset":447192,
			"target":34962
		},
		{
			"buffer":0,
			"byteLength":96192,
			"byteOffset":596040,
			"target":34963
		},
		{
			"buffer":0,
			"byteLength":27456,
			"byteOffset":692232,
			"target":34962
		},
		{
			"buffer":0,
			"byteLength":27456,
			"byteOffset":719688,
			"target":34962
		},
		{
			"buffer":0,
			"byteLength":18304,
			"byteOffset":747144,
			"target":34962
		},
		{
			"buffer":0,
			"byteLength":15600,
			"byteOffset":765448,
			"target":34963
		}
	],
	"samplers":[
		{
			"magFilter":9729,
			"minFilter":9987
		}
	],
	"buffers":[
		{
			"byteLength":781048,
			"uri":"Statue_Angel_Miller.bin"
		}
	]
}
