{
	"asset":{
		"generator":"Khronos glTF Blender I/O v5.2.40",
		"version":"2.0"
	},
	"scene":0,
	"scenes":[
		{
			"name":"Scene",
			"nodes":[
				4
			]
		}
	],
	"nodes":[
		{
			"mesh":0,
			"name":"Statue_Angel_Wreath_Col-colonly"
		},
		{
			"mesh":1,
			"name":"Statue_Angel_Wreath_Figure"
		},
		{
			"mesh":2,
			"name":"Statue_Angel_Wreath_Head",
			"translation":[
				0,
				2.069999933242798,
				0.004999999888241291
			]
		},
		{
			"mesh":3,
			"name":"Statue_Angel_Wreath_Pedestal"
		},
		{
			"children":[
				0,
				1,
				2,
				3
			],
			"name":"Statue_Angel_Wreath"
		}
	],
	"materials":[
		{
			"name":"Stone_Mossy",
			"normalTexture":{
				"index":0,
				"scale":1.600000023841858
			},
			"pbrMetallicRoughness":{
				"baseColorTexture":{
					"index":1
				},
				"metallicFactor":0,
				"metallicRoughnessTexture":{
					"index":2
				}
			}
		}
	],
	"meshes":[
		{
			"name":"Statue_Angel_Wreath_Col-colonly",
			"primitives":[
				{
					"attributes":{
						"POSITION":0,
						"NORMAL":1,
						"TEXCOORD_0":2
					},
					"indices":3
				}
			]
		},
		{
			"name":"Statue_Angel_Wreath_Figure",
			"primitives":[
				{
					"attributes":{
						"POSITION":4,
						"NORMAL":5,
						"TEXCOORD_0":6
					},
					"indices":7,
					"material":0
				}
			]
		},
		{
			"name":"Statue_Angel_Wreath_Head",
			"primitives":[
				{
					"attributes":{
						"POSITION":8,
						"NORMAL":9,
						"TEXCOORD_0":10
					},
					"indices":11,
					"material":0
				}
			]
		},
		{
			"name":"Statue_Angel_Wreath_Pedestal",
			"primitives":[
				{
					"attributes":{
						"POSITION":12,
						"NORMAL":13,
						"TEXCOORD_0":14
					},
					"indices":15,
					"material":0
				}
			]
		}
	],
	"textures":[
		{
			"sampler":0,
			"source":0
		},
		{
			"sampler":0,
			"source":1
		},
		{
			"sampler":0,
			"source":2
		}
	],
	"images":[
		{
			"mimeType":"image/jpeg",
			"name":"stone_mossy_normal",
			"uri":"../textures/stone_mossy_normal.jpg"
		},
		{
			"mimeType":"image/jpeg",
			"name":"stone_mossy_albedo",
			"uri":"../textures/stone_mossy_albedo.jpg"
		},
		{
			"mimeType":"image/png",
			"name":"stone_mossy_rough",
			"uri":"../textures/stone_mossy_rough.png"
		}
	],
	"accessors":[
		{
			"bufferView":0,
			"componentType":5126,
			"count":24,
			"max":[
				0.4000000059604645,
				2.299999952316284,
				0.33000001311302185
			],
			"min":[
				-0.4000000059604645,
				0,
				-0.33000001311302185
			],
			"type":"VEC3"
		},
		{
			"bufferView":1,
			"componentType":5126,
			"count":24,
			"type":"VEC3"
		},
		{
			"bufferView":2,
			"componentType":5126,
			"count":24,
			"type":"VEC2"
		},
		{
			"bufferView":3,
			"componentType":5123,
			"count":36,
			"type":"SCALAR"
		},
		{
			"bufferView":4,
			"componentType":5126,
			"count":5648,
			"max":[
				0.5143644213676453,
				2.8500001430511475,
				0.26231980323791504
			],
			"min":[
				-0.5143644213676453,
				0.5450000166893005,
				-0.4485727846622467
			],
			"type":"VEC3"
		},
		{
			"bufferView":5,
			"componentType":5126,
			"count":5648,
			"type":"VEC3"
		},
		{
			"bufferView":6,
			"componentType":5126,
			"count":5648,
			"type":"VEC2"
		},
		{
			"bufferView":7,
			"componentType":5123,
			"count":14016,
			"type":"SCALAR"
		},
		{
			"bufferView":8,
			"componentType":5126,
			"count":3788,
			"max":[
				0.12148400396108627,
				0.2398698329925537,
				0.09097518771886826
			],
			"min":[
				-0.12018069624900818,
				-0.0005321502685546875,
				-0.1502850353717804
			],
			"type":"VEC3"
		},
		{
			"bufferView":9,
			"componentType":5126,
			"count":3788,
			"type":"VEC3"
		},
		{
			"bufferView":10,
			"componentType":5126,
			"count":3788,
			"type":"VEC2"
		},
		{
			"bufferView":11,
			"componentType":5123,
			"count":5208,
			"type":"SCALAR"
		},
		{
			"bufferView":12,
			"componentType":5126,
			"count":288,
			"max":[
				0.38999998569488525,
				0.550000011920929,
				0.3100000023841858
			],
			"min":[
				-0.38999998569488525,
				0,
				-0.3100000023841858
			],
			"type":"VEC3"
		},
		{
			"bufferView":13,
			"componentType":5126,
			"count":288,
			"type":"VEC3"
		},
		{
			"bufferView":14,
			"componentType":5126,
			"count":288,
			"type":"VEC2"
		},
		{
			"bufferView":15,
			"componentType":5123,
			"count":972,
			"type":"SCALAR"
		}
	],
	"bufferViews":[
		{
			"buffer":0,
			"byteLength":288,
			"byteOffset":0,
			"target":34962
		},
		{
			"buffer":0,
			"byteLength":288,
			"byteOffset":288,
			"target":34962
		},
		{
			"buffer":0,
			"byteLength":192,
			"byteOffset":576,
			"target":34962
		},
		{
			"buffer":0,
			"byteLength":72,
			"byteOffset":768,
			"target":34963
		},
		{
			"buffer":0,
			"byteLength":67776,
			"byteOffset":840,
			"target":34962
		},
		{
			"buffer":0,
			"byteLength":67776,
			"byteOffset":68616,
			"target":34962
		},
		{
			"buffer":0,
			"byteLength":45184,
			"byteOffset":136392,
			"target":34962
		},
		{
			"buffer":0,
			"byteLength":28032,
			"byteOffset":181576,
			"target":34963
		},
		{
			"buffer":0,
			"byteLength":45456,
			"byteOffset":209608,
			"target":34962
		},
		{
			"buffer":0,
			"byteLength":45456,
			"byteOffset":255064,
			"target":34962
		},
		{
			"buffer":0,
			"byteLength":30304,
			"byteOffset":300520,
			"target":34962
		},
		{
			"buffer":0,
			"byteLength":10416,
			"byteOffset":330824,
			"target":34963
		},
		{
			"buffer":0,
			"byteLength":3456,
			"byteOffset":341240,
			"target":34962
		},
		{
			"buffer":0,
			"byteLength":3456,
			"byteOffset":344696,
			"target":34962
		},
		{
			"buffer":0,
			"byteLength":2304,
			"byteOffset":348152,
			"target":34962
		},
		{
			"buffer":0,
			"byteLength":1944,
			"byteOffset":350456,
			"target":34963
		}
	],
	"samplers":[
		{
			"magFilter":9729,
			"minFilter":9987
		}
	],
	"buffers":[
		{
			"byteLength":352400,
			"uri":"Statue_Angel_Wreath.bin"
		}
	]
}
