{
	"asset":{
		"generator":"Khronos glTF Blender I/O v5.2.40",
		"version":"2.0"
	},
	"scene":0,
	"scenes":[
		{
			"name":"Scene",
			"nodes":[
				2
			]
		}
	],
	"nodes":[
		{
			"mesh":0,
			"name":"Statue_Angel_Leubner_Col-colonly"
		},
		{
			"mesh":1,
			"name":"Statue_Angel_Leubner_Figure"
		},
		{
			"children":[
				0,
				1
			],
			"name":"Statue_Angel_Leubner"
		}
	],
	"materials":[
		{
			"name":"Stone_Angel_Leubner",
			"normalTexture":{
				"index":0
			},
			"pbrMetallicRoughness":{
				"baseColorTexture":{
					"index":1
				},
				"metallicFactor":0,
				"roughnessFactor":0.8799999952316284
			}
		}
	],
	"meshes":[
		{
			"name":"Statue_Angel_Leubner_Col",
			"primitives":[
				{
					"attributes":{
						"POSITION":0,
						"NORMAL":1
					},
					"indices":2
				}
			]
		},
		{
			"name":"default",
			"primitives":[
				{
					"attributes":{
						"POSITION":3,
						"NORMAL":4,
						"TEXCOORD_0":5
					},
					"indices":6,
					"material":0
				}
			]
		}
	],
	"textures":[
		{
			"sampler":0,
			"source":0
		},
		{
			"sampler":0,
			"source":1
		}
	],
	"images":[
		{
			"mimeType":"image/png",
			"name":"angel_leubner_normal",
			"uri":"../textures/angel_leubner_normal.png"
		},
		{
			"mimeType":"image/jpeg",
			"name":"angel_leubner_albedo",
			"uri":"../textures/angel_leubner_albedo.jpg"
		}
	],
	"accessors":[
		{
			"bufferView":0,
			"componentType":5126,
			"count":24,
			"max":[
				0.8675895929336548,
				1.5,
				0.6679986715316772
			],
			"min":[
				-0.8637014627456665,
				0,
				-0.6786309480667114
			],
			"type":"VEC3"
		},
		{
			"bufferView":1,
			"componentType":5126,
			"count":24,
			"type":"VEC3"
		},
		{
			"bufferView":2,
			"componentType":5123,
			"count":36,
			"type":"SCALAR"
		},
		{
			"bufferView":3,
			"componentType":5126,
			"count":24471,
			"max":[
				0.9021281599998474,
				3.1985573768615723,
				0.6904863119125366
			],
			"min":[
				-1.0382329225540161,
				-0.004614025354385376,
				-0.854003369808197
			],
			"type":"VEC3"
		},
		{
			"bufferView":4,
			"componentType":5126,
			"count":24471,
			"type":"VEC3"
		},
		{
			"bufferView":5,
			"componentType":5126,
			"count":24471,
			"type":"VEC2"
		},
		{
			"bufferView":6,
			"componentType":5123,
			"count":60162,
			"type":"SCALAR"
		}
	],
	"bufferViews":[
		{
			"buffer":0,
			"byteLength":288,
			"byteOffset":0,
			"target":34962
		},
		{
			"buffer":0,
			"byteLength":288,
			"byteOffset":288,
			"target":34962
		},
		{
			"buffer":0,
			"byteLength":72,
			"byteOffset":576,
			"target":34963
		},
		{
			"buffer":0,
			"byteLength":293652,
			"byteOffset":648,
			"target":34962
		},
		{
			"buffer":0,
			"byteLength":293652,
			"byteOffset":294300,
			"target":34962
		},
		{
			"buffer":0,
			"byteLength":195768,
			"byteOffset":587952,
			"target":34962
		},
		{
			"buffer":0,
			"byteLength":120324,
			"byteOffset":783720,
			"target":34963
		}
	],
	"samplers":[
		{
			"magFilter":9729,
			"minFilter":9987
		}
	],
	"buffers":[
		{
			"byteLength":904044,
			"uri":"Statue_Angel_Leubner.bin"
		}
	]
}
