{
	"asset":{
		"generator":"Khronos glTF Blender I/O v5.2.40",
		"version":"2.0"
	},
	"scene":0,
	"scenes":[
		{
			"name":"Scene",
			"nodes":[
				4
			]
		}
	],
	"nodes":[
		{
			"mesh":0,
			"name":"Statue_Angel_Broken_Col-colonly"
		},
		{
			"mesh":1,
			"name":"Statue_Angel_Broken_Fallen"
		},
		{
			"mesh":2,
			"name":"Statue_Angel_Broken_Figure"
		},
		{
			"mesh":3,
			"name":"Statue_Angel_Broken_Pedestal"
		},
		{
			"children":[
				0,
				1,
				2,
				3
			],
			"name":"Statue_Angel_Broken"
		}
	],
	"materials":[
		{
			"name":"Stone_Pale",
			"normalTexture":{
				"index":0,
				"scale":1.2999999523162842
			},
			"pbrMetallicRoughness":{
				"baseColorTexture":{
					"index":1
				},
				"metallicFactor":0,
				"metallicRoughnessTexture":{
					"index":2
				}
			}
		}
	],
	"meshes":[
		{
			"name":"Statue_Angel_Broken_Col-colonly",
			"primitives":[
				{
					"attributes":{
						"POSITION":0,
						"NORMAL":1,
						"TEXCOORD_0":2
					},
					"indices":3
				}
			]
		},
		{
			"name":"Statue_Angel_Broken_Fallen",
			"primitives":[
				{
					"attributes":{
						"POSITION":4,
						"NORMAL":5,
						"TEXCOORD_0":6
					},
					"indices":7,
					"material":0
				}
			]
		},
		{
			"name":"Statue_Angel_Broken_Figure",
			"primitives":[
				{
					"attributes":{
						"POSITION":8,
						"NORMAL":9,
						"TEXCOORD_0":10
					},
					"indices":11,
					"material":0
				}
			]
		},
		{
			"name":"Statue_Angel_Broken_Pedestal",
			"primitives":[
				{
					"attributes":{
						"POSITION":12,
						"NORMAL":13,
						"TEXCOORD_0":14
					},
					"indices":15,
					"material":0
				}
			]
		}
	],
	"textures":[
		{
			"sampler":0,
			"source":0
		},
		{
			"sampler":0,
			"source":1
		},
		{
			"sampler":0,
			"source":2
		}
	],
	"images":[
		{
			"mimeType":"image/jpeg",
			"name":"stone_pale_normal",
			"uri":"../textures/stone_pale_normal.jpg"
		},
		{
			"mimeType":"image/jpeg",
			"name":"stone_pale_albedo",
			"uri":"../textures/stone_pale_albedo.jpg"
		},
		{
			"mimeType":"image/png",
			"name":"stone_pale_rough",
			"uri":"../textures/stone_pale_rough.png"
		}
	],
	"accessors":[
		{
			"bufferView":0,
			"componentType":5126,
			"count":24,
			"max":[
				0.4300000071525574,
				2.5,
				0.4300000071525574
			],
			"min":[
				-0.4300000071525574,
				0,
				-0.4300000071525574
			],
			"type":"VEC3"
		},
		{
			"bufferView":1,
			"componentType":5126,
			"count":24,
			"type":"VEC3"
		},
		{
			"bufferView":2,
			"componentType":5126,
			"count":24,
			"type":"VEC2"
		},
		{
			"bufferView":3,
			"componentType":5123,
			"count":36,
			"type":"SCALAR"
		},
		{
			"bufferView":4,
			"componentType":5126,
			"count":436,
			"max":[
				0.9275035262107849,
				0.059999991208314896,
				0.3561209738254547
			],
			"min":[
				0.3225003480911255,
				-0.019041892141103745,
				-0.6762762665748596
			],
			"type":"VEC3"
		},
		{
			"bufferView":5,
			"componentType":5126,
			"count":436,
			"type":"VEC3"
		},
		{
			"bufferView":6,
			"componentType":5126,
			"count":436,
			"type":"VEC2"
		},
		{
			"bufferView":7,
			"componentType":5123,
			"count":672,
			"type":"SCALAR"
		},
		{
			"bufferView":8,
			"componentType":5126,
			"count":2827,
			"max":[
				0.8059999942779541,
				3.059999942779541,
				0.23401206731796265
			],
			"min":[
				-0.9849138855934143,
				0.800000011920929,
				-0.8793313503265381
			],
			"type":"VEC3"
		},
		{
			"bufferView":9,
			"componentType":5126,
			"count":2827,
			"type":"VEC3"
		},
		{
			"bufferView":10,
			"componentType":5126,
			"count":2827,
			"type":"VEC2"
		},
		{
			"bufferView":11,
			"componentType":5123,
			"count":9936,
			"type":"SCALAR"
		},
		{
			"bufferView":12,
			"componentType":5126,
			"count":440,
			"max":[
				0.4300000071525574,
				0.7999999523162842,
				0.4300000071525574
			],
			"min":[
				-0.4300000071525574,
				0,
				-0.4300000071525574
			],
			"type":"VEC3"
		},
		{
			"bufferView":13,
			"componentType":5126,
			"count":440,
			"type":"VEC3"
		},
		{
			"bufferView":14,
			"componentType":5126,
			"count":440,
			"type":"VEC2"
		},
		{
			"bufferView":15,
			"componentType":5123,
			"count":1620,
			"type":"SCALAR"
		}
	],
	"bufferViews":[
		{
			"buffer":0,
			"byteLength":288,
			"byteOffset":0,
			"target":34962
		},
		{
			"buffer":0,
			"byteLength":288,
			"byteOffset":288,
			"target":34962
		},
		{
			"buffer":0,
			"byteLength":192,
			"byteOffset":576,
			"target":34962
		},
		{
			"buffer":0,
			"byteLength":72,
			"byteOffset":768,
			"target":34963
		},
		{
			"buffer":0,
			"byteLength":5232,
			"byteOffset":840,
			"target":34962
		},
		{
			"buffer":0,
			"byteLength":5232,
			"byteOffset":6072,
			"target":34962
		},
		{
			"buffer":0,
			"byteLength":3488,
			"byteOffset":11304,
			"target":34962
		},
		{
			"buffer":0,
			"byteLength":1344,
			"byteOffset":14792,
			"target":34963
		},
		{
			"buffer":0,
			"byteLength":33924,
			"byteOffset":16136,
			"target":34962
		},
		{
			"buffer":0,
			"byteLength":33924,
			"byteOffset":50060,
			"target":34962
		},
		{
			"buffer":0,
			"byteLength":22616,
			"byteOffset":83984,
			"target":34962
		},
		{
			"buffer":0,
			"byteLength":19872,
			"byteOffset":106600,
			"target":34963
		},
		{
			"buffer":0,
			"byteLength":5280,
			"byteOffset":126472,
			"target":34962
		},
		{
			"buffer":0,
			"byteLength":5280,
			"byteOffset":131752,
			"target":34962
		},
		{
			"buffer":0,
			"byteLength":3520,
			"byteOffset":137032,
			"target":34962
		},
		{
			"buffer":0,
			"byteLength":3240,
			"byteOffset":140552,
			"target":34963
		}
	],
	"samplers":[
		{
			"magFilter":9729,
			"minFilter":9987
		}
	],
	"buffers":[
		{
			"byteLength":143792,
			"uri":"Statue_Angel_Broken.bin"
		}
	]
}
