{
	"asset":{
		"generator":"Khronos glTF Blender I/O v5.2.40",
		"version":"2.0"
	},
	"scene":0,
	"scenes":[
		{
			"name":"Scene",
			"nodes":[
				3
			]
		}
	],
	"nodes":[
		{
			"mesh":0,
			"name":"Chair_HighBack_Body"
		},
		{
			"mesh":1,
			"name":"Chair_HighBack_Col-colonly"
		},
		{
			"mesh":2,
			"name":"Chair_HighBack_Upholstery"
		},
		{
			"children":[
				0,
				1,
				2
			],
			"name":"Chair_HighBack"
		}
	],
	"materials":[
		{
			"name":"Wood_Polished",
			"normalTexture":{
				"index":0
			},
			"pbrMetallicRoughness":{
				"baseColorTexture":{
					"index":1
				},
				"metallicFactor":0,
				"metallicRoughnessTexture":{
					"index":2
				}
			}
		},
		{
			"name":"Brass_Aged",
			"normalTexture":{
				"index":3
			},
			"pbrMetallicRoughness":{
				"baseColorTexture":{
					"index":4
				},
				"metallicRoughnessTexture":{
					"index":5
				}
			}
		},
		{
			"name":"Jacquard_Red",
			"normalTexture":{
				"index":6
			},
			"pbrMetallicRoughness":{
				"baseColorTexture":{
					"index":7
				},
				"metallicFactor":0,
				"metallicRoughnessTexture":{
					"index":8
				}
			}
		}
	],
	"meshes":[
		{
			"name":"Chair_HighBack_Body",
			"primitives":[
				{
					"attributes":{
						"POSITION":0,
						"NORMAL":1,
						"TEXCOORD_0":2
					},
					"indices":3,
					"material":0
				},
				{
					"attributes":{
						"POSITION":4,
						"NORMAL":5,
						"TEXCOORD_0":6
					},
					"indices":7,
					"material":1
				}
			]
		},
		{
			"name":"Chair_HighBack_Col-colonly",
			"primitives":[
				{
					"attributes":{
						"POSITION":8,
						"NORMAL":9,
						"TEXCOORD_0":10
					},
					"indices":11
				}
			]
		},
		{
			"name":"Chair_HighBack_Upholstery",
			"primitives":[
				{
					"attributes":{
						"POSITION":12,
						"NORMAL":13,
						"TEXCOORD_0":14
					},
					"indices":15,
					"material":2
				}
			]
		}
	],
	"textures":[
		{
			"sampler":0,
			"source":0
		},
		{
			"sampler":0,
			"source":1
		},
		{
			"sampler":0,
			"source":2
		},
		{
			"sampler":0,
			"source":3
		},
		{
			"sampler":0,
			"source":4
		},
		{
			"sampler":0,
			"source":5
		},
		{
			"sampler":0,
			"source":6
		},
		{
			"sampler":0,
			"source":7
		},
		{
			"sampler":0,
			"source":8
		}
	],
	"images":[
		{
			"mimeType":"image/jpeg",
			"name":"wood_polished_normal",
			"uri":"../textures/wood_polished_normal.jpg"
		},
		{
			"mimeType":"image/jpeg",
			"name":"wood_polished_albedo",
			"uri":"../textures/wood_polished_albedo.jpg"
		},
		{
			"mimeType":"image/png",
			"name":"wood_polished_rough",
			"uri":"../textures/wood_polished_rough.png"
		},
		{
			"mimeType":"image/jpeg",
			"name":"brass_normal",
			"uri":"../textures/brass_normal.jpg"
		},
		{
			"mimeType":"image/jpeg",
			"name":"brass_albedo",
			"uri":"../textures/brass_albedo.jpg"
		},
		{
			"mimeType":"image/png",
			"name":"brass_rough",
			"uri":"../textures/brass_rough.png"
		},
		{
			"mimeType":"image/jpeg",
			"name":"jacquard_normal",
			"uri":"../textures/jacquard_normal.jpg"
		},
		{
			"mimeType":"image/jpeg",
			"name":"jacquard_albedo",
			"uri":"../textures/jacquard_albedo.jpg"
		},
		{
			"mimeType":"image/png",
			"name":"jacquard_rough",
			"uri":"../textures/jacquard_rough.png"
		}
	],
	"accessors":[
		{
			"bufferView":0,
			"componentType":5126,
			"count":2978,
			"max":[
				0.25969088077545166,
				1.4300000667572021,
				0.23999999463558197
			],
			"min":[
				-0.25969088077545166,
				0,
				-0.24919085204601288
			],
			"type":"VEC3"
		},
		{
			"bufferView":1,
			"componentType":5126,
			"count":2978,
			"type":"VEC3"
		},
		{
			"bufferView":2,
			"componentType":5126,
			"count":2978,
			"type":"VEC2"
		},
		{
			"bufferView":3,
			"componentType":5123,
			"count":10848,
			"type":"SCALAR"
		},
		{
			"bufferView":4,
			"componentType":5126,
			"count":828,
			"max":[
				0.18570634722709656,
				0.5259999632835388,
				0.24199999868869781
			],
			"min":[
				-0.18570634722709656,
				0.5139999985694885,
				0.23000000417232513
			],
			"type":"VEC3"
		},
		{
			"bufferView":5,
			"componentType":5126,
			"count":828,
			"type":"VEC3"
		},
		{
			"bufferView":6,
			"componentType":5126,
			"count":828,
			"type":"VEC2"
		},
		{
			"bufferView":7,
			"componentType":5123,
			"count":2700,
			"type":"SCALAR"
		},
		{
			"bufferView":8,
			"componentType":5126,
			"count":24,
			"max":[
				0.25999999046325684,
				0.550000011920929,
				0.25
			],
			"min":[
				-0.25999999046325684,
				0,
				-0.25
			],
			"type":"VEC3"
		},
		{
			"bufferView":9,
			"componentType":5126,
			"count":24,
			"type":"VEC3"
		},
		{
			"bufferView":10,
			"componentType":5126,
			"count":24,
			"type":"VEC2"
		},
		{
			"bufferView":11,
			"componentType":5123,
			"count":36,
			"type":"SCALAR"
		},
		{
			"bufferView":12,
			"componentType":5126,
			"count":426,
			"max":[
				0.23499999940395355,
				1.1800000667572021,
				0.23499999940395355
			],
			"min":[
				-0.23499999940395355,
				0.47999998927116394,
				-0.23249998688697815
			],
			"type":"VEC3"
		},
		{
			"bufferView":13,
			"componentType":5126,
			"count":426,
			"type":"VEC3"
		},
		{
			"bufferView":14,
			"componentType":5126,
			"count":426,
			"type":"VEC2"
		},
		{
			"bufferView":15,
			"componentType":5123,
			"count":1800,
			"type":"SCALAR"
		}
	],
	"bufferViews":[
		{
			"buffer":0,
			"byteLength":35736,
			"byteOffset":0,
			"target":34962
		},
		{
			"buffer":0,
			"byteLength":35736,
			"byteOffset":35736,
			"target":34962
		},
		{
			"buffer":0,
			"byteLength":23824,
			"byteOffset":71472,
			"target":34962
		},
		{
			"buffer":0,
			"byteLength":21696,
			"byteOffset":95296,
			"target":34963
		},
		{
			"buffer":0,
			"byteLength":9936,
			"byteOffset":116992,
			"target":34962
		},
		{
			"buffer":0,
			"byteLength":9936,
			"byteOffset":126928,
			"target":34962
		},
		{
			"buffer":0,
			"byteLength":6624,
			"byteOffset":136864,
			"target":34962
		},
		{
			"buffer":0,
			"byteLength":5400,
			"byteOffset":143488,
			"target":34963
		},
		{
			"buffer":0,
			"byteLength":288,
			"byteOffset":148888,
			"target":34962
		},
		{
			"buffer":0,
			"byteLength":288,
			"byteOffset":149176,
			"target":34962
		},
		{
			"buffer":0,
			"byteLength":192,
			"byteOffset":149464,
			"target":34962
		},
		{
			"buffer":0,
			"byteLength":72,
			"byteOffset":149656,
			"target":34963
		},
		{
			"buffer":0,
			"byteLength":5112,
			"byteOffset":149728,
			"target":34962
		},
		{
			"buffer":0,
			"byteLength":5112,
			"byteOffset":154840,
			"target":34962
		},
		{
			"buffer":0,
			"byteLength":3408,
			"byteOffset":159952,
			"target":34962
		},
		{
			"buffer":0,
			"byteLength":3600,
			"byteOffset":163360,
			"target":34963
		}
	],
	"samplers":[
		{
			"magFilter":9729,
			"minFilter":9987
		}
	],
	"buffers":[
		{
			"byteLength":166960,
			"uri":"Chair_HighBack.bin"
		}
	]
}
