{
	"asset":{
		"generator":"Khronos glTF Blender I/O v5.2.40",
		"version":"2.0"
	},
	"scene":0,
	"scenes":[
		{
			"name":"Scene",
			"nodes":[
				6
			]
		}
	],
	"nodes":[
		{
			"mesh":0,
			"name":"Clock_Grandfather_Brass"
		},
		{
			"mesh":1,
			"name":"Clock_Grandfather_Case"
		},
		{
			"mesh":2,
			"name":"Clock_Grandfather_Col-colonly"
		},
		{
			"mesh":3,
			"name":"Clock_Grandfather_Dial"
		},
		{
			"mesh":4,
			"name":"Clock_Grandfather_Glass"
		},
		{
			"mesh":5,
			"name":"Clock_Grandfather_Pendulum",
			"translation":[
				0,
				1.4199999570846558,
				0.05999999865889549
			]
		},
		{
			"children":[
				0,
				1,
				2,
				3,
				4,
				5
			],
			"name":"Clock_Grandfather"
		}
	],
	"materials":[
		{
			"name":"Brass_Aged",
			"normalTexture":{
				"index":0
			},
			"pbrMetallicRoughness":{
				"baseColorTexture":{
					"index":1
				},
				"metallicRoughnessTexture":{
					"index":2
				}
			}
		},
		{
			"name":"Iron_Wrought",
			"normalTexture":{
				"index":3,
				"scale":1.399999976158142
			},
			"pbrMetallicRoughness":{
				"baseColorTexture":{
					"index":4
				},
				"metallicRoughnessTexture":{
					"index":5
				}
			}
		},
		{
			"name":"Wood_Polished",
			"normalTexture":{
				"index":6
			},
			"pbrMetallicRoughness":{
				"baseColorTexture":{
					"index":7
				},
				"metallicFactor":0,
				"metallicRoughnessTexture":{
					"index":8
				}
			}
		},
		{
			"name":"Clock_Dial",
			"pbrMetallicRoughness":{
				"baseColorTexture":{
					"index":9
				},
				"metallicFactor":0,
				"roughnessFactor":0.5
			}
		},
		{
			"alphaMode":"BLEND",
			"doubleSided":true,
			"name":"Glass_Clear",
			"pbrMetallicRoughness":{
				"baseColorFactor":[
					0.5789061188697815,
					0.6462349891662598,
					0.681419312953949,
					0.14000000059604645
				],
				"metallicFactor":0,
				"roughnessFactor":0.03999999910593033
			}
		}
	],
	"meshes":[
		{
			"name":"Clock_Grandfather_Brass",
			"primitives":[
				{
					"attributes":{
						"POSITION":0,
						"NORMAL":1,
						"TEXCOORD_0":2
					},
					"indices":3,
					"material":0
				},
				{
					"attributes":{
						"POSITION":4,
						"NORMAL":5,
						"TEXCOORD_0":6
					},
					"indices":7,
					"material":1
				}
			]
		},
		{
			"name":"Clock_Grandfather_Case",
			"primitives":[
				{
					"attributes":{
						"POSITION":8,
						"NORMAL":9,
						"TEXCOORD_0":10
					},
					"indices":11,
					"material":2
				}
			]
		},
		{
			"name":"Clock_Grandfather_Col-colonly",
			"primitives":[
				{
					"attributes":{
						"POSITION":12,
						"NORMAL":13,
						"TEXCOORD_0":14
					},
					"indices":15
				}
			]
		},
		{
			"name":"Clock_Grandfather_Dial",
			"primitives":[
				{
					"attributes":{
						"POSITION":16,
						"NORMAL":17,
						"TEXCOORD_0":18
					},
					"indices":19,
					"material":3
				}
			]
		},
		{
			"name":"Clock_Grandfather_Glass",
			"primitives":[
				{
					"attributes":{
						"POSITION":20,
						"NORMAL":21,
						"TEXCOORD_0":22
					},
					"indices":23,
					"material":4
				}
			]
		},
		{
			"name":"Clock_Grandfather_Pendulum",
			"primitives":[
				{
					"attributes":{
						"POSITION":24,
						"NORMAL":25,
						"TEXCOORD_0":26
					},
					"indices":27,
					"material":0
				}
			]
		}
	],
	"textures":[
		{
			"sampler":0,
			"source":0
		},
		{
			"sampler":0,
			"source":1
		},
		{
			"sampler":0,
			"source":2
		},
		{
			"sampler":0,
			"source":3
		},
		{
			"sampler":0,
			"source":4
		},
		{
			"sampler":0,
			"source":5
		},
		{
			"sampler":0,
			"source":6
		},
		{
			"sampler":0,
			"source":7
		},
		{
			"sampler":0,
			"source":8
		},
		{
			"sampler":0,
			"source":9
		}
	],
	"images":[
		{
			"mimeType":"image/jpeg",
			"name":"brass_normal",
			"uri":"../textures/brass_normal.jpg"
		},
		{
			"mimeType":"image/jpeg",
			"name":"brass_albedo",
			"uri":"../textures/brass_albedo.jpg"
		},
		{
			"mimeType":"image/png",
			"name":"brass_rough",
			"uri":"../textures/brass_rough.png"
		},
		{
			"mimeType":"image/jpeg",
			"name":"iron_normal",
			"uri":"../textures/iron_normal.jpg"
		},
		{
			"mimeType":"image/jpeg",
			"name":"iron_albedo",
			"uri":"../textures/iron_albedo.jpg"
		},
		{
			"mimeType":"image/png",
			"name":"iron_rough",
			"uri":"../textures/iron_rough.png"
		},
		{
			"mimeType":"image/jpeg",
			"name":"wood_polished_normal",
			"uri":"../textures/wood_polished_normal.jpg"
		},
		{
			"mimeType":"image/jpeg",
			"name":"wood_polished_albedo",
			"uri":"../textures/wood_polished_albedo.jpg"
		},
		{
			"mimeType":"image/png",
			"name":"wood_polished_rough",
			"uri":"../textures/wood_polished_rough.png"
		},
		{
			"mimeType":"image/jpeg",
			"name":"clock_dial_albedo",
			"uri":"../textures/clock_dial_albedo.jpg"
		}
	],
	"accessors":[
		{
			"bufferView":0,
			"componentType":5126,
			"count":1896,
			"max":[
				0.30000001192092896,
				2.320000171661377,
				0.21000000834465027
			],
			"min":[
				-0.30000001192092896,
				1.4980000257492065,
				0.15000000596046448
			],
			"type":"VEC3"
		},
		{
			"bufferView":1,
			"componentType":5126,
			"count":1896,
			"type":"VEC3"
		},
		{
			"bufferView":2,
			"componentType":5126,
			"count":1896,
			"type":"VEC2"
		},
		{
			"bufferView":3,
			"componentType":5123,
			"count":6696,
			"type":"SCALAR"
		},
		{
			"bufferView":4,
			"componentType":5126,
			"count":213,
			"max":[
				0.011577661149203777,
				1.854693055152893,
				0.18200001120567322
			],
			"min":[
				-0.048659685999155045,
				1.6994338035583496,
				0.17800000309944153
			],
			"type":"VEC3"
		},
		{
			"bufferView":5,
			"componentType":5126,
			"count":213,
			"type":"VEC3"
		},
		{
			"bufferView":6,
			"componentType":5126,
			"count":213,
			"type":"VEC2"
		},
		{
			"bufferView":7,
			"componentType":5123,
			"count":648,
			"type":"SCALAR"
		},
		{
			"bufferView":8,
			"componentType":5126,
			"count":1034,
			"max":[
				0.33000001311302185,
				2.199181079864502,
				0.20999999344348907
			],
			"min":[
				-0.33000001311302185,
				0,
				-0.20999999344348907
			],
			"type":"VEC3"
		},
		{
			"bufferView":9,
			"componentType":5126,
			"count":1034,
			"type":"VEC3"
		},
		{
			"bufferView":10,
			"componentType":5126,
			"count":1034,
			"type":"VEC2"
		},
		{
			"bufferView":11,
			"componentType":5123,
			"count":3504,
			"type":"SCALAR"
		},
		{
			"bufferView":12,
			"componentType":5126,
			"count":24,
			"max":[
				0.3100000023841858,
				2.200000047683716,
				0.20000000298023224
			],
			"min":[
				-0.3100000023841858,
				0,
				-0.20000000298023224
			],
			"type":"VEC3"
		},
		{
			"bufferView":13,
			"componentType":5126,
			"count":24,
			"type":"VEC3"
		},
		{
			"bufferView":14,
			"componentType":5126,
			"count":24,
			"type":"VEC2"
		},
		{
			"bufferView":15,
			"componentType":5123,
			"count":36,
			"type":"SCALAR"
		},
		{
			"bufferView":16,
			"componentType":5126,
			"count":48,
			"max":[
				0.20000000298023224,
				1.9199999570846558,
				0.1720000058412552
			],
			"min":[
				-0.20000000298023224,
				1.5199999809265137,
				0.1720000058412552
			],
			"type":"VEC3"
		},
		{
			"bufferView":17,
			"componentType":5126,
			"count":48,
			"type":"VEC3"
		},
		{
			"bufferView":18,
			"componentType":5126,
			"count":48,
			"type":"VEC2"
		},
		{
			"bufferView":19,
			"componentType":5123,
			"count":138,
			"type":"SCALAR"
		},
		{
			"bufferView":20,
			"componentType":5126,
			"count":4,
			"max":[
				0.17000000178813934,
				1.340000033378601,
				0.13500000536441803
			],
			"min":[
				-0.17000000178813934,
				0.46000000834465027,
				0.13500000536441803
			],
			"type":"VEC3"
		},
		{
			"bufferView":21,
			"componentType":5126,
			"count":4,
			"type":"VEC3"
		},
		{
			"bufferView":22,
			"componentType":5126,
			"count":4,
			"type":"VEC2"
		},
		{
			"bufferView":23,
			"componentType":5123,
			"count":6,
			"type":"SCALAR"
		},
		{
			"bufferView":24,
			"componentType":5126,
			"count":624,
			"max":[
				0.07968912273645401,
				1.1920928955078125e-07,
				0.008000005036592484
			],
			"min":[
				-0.07968912273645401,
				-0.7796890139579773,
				-0.008000005036592484
			],
			"type":"VEC3"
		},
		{
			"bufferView":25,
			"componentType":5126,
			"count":624,
			"type":"VEC3"
		},
		{
			"bufferView":26,
			"componentType":5126,
			"count":624,
			"type":"VEC2"
		},
		{
			"bufferView":27,
			"componentType":5123,
			"count":2052,
			"type":"SCALAR"
		}
	],
	"bufferViews":[
		{
			"buffer":0,
			"byteLength":22752,
			"byteOffset":0,
			"target":34962
		},
		{
			"buffer":0,
			"byteLength":22752,
			"byteOffset":22752,
			"target":34962
		},
		{
			"buffer":0,
			"byteLength":15168,
			"byteOffset":45504,
			"target":34962
		},
		{
			"buffer":0,
			"byteLength":13392,
			"byteOffset":60672,
			"target":34963
		},
		{
			"buffer":0,
			"byteLength":2556,
			"byteOffset":74064,
			"target":34962
		},
		{
			"buffer":0,
			"byteLength":2556,
			"byteOffset":76620,
			"target":34962
		},
		{
			"buffer":0,
			"byteLength":1704,
			"byteOffset":79176,
			"target":34962
		},
		{
			"buffer":0,
			"byteLength":1296,
			"byteOffset":80880,
			"target":34963
		},
		{
			"buffer":0,
			"byteLength":12408,
			"byteOffset":82176,
			"target":34962
		},
		{
			"buffer":0,
			"byteLength":12408,
			"byteOffset":94584,
			"target":34962
		},
		{
			"buffer":0,
			"byteLength":8272,
			"byteOffset":106992,
			"target":34962
		},
		{
			"buffer":0,
			"byteLength":7008,
			"byteOffset":115264,
			"target":34963
		},
		{
			"buffer":0,
			"byteLength":288,
			"byteOffset":122272,
			"target":34962
		},
		{
			"buffer":0,
			"byteLength":288,
			"byteOffset":122560,
			"target":34962
		},
		{
			"buffer":0,
			"byteLength":192,
			"byteOffset":122848,
			"target":34962
		},
		{
			"buffer":0,
			"byteLength":72,
			"byteOffset":123040,
			"target":34963
		},
		{
			"buffer":0,
			"byteLength":576,
			"byteOffset":123112,
			"target":34962
		},
		{
			"buffer":0,
			"byteLength":576,
			"byteOffset":123688,
			"target":34962
		},
		{
			"buffer":0,
			"byteLength":384,
			"byteOffset":124264,
			"target":34962
		},
		{
			"buffer":0,
			"byteLength":276,
			"byteOffset":124648,
			"target":34963
		},
		{
			"buffer":0,
			"byteLength":48,
			"byteOffset":124924,
			"target":34962
		},
		{
			"buffer":0,
			"byteLength":48,
			"byteOffset":124972,
			"target":34962
		},
		{
			"buffer":0,
			"byteLength":32,
			"byteOffset":125020,
			"target":34962
		},
		{
			"buffer":0,
			"byteLength":12,
			"byteOffset":125052,
			"target":34963
		},
		{
			"buffer":0,
			"byteLength":7488,
			"byteOffset":125064,
			"target":34962
		},
		{
			"buffer":0,
			"byteLength":7488,
			"byteOffset":132552,
			"target":34962
		},
		{
			"buffer":0,
			"byteLength":4992,
			"byteOffset":140040,
			"target":34962
		},
		{
			"buffer":0,
			"byteLength":4104,
			"byteOffset":145032,
			"target":34963
		}
	],
	"samplers":[
		{
			"magFilter":9729,
			"minFilter":9987
		}
	],
	"buffers":[
		{
			"byteLength":149136,
			"uri":"Clock_Grandfather.bin"
		}
	]
}
