{
	"asset":{
		"generator":"Khronos glTF Blender I/O v5.2.40",
		"version":"2.0"
	},
	"scene":0,
	"scenes":[
		{
			"name":"Scene",
			"nodes":[
				3
			]
		}
	],
	"nodes":[
		{
			"mesh":0,
			"name":"Sideboard_Body"
		},
		{
			"mesh":1,
			"name":"Sideboard_Brass"
		},
		{
			"mesh":2,
			"name":"Sideboard_Col-colonly"
		},
		{
			"children":[
				0,
				1,
				2
			],
			"name":"Sideboard"
		}
	],
	"materials":[
		{
			"name":"Wood_Polished",
			"normalTexture":{
				"index":0
			},
			"pbrMetallicRoughness":{
				"baseColorTexture":{
					"index":1
				},
				"metallicFactor":0,
				"metallicRoughnessTexture":{
					"index":2
				}
			}
		},
		{
			"name":"Brass_Aged",
			"normalTexture":{
				"index":3
			},
			"pbrMetallicRoughness":{
				"baseColorTexture":{
					"index":4
				},
				"metallicRoughnessTexture":{
					"index":5
				}
			}
		},
		{
			"name":"Wick",
			"pbrMetallicRoughness":{
				"baseColorFactor":[
					0.0004463409713935107,
					0.0002988601627293974,
					0.0001829220273066312,
					1
				],
				"metallicFactor":0,
				"roughnessFactor":0.8999999761581421
			}
		}
	],
	"meshes":[
		{
			"name":"Sideboard_Body",
			"primitives":[
				{
					"attributes":{
						"POSITION":0,
						"NORMAL":1,
						"TEXCOORD_0":2
					},
					"indices":3,
					"material":0
				}
			]
		},
		{
			"name":"Sideboard_Brass",
			"primitives":[
				{
					"attributes":{
						"POSITION":4,
						"NORMAL":5,
						"TEXCOORD_0":6
					},
					"indices":7,
					"material":1
				},
				{
					"attributes":{
						"POSITION":8,
						"NORMAL":9,
						"TEXCOORD_0":10
					},
					"indices":11,
					"material":2
				}
			]
		},
		{
			"name":"Sideboard_Col-colonly",
			"primitives":[
				{
					"attributes":{
						"POSITION":12,
						"NORMAL":13,
						"TEXCOORD_0":14
					},
					"indices":15
				}
			]
		}
	],
	"textures":[
		{
			"sampler":0,
			"source":0
		},
		{
			"sampler":0,
			"source":1
		},
		{
			"sampler":0,
			"source":2
		},
		{
			"sampler":0,
			"source":3
		},
		{
			"sampler":0,
			"source":4
		},
		{
			"sampler":0,
			"source":5
		}
	],
	"images":[
		{
			"mimeType":"image/jpeg",
			"name":"wood_polished_normal",
			"uri":"../textures/wood_polished_normal.jpg"
		},
		{
			"mimeType":"image/jpeg",
			"name":"wood_polished_albedo",
			"uri":"../textures/wood_polished_albedo.jpg"
		},
		{
			"mimeType":"image/png",
			"name":"wood_polished_rough",
			"uri":"../textures/wood_polished_rough.png"
		},
		{
			"mimeType":"image/jpeg",
			"name":"brass_normal",
			"uri":"../textures/brass_normal.jpg"
		},
		{
			"mimeType":"image/jpeg",
			"name":"brass_albedo",
			"uri":"../textures/brass_albedo.jpg"
		},
		{
			"mimeType":"image/png",
			"name":"brass_rough",
			"uri":"../textures/brass_rough.png"
		}
	],
	"accessors":[
		{
			"bufferView":0,
			"componentType":5126,
			"count":4794,
			"max":[
				0.8199999928474426,
				1.059999942779541,
				0.2800000011920929
			],
			"min":[
				-0.8199999928474426,
				0,
				-0.2800000011920929
			],
			"type":"VEC3"
		},
		{
			"bufferView":1,
			"componentType":5126,
			"count":4794,
			"type":"VEC3"
		},
		{
			"bufferView":2,
			"componentType":5126,
			"count":4794,
			"type":"VEC2"
		},
		{
			"bufferView":3,
			"componentType":5123,
			"count":17748,
			"type":"SCALAR"
		},
		{
			"bufferView":4,
			"componentType":5126,
			"count":2145,
			"max":[
				0.5137467980384827,
				0.7237467765808105,
				0.28700000047683716
			],
			"min":[
				-0.5137467980384827,
				0.3799999952316284,
				0.25
			],
			"type":"VEC3"
		},
		{
			"bufferView":5,
			"componentType":5126,
			"count":2145,
			"type":"VEC3"
		},
		{
			"bufferView":6,
			"componentType":5126,
			"count":2145,
			"type":"VEC2"
		},
		{
			"bufferView":7,
			"componentType":5123,
			"count":6432,
			"type":"SCALAR"
		},
		{
			"bufferView":8,
			"componentType":5126,
			"count":200,
			"max":[
				0.07199999690055847,
				0.4169999957084656,
				0.25999999046325684
			],
			"min":[
				-0.07199999690055847,
				0.40299999713897705,
				0.2540000081062317
			],
			"type":"VEC3"
		},
		{
			"bufferView":9,
			"componentType":5126,
			"count":200,
			"type":"VEC3"
		},
		{
			"bufferView":10,
			"componentType":5126,
			"count":200,
			"type":"VEC2"
		},
		{
			"bufferView":11,
			"componentType":5123,
			"count":648,
			"type":"SCALAR"
		},
		{
			"bufferView":12,
			"componentType":5126,
			"count":24,
			"max":[
				0.8199999928474426,
				0.8500000238418579,
				0.2800000011920929
			],
			"min":[
				-0.8199999928474426,
				0,
				-0.2800000011920929
			],
			"type":"VEC3"
		},
		{
			"bufferView":13,
			"componentType":5126,
			"count":24,
			"type":"VEC3"
		},
		{
			"bufferView":14,
			"componentType":5126,
			"count":24,
			"type":"VEC2"
		},
		{
			"bufferView":15,
			"componentType":5123,
			"count":36,
			"type":"SCALAR"
		}
	],
	"bufferViews":[
		{
			"buffer":0,
			"byteLength":57528,
			"byteOffset":0,
			"target":34962
		},
		{
			"buffer":0,
			"byteLength":57528,
			"byteOffset":57528,
			"target":34962
		},
		{
			"buffer":0,
			"byteLength":38352,
			"byteOffset":115056,
			"target":34962
		},
		{
			"buffer":0,
			"byteLength":35496,
			"byteOffset":153408,
			"target":34963
		},
		{
			"buffer":0,
			"byteLength":25740,
			"byteOffset":188904,
			"target":34962
		},
		{
			"buffer":0,
			"byteLength":25740,
			"byteOffset":214644,
			"target":34962
		},
		{
			"buffer":0,
			"byteLength":17160,
			"byteOffset":240384,
			"target":34962
		},
		{
			"buffer":0,
			"byteLength":12864,
			"byteOffset":257544,
			"target":34963
		},
		{
			"buffer":0,
			"byteLength":2400,
			"byteOffset":270408,
			"target":34962
		},
		{
			"buffer":0,
			"byteLength":2400,
			"byteOffset":272808,
			"target":34962
		},
		{
			"buffer":0,
			"byteLength":1600,
			"byteOffset":275208,
			"target":34962
		},
		{
			"buffer":0,
			"byteLength":1296,
			"byteOffset":276808,
			"target":34963
		},
		{
			"buffer":0,
			"byteLength":288,
			"byteOffset":278104,
			"target":34962
		},
		{
			"buffer":0,
			"byteLength":288,
			"byteOffset":278392,
			"target":34962
		},
		{
			"buffer":0,
			"byteLength":192,
			"byteOffset":278680,
			"target":34962
		},
		{
			"buffer":0,
			"byteLength":72,
			"byteOffset":278872,
			"target":34963
		}
	],
	"samplers":[
		{
			"magFilter":9729,
			"minFilter":9987
		}
	],
	"buffers":[
		{
			"byteLength":278944,
			"uri":"Sideboard.bin"
		}
	]
}
